<svg width="209" height="294" viewBox="0 0 209 294" fill="none" xmlns="http://www.w3.org/2000/svg">
<g filter="url(#filter0_d_103_80)">
<rect x="15" y="15" width="178.2" height="264" rx="18" fill="black" fill-opacity="0.9" shape-rendering="crispEdges"/>
<rect x="17" y="17" width="174.2" height="260" rx="16" stroke="#FFD28D" stroke-width="4" shape-rendering="crispEdges"/>
</g>
<g filter="url(#filter1_d_103_80)">
<path d="M36.4752 51.9988C36.8958 52.5992 37.3989 53.1945 37.9764 53.7946L37.9816 53.8L37.9869 53.8053C38.2853 54.1093 39.3283 55.096 40.3022 55.9898C42.0524 57.608 43.0065 58.6171 43.5229 59.3953C43.9714 60.0712 44.0565 60.518 44.0165 61.1042C43.97 61.7444 43.72 62.2882 43.2074 62.7763C42.658 63.2988 42.1184 63.5606 41.2865 63.672L41.284 63.6723C40.1827 63.8217 38.8963 63.2299 38.3412 62.3905C38.2669 62.275 38.1821 62.1476 38.0994 62.0417L38.0981 62.0401C38.0683 62.0019 37.9717 61.8781 37.8319 61.7613L37.8289 61.7588C37.7788 61.7168 37.555 61.5293 37.2071 61.4456C37.0444 61.4064 36.8045 61.3784 36.5311 61.4384C36.1616 61.3216 35.8228 61.379 35.6544 61.4276C35.4096 61.4982 35.2438 61.6144 35.1887 61.654C35.0586 61.7476 34.9705 61.8431 34.9451 61.8705L34.9449 61.8708C34.8745 61.9471 34.8174 62.0228 34.7855 62.0662C34.7116 62.1666 34.6323 62.2863 34.5587 62.4048L35.3456 62.8937C35.3448 62.9428 35.3468 62.9782 35.3478 62.9955C35.3479 62.9976 35.348 62.9993 35.3481 63.0008C35.3495 63.0288 35.3517 63.0555 35.3543 63.0806L34.5791 62.7715C34.5805 62.7526 34.5819 62.7376 34.583 62.7271C34.5926 62.6351 34.609 62.568 34.6121 62.5557L34.6123 62.5547C34.617 62.5353 34.6206 62.5235 34.6207 62.5232C34.6207 62.523 34.6191 62.5286 34.6149 62.5413C34.5992 62.5894 34.5715 62.6679 34.5327 62.7736C34.3265 63.2854 34.0597 63.7202 33.7373 64.0817L33.4148 63.3501C33.4142 63.3504 33.4136 63.3507 33.413 63.3509M36.4752 51.9988C36.137 51.5161 35.8521 51.0301 35.6246 50.5355C35.4583 50.8279 35.2685 51.1188 35.0568 51.4038M36.4752 51.9988C36.4059 52.0995 36.3346 52.199 36.2615 52.2974M36.4752 51.9988L31.8722 56.801M33.413 63.3509C33.4125 63.3511 33.4121 63.3513 33.4116 63.3515L33.7361 64.083C33.3613 64.5028 32.9113 64.8235 32.3941 65.0508C32.2965 65.0935 32.1887 65.1358 32.0766 65.1759C32.036 65.1766 31.9948 65.1769 31.9528 65.1769M33.413 63.3509C32.8213 63.6116 32.4983 63.6765 31.9573 63.6769M33.413 63.3509C33.5859 63.274 33.8323 63.119 34.0802 62.9101C34.3341 62.6961 34.4969 62.5038 34.5604 62.402L35.3457 62.8922L31.9573 63.6769M31.9528 65.1769C30.9092 65.1709 29.9526 64.868 29.1297 64.2744C27.6714 63.2327 27.0091 61.3187 27.5777 59.7803C27.9992 58.6295 28.8621 57.5575 30.849 55.7041M31.9528 65.1769V63.6769C31.9543 63.6769 31.9558 63.6769 31.9573 63.6769M31.9528 65.1769L31.9615 63.6769C31.9601 63.6769 31.9587 63.6769 31.9573 63.6769M30.849 55.7041C33.6051 53.136 34.3076 52.4153 35.0568 51.4038M30.849 55.7041L31.8722 56.801M30.849 55.7041L31.8715 56.8015M35.0568 51.4038L36.2621 52.2966C36.2619 52.2969 36.2617 52.2972 36.2615 52.2974M35.0568 51.4038L36.261 52.2982C36.2612 52.298 36.2614 52.2977 36.2615 52.2974M36.2615 52.2974C35.4174 53.4369 34.6117 54.2484 31.8722 56.801M31.8722 56.801L31.8715 56.8015M31.8715 56.8015C29.8948 58.6455 29.2746 59.5087 28.9862 60.2962L28.9862 60.2962L28.9847 60.3004C28.68 61.1248 29.0215 62.3538 30.0016 63.0539L30.0016 63.0539L30.0073 63.0579C30.5648 63.4601 31.2134 63.6718 31.9573 63.6769M31.8715 56.8015L31.9573 63.6769M38.2935 62.5449C38.2935 62.5449 38.294 62.5464 38.295 62.5495C38.294 62.5464 38.2935 62.5448 38.2935 62.5449ZM36.4391 65.5C36.4553 65.5 36.4715 65.5 36.4878 65.5C36.4796 65.4887 36.4714 65.4774 36.4633 65.466C36.4553 65.4774 36.4472 65.4887 36.4391 65.5Z" stroke="#FFD28D" stroke-width="3" shape-rendering="crispEdges"/>
</g>
<g filter="url(#filter2_d_103_80)">
<path d="M71.3656 119.097C71.871 118.676 72.2532 118.253 72.4498 117.943C72.5698 117.752 72.693 117.57 72.8006 117.425C72.8495 117.36 72.9212 117.267 73.0028 117.18C73.0334 117.147 73.1265 117.048 73.2607 116.953C73.3179 116.912 73.4843 116.797 73.7282 116.728C73.9386 116.668 74.4206 116.593 74.895 116.87C74.9218 116.858 74.9493 116.846 74.9775 116.835C75.3427 116.692 75.6727 116.723 75.879 116.772C76.2284 116.855 76.4553 117.043 76.5093 117.087L76.5118 117.09C76.6632 117.214 76.7731 117.352 76.8168 117.408C76.931 117.552 77.0594 117.741 77.1889 117.94C78.4222 119.788 81.1521 121.011 83.5402 120.691L83.5426 120.691C85.2523 120.465 86.4394 119.904 87.5978 118.816C88.7084 117.772 89.2795 116.562 89.3821 115.16C89.4706 113.886 89.2527 112.862 88.3216 111.477C87.3212 109.989 85.5335 108.14 82.4337 105.311C80.7052 103.745 78.8763 102.036 78.3708 101.528L78.3656 101.523L78.3603 101.517C76.8536 99.9717 75.6773 98.4814 74.8453 96.9843C74.4713 97.6753 74.0334 98.3543 73.5422 99.0073C72.118 100.905 70.7687 102.257 65.8995 106.736C62.3859 109.971 61.1023 111.638 60.4907 113.287L60.4891 113.291C59.7527 115.258 60.593 117.918 62.7001 119.404L62.7001 119.404L62.7057 119.408C63.8993 120.258 65.2897 120.7 66.8445 120.709C67.9833 120.709 68.7166 120.557 69.9042 120.04C70.3364 119.85 70.8661 119.512 71.3656 119.097ZM77.4559 123.899C76.3901 122.971 75.5113 121.838 74.8306 120.512C74.1634 121.828 73.2943 122.964 72.2413 123.897C73.0886 123.899 73.9817 123.9 74.9043 123.9C75.786 123.9 76.6414 123.9 77.4559 123.899Z" stroke="#FFD28D" stroke-width="3" shape-rendering="crispEdges"/>
</g>
<g filter="url(#filter3_d_103_80)">
<path d="M101.066 155.097C101.571 154.676 101.953 154.253 102.15 153.943C102.27 153.752 102.393 153.57 102.501 153.425C102.55 153.36 102.621 153.267 102.703 153.18C102.734 153.147 102.827 153.048 102.961 152.953C103.018 152.912 103.184 152.797 103.428 152.728C103.639 152.668 104.121 152.593 104.595 152.87C104.622 152.858 104.649 152.846 104.678 152.835C105.043 152.692 105.373 152.723 105.579 152.772C105.928 152.855 106.155 153.043 106.209 153.087L106.212 153.09C106.363 153.214 106.473 153.352 106.517 153.408C106.631 153.552 106.759 153.741 106.889 153.94C108.122 155.788 110.852 157.011 113.24 156.691L113.243 156.691C114.952 156.465 116.14 155.904 117.298 154.816C118.408 153.772 118.98 152.562 119.082 151.16C119.171 149.886 118.953 148.862 118.022 147.477C117.021 145.989 115.234 144.14 112.134 141.311C110.405 139.745 108.576 138.036 108.071 137.528L108.066 137.523L108.06 137.517C106.554 135.972 105.377 134.481 104.545 132.984C104.171 133.675 103.733 134.354 103.242 135.007C101.818 136.905 100.469 138.257 95.5996 142.736C92.086 145.971 90.8024 147.638 90.1908 149.287L90.1892 149.291C89.4528 151.258 90.293 153.918 92.4002 155.404L92.4002 155.404L92.4058 155.408C93.5994 156.258 94.9898 156.7 96.5446 156.709C97.6834 156.709 98.4167 156.557 99.6043 156.04C100.036 155.85 100.566 155.512 101.066 155.097ZM107.156 159.899C106.09 158.971 105.211 157.838 104.531 156.512C103.863 157.828 102.994 158.964 101.941 159.897C102.789 159.899 103.682 159.9 104.604 159.9C105.486 159.9 106.341 159.9 107.156 159.899Z" stroke="#FFD28D" stroke-width="3" shape-rendering="crispEdges"/>
</g>
<g filter="url(#filter4_d_103_80)">
<path d="M129.116 119.097C129.621 118.676 130.003 118.253 130.2 117.943C130.32 117.752 130.443 117.57 130.551 117.425C130.599 117.36 130.671 117.267 130.753 117.18C130.783 117.147 130.876 117.048 131.011 116.953C131.068 116.912 131.234 116.797 131.478 116.728C131.689 116.668 132.171 116.593 132.645 116.87C132.672 116.858 132.699 116.846 132.728 116.835C133.093 116.692 133.423 116.723 133.629 116.772C133.978 116.855 134.205 117.043 134.259 117.087L134.262 117.09C134.413 117.214 134.523 117.352 134.567 117.408C134.681 117.552 134.809 117.741 134.939 117.94C136.172 119.788 138.902 121.011 141.29 120.691L141.293 120.691C143.002 120.465 144.189 119.904 145.348 118.816C146.458 117.772 147.029 116.562 147.132 115.16C147.221 113.886 147.003 112.862 146.072 111.477C145.071 109.989 143.284 108.14 140.184 105.311C138.455 103.745 136.626 102.036 136.121 101.528L136.116 101.523L136.11 101.517C134.604 99.9717 133.427 98.4814 132.595 96.9843C132.221 97.6753 131.783 98.3543 131.292 99.0073C129.868 100.905 128.519 102.257 123.65 106.736C120.136 109.971 118.852 111.638 118.241 113.287L118.239 113.291C117.503 115.258 118.343 117.918 120.45 119.404L120.45 119.404L120.456 119.408C121.649 120.258 123.04 120.7 124.595 120.709C125.733 120.709 126.467 120.557 127.654 120.04C128.086 119.85 128.616 119.512 129.116 119.097ZM135.206 123.899C134.14 122.971 133.261 121.838 132.581 120.512C131.913 121.828 131.044 122.964 129.991 123.897C130.839 123.899 131.732 123.9 132.654 123.9C133.536 123.9 134.391 123.9 135.206 123.899Z" stroke="#FFD28D" stroke-width="3" shape-rendering="crispEdges"/>
</g>
<g filter="url(#filter5_d_103_80)">
<path d="M136.009 174.903C135.504 175.323 135.122 175.746 134.925 176.057C134.805 176.247 134.682 176.43 134.574 176.574C134.526 176.64 134.454 176.733 134.372 176.82C134.342 176.853 134.249 176.952 134.114 177.047C134.057 177.088 133.891 177.203 133.647 177.272C133.436 177.332 132.954 177.407 132.48 177.13C132.453 177.142 132.426 177.154 132.397 177.165C132.032 177.308 131.702 177.276 131.496 177.227C131.147 177.144 130.92 176.957 130.866 176.912L130.863 176.91C130.712 176.785 130.602 176.647 130.558 176.592C130.444 176.448 130.316 176.259 130.186 176.06C128.953 174.212 126.223 172.989 123.835 173.309L123.832 173.309C122.123 173.535 120.936 174.095 119.777 175.183C118.667 176.227 118.096 177.437 117.993 178.839C117.904 180.114 118.122 181.137 119.053 182.523C120.054 184.011 121.841 185.86 124.941 188.689C126.67 190.255 128.499 191.964 129.004 192.472L129.009 192.477L129.015 192.482C130.521 194.028 131.698 195.518 132.53 197.015C132.904 196.324 133.342 195.645 133.833 194.992C135.257 193.095 136.606 191.743 141.475 187.264C144.989 184.029 146.273 182.361 146.884 180.713L146.886 180.708C147.622 178.742 146.782 176.081 144.675 174.595L144.675 174.595L144.669 174.591C143.476 173.741 142.085 173.3 140.53 173.29C139.392 173.291 138.658 173.443 137.471 173.96C137.039 174.149 136.509 174.487 136.009 174.903ZM129.919 170.101C130.985 171.029 131.864 172.162 132.544 173.487C133.212 172.172 134.081 171.035 135.134 170.103C134.286 170.101 133.393 170.1 132.471 170.1C131.589 170.1 130.734 170.1 129.919 170.101Z" stroke="#FFD28D" stroke-width="3" shape-rendering="crispEdges"/>
</g>
<g filter="url(#filter6_d_103_80)">
<path d="M79.9094 174.903C79.4041 175.323 79.0218 175.746 78.8252 176.057C78.7052 176.247 78.582 176.43 78.4744 176.574C78.4255 176.64 78.3538 176.733 78.2723 176.82C78.2416 176.853 78.1486 176.952 78.0143 177.047C77.9572 177.088 77.7907 177.203 77.5469 177.272C77.3364 177.332 76.8545 177.407 76.38 177.13C76.3532 177.142 76.3258 177.154 76.2975 177.165C75.9323 177.308 75.6023 177.276 75.396 177.227C75.0467 177.144 74.8197 176.957 74.7658 176.912L74.7632 176.91C74.6119 176.785 74.5019 176.647 74.4582 176.592C74.3441 176.448 74.2156 176.259 74.0861 176.06C72.8528 174.212 70.123 172.989 67.7349 173.309L67.7324 173.309C66.0227 173.535 64.8356 174.095 63.6773 175.183C62.5666 176.227 61.9956 177.437 61.8929 178.839C61.8044 180.114 62.0223 181.137 62.9535 182.523C63.9538 184.011 65.7415 185.86 68.8414 188.689C70.5698 190.255 72.3988 191.964 72.9042 192.472L72.9095 192.477L72.9147 192.482C74.4214 194.028 75.5977 195.518 76.4297 197.015C76.8037 196.324 77.2416 195.645 77.7328 194.992C79.1571 193.095 80.5063 191.743 85.3755 187.264C88.8891 184.029 90.1727 182.361 90.7843 180.713L90.7859 180.708C91.5223 178.742 90.6821 176.081 88.5749 174.595L88.5749 174.595L88.5693 174.591C87.3757 173.741 85.9853 173.3 84.4305 173.29C83.2917 173.291 82.5584 173.443 81.3708 173.96C80.9387 174.149 80.4089 174.487 79.9094 174.903ZM73.8191 170.101C74.8849 171.029 75.7638 172.162 76.4444 173.487C77.1116 172.172 77.9807 171.035 79.0337 170.103C78.1865 170.101 77.2933 170.1 76.3708 170.1C75.489 170.1 74.6336 170.1 73.8191 170.101Z" stroke="#FFD28D" stroke-width="3" shape-rendering="crispEdges"/>
</g>
<g filter="url(#filter7_d_103_80)">
<path d="M42.225 36.3148C42.225 37.1351 42.0804 37.8734 41.7914 38.5297C41.5023 39.1859 41.1156 39.7406 40.6312 40.1937C40.1469 40.6469 39.5844 40.9945 38.9437 41.2367C38.3109 41.4789 37.6469 41.6 36.9515 41.6H30.1781V38.2367H36.9515C37.1781 38.2367 37.4047 38.2015 37.6312 38.1312C37.8656 38.0609 38.0726 37.9476 38.2523 37.7914C38.4398 37.6351 38.5883 37.4359 38.6976 37.1937C38.8148 36.9515 38.8734 36.6586 38.8734 36.3148C38.8734 36.0023 38.8148 35.7289 38.6976 35.4945C38.5883 35.2523 38.4398 35.0531 38.2523 34.8969C38.0726 34.7328 37.8656 34.6117 37.6312 34.5336C37.4047 34.4476 37.1781 34.4047 36.9515 34.4047H30.1781L31.1625 24.7953H41.5336V28.1586H34.1859L33.8812 31.0414H36.9515C37.6469 31.0414 38.3109 31.1625 38.9437 31.4047C39.5844 31.6469 40.1469 31.9984 40.6312 32.4594C41.1156 32.9125 41.5023 33.4672 41.7914 34.1234C42.0804 34.7719 42.225 35.5023 42.225 36.3148Z" fill="#FFD28D"/>
</g>
<g filter="url(#filter8_d_103_80)">
<path d="M169.25 239.601C168.829 239.001 168.326 238.406 167.749 237.805L167.743 237.8L167.738 237.795C167.44 237.491 166.397 236.504 165.423 235.61C163.673 233.992 162.719 232.983 162.202 232.205C161.754 231.529 161.668 231.082 161.708 230.496C161.755 229.856 162.005 229.312 162.518 228.824C163.067 228.301 163.607 228.039 164.438 227.928L164.441 227.928C165.542 227.778 166.829 228.37 167.384 229.209C167.458 229.325 167.543 229.452 167.626 229.558L167.627 229.56C167.657 229.598 167.753 229.722 167.893 229.839L167.896 229.841C167.946 229.883 168.17 230.071 168.518 230.154C168.681 230.194 168.921 230.222 169.194 230.162C169.563 230.278 169.902 230.221 170.071 230.172C170.315 230.102 170.481 229.986 170.536 229.946C170.666 229.852 170.754 229.757 170.78 229.729L170.78 229.729C170.85 229.653 170.908 229.577 170.939 229.534C171.013 229.433 171.093 229.314 171.166 229.195L170.379 228.706C170.38 228.657 170.378 228.622 170.377 228.604C170.377 228.602 170.377 228.601 170.377 228.599C170.375 228.571 170.373 228.544 170.371 228.519L171.146 228.828C171.145 228.847 171.143 228.862 171.142 228.873C171.132 228.965 171.116 229.032 171.113 229.044L171.113 229.045C171.108 229.065 171.104 229.076 171.104 229.077C171.104 229.077 171.106 229.071 171.11 229.059C171.126 229.011 171.153 228.932 171.192 228.826C171.398 228.315 171.665 227.88 171.988 227.518L172.31 228.25C172.311 228.25 172.311 228.249 172.312 228.249M169.25 239.601C169.588 240.084 169.873 240.57 170.1 241.064C170.267 240.772 170.457 240.481 170.668 240.196M169.25 239.601C169.319 239.501 169.39 239.401 169.463 239.303M169.25 239.601L173.853 234.799M172.312 228.249C172.312 228.249 172.313 228.249 172.313 228.248L171.989 227.517C172.364 227.097 172.814 226.776 173.331 226.549C173.428 226.506 173.536 226.464 173.648 226.424C173.689 226.423 173.73 226.423 173.772 226.423M172.312 228.249C172.904 227.988 173.227 227.923 173.768 227.923M172.312 228.249C172.139 228.326 171.893 228.481 171.645 228.69C171.391 228.904 171.228 229.096 171.165 229.198L170.379 228.708L173.768 227.923M173.772 226.423C174.816 226.429 175.772 226.732 176.595 227.326C178.054 228.367 178.716 230.281 178.147 231.82C177.726 232.97 176.863 234.042 174.876 235.896M173.772 226.423L173.772 227.923C173.771 227.923 173.769 227.923 173.768 227.923M173.772 226.423L173.763 227.923C173.765 227.923 173.766 227.923 173.768 227.923M174.876 235.896C172.12 238.464 171.417 239.185 170.668 240.196M174.876 235.896L173.853 234.799M174.876 235.896L173.853 234.798M170.668 240.196L169.463 239.303C169.463 239.303 169.463 239.303 169.463 239.303M170.668 240.196L169.464 239.302C169.464 239.302 169.464 239.302 169.463 239.303M169.463 239.303C170.308 238.163 171.113 237.352 173.853 234.799M173.853 234.799L173.853 234.798M173.853 234.798C175.83 232.954 176.45 232.091 176.739 231.304L176.739 231.304L176.74 231.3C177.045 230.475 176.703 229.246 175.723 228.546L175.723 228.546L175.718 228.542C175.16 228.14 174.512 227.928 173.768 227.923M173.853 234.798L173.768 227.923M167.431 229.055C167.431 229.055 167.431 229.054 167.43 229.05C167.431 229.054 167.432 229.055 167.431 229.055ZM169.286 226.1C169.27 226.1 169.253 226.1 169.237 226.1C169.245 226.111 169.254 226.123 169.262 226.134C169.27 226.123 169.278 226.111 169.286 226.1Z" stroke="#FFD28D" stroke-width="3" shape-rendering="crispEdges"/>
</g>
<g filter="url(#filter9_d_103_80)">
<path d="M163.5 255.285C163.5 254.465 163.645 253.727 163.934 253.07C164.223 252.414 164.609 251.859 165.094 251.406C165.578 250.953 166.141 250.605 166.781 250.363C167.414 250.121 168.078 250 168.773 250L175.547 250L175.547 253.363L168.773 253.363C168.547 253.363 168.32 253.398 168.094 253.469C167.859 253.539 167.652 253.652 167.473 253.809C167.285 253.965 167.137 254.164 167.027 254.406C166.91 254.648 166.852 254.941 166.852 255.285C166.852 255.598 166.91 255.871 167.027 256.105C167.137 256.348 167.285 256.547 167.473 256.703C167.652 256.867 167.859 256.988 168.094 257.066C168.32 257.152 168.547 257.195 168.773 257.195L175.547 257.195L174.563 266.805L164.191 266.805L164.191 263.441L171.539 263.441L171.844 260.559L168.773 260.559C168.078 260.559 167.414 260.437 166.781 260.195C166.141 259.953 165.578 259.602 165.094 259.141C164.609 258.687 164.223 258.133 163.934 257.477C163.645 256.828 163.5 256.098 163.5 255.285Z" fill="#FFD28D"/>
</g>
<defs>
<filter id="filter0_d_103_80" x="0" y="0" width="208.2" height="294" filterUnits="userSpaceOnUse" color-interpolation-filters="sRGB">
<feFlood flood-opacity="0" result="BackgroundImageFix"/>
<feColorMatrix in="SourceAlpha" type="matrix" values="0 0 0 0 0 0 0 0 0 0 0 0 0 0 0 0 0 0 127 0" result="hardAlpha"/>
<feOffset/>
<feGaussianBlur stdDeviation="7.5"/>
<feComposite in2="hardAlpha" operator="out"/>
<feColorMatrix type="matrix" values="0 0 0 0 0.995833 0 0 0 0 0.434515 0 0 0 0 0.257257 0 0 0 1 0"/>
<feBlend mode="normal" in2="BackgroundImageFix" result="effect1_dropShadow_103_80"/>
<feBlend mode="normal" in="SourceGraphic" in2="effect1_dropShadow_103_80" result="shape"/>
</filter>
<filter id="filter1_d_103_80" x="12.375" y="32.8" width="48.15" height="49.2" filterUnits="userSpaceOnUse" color-interpolation-filters="sRGB">
<feFlood flood-opacity="0" result="BackgroundImageFix"/>
<feColorMatrix in="SourceAlpha" type="matrix" values="0 0 0 0 0 0 0 0 0 0 0 0 0 0 0 0 0 0 127 0" result="hardAlpha"/>
<feOffset/>
<feGaussianBlur stdDeviation="7.5"/>
<feComposite in2="hardAlpha" operator="out"/>
<feColorMatrix type="matrix" values="0 0 0 0 0.995833 0 0 0 0 0.434515 0 0 0 0 0.257257 0 0 0 1 0"/>
<feBlend mode="normal" in2="BackgroundImageFix" result="effect1_dropShadow_103_80"/>
<feBlend mode="normal" in="SourceGraphic" in2="effect1_dropShadow_103_80" result="shape"/>
</filter>
<filter id="filter2_d_103_80" x="43.725" y="76.7999" width="62.175" height="63.6" filterUnits="userSpaceOnUse" color-interpolation-filters="sRGB">
<feFlood flood-opacity="0" result="BackgroundImageFix"/>
<feColorMatrix in="SourceAlpha" type="matrix" values="0 0 0 0 0 0 0 0 0 0 0 0 0 0 0 0 0 0 127 0" result="hardAlpha"/>
<feOffset/>
<feGaussianBlur stdDeviation="7.5"/>
<feComposite in2="hardAlpha" operator="out"/>
<feColorMatrix type="matrix" values="0 0 0 0 0.995833 0 0 0 0 0.434515 0 0 0 0 0.257257 0 0 0 1 0"/>
<feBlend mode="normal" in2="BackgroundImageFix" result="effect1_dropShadow_103_80"/>
<feBlend mode="normal" in="SourceGraphic" in2="effect1_dropShadow_103_80" result="shape"/>
</filter>
<filter id="filter3_d_103_80" x="73.425" y="112.8" width="62.175" height="63.6" filterUnits="userSpaceOnUse" color-interpolation-filters="sRGB">
<feFlood flood-opacity="0" result="BackgroundImageFix"/>
<feColorMatrix in="SourceAlpha" type="matrix" values="0 0 0 0 0 0 0 0 0 0 0 0 0 0 0 0 0 0 127 0" result="hardAlpha"/>
<feOffset/>
<feGaussianBlur stdDeviation="7.5"/>
<feComposite in2="hardAlpha" operator="out"/>
<feColorMatrix type="matrix" values="0 0 0 0 0.995833 0 0 0 0 0.434515 0 0 0 0 0.257257 0 0 0 1 0"/>
<feBlend mode="normal" in2="BackgroundImageFix" result="effect1_dropShadow_103_80"/>
<feBlend mode="normal" in="SourceGraphic" in2="effect1_dropShadow_103_80" result="shape"/>
</filter>
<filter id="filter4_d_103_80" x="101.475" y="76.7999" width="62.175" height="63.6" filterUnits="userSpaceOnUse" color-interpolation-filters="sRGB">
<feFlood flood-opacity="0" result="BackgroundImageFix"/>
<feColorMatrix in="SourceAlpha" type="matrix" values="0 0 0 0 0 0 0 0 0 0 0 0 0 0 0 0 0 0 127 0" result="hardAlpha"/>
<feOffset/>
<feGaussianBlur stdDeviation="7.5"/>
<feComposite in2="hardAlpha" operator="out"/>
<feColorMatrix type="matrix" values="0 0 0 0 0.995833 0 0 0 0 0.434515 0 0 0 0 0.257257 0 0 0 1 0"/>
<feBlend mode="normal" in2="BackgroundImageFix" result="effect1_dropShadow_103_80"/>
<feBlend mode="normal" in="SourceGraphic" in2="effect1_dropShadow_103_80" result="shape"/>
</filter>
<filter id="filter5_d_103_80" x="101.475" y="153.6" width="62.175" height="63.6" filterUnits="userSpaceOnUse" color-interpolation-filters="sRGB">
<feFlood flood-opacity="0" result="BackgroundImageFix"/>
<feColorMatrix in="SourceAlpha" type="matrix" values="0 0 0 0 0 0 0 0 0 0 0 0 0 0 0 0 0 0 127 0" result="hardAlpha"/>
<feOffset/>
<feGaussianBlur stdDeviation="7.5"/>
<feComposite in2="hardAlpha" operator="out"/>
<feColorMatrix type="matrix" values="0 0 0 0 0.995833 0 0 0 0 0.434515 0 0 0 0 0.257257 0 0 0 1 0"/>
<feBlend mode="normal" in2="BackgroundImageFix" result="effect1_dropShadow_103_80"/>
<feBlend mode="normal" in="SourceGraphic" in2="effect1_dropShadow_103_80" result="shape"/>
</filter>
<filter id="filter6_d_103_80" x="45.3751" y="153.6" width="62.175" height="63.6" filterUnits="userSpaceOnUse" color-interpolation-filters="sRGB">
<feFlood flood-opacity="0" result="BackgroundImageFix"/>
<feColorMatrix in="SourceAlpha" type="matrix" values="0 0 0 0 0 0 0 0 0 0 0 0 0 0 0 0 0 0 127 0" result="hardAlpha"/>
<feOffset/>
<feGaussianBlur stdDeviation="7.5"/>
<feComposite in2="hardAlpha" operator="out"/>
<feColorMatrix type="matrix" values="0 0 0 0 0.995833 0 0 0 0 0.434515 0 0 0 0 0.257257 0 0 0 1 0"/>
<feBlend mode="normal" in2="BackgroundImageFix" result="effect1_dropShadow_103_80"/>
<feBlend mode="normal" in="SourceGraphic" in2="effect1_dropShadow_103_80" result="shape"/>
</filter>
<filter id="filter7_d_103_80" x="15.1781" y="9.79529" width="42.0469" height="46.8047" filterUnits="userSpaceOnUse" color-interpolation-filters="sRGB">
<feFlood flood-opacity="0" result="BackgroundImageFix"/>
<feColorMatrix in="SourceAlpha" type="matrix" values="0 0 0 0 0 0 0 0 0 0 0 0 0 0 0 0 0 0 127 0" result="hardAlpha"/>
<feOffset/>
<feGaussianBlur stdDeviation="7.5"/>
<feComposite in2="hardAlpha" operator="out"/>
<feColorMatrix type="matrix" values="0 0 0 0 0.995833 0 0 0 0 0.434515 0 0 0 0 0.257257 0 0 0 1 0"/>
<feBlend mode="normal" in2="BackgroundImageFix" result="effect1_dropShadow_103_80"/>
<feBlend mode="normal" in="SourceGraphic" in2="effect1_dropShadow_103_80" result="shape"/>
</filter>
<filter id="filter8_d_103_80" x="145.2" y="209.6" width="48.15" height="49.2" filterUnits="userSpaceOnUse" color-interpolation-filters="sRGB">
<feFlood flood-opacity="0" result="BackgroundImageFix"/>
<feColorMatrix in="SourceAlpha" type="matrix" values="0 0 0 0 0 0 0 0 0 0 0 0 0 0 0 0 0 0 127 0" result="hardAlpha"/>
<feOffset/>
<feGaussianBlur stdDeviation="7.5"/>
<feComposite in2="hardAlpha" operator="out"/>
<feColorMatrix type="matrix" values="0 0 0 0 0.995833 0 0 0 0 0.434515 0 0 0 0 0.257257 0 0 0 1 0"/>
<feBlend mode="normal" in2="BackgroundImageFix" result="effect1_dropShadow_103_80"/>
<feBlend mode="normal" in="SourceGraphic" in2="effect1_dropShadow_103_80" result="shape"/>
</filter>
<filter id="filter9_d_103_80" x="148.5" y="235" width="42.0469" height="46.8047" filterUnits="userSpaceOnUse" color-interpolation-filters="sRGB">
<feFlood flood-opacity="0" result="BackgroundImageFix"/>
<feColorMatrix in="SourceAlpha" type="matrix" values="0 0 0 0 0 0 0 0 0 0 0 0 0 0 0 0 0 0 127 0" result="hardAlpha"/>
<feOffset/>
<feGaussianBlur stdDeviation="7.5"/>
<feComposite in2="hardAlpha" operator="out"/>
<feColorMatrix type="matrix" values="0 0 0 0 0.995833 0 0 0 0 0.434515 0 0 0 0 0.257257 0 0 0 1 0"/>
<feBlend mode="normal" in2="BackgroundImageFix" result="effect1_dropShadow_103_80"/>
<feBlend mode="normal" in="SourceGraphic" in2="effect1_dropShadow_103_80" result="shape"/>
</filter>
</defs>
</svg>
