<svg width="84" height="126" viewBox="0 0 84 126" fill="none" xmlns="http://www.w3.org/2000/svg">
<rect x="8.5" y="11.5" width="65.6199" height="101" rx="9.5" fill="black" fill-opacity="0.9" stroke="#666666"/>
<g filter="url(#filter0_d_89_1357)">
<path d="M30.2829 42.5606C30.5917 43.1626 31.0445 43.7639 31.6389 44.3926L31.6423 44.3962L31.6423 44.3962C31.8302 44.591 32.514 45.2499 33.1615 45.8549C34.3219 46.9471 34.9976 47.6665 35.3779 48.25C35.7363 48.7998 35.824 49.2152 35.7893 49.7294C35.7492 50.2959 35.5245 50.7827 35.0964 51.1977C34.6518 51.6284 34.196 51.849 33.5469 51.9375L33.5461 51.9376C32.6376 52.063 31.5923 51.5859 31.1135 50.8457C31.0652 50.7691 31.0186 50.6986 30.9781 50.6457C30.9623 50.6252 30.925 50.577 30.8742 50.5338L30.8732 50.533C30.8553 50.5177 30.7787 50.4524 30.6599 50.4233C30.5889 50.4059 30.4754 50.395 30.3507 50.4453C30.3326 50.4526 30.3155 50.4607 30.2993 50.4694C30.1324 50.3561 29.9551 50.3829 29.8782 50.4055C29.7951 50.4298 29.7388 50.47 29.72 50.4838C29.6751 50.5167 29.6439 50.5508 29.6335 50.5624C29.6057 50.5931 29.5807 50.6263 29.563 50.6508C29.5242 50.7044 29.4793 50.7731 29.435 50.8456M30.2829 42.5606C30.1763 42.3527 30.0868 42.1446 30.0146 41.9353C29.8585 42.3355 29.6324 42.7442 29.3463 43.1363M30.2829 42.5606C30.1345 42.8574 29.9552 43.1501 29.7502 43.431M30.2829 42.5606L26.897 46.4053M29.435 50.8456C29.4349 50.8458 29.4348 50.8459 29.4347 50.8461L29.5028 50.8877C29.4909 50.9222 29.4766 50.9628 29.4602 51.008C29.3029 51.4078 29.0963 51.7528 28.8445 52.0421C28.7814 52.0783 28.7189 52.1106 28.6579 52.1382C28.1472 52.3674 27.7963 52.4452 27.2856 52.4452M29.435 50.8456C29.3556 50.975 29.2064 51.144 29.0141 51.3089C28.8235 51.4724 28.6203 51.6064 28.4526 51.6823C28.0015 51.8847 27.7203 51.945 27.2871 51.9452M29.435 50.8456C29.4351 50.8455 29.4352 50.8453 29.4353 50.8452L29.5031 50.8868L27.2871 51.9452M27.2856 52.4452C26.5927 52.4411 25.9576 52.2364 25.4113 51.8352C24.4431 51.1311 24.0034 49.8375 24.3809 48.7978C24.6607 48.02 25.2337 47.2954 26.5527 46.0427M27.2856 52.4452V51.9452C27.2861 51.9452 27.2866 51.9452 27.2871 51.9452M27.2856 52.4452L27.2885 51.9452C27.288 51.9452 27.2875 51.9452 27.2871 51.9452M26.5527 46.0427C28.3826 44.307 28.8489 43.8199 29.3463 43.1363M26.5527 46.0427L26.897 46.4053M26.5527 46.0427L26.8968 46.4055M29.3463 43.1363L29.7506 43.4304C29.7505 43.4306 29.7504 43.4308 29.7502 43.431M29.3463 43.1363L29.7502 43.431M29.7502 43.431C29.2217 44.1573 28.7212 44.675 26.897 46.4053M26.897 46.4053L26.8968 46.4055M26.8968 46.4055C25.5816 47.6545 25.088 48.3094 24.8514 48.967L24.8509 48.9684C24.5579 49.7754 24.8965 50.8426 25.7054 51.4309L25.7054 51.4309L25.7073 51.4322C26.165 51.7683 26.6962 51.9414 27.2871 51.9452M26.8968 46.4055L27.2871 51.9452M30.2505 40.9935L30.2511 40.9874C30.2545 40.9519 30.3063 40.9516 30.3101 40.9871C30.3103 40.9892 30.3105 40.9912 30.3108 40.9932C30.312 41.0043 30.3133 41.0153 30.3146 41.0263C30.3146 41.0266 30.3146 41.0268 30.3146 41.027L30.2505 40.9935ZM30.2505 40.9935L30.2805 40.9903L30.2505 40.9935ZM30.2505 40.9936L30.2479 41.0199C30.233 41.1593 30.2071 41.3027 30.1707 41.4487L30.2505 40.9936ZM31.4657 53.1769C30.9663 52.776 30.5682 52.2605 30.2777 51.6391C29.9938 52.255 29.6001 52.7727 29.1074 53.1759C29.4832 53.1769 29.8863 53.1774 30.3057 53.1774C30.7106 53.1774 31.1006 53.1772 31.4657 53.1769Z" stroke="#666666" shape-rendering="crispEdges"/>
</g>
<g filter="url(#filter1_d_89_1357)">
<path d="M41.406 56.4643C41.7147 57.0663 42.1676 57.6676 42.762 58.2963L42.7654 58.2999L42.7654 58.2999C42.9533 58.4947 43.637 59.1536 44.2845 59.7586C45.445 60.8508 46.1206 61.5702 46.501 62.1537C46.8594 62.7035 46.947 63.1189 46.9124 63.6331C46.8722 64.1996 46.6475 64.6864 46.2195 65.1014C45.7748 65.532 45.3191 65.7527 44.67 65.8412L44.6691 65.8413C43.7606 65.9667 42.7153 65.4895 42.2366 64.7494C42.1882 64.6728 42.1416 64.6023 42.1011 64.5494C42.0853 64.5288 42.048 64.4807 41.9973 64.4375L41.9963 64.4367C41.9784 64.4214 41.9017 64.3561 41.7829 64.327C41.712 64.3096 41.5985 64.2987 41.4737 64.349C41.4557 64.3563 41.4386 64.3644 41.4224 64.3731C41.2555 64.2598 41.0781 64.2866 41.0012 64.3091C40.9182 64.3335 40.8619 64.3737 40.843 64.3875C40.7981 64.4204 40.767 64.4545 40.7565 64.4661C40.7287 64.4967 40.7038 64.53 40.686 64.5545C40.6473 64.6081 40.6023 64.6768 40.5581 64.7493M41.406 56.4643C41.2993 56.2563 41.2098 56.0483 41.1376 55.839C40.9815 56.2392 40.7554 56.6479 40.4694 57.04M41.406 56.4643C41.2575 56.7611 41.0783 57.0537 40.8733 57.3347M41.406 56.4643L38.0201 60.309M40.5581 64.7493C40.558 64.7495 40.5579 64.7496 40.5578 64.7498L40.6259 64.7914C40.614 64.8259 40.5996 64.8665 40.5833 64.9117C40.426 65.3115 40.2193 65.6565 39.9676 65.9458C39.9044 65.982 39.8419 66.0143 39.781 66.0418C39.2702 66.2711 38.9194 66.3489 38.4086 66.3489M40.5581 64.7493C40.4787 64.8786 40.3294 65.0477 40.1372 65.2126C39.9465 65.3761 39.7434 65.5101 39.5756 65.586C39.1246 65.7883 38.8434 65.8487 38.4101 65.8489M40.5581 64.7493C40.5582 64.7491 40.5583 64.749 40.5583 64.7489L40.6262 64.7905L38.4101 65.8489M38.4086 66.3489C37.7158 66.3448 37.0806 66.1401 36.5344 65.7389C35.5662 65.0348 35.1265 63.7412 35.504 62.7014C35.7838 61.9237 36.3567 61.1991 37.6758 59.9464M38.4086 66.3489V65.8489C38.4091 65.8489 38.4096 65.8489 38.4101 65.8489M38.4086 66.3489L38.4116 65.8489C38.4111 65.8489 38.4106 65.8489 38.4101 65.8489M37.6758 59.9464C39.5056 58.2107 39.972 57.7236 40.4694 57.04M37.6758 59.9464L38.0201 60.309M37.6758 59.9464L38.0199 60.3092M40.4694 57.04L40.8737 57.3341C40.8736 57.3343 40.8734 57.3345 40.8733 57.3347M40.4694 57.04L40.8733 57.3347M40.8733 57.3347C40.3447 58.061 39.8443 58.5786 38.0201 60.309M38.0201 60.309L38.0199 60.3092M38.0199 60.3092C36.7047 61.5582 36.211 62.2131 35.9745 62.8707L35.974 62.8721C35.681 63.6791 36.0196 64.7463 36.8284 65.3345L36.8284 65.3345L36.8303 65.3359C37.288 65.672 37.8192 65.8451 38.4101 65.8489M38.0199 60.3092L38.4101 65.8489M41.3735 54.8972L41.3741 54.8911C41.3776 54.8556 41.4293 54.8553 41.4332 54.8908C41.4334 54.8928 41.4336 54.8949 41.4338 54.8969C41.435 54.908 41.4363 54.919 41.4376 54.93C41.4376 54.9303 41.4377 54.9305 41.4377 54.9307L41.3735 54.8972ZM41.3735 54.8972L41.4036 54.894L41.3735 54.8972ZM41.3735 54.8973L41.371 54.9235C41.356 55.063 41.3301 55.2064 41.2937 55.3524L41.3735 54.8973ZM42.5888 67.0806C42.0894 66.6797 41.6913 66.1641 41.4008 65.5428C41.1168 66.1586 40.7231 66.6764 40.2304 67.0795C40.6062 67.0805 41.0094 67.0811 41.4287 67.0811C41.8337 67.0811 42.2237 67.0809 42.5888 67.0806Z" stroke="#666666" shape-rendering="crispEdges"/>
</g>
<g filter="url(#filter2_d_89_1357)">
<path d="M51.911 42.5606C52.2197 43.1626 52.6726 43.7639 53.267 44.3926L53.2704 44.3962L53.2704 44.3962C53.4583 44.591 54.142 45.2499 54.7895 45.8549C55.95 46.9471 56.6257 47.6665 57.006 48.25C57.3644 48.7998 57.452 49.2152 57.4174 49.7294C57.3772 50.2959 57.1525 50.7827 56.7245 51.1977C56.2799 51.6284 55.8241 51.849 55.175 51.9375L55.1741 51.9376C54.2656 52.063 53.2204 51.5859 52.7416 50.8457C52.6932 50.7691 52.6466 50.6986 52.6061 50.6457C52.5904 50.6252 52.5531 50.577 52.5023 50.5338L52.5013 50.533C52.4834 50.5177 52.4067 50.4524 52.2879 50.4233C52.217 50.4059 52.1035 50.395 51.9787 50.4453C51.9607 50.4526 51.9436 50.4607 51.9274 50.4694C51.7605 50.3561 51.5831 50.3829 51.5062 50.4055C51.4232 50.4298 51.3669 50.47 51.348 50.4838C51.3031 50.5167 51.272 50.5508 51.2615 50.5624C51.2337 50.5931 51.2088 50.6263 51.191 50.6508C51.1523 50.7044 51.1073 50.7731 51.0631 50.8456M51.911 42.5606C51.8043 42.3527 51.7148 42.1446 51.6427 41.9353C51.4866 42.3355 51.2604 42.7442 50.9744 43.1363M51.911 42.5606C51.7625 42.8574 51.5833 43.1501 51.3783 43.431M51.911 42.5606L48.5251 46.4053M51.0631 50.8456C51.063 50.8458 51.0629 50.8459 51.0628 50.8461L51.1309 50.8877C51.119 50.9222 51.1046 50.9628 51.0883 51.008C50.931 51.4078 50.7243 51.7528 50.4726 52.0421C50.4094 52.0783 50.3469 52.1106 50.286 52.1382C49.7752 52.3674 49.4244 52.4452 48.9136 52.4452M51.0631 50.8456C50.9837 50.975 50.8344 51.144 50.6422 51.3089C50.4515 51.4724 50.2484 51.6064 50.0806 51.6823C49.6296 51.8847 49.3484 51.945 48.9151 51.9452M51.0631 50.8456C51.0632 50.8455 51.0633 50.8453 51.0633 50.8452L51.1312 50.8868L48.9151 51.9452M48.9136 52.4452C48.2208 52.4411 47.5857 52.2364 47.0394 51.8352C46.0712 51.1311 45.6315 49.8375 46.009 48.7978C46.2888 48.02 46.8617 47.2954 48.1808 46.0427M48.9136 52.4452V51.9452C48.9141 51.9452 48.9146 51.9452 48.9151 51.9452M48.9136 52.4452L48.9166 51.9452C48.9161 51.9452 48.9156 51.9452 48.9151 51.9452M48.1808 46.0427C50.0106 44.307 50.477 43.8199 50.9744 43.1363M48.1808 46.0427L48.5251 46.4053M48.1808 46.0427L48.5249 46.4055M50.9744 43.1363L51.3787 43.4304C51.3786 43.4306 51.3784 43.4308 51.3783 43.431M50.9744 43.1363L51.3783 43.431M51.3783 43.431C50.8498 44.1573 50.3493 44.675 48.5251 46.4053M48.5251 46.4053L48.5249 46.4055M48.5249 46.4055C47.2097 47.6545 46.716 48.3094 46.4795 48.967L46.479 48.9684C46.186 49.7754 46.5246 50.8426 47.3334 51.4309L47.3334 51.4309L47.3353 51.4322C47.793 51.7683 48.3242 51.9414 48.9151 51.9452M48.5249 46.4055L48.9151 51.9452M51.8785 40.9935L51.8791 40.9874C51.8826 40.9519 51.9343 40.9516 51.9382 40.9871C51.9384 40.9892 51.9386 40.9912 51.9388 40.9932C51.94 41.0043 51.9413 41.0153 51.9426 41.0263C51.9426 41.0266 51.9427 41.0268 51.9427 41.027L51.8785 40.9935ZM51.8785 40.9935L51.9086 40.9903L51.8785 40.9935ZM51.8785 40.9936L51.876 41.0199C51.861 41.1593 51.8351 41.3027 51.7987 41.4487L51.8785 40.9936ZM53.0938 53.1769C52.5944 52.776 52.1963 52.2605 51.9058 51.6391C51.6218 52.255 51.2281 52.7727 50.7354 53.1759C51.1112 53.1769 51.5144 53.1774 51.9337 53.1774C52.3387 53.1774 52.7287 53.1772 53.0938 53.1769Z" stroke="#666666" shape-rendering="crispEdges"/>
</g>
<g filter="url(#filter3_d_89_1357)">
<path d="M51.8877 81.4785C51.579 80.8766 51.1261 80.2753 50.5317 79.6466L50.5283 79.6429L50.5283 79.643C50.3404 79.4481 49.6567 78.7893 49.0092 78.1843C47.8487 77.0921 47.1731 76.3727 46.7927 75.7892C46.4343 75.2393 46.3467 74.8239 46.3813 74.3098C46.4215 73.7433 46.6462 73.2565 47.0742 72.8415C47.5189 72.4108 47.9746 72.1902 48.6237 72.1017L48.6246 72.1016C49.5331 71.9761 50.5784 72.4533 51.0571 73.1935C51.1055 73.2701 51.1521 73.3406 51.1926 73.3934C51.2084 73.414 51.2457 73.4622 51.2964 73.5054L51.2974 73.5062C51.3153 73.5215 51.392 73.5868 51.5108 73.6159C51.5817 73.6333 51.6952 73.6442 51.82 73.5939C51.838 73.5866 51.8551 73.5785 51.8713 73.5698C52.0382 73.6831 52.2156 73.6563 52.2925 73.6337C52.3755 73.6093 52.4318 73.5692 52.4507 73.5554C52.4956 73.5225 52.5267 73.4884 52.5372 73.4768C52.565 73.4461 52.5899 73.4129 52.6077 73.3884C52.6464 73.3348 52.6914 73.266 52.7356 73.1936M51.8877 81.4785C51.9944 81.6865 52.0839 81.8946 52.1561 82.1039C52.3122 81.7036 52.5383 81.2949 52.8243 80.9029M51.8877 81.4785C52.0362 81.1818 52.2154 80.8891 52.4204 80.6082M51.8877 81.4785L55.2736 77.6339M52.7356 73.1936C52.7357 73.1934 52.7358 73.1933 52.7359 73.1931L52.6678 73.1515C52.6797 73.117 52.6941 73.0764 52.7104 73.0312C52.8677 72.6313 53.0744 72.2864 53.3261 71.9971C53.3893 71.9608 53.4518 71.9285 53.5127 71.901C54.0235 71.6718 54.3743 71.594 54.8851 71.594M52.7356 73.1936C52.815 73.0642 52.9643 72.8952 53.1565 72.7303C53.3472 72.5667 53.5503 72.4327 53.7181 72.3569C54.1691 72.1545 54.4503 72.0941 54.8836 72.094M52.7356 73.1936C52.7355 73.1937 52.7354 73.1939 52.7354 73.194L52.6675 73.1524L54.8836 72.094M54.8851 71.594C55.5779 71.5981 56.2131 71.8028 56.7593 72.204C57.7275 72.9081 58.1672 74.2016 57.7897 75.2414C57.5099 76.0192 56.937 76.7438 55.6179 77.9964M54.8851 71.594L54.8851 72.094C54.8846 72.094 54.8841 72.094 54.8836 72.094M54.8851 71.594L54.8821 72.094C54.8826 72.094 54.8831 72.094 54.8836 72.094M55.6179 77.9964C53.7881 79.7321 53.3217 80.2193 52.8243 80.9029M55.6179 77.9964L55.2736 77.6339M55.6179 77.9964L55.2738 77.6337M52.8243 80.9029L52.42 80.6087C52.4201 80.6086 52.4203 80.6084 52.4204 80.6082M52.8243 80.9029L52.4204 80.6082M52.4204 80.6082C52.949 79.8819 53.4494 79.3642 55.2736 77.6339M55.2736 77.6339L55.2738 77.6337M55.2738 77.6337C56.589 76.3847 57.0827 75.7297 57.3192 75.0722L57.3197 75.0708C57.6127 74.2638 57.2741 73.1966 56.4653 72.6083L56.4653 72.6083L56.4634 72.607C56.0057 72.2708 55.4745 72.0978 54.8836 72.094M55.2738 77.6337L54.8836 72.094M51.9202 83.0456L51.9196 83.0518C51.9161 83.0873 51.8644 83.0876 51.8605 83.0521C51.8603 83.05 51.8601 83.048 51.8599 83.0459C51.8587 83.0349 51.8574 83.0239 51.8561 83.0128C51.8561 83.0126 51.856 83.0124 51.856 83.0122L51.9202 83.0456ZM51.9202 83.0456L51.8901 83.0489L51.9202 83.0456ZM51.9202 83.0456L51.9227 83.0193C51.9377 82.8799 51.9636 82.7365 52 82.5905L51.9202 83.0456ZM50.7049 70.8623C51.2043 71.2631 51.6024 71.7787 51.8929 72.4C52.1769 71.7842 52.5706 71.2664 53.0633 70.8633C52.6875 70.8623 52.2843 70.8618 51.865 70.8618C51.46 70.8618 51.07 70.862 50.7049 70.8623Z" stroke="#666666" shape-rendering="crispEdges"/>
</g>
<g filter="url(#filter4_d_89_1357)">
<path d="M30.8776 81.4785C30.5688 80.8766 30.116 80.2753 29.5216 79.6466L29.5182 79.6429L29.5182 79.643C29.3303 79.4481 28.6465 78.7893 27.999 78.1843C26.8386 77.0921 26.1629 76.3727 25.7826 75.7892C25.4242 75.2393 25.3366 74.8239 25.3712 74.3098C25.4114 73.7433 25.6361 73.2565 26.0641 72.8415C26.5087 72.4108 26.9645 72.1902 27.6136 72.1017L27.6145 72.1016C28.5229 71.9761 29.5682 72.4533 30.047 73.1935C30.0953 73.2701 30.1419 73.3406 30.1824 73.3934C30.1982 73.414 30.2355 73.4622 30.2863 73.5054L30.2873 73.5062C30.3052 73.5215 30.3818 73.5868 30.5007 73.6159C30.5716 73.6333 30.6851 73.6442 30.8098 73.5939C30.8279 73.5866 30.845 73.5785 30.8612 73.5698C31.0281 73.6831 31.2055 73.6563 31.2824 73.6337C31.3654 73.6093 31.4217 73.5692 31.4406 73.5554C31.4854 73.5225 31.5166 73.4884 31.5271 73.4768C31.5549 73.4461 31.5798 73.4129 31.5975 73.3884C31.6363 73.3348 31.6813 73.266 31.7255 73.1936M30.8776 81.4785C30.9843 81.6865 31.0737 81.8946 31.1459 82.1039C31.302 81.7036 31.5282 81.2949 31.8142 80.9029M30.8776 81.4785C31.026 81.1818 31.2053 80.8891 31.4103 80.6082M30.8776 81.4785L34.2635 77.6339M31.7255 73.1936C31.7256 73.1934 31.7257 73.1933 31.7258 73.1931L31.6577 73.1515C31.6696 73.117 31.684 73.0764 31.7003 73.0312C31.8576 72.6313 32.0643 72.2864 32.316 71.9971C32.3791 71.9608 32.4417 71.9285 32.5026 71.901C33.0133 71.6718 33.3642 71.594 33.875 71.594M31.7255 73.1936C31.8049 73.0642 31.9542 72.8952 32.1464 72.7303C32.337 72.5667 32.5402 72.4327 32.7079 72.3569C33.159 72.1545 33.4402 72.0941 33.8735 72.094M31.7255 73.1936C31.7254 73.1937 31.7253 73.1939 31.7252 73.194L31.6574 73.1524L33.8735 72.094M33.875 71.594C34.5678 71.5981 35.2029 71.8028 35.7492 72.204C36.7174 72.9081 37.1571 74.2016 36.7796 75.2414C36.4998 76.0192 35.9269 76.7438 34.6078 77.9964M33.875 71.594L33.875 72.094C33.8745 72.094 33.874 72.094 33.8735 72.094M33.875 71.594L33.872 72.094C33.8725 72.094 33.873 72.094 33.8735 72.094M34.6078 77.9964C32.778 79.7321 32.3116 80.2193 31.8142 80.9029M34.6078 77.9964L34.2635 77.6339M34.6078 77.9964L34.2637 77.6337M31.8142 80.9029L31.4099 80.6087C31.41 80.6086 31.4101 80.6084 31.4103 80.6082M31.8142 80.9029L31.4103 80.6082M31.4103 80.6082C31.9388 79.8819 32.4393 79.3642 34.2635 77.6339M34.2635 77.6339L34.2637 77.6337M34.2637 77.6337C35.5789 76.3847 36.0726 75.7297 36.3091 75.0722L36.3096 75.0708C36.6026 74.2638 36.264 73.1966 35.4551 72.6083L35.4551 72.6083L35.4533 72.607C34.9956 72.2708 34.4644 72.0978 33.8735 72.094M34.2637 77.6337L33.8735 72.094M30.91 83.0456L30.9094 83.0518C30.906 83.0873 30.8543 83.0876 30.8504 83.0521C30.8502 83.05 30.85 83.048 30.8497 83.0459C30.8485 83.0349 30.8473 83.0239 30.846 83.0128C30.8459 83.0126 30.8459 83.0124 30.8459 83.0122L30.91 83.0456ZM30.91 83.0456L30.88 83.0489L30.91 83.0456ZM30.91 83.0456L30.9126 83.0193C30.9275 82.8799 30.9535 82.7365 30.9899 82.5905L30.91 83.0456ZM29.6948 70.8623C30.1942 71.2631 30.5923 71.7787 30.8828 72.4C31.1668 71.7842 31.5604 71.2664 32.0532 70.8633C31.6773 70.8623 31.2742 70.8618 30.8549 70.8618C30.4499 70.8618 30.0599 70.862 29.6948 70.8623Z" stroke="#666666" shape-rendering="crispEdges"/>
</g>
<g filter="url(#filter5_d_89_1357)">
<mask id="path-7-inside-1_89_1357" fill="white">
<path d="M65.5998 99.2649C65.6398 98.8802 65.8195 98.4433 66.1067 98.0372C66.3864 97.6407 66.6486 97.3581 67.6774 96.3512C68.419 95.6246 68.7411 95.2043 68.8984 94.7531C69.1107 94.1499 68.8635 93.3995 68.3191 92.9911C68.012 92.7584 67.6549 92.6396 67.2654 92.6373C66.9782 92.6373 66.7809 92.6824 66.4938 92.8154C66.244 92.9317 65.9469 93.1953 65.817 93.4138C65.7721 93.4898 65.7321 93.5468 65.7272 93.542C65.7222 93.5373 65.7471 93.4613 65.7796 93.3687C65.9968 92.7964 66.3714 92.3808 66.8758 92.1481C67.103 92.0436 67.4052 91.9581 67.545 91.9581C67.595 91.9581 67.6424 91.951 67.6474 91.9415C67.6549 91.9296 66.7185 91.9225 65.5673 91.9225C64.7156 91.9225 63.98 91.9238 63.6571 91.9264C63.541 91.9273 63.5398 91.9428 63.6546 91.9605C63.8543 91.9866 64.0741 92.0555 64.3063 92.1647C64.7982 92.3974 65.1603 92.794 65.3801 93.3497C65.4675 93.5681 65.4575 93.5847 65.3501 93.409C65.0205 92.8818 64.3238 92.5565 63.707 92.6444C63.285 92.7037 62.9729 92.8581 62.6782 93.1526C62.3886 93.4423 62.2312 93.7913 62.2038 94.1927C62.1563 94.9169 62.466 95.4061 63.7694 96.6718C64.134 97.0233 64.5136 97.4008 64.6135 97.5077C65.2053 98.1536 65.5049 98.7116 65.5648 99.2839C65.5669 99.3039 65.5961 99.3038 65.598 99.2838L65.5998 99.2649Z"/>
</mask>
<path d="M65.5998 99.2649L64.6042 99.171L64.6052 99.1616L65.5998 99.2649ZM66.1067 98.0372L66.9239 98.6136L66.9232 98.6146L66.1067 98.0372ZM67.6774 96.3512L68.3772 97.0655L68.3768 97.0659L67.6774 96.3512ZM68.8984 94.7531L67.9542 94.4238L67.9552 94.4211L68.8984 94.7531ZM68.3191 92.9911L67.719 93.791L67.7152 93.7881L68.3191 92.9911ZM67.2654 92.6373L67.2654 91.6372L67.2715 91.6373L67.2654 92.6373ZM66.4938 92.8154L66.0714 91.9089L66.0735 91.9079L66.4938 92.8154ZM65.817 93.4138L64.9563 92.9047L64.9574 92.9028L65.817 93.4138ZM65.7796 93.3687L64.8359 93.0379L64.8401 93.0258L64.8447 93.0138L65.7796 93.3687ZM66.8758 92.1481L66.4569 91.2401L66.458 91.2395L66.8758 92.1481ZM67.6474 91.9415L66.7623 91.4761L66.7806 91.4412L66.8017 91.4079L67.6474 91.9415ZM64.3063 92.1647L64.732 91.2598L64.7339 91.2607L64.3063 92.1647ZM65.3801 93.3497L64.4516 93.7211L64.4501 93.7174L65.3801 93.3497ZM65.3501 93.409L66.198 92.8788L66.2034 92.8876L65.3501 93.409ZM63.707 92.6444L63.848 93.6344L63.8463 93.6346L63.707 92.6444ZM62.6782 93.1526L61.9711 92.4455L61.9713 92.4452L62.6782 93.1526ZM62.2038 94.1927L61.2059 94.1273L61.2061 94.1244L62.2038 94.1927ZM63.7694 96.6718L63.0754 97.3918L63.0728 97.3892L63.7694 96.6718ZM64.6135 97.5077L65.344 96.8248L65.3508 96.8321L64.6135 97.5077ZM65.598 99.2838L66.5936 99.3777L65.598 99.2838ZM63.6546 91.9605L63.5249 92.952L63.5135 92.9505L63.5022 92.9488L63.6546 91.9605ZM64.6052 99.1616C64.6671 98.5654 64.9308 97.9682 65.2902 97.4598L66.9232 98.6146C66.7083 98.9185 66.6124 99.1951 66.5945 99.3682L64.6052 99.1616ZM65.2895 97.4609C65.6301 96.9779 65.9587 96.634 66.9779 95.6365L68.3768 97.0659C67.3384 98.0821 67.1427 98.3034 66.9239 98.6136L65.2895 97.4609ZM66.9775 95.6369C67.7102 94.9191 67.8796 94.6379 67.9542 94.4238L69.8427 95.0823C69.6027 95.7706 69.1279 96.3301 68.3772 97.0655L66.9775 95.6369ZM67.9552 94.4211C68.0098 94.2657 67.9457 93.9611 67.719 93.791L68.9193 92.1912C69.7813 92.8379 70.2116 94.0341 69.8417 95.085L67.9552 94.4211ZM67.7152 93.7881C67.5847 93.6893 67.4386 93.6383 67.2593 93.6372L67.2715 91.6373C67.8712 91.6409 68.4393 91.8275 68.923 92.194L67.7152 93.7881ZM67.2654 93.6373C67.1361 93.6373 67.0816 93.6452 66.914 93.7228L66.0735 91.9079C66.4803 91.7196 66.8202 91.6373 67.2654 91.6373L67.2654 93.6373ZM66.9161 93.7218C66.9132 93.7231 66.8956 93.732 66.8657 93.7525C66.837 93.7721 66.805 93.797 66.7732 93.8251C66.7414 93.8533 66.7149 93.8802 66.6955 93.9024C66.6747 93.9262 66.6708 93.9345 66.6767 93.9247L64.9574 92.9028C65.0922 92.6762 65.2778 92.4778 65.4477 92.3275C65.6201 92.1748 65.8366 92.0183 66.0714 91.9089L66.9161 93.7218ZM66.6778 93.9229C66.6469 93.975 66.6115 94.0315 66.576 94.0822C66.5615 94.1029 66.5298 94.1473 66.4883 94.1947C66.4744 94.2104 66.4183 94.2748 66.3333 94.339C66.2984 94.3653 66.1864 94.4483 66.0184 94.4992C65.8394 94.5535 65.4043 94.6149 65.038 94.2667L66.4163 92.8174C66.0507 92.4697 65.6164 92.5313 65.4386 92.5851C65.2717 92.6357 65.1612 92.7179 65.128 92.743C65.0462 92.8047 64.9944 92.8647 64.9857 92.8747C64.9673 92.8956 64.9547 92.912 64.9496 92.9187C64.9435 92.9267 64.9397 92.9322 64.9383 92.9341C64.9352 92.9385 64.9422 92.9285 64.9563 92.9047L66.6778 93.9229ZM65.038 94.2667C64.758 94.0003 64.735 93.6745 64.7315 93.6392C64.722 93.5442 64.7285 93.4689 64.7315 93.4386C64.7382 93.3712 64.7504 93.3179 64.7546 93.2997C64.7652 93.2541 64.7776 93.2133 64.7843 93.1918C64.7997 93.1423 64.8191 93.0858 64.8359 93.0379L66.7233 93.6994C66.7076 93.7441 66.6983 93.7719 66.6944 93.7848C66.6914 93.7944 66.6964 93.7793 66.7027 93.7522C66.7048 93.7432 66.7157 93.6974 66.7218 93.6354C66.7245 93.6078 66.7309 93.5347 66.7217 93.4414C66.7169 93.3937 66.7055 93.3125 66.6725 93.2164C66.641 93.1247 66.5711 92.9646 66.4163 92.8174L65.038 94.2667ZM64.8447 93.0138C65.1452 92.222 65.6911 91.5934 66.4569 91.2401L67.2947 93.0561C67.0517 93.1682 66.8484 93.3707 66.7145 93.7236L64.8447 93.0138ZM66.458 91.2395C66.6244 91.163 66.806 91.0985 66.9704 91.0518C67.1096 91.0124 67.3304 90.9581 67.545 90.9581L67.545 92.9581C67.5758 92.9581 67.5954 92.9559 67.5998 92.9554C67.6054 92.9548 67.6049 92.9546 67.5974 92.956C67.5818 92.9589 67.554 92.9652 67.516 92.976C67.4376 92.9982 67.3545 93.0286 67.2936 93.0566L66.458 91.2395ZM67.545 90.9581C67.5289 90.9581 67.4997 90.9589 67.4565 90.9657C67.4389 90.9685 67.3853 90.9774 67.3163 91.0007C67.283 91.0119 67.2151 91.0367 67.1359 91.0834C67.0773 91.118 66.8897 91.2339 66.7623 91.4761L68.5325 92.4069C68.4039 92.6515 68.2137 92.7697 68.1514 92.8064C68.0684 92.8553 67.9956 92.8822 67.9564 92.8955C67.8755 92.9228 67.806 92.9353 67.7696 92.941C67.689 92.9538 67.6111 92.9581 67.545 92.9581L67.545 90.9581ZM66.8017 91.4079C66.7213 91.5353 66.6499 91.7137 66.6475 91.9305C66.6452 92.1482 66.7132 92.3303 66.7942 92.4628C66.9343 92.6919 67.1248 92.7955 67.1739 92.8219C67.2997 92.8895 67.4112 92.9127 67.4232 92.9154C67.4833 92.9291 67.5308 92.9336 67.5338 92.9339C67.5559 92.9362 67.5685 92.9366 67.5584 92.9361C67.5451 92.9354 67.5156 92.9344 67.4651 92.9333C67.3674 92.9311 67.2205 92.9291 67.0332 92.9275C66.6601 92.9243 66.1414 92.9225 65.5673 92.9225L65.5673 90.9225C66.1445 90.9225 66.6695 90.9243 67.0505 90.9276C67.2403 90.9292 67.3981 90.9313 67.5098 90.9338C67.564 90.935 67.6154 90.9364 67.6564 90.9385C67.6735 90.9393 67.7065 90.941 67.7421 90.9447C67.7518 90.9458 67.8042 90.9509 67.8676 90.9654C67.8811 90.9685 67.9938 90.992 68.1203 91.06C68.1697 91.0865 68.3604 91.1903 68.5006 91.4196C68.5816 91.5522 68.6498 91.7344 68.6474 91.9522C68.645 92.1691 68.5736 92.3476 68.4931 92.4751L66.8017 91.4079ZM65.5673 92.9225C64.7148 92.9225 63.9834 92.9238 63.6651 92.9264L63.649 90.9264C63.9767 90.9238 64.7164 90.9225 65.5673 90.9225L65.5673 92.9225ZM63.7842 90.9689C64.1102 91.0115 64.4305 91.118 64.732 91.2598L63.8807 93.0696C63.7177 92.9929 63.5985 92.9617 63.5249 92.952L63.7842 90.9689ZM64.7339 91.2607C65.4751 91.6114 66.0053 92.2115 66.31 92.9819L64.4501 93.7174C64.3153 93.3765 64.1214 93.1835 63.8787 93.0687L64.7339 91.2607ZM66.3085 92.9782C66.3325 93.0381 66.3578 93.1038 66.3776 93.1645C66.3865 93.1916 66.403 93.2436 66.416 93.3054C66.4221 93.3344 66.4338 93.3949 66.4376 93.4713C66.4392 93.5027 66.4568 93.7385 66.3232 93.9925C66.2404 94.15 66.0833 94.3425 65.821 94.4516C65.5668 94.5574 65.3344 94.5344 65.19 94.4979C64.9464 94.4363 64.795 94.2984 64.7702 94.2767C64.6808 94.1982 64.6221 94.1177 64.6098 94.1011C64.5663 94.0426 64.5258 93.9778 64.4968 93.9304L66.2034 92.8876C66.2281 92.9281 66.2291 92.9271 66.215 92.9081C66.2099 92.9013 66.1991 92.887 66.1834 92.8685C66.1706 92.8535 66.138 92.8161 66.0894 92.7734C66.069 92.7555 65.9211 92.6198 65.6802 92.5589C65.5372 92.5228 65.306 92.4997 65.0528 92.6051C64.7915 92.7138 64.6352 92.9055 64.553 93.0618C64.4207 93.3135 64.4388 93.5454 64.4401 93.5713C64.4436 93.6422 64.4543 93.6957 64.4586 93.7162C64.464 93.7417 64.4691 93.7605 64.4716 93.7693C64.4744 93.7791 64.4765 93.7854 64.477 93.7871C64.4776 93.7887 64.4714 93.7705 64.4516 93.7211L66.3085 92.9782ZM64.5022 93.9392C64.3817 93.7464 64.0722 93.6025 63.848 93.6344L63.566 91.6544C64.5754 91.5106 65.6593 92.0173 66.198 92.8789L64.5022 93.9392ZM63.8463 93.6346C63.6343 93.6645 63.5228 93.7223 63.3851 93.8599L61.9713 92.4452C62.423 91.9939 62.9357 91.743 63.5677 91.6541L63.8463 93.6346ZM63.3854 93.8596C63.2665 93.9785 63.2124 94.1006 63.2014 94.2609L61.2061 94.1244C61.2501 93.4821 61.5106 92.9061 61.9711 92.4455L63.3854 93.8596ZM63.2016 94.258C63.1918 94.4082 63.2034 94.5019 63.3254 94.6951C63.489 94.954 63.8115 95.3188 64.4661 95.9544L63.0728 97.3892C62.4239 96.7591 61.9399 96.2465 61.6346 95.7633C61.2878 95.2145 61.1683 94.7014 61.2059 94.1273L63.2016 94.258ZM64.4635 95.9519C64.8266 96.3019 65.2239 96.6964 65.344 96.8248L63.8829 98.1905C63.8032 98.1053 63.4415 97.7446 63.0754 97.3918L64.4635 95.9519ZM65.3508 96.8321C66.0151 97.5572 66.4681 98.3082 66.5594 99.1798L64.5703 99.3881C64.5417 99.1151 64.3954 98.7499 63.8761 98.1832L65.3508 96.8321ZM64.6024 99.1898L64.6042 99.171L66.5954 99.3589L66.5936 99.3777L64.6024 99.1898ZM66.5594 99.1794C66.4352 97.9991 64.714 98.0082 64.6024 99.1898L66.5936 99.3777C66.4783 100.599 64.6987 100.609 64.5703 99.3885L66.5594 99.1794ZM63.6651 92.9264C63.6494 92.9265 63.6736 92.9272 63.7174 92.9217C63.7313 92.9199 63.8045 92.9111 63.8965 92.8798C63.9381 92.8657 64.0462 92.8267 64.1638 92.7401C64.2728 92.6598 64.5361 92.4266 64.5666 92.0101C64.5971 91.5934 64.3703 91.3243 64.2739 91.2289C64.17 91.126 64.0685 91.0717 64.0294 91.0517C63.9428 91.0075 63.8715 90.9881 63.8581 90.9844C63.8155 90.9725 63.7914 90.9698 63.807 90.9722L63.5022 92.9488C63.4604 92.9423 63.3933 92.931 63.3223 92.9113C63.2947 92.9036 63.2128 92.8804 63.1192 92.8326C63.0766 92.8108 62.9726 92.7548 62.8669 92.6503C62.7688 92.5532 62.5413 92.2824 62.5719 91.8642C62.6025 91.4462 62.8668 91.2115 62.9777 91.1298C63.0972 91.0417 63.2082 91.0014 63.2535 90.986C63.3529 90.9522 63.4372 90.9412 63.4657 90.9376C63.5388 90.9283 63.6067 90.9268 63.649 90.9264L63.6651 92.9264Z" fill="#666666" mask="url(#path-7-inside-1_89_1357)"/>
</g>
<g filter="url(#filter6_d_89_1357)">
<path d="M62.4234 103.852C62.4234 103.407 62.5017 103.007 62.6582 102.652C62.8148 102.297 63.0243 101.996 63.2867 101.751C63.549 101.505 63.8537 101.317 64.2007 101.186C64.5435 101.054 64.9032 100.989 65.2798 100.989L68.9488 100.989L68.9488 102.811L65.2798 102.811C65.1571 102.811 65.0344 102.83 64.9117 102.868C64.7847 102.906 64.6726 102.967 64.5752 103.052C64.4737 103.137 64.3933 103.244 64.334 103.376C64.2705 103.507 64.2388 103.665 64.2388 103.852C64.2388 104.021 64.2705 104.169 64.334 104.296C64.3933 104.427 64.4737 104.535 64.5752 104.62C64.6726 104.709 64.7847 104.774 64.9117 104.817C65.0344 104.863 65.1571 104.886 65.2798 104.886L68.9488 104.886L68.4156 110.091L62.7979 110.091L62.7979 108.27L66.7779 108.27L66.9429 106.708L65.2798 106.708C64.9032 106.708 64.5435 106.643 64.2007 106.511C63.8537 106.38 63.549 106.19 63.2867 105.94C63.0243 105.695 62.8148 105.394 62.6582 105.039C62.5017 104.687 62.4234 104.292 62.4234 103.852Z" fill="#666666"/>
</g>
<g filter="url(#filter7_d_89_1357)">
<mask id="path-10-inside-2_89_1357" fill="white">
<path d="M18.5257 26.2406C18.4857 26.6253 18.3059 27.0622 18.0188 27.4683C17.7391 27.8648 17.4769 28.1474 16.4481 29.1543C15.7065 29.8809 15.3844 30.3012 15.227 30.7524C15.0148 31.3556 15.262 32.106 15.8064 32.5144C16.1135 32.7471 16.4706 32.8659 16.8601 32.8682C17.1473 32.8682 17.3446 32.8231 17.6317 32.6901C17.8814 32.5738 18.1786 32.3102 18.3084 32.0917C18.3534 32.0157 18.3933 31.9587 18.3983 31.9635C18.4033 31.9682 18.3784 32.0442 18.3459 32.1368C18.1286 32.7091 17.7541 33.1247 17.2497 33.3574C17.0224 33.4619 16.7203 33.5474 16.5805 33.5474C16.5305 33.5474 16.4831 33.5545 16.4781 33.564C16.4706 33.5759 17.407 33.583 18.5581 33.583C19.4099 33.583 20.1454 33.5817 20.4684 33.5791C20.5845 33.5782 20.5857 33.5627 20.4709 33.545C20.2711 33.5189 20.0514 33.45 19.8192 33.3408C19.3272 33.1081 18.9652 32.7115 18.7454 32.1558C18.658 31.9374 18.668 31.9207 18.7754 32.0965C19.105 32.6236 19.8017 32.949 20.4185 32.8611C20.8405 32.8017 21.1526 32.6474 21.4473 32.3529C21.7369 32.0632 21.8943 31.7142 21.9217 31.3128C21.9692 30.5886 21.6595 30.0994 20.356 28.8337C19.9915 28.4822 19.6119 28.1047 19.512 27.9978C18.9202 27.3519 18.6206 26.7939 18.5606 26.2216C18.5585 26.2015 18.5294 26.2017 18.5275 26.2217L18.5257 26.2406Z"/>
</mask>
<path d="M18.5257 26.2406L19.5213 26.3345L19.5203 26.3439L18.5257 26.2406ZM18.0188 27.4683L17.2016 26.8919L17.2023 26.8909L18.0188 27.4683ZM16.4481 29.1543L15.7483 28.44L15.7487 28.4396L16.4481 29.1543ZM15.227 30.7524L16.1713 31.0816L16.1703 31.0844L15.227 30.7524ZM15.8064 32.5144L16.4065 31.7145L16.4103 31.7174L15.8064 32.5144ZM16.8601 32.8682L16.8601 33.8683L16.854 33.8682L16.8601 32.8682ZM17.6317 32.6901L18.0541 33.5966L18.0519 33.5976L17.6317 32.6901ZM18.3084 32.0917L19.1691 32.6008L19.1681 32.6026L18.3084 32.0917ZM18.3459 32.1368L19.2896 32.4676L19.2854 32.4797L19.2808 32.4917L18.3459 32.1368ZM17.2497 33.3574L17.6686 34.2654L17.6674 34.266L17.2497 33.3574ZM16.4781 33.564L17.3632 34.0294L17.3448 34.0643L17.3238 34.0976L16.4781 33.564ZM19.8192 33.3408L19.3935 34.2457L19.3915 34.2447L19.8192 33.3408ZM18.7454 32.1558L19.6739 31.7844L19.6754 31.7881L18.7454 32.1558ZM18.7754 32.0965L17.9274 32.6266L17.9221 32.6179L18.7754 32.0965ZM20.4185 32.8611L20.2774 31.8711L20.2792 31.8709L20.4185 32.8611ZM21.4473 32.3529L22.1544 33.06L22.1541 33.0603L21.4473 32.3529ZM21.9217 31.3128L22.9196 31.3782L22.9194 31.3811L21.9217 31.3128ZM20.356 28.8337L21.0501 28.1137L21.0527 28.1163L20.356 28.8337ZM19.512 27.9978L18.7814 28.6807L18.7747 28.6734L19.512 27.9978ZM18.5275 26.2217L17.5319 26.1278L18.5275 26.2217ZM20.4709 33.545L20.6006 32.5535L20.612 32.5549L20.6233 32.5567L20.4709 33.545ZM19.5203 26.3439C19.4584 26.9401 19.1947 27.5373 18.8352 28.0456L17.2023 26.8909C17.4172 26.587 17.5131 26.3104 17.531 26.1373L19.5203 26.3439ZM18.836 28.0446C18.4954 28.5276 18.1668 28.8715 17.1476 29.869L15.7487 28.4396C16.787 27.4233 16.9828 27.2021 17.2016 26.8919L18.836 28.0446ZM17.148 29.8686C16.4153 30.5864 16.2459 30.8676 16.1713 31.0816L14.2828 30.4232C14.5228 29.7349 14.9976 29.1754 15.7483 28.44L17.148 29.8686ZM16.1703 31.0844C16.1156 31.2398 16.1798 31.5444 16.4065 31.7145L15.2062 33.3143C14.3442 32.6675 13.9139 31.4714 14.2837 30.4205L16.1703 31.0844ZM16.4103 31.7174C16.5408 31.8162 16.6869 31.8672 16.8662 31.8683L16.854 33.8682C16.2543 33.8646 15.6862 33.678 15.2024 33.3115L16.4103 31.7174ZM16.8601 31.8682C16.9893 31.8682 17.0439 31.8603 17.2115 31.7827L18.0519 33.5976C17.6452 33.7859 17.3052 33.8682 16.8601 33.8682L16.8601 31.8682ZM17.2094 31.7837C17.2123 31.7824 17.2299 31.7735 17.2598 31.753C17.2885 31.7334 17.3205 31.7085 17.3522 31.6804C17.3841 31.6522 17.4106 31.6253 17.43 31.6031C17.4508 31.5793 17.4547 31.571 17.4488 31.5808L19.1681 32.6026C19.0333 32.8293 18.8477 33.0277 18.6778 33.178C18.5054 33.3307 18.2889 33.4872 18.0541 33.5966L17.2094 31.7837ZM17.4477 31.5826C17.4786 31.5305 17.514 31.474 17.5495 31.4233C17.564 31.4026 17.5957 31.3582 17.6372 31.3108C17.6511 31.2951 17.7072 31.2307 17.7922 31.1665C17.8271 31.1402 17.9391 31.0572 18.1071 31.0063C18.2861 30.952 18.7212 30.8906 19.0875 31.2388L17.7092 32.6881C18.0748 33.0358 18.5091 32.9742 18.6869 32.9204C18.8537 32.8698 18.9643 32.7876 18.9975 32.7625C19.0792 32.7008 19.1311 32.6408 19.1398 32.6308C19.1582 32.6099 19.1708 32.5935 19.1759 32.5868C19.182 32.5788 19.1858 32.5733 19.1872 32.5714C19.1903 32.567 19.1832 32.577 19.1691 32.6008L17.4477 31.5826ZM19.0875 31.2388C19.3675 31.5052 19.3905 31.831 19.394 31.8663C19.4035 31.9613 19.397 32.0366 19.394 32.0669C19.3873 32.1343 19.3751 32.1876 19.3709 32.2058C19.3603 32.2514 19.3479 32.2922 19.3412 32.3137C19.3258 32.3632 19.3064 32.4197 19.2896 32.4676L17.4022 31.8061C17.4179 31.7614 17.4271 31.7336 17.4311 31.7207C17.4341 31.711 17.429 31.7262 17.4227 31.7533C17.4207 31.7623 17.4098 31.8081 17.4037 31.8701C17.401 31.8977 17.3945 31.9708 17.4038 32.0641C17.4086 32.1118 17.42 32.193 17.453 32.2891C17.4845 32.3808 17.5544 32.5409 17.7092 32.6881L19.0875 31.2388ZM19.2808 32.4917C18.9803 33.2835 18.4344 33.9121 17.6686 34.2654L16.8307 32.4494C17.0738 32.3373 17.277 32.1348 17.411 31.7819L19.2808 32.4917ZM17.6674 34.266C17.5011 34.3425 17.3195 34.407 17.1551 34.4536C17.0158 34.4931 16.7951 34.5474 16.5805 34.5474L16.5805 32.5474C16.5497 32.5474 16.5301 32.5496 16.5257 32.5501C16.5201 32.5507 16.5206 32.5509 16.5281 32.5495C16.5437 32.5465 16.5715 32.5403 16.6095 32.5295C16.6879 32.5073 16.771 32.4769 16.8319 32.4489L17.6674 34.266ZM16.5805 34.5474C16.5966 34.5474 16.6258 34.5466 16.669 34.5398C16.6866 34.537 16.7401 34.5281 16.8092 34.5048C16.8425 34.4936 16.9104 34.4687 16.9896 34.4221C17.0482 34.3875 17.2358 34.2716 17.3632 34.0294L15.593 33.0986C15.7216 32.854 15.9118 32.7358 15.9741 32.6991C16.057 32.6502 16.1299 32.6233 16.1691 32.61C16.25 32.5827 16.3195 32.5702 16.3559 32.5645C16.4364 32.5517 16.5144 32.5474 16.5805 32.5474L16.5805 34.5474ZM17.3238 34.0976C17.4042 33.9702 17.4756 33.7918 17.478 33.575C17.4803 33.3573 17.4122 33.1752 17.3313 33.0427C17.1912 32.8136 17.0007 32.71 16.9516 32.6836C16.8258 32.616 16.7142 32.5928 16.7023 32.5901C16.6422 32.5764 16.5947 32.5719 16.5917 32.5716C16.5696 32.5693 16.557 32.5689 16.5671 32.5694C16.5804 32.5701 16.6099 32.5711 16.6604 32.5722C16.7581 32.5744 16.905 32.5764 17.0923 32.578C17.4654 32.5812 17.9841 32.583 18.5581 32.583L18.5581 34.583C17.981 34.583 17.456 34.5812 17.075 34.5779C16.8852 34.5763 16.7274 34.5742 16.6157 34.5717C16.5614 34.5705 16.5101 34.569 16.4691 34.567C16.452 34.5662 16.419 34.5645 16.3834 34.5607C16.3737 34.5597 16.3213 34.5545 16.2579 34.5401C16.2444 34.537 16.1317 34.5135 16.0052 34.4455C15.9558 34.419 15.765 34.3152 15.6249 34.0859C15.5438 33.9533 15.4757 33.7711 15.4781 33.5533C15.4804 33.3364 15.5519 33.1579 15.6323 33.0304L17.3238 34.0976ZM18.5581 32.583C19.4107 32.583 20.1421 32.5817 20.4604 32.5791L20.4765 34.5791C20.1488 34.5817 19.4091 34.583 18.5581 34.583L18.5581 32.583ZM20.3413 34.5366C20.0153 34.4939 19.695 34.3875 19.3935 34.2457L20.2448 32.4359C20.4078 32.5126 20.527 32.5438 20.6006 32.5535L20.3413 34.5366ZM19.3915 34.2447C18.6504 33.8941 18.1202 33.294 17.8155 32.5236L19.6754 31.7881C19.8102 32.129 20.0041 32.322 20.2468 32.4368L19.3915 34.2447ZM17.817 32.5273C17.793 32.4674 17.7677 32.4016 17.7478 32.341C17.739 32.3139 17.7225 32.2618 17.7095 32.2001C17.7034 32.1711 17.6917 32.1106 17.6879 32.0342C17.6863 32.0028 17.6687 31.767 17.8023 31.513C17.8851 31.3555 18.0422 31.163 18.3045 31.0538C18.5587 30.9481 18.7911 30.9711 18.9355 31.0076C19.1791 31.0692 19.3305 31.2071 19.3552 31.2288C19.4447 31.3073 19.5034 31.3878 19.5157 31.4044C19.5592 31.4629 19.5997 31.5277 19.6287 31.5751L17.9221 32.6179C17.8974 32.5774 17.8964 32.5784 17.9105 32.5974C17.9155 32.6042 17.9264 32.6185 17.9421 32.6369C17.9549 32.652 17.9875 32.6894 18.0361 32.7321C18.0565 32.75 18.2044 32.8857 18.4453 32.9466C18.5883 32.9827 18.8195 33.0058 19.0727 32.9004C19.334 32.7917 19.4903 32.6 19.5725 32.4437C19.7048 32.192 19.6867 31.9601 19.6854 31.9342C19.6818 31.8633 19.6712 31.8098 19.6669 31.7893C19.6615 31.7638 19.6563 31.745 19.6538 31.7362C19.6511 31.7264 19.649 31.7201 19.6484 31.7183C19.6479 31.7168 19.6541 31.735 19.6739 31.7844L17.817 32.5273ZM19.6233 31.5663C19.7438 31.7591 20.0533 31.903 20.2774 31.8711L20.5595 33.8511C19.5501 33.9949 18.4662 33.4882 17.9275 32.6266L19.6233 31.5663ZM20.2792 31.8709C20.4912 31.841 20.6027 31.7832 20.7404 31.6456L22.1541 33.0603C21.7025 33.5116 21.1897 33.7625 20.5578 33.8514L20.2792 31.8709ZM20.7401 31.6459C20.8589 31.527 20.9131 31.4049 20.9241 31.2445L22.9194 31.3811C22.8754 32.0234 22.6149 32.5994 22.1544 33.06L20.7401 31.6459ZM20.9239 31.2475C20.9337 31.0973 20.9221 31.0036 20.8001 30.8104C20.6365 30.5515 20.314 30.1867 19.6594 29.5511L21.0527 28.1163C21.7016 28.7463 22.1856 29.259 22.4909 29.7422C22.8376 30.291 22.9572 30.8041 22.9196 31.3782L20.9239 31.2475ZM19.662 29.5536C19.2989 29.2036 18.9016 28.8091 18.7815 28.6807L20.2426 27.3149C20.3223 27.4002 20.684 27.7609 21.0501 28.1137L19.662 29.5536ZM18.7747 28.6734C18.1103 27.9482 17.6574 27.1973 17.5661 26.3257L19.5552 26.1174C19.5838 26.3904 19.7301 26.7555 20.2493 27.3223L18.7747 28.6734ZM19.523 26.3157L19.5213 26.3345L17.5301 26.1466L17.5319 26.1278L19.523 26.3157ZM17.5661 26.3261C17.6902 27.5064 19.4115 27.4973 19.523 26.3157L17.5319 26.1278C17.6472 24.9061 19.4268 24.8967 19.5552 26.117L17.5661 26.3261ZM20.4604 32.5791C20.4761 32.579 20.4519 32.5783 20.4081 32.5838C20.3942 32.5856 20.321 32.5944 20.229 32.6257C20.1874 32.6398 20.0792 32.6788 19.9616 32.7654C19.8526 32.8457 19.5894 33.0789 19.5589 33.4954C19.5284 33.9121 19.7552 34.1812 19.8516 34.2766C19.9555 34.3795 20.057 34.4338 20.0961 34.4538C20.1827 34.498 20.2539 34.5174 20.2674 34.5211C20.31 34.533 20.3341 34.5357 20.3185 34.5333L20.6233 32.5567C20.6651 32.5631 20.7321 32.5745 20.8031 32.5942C20.8308 32.6019 20.9127 32.625 21.0062 32.6729C21.0489 32.6947 21.1529 32.7507 21.2585 32.8552C21.3566 32.9523 21.5842 33.2231 21.5536 33.6413C21.523 34.0593 21.2587 34.294 21.1478 34.3757C21.0283 34.4638 20.9173 34.5041 20.872 34.5195C20.7726 34.5532 20.6883 34.5643 20.6598 34.5679C20.5867 34.5772 20.5188 34.5787 20.4765 34.5791L20.4604 32.5791Z" fill="#666666" mask="url(#path-10-inside-2_89_1357)"/>
</g>
<g filter="url(#filter8_d_89_1357)">
<path d="M21.7021 21.6538C21.7021 22.0981 21.6238 22.498 21.4672 22.8535C21.3107 23.209 21.1012 23.5094 20.8388 23.7549C20.5765 24.0003 20.2718 24.1886 19.9248 24.3198C19.582 24.451 19.2223 24.5166 18.8457 24.5166L15.1767 24.5166L15.1767 22.6948L18.8457 22.6948C18.9684 22.6948 19.0911 22.6758 19.2138 22.6377C19.3408 22.5996 19.4529 22.5382 19.5503 22.4536C19.6518 22.369 19.7322 22.2611 19.7915 22.1299C19.8549 21.9987 19.8867 21.84 19.8867 21.6538C19.8867 21.4845 19.8549 21.3364 19.7915 21.2095C19.7322 21.0783 19.6518 20.9704 19.5503 20.8857C19.4529 20.7969 19.3408 20.7313 19.2138 20.689C19.0911 20.6424 18.9684 20.6191 18.8457 20.6191L15.1767 20.6191L15.7099 15.4141L21.3276 15.4141L21.3276 17.2358L17.3476 17.2358L17.1826 18.7974L18.8457 18.7974C19.2223 18.7974 19.582 18.863 19.9248 18.9941C20.2718 19.1253 20.5765 19.3158 20.8388 19.5654C21.1012 19.8109 21.3107 20.1113 21.4672 20.4668C21.6238 20.818 21.7021 21.2137 21.7021 21.6538Z" fill="#666666"/>
</g>
<defs>
<filter id="filter0_d_89_1357" x="9.24634" y="25.9607" width="42.0499" height="42.7167" filterUnits="userSpaceOnUse" color-interpolation-filters="sRGB">
<feFlood flood-opacity="0" result="BackgroundImageFix"/>
<feColorMatrix in="SourceAlpha" type="matrix" values="0 0 0 0 0 0 0 0 0 0 0 0 0 0 0 0 0 0 127 0" result="hardAlpha"/>
<feOffset/>
<feGaussianBlur stdDeviation="7.5"/>
<feComposite in2="hardAlpha" operator="out"/>
<feColorMatrix type="matrix" values="0 0 0 0 0.995833 0 0 0 0 0.434515 0 0 0 0 0.257257 0 0 0 1 0"/>
<feBlend mode="normal" in2="BackgroundImageFix" result="effect1_dropShadow_89_1357"/>
<feBlend mode="normal" in="SourceGraphic" in2="effect1_dropShadow_89_1357" result="shape"/>
</filter>
<filter id="filter1_d_89_1357" x="20.3694" y="39.8644" width="42.0499" height="42.7167" filterUnits="userSpaceOnUse" color-interpolation-filters="sRGB">
<feFlood flood-opacity="0" result="BackgroundImageFix"/>
<feColorMatrix in="SourceAlpha" type="matrix" values="0 0 0 0 0 0 0 0 0 0 0 0 0 0 0 0 0 0 127 0" result="hardAlpha"/>
<feOffset/>
<feGaussianBlur stdDeviation="7.5"/>
<feComposite in2="hardAlpha" operator="out"/>
<feColorMatrix type="matrix" values="0 0 0 0 0.995833 0 0 0 0 0.434515 0 0 0 0 0.257257 0 0 0 1 0"/>
<feBlend mode="normal" in2="BackgroundImageFix" result="effect1_dropShadow_89_1357"/>
<feBlend mode="normal" in="SourceGraphic" in2="effect1_dropShadow_89_1357" result="shape"/>
</filter>
<filter id="filter2_d_89_1357" x="30.8744" y="25.9607" width="42.0499" height="42.7167" filterUnits="userSpaceOnUse" color-interpolation-filters="sRGB">
<feFlood flood-opacity="0" result="BackgroundImageFix"/>
<feColorMatrix in="SourceAlpha" type="matrix" values="0 0 0 0 0 0 0 0 0 0 0 0 0 0 0 0 0 0 127 0" result="hardAlpha"/>
<feOffset/>
<feGaussianBlur stdDeviation="7.5"/>
<feComposite in2="hardAlpha" operator="out"/>
<feColorMatrix type="matrix" values="0 0 0 0 0.995833 0 0 0 0 0.434515 0 0 0 0 0.257257 0 0 0 1 0"/>
<feBlend mode="normal" in2="BackgroundImageFix" result="effect1_dropShadow_89_1357"/>
<feBlend mode="normal" in="SourceGraphic" in2="effect1_dropShadow_89_1357" result="shape"/>
</filter>
<filter id="filter3_d_89_1357" x="30.8744" y="55.3618" width="42.0499" height="42.7167" filterUnits="userSpaceOnUse" color-interpolation-filters="sRGB">
<feFlood flood-opacity="0" result="BackgroundImageFix"/>
<feColorMatrix in="SourceAlpha" type="matrix" values="0 0 0 0 0 0 0 0 0 0 0 0 0 0 0 0 0 0 127 0" result="hardAlpha"/>
<feOffset/>
<feGaussianBlur stdDeviation="7.5"/>
<feComposite in2="hardAlpha" operator="out"/>
<feColorMatrix type="matrix" values="0 0 0 0 0.995833 0 0 0 0 0.434515 0 0 0 0 0.257257 0 0 0 1 0"/>
<feBlend mode="normal" in2="BackgroundImageFix" result="effect1_dropShadow_89_1357"/>
<feBlend mode="normal" in="SourceGraphic" in2="effect1_dropShadow_89_1357" result="shape"/>
</filter>
<filter id="filter4_d_89_1357" x="9.86426" y="55.3618" width="42.0499" height="42.7167" filterUnits="userSpaceOnUse" color-interpolation-filters="sRGB">
<feFlood flood-opacity="0" result="BackgroundImageFix"/>
<feColorMatrix in="SourceAlpha" type="matrix" values="0 0 0 0 0 0 0 0 0 0 0 0 0 0 0 0 0 0 127 0" result="hardAlpha"/>
<feOffset/>
<feGaussianBlur stdDeviation="7.5"/>
<feComposite in2="hardAlpha" operator="out"/>
<feColorMatrix type="matrix" values="0 0 0 0 0.995833 0 0 0 0 0.434515 0 0 0 0 0.257257 0 0 0 1 0"/>
<feBlend mode="normal" in2="BackgroundImageFix" result="effect1_dropShadow_89_1357"/>
<feBlend mode="normal" in="SourceGraphic" in2="effect1_dropShadow_89_1357" result="shape"/>
</filter>
<filter id="filter5_d_89_1357" x="47.1992" y="76.9225" width="36.7749" height="37.3763" filterUnits="userSpaceOnUse" color-interpolation-filters="sRGB">
<feFlood flood-opacity="0" result="BackgroundImageFix"/>
<feColorMatrix in="SourceAlpha" type="matrix" values="0 0 0 0 0 0 0 0 0 0 0 0 0 0 0 0 0 0 127 0" result="hardAlpha"/>
<feOffset/>
<feGaussianBlur stdDeviation="7.5"/>
<feComposite in2="hardAlpha" operator="out"/>
<feColorMatrix type="matrix" values="0 0 0 0 0.995833 0 0 0 0 0.434515 0 0 0 0 0.257257 0 0 0 1 0"/>
<feBlend mode="normal" in2="BackgroundImageFix" result="effect1_dropShadow_89_1357"/>
<feBlend mode="normal" in="SourceGraphic" in2="effect1_dropShadow_89_1357" result="shape"/>
</filter>
<filter id="filter6_d_89_1357" x="47.4233" y="85.9889" width="36.5254" height="39.1025" filterUnits="userSpaceOnUse" color-interpolation-filters="sRGB">
<feFlood flood-opacity="0" result="BackgroundImageFix"/>
<feColorMatrix in="SourceAlpha" type="matrix" values="0 0 0 0 0 0 0 0 0 0 0 0 0 0 0 0 0 0 127 0" result="hardAlpha"/>
<feOffset/>
<feGaussianBlur stdDeviation="7.5"/>
<feComposite in2="hardAlpha" operator="out"/>
<feColorMatrix type="matrix" values="0 0 0 0 0.995833 0 0 0 0 0.434515 0 0 0 0 0.257257 0 0 0 1 0"/>
<feBlend mode="normal" in2="BackgroundImageFix" result="effect1_dropShadow_89_1357"/>
<feBlend mode="normal" in="SourceGraphic" in2="effect1_dropShadow_89_1357" result="shape"/>
</filter>
<filter id="filter7_d_89_1357" x="0.151367" y="11.2067" width="36.7749" height="37.3763" filterUnits="userSpaceOnUse" color-interpolation-filters="sRGB">
<feFlood flood-opacity="0" result="BackgroundImageFix"/>
<feColorMatrix in="SourceAlpha" type="matrix" values="0 0 0 0 0 0 0 0 0 0 0 0 0 0 0 0 0 0 127 0" result="hardAlpha"/>
<feOffset/>
<feGaussianBlur stdDeviation="7.5"/>
<feComposite in2="hardAlpha" operator="out"/>
<feColorMatrix type="matrix" values="0 0 0 0 0.995833 0 0 0 0 0.434515 0 0 0 0 0.257257 0 0 0 1 0"/>
<feBlend mode="normal" in2="BackgroundImageFix" result="effect1_dropShadow_89_1357"/>
<feBlend mode="normal" in="SourceGraphic" in2="effect1_dropShadow_89_1357" result="shape"/>
</filter>
<filter id="filter8_d_89_1357" x="0.176758" y="0.414062" width="36.5254" height="39.1025" filterUnits="userSpaceOnUse" color-interpolation-filters="sRGB">
<feFlood flood-opacity="0" result="BackgroundImageFix"/>
<feColorMatrix in="SourceAlpha" type="matrix" values="0 0 0 0 0 0 0 0 0 0 0 0 0 0 0 0 0 0 127 0" result="hardAlpha"/>
<feOffset/>
<feGaussianBlur stdDeviation="7.5"/>
<feComposite in2="hardAlpha" operator="out"/>
<feColorMatrix type="matrix" values="0 0 0 0 0.995833 0 0 0 0 0.434515 0 0 0 0 0.257257 0 0 0 1 0"/>
<feBlend mode="normal" in2="BackgroundImageFix" result="effect1_dropShadow_89_1357"/>
<feBlend mode="normal" in="SourceGraphic" in2="effect1_dropShadow_89_1357" result="shape"/>
</filter>
</defs>
</svg>
