<svg width="27" height="28" viewBox="0 0 27 28" fill="none" xmlns="http://www.w3.org/2000/svg">
<path d="M4.4 16.7591V17.7591H5.4H16.2H17.2V16.7591V14.0591V13.7091H21.6H22.6V12.7091V10.0091V9.65908V9.00908V8.65908V5.95908V4.95908H21.6H5.4H4.4V5.95908V8.65908V9.00908V9.65908V10.0091V12.7091V13.0591V13.7091V14.0591V16.7591ZM2.69879 1.55908H2.7H24.3C24.7749 1.55908 25.1571 1.71665 25.5004 2.05999C25.8437 2.40329 26.0006 2.78464 26 3.25787V3.25908V19.4591C26 19.934 25.8424 20.3162 25.4991 20.6595C25.1558 21.0028 24.7744 21.1597 24.3012 21.1591H24.3H5.4H4.98579L4.69289 21.452L1 25.1449V3.25908C1 2.78416 1.15757 2.40198 1.50091 2.05864C1.84421 1.71534 2.22555 1.55851 2.69879 1.55908ZM2.7 0.559084H24.3C25.0425 0.559084 25.6783 0.823684 26.2075 1.35288C26.7367 1.88208 27.0009 2.51748 27 3.25908V19.4591C27 20.2016 26.7354 20.8374 26.2062 21.3666C25.677 21.8958 25.0416 22.16 24.3 22.1591L2.7 0.559084Z" stroke="#666666" stroke-width="2"/>
</svg>
