<svg width="28" height="29" viewBox="0 0 28 29" fill="none" xmlns="http://www.w3.org/2000/svg">
<path d="M12.2687 0.174656C7.37985 1.30757 5.2093 6.6341 8.08269 10.4714C8.63049 11.2114 9.60207 12.0337 10.4393 12.4631C11.2558 12.8834 11.8346 13.4681 12.4548 14.5371C12.8372 15.1675 13.385 16.3461 13.385 16.5014C13.385 16.5379 13.1576 16.2547 12.8682 15.871C10.6047 12.8194 6.11886 12.1068 2.87338 14.2813C1.7261 15.0487 0.702842 16.3826 0.248062 17.7165C0.0516796 18.2739 0.0103359 18.6211 0 19.5895C0 20.8412 0.103359 21.362 0.537468 22.3122C1.14729 23.6461 2.48062 24.9617 3.86563 25.6104C6.80103 26.9717 10.3773 26.2956 12.4444 23.9841C12.7235 23.6735 13.0439 23.2623 13.1576 23.0613C13.4574 22.5588 13.4367 22.7781 13.1163 23.5273C12.7235 24.4592 12.1034 25.4551 11.5142 26.0946C10.2119 27.5473 8.04134 28.6345 6.0155 28.863C5.62274 28.8995 5.29199 28.9543 5.27132 28.9726C5.25065 28.9909 9.17829 29 14.0052 29C18.8217 29 22.7183 28.9726 22.6563 28.936C22.584 28.8995 22.3876 28.863 22.2119 28.863C21.6744 28.863 20.1137 28.4244 19.2661 28.0315C17.8398 27.3737 16.5065 26.2317 15.7106 24.9708C15.3385 24.4044 14.6977 23.0979 14.7597 23.0522C14.7804 23.0339 14.9871 23.2806 15.2248 23.6095C16.0103 24.6602 17.3127 25.5373 18.7804 26.0124C19.4625 26.2317 19.6796 26.2591 20.9302 26.2591C22.1809 26.2591 22.3979 26.2317 23.0801 26.0124C25.416 25.2632 27.0698 23.6735 27.7726 21.4899C27.9587 20.9051 28 20.5671 28 19.5895C27.9897 18.5114 27.9587 18.3195 27.6589 17.5338C26.7183 15.0487 24.5375 13.4042 21.7158 13.0478C19.2868 12.7463 16.6718 13.8427 15.1835 15.7979C14.9354 16.1268 14.7287 16.3735 14.7287 16.3461C14.7287 16.2273 15.1835 15.268 15.4935 14.7198C15.9793 13.861 16.6615 13.0753 17.3747 12.5453C18.7494 11.5221 19.6382 10.6541 20.0827 9.88665C20.7132 8.81769 20.9406 7.9406 20.9509 6.6615C20.9716 5.00781 20.4651 3.66476 19.3385 2.3948C18.6563 1.62734 18.0879 1.20707 17.0853 0.722839C15.5969 0.0102024 13.8398 -0.181664 12.2687 0.174656Z" fill="white"/>
</svg>
