<svg width="24" height="29" viewBox="0 0 24 29" fill="none" xmlns="http://www.w3.org/2000/svg">
<path d="M11.1971 1.20833C10.0765 3.00253 7.95882 6.12405 7.07647 7.26831C6.01765 8.65057 3.37059 11.3785 0.547059 14.0057L0 14.5092L1.60588 16.0287C3.74118 18.0518 6.05294 20.4501 6.9 21.5303C7.75588 22.6196 9.50294 25.1645 10.8882 27.3431C11.4706 28.2494 11.9647 29 11.9912 29C12.0176 29 12.5559 28.1944 13.2 27.1967C14.5059 25.1645 15.9971 22.9858 16.8441 21.8507C17.5853 20.8621 19.7471 18.5735 21.6971 16.7061C22.5441 15.9006 23.4088 15.0676 23.6206 14.8662L24 14.5L22.4824 13.0811C20.1 10.8475 17.6912 8.32102 16.7559 7.05777C15.7588 5.71212 13.9853 3.10322 12.8559 1.29987C12.4059 0.585858 12.0176 0 11.9912 0C11.9647 0 11.6118 0.540089 11.1971 1.20833Z" fill="#FE0B0A"/>
</svg>
