<svg width="166" height="62" viewBox="0 0 166 62" fill="none" xmlns="http://www.w3.org/2000/svg">
<g filter="url(#filter0_ddddd_90_3095)">
<path d="M21.8989 19.772C21.6589 19.772 21.4429 19.892 21.2509 20.132V29.636H26.3269V30.5L24.5269 31.4H21.2509V35C21.2509 37.664 21.5149 39.224 22.0429 39.68C22.8349 40.352 23.6989 40.736 24.6349 40.832C25.5709 40.928 26.5789 40.976 27.6589 40.976V42.02C27.5389 42.02 26.6509 42.356 24.9949 43.028C23.3389 43.676 22.3309 44 21.9709 44C21.2269 44 20.1949 43.424 18.8749 42.272C17.5789 41.12 16.9309 39.872 16.9309 38.528V19.592C16.9309 19.424 18.2989 18.836 21.0349 17.828C23.7949 16.796 25.3789 16.28 25.7869 16.28C25.9309 16.28 26.0989 16.628 26.2909 17.324C26.4829 18.02 26.6989 18.86 26.9389 19.844C27.2029 20.828 27.4669 21.56 27.7309 22.04C28.0189 22.496 28.5469 22.724 29.3149 22.724V23.444C28.7869 23.684 27.8869 24.116 26.6149 24.74C25.3669 25.34 24.6949 25.64 24.5989 25.64C24.2389 25.64 23.7829 24.668 23.2309 22.724C22.6789 20.756 22.2349 19.772 21.8989 19.772ZM31.4855 41.552V29.348C31.4855 28.556 31.3175 27.872 30.9815 27.296C30.6455 26.72 30.2255 26.432 29.7215 26.432V25.64C29.8895 25.616 31.1975 24.884 33.6455 23.444C33.8135 23.492 34.0175 23.564 34.2575 23.66C34.4975 23.732 34.8095 23.96 35.1935 24.344C35.6015 24.728 35.8055 25.172 35.8055 25.676C35.9495 25.604 36.3575 25.376 37.0295 24.992C38.8055 23.984 39.8615 23.48 40.1975 23.48C40.9655 23.48 41.6855 23.984 42.3575 24.992C43.0295 26 43.3655 26.924 43.3655 27.764V38.672C43.3655 39.992 43.9535 40.772 45.1295 41.012V41.804L41.2055 44C40.6775 43.784 40.1855 43.436 39.7295 42.956C39.2735 42.452 39.0455 41.984 39.0455 41.552V31.112C39.0455 29.768 38.8895 28.748 38.5775 28.052C38.2895 27.332 37.7615 26.972 36.9935 26.972L35.8055 27.188V38.672C35.8055 40.136 36.2975 40.964 37.2815 41.156V41.948L33.6455 44C33.1175 43.784 32.6255 43.436 32.1695 42.956C31.7135 42.452 31.4855 41.984 31.4855 41.552ZM51.2743 19.736V24.02H53.1103L52.7503 25.784H51.2743V38.672C51.2743 40.136 51.7663 40.964 52.7503 41.156V41.948L49.1143 44C48.5863 43.784 48.0943 43.436 47.6383 42.956C47.1823 42.452 46.9543 41.984 46.9543 41.552V25.82H45.4783L45.8383 24.308C46.5583 24.308 47.4223 23.828 48.4303 22.868C49.4623 21.884 50.0743 20.84 50.2663 19.736H51.2743ZM63.6845 23.48C63.8045 23.48 64.1045 23.672 64.5845 24.056C65.0645 24.416 65.5445 24.932 66.0245 25.604C66.5045 26.252 66.7445 26.888 66.7445 27.512V33.56C66.7445 33.992 66.1085 34.52 64.8365 35.144C63.5645 35.768 62.3285 36.284 61.1285 36.692C59.9525 37.076 59.3165 37.268 59.2205 37.268C59.2205 39.116 60.0245 40.256 61.6325 40.688C62.4245 40.88 63.3725 40.976 64.4765 40.976V42.02C60.5405 43.34 58.4405 44 58.1765 44C57.4565 44 56.7245 43.496 55.9805 42.488C55.2365 41.456 54.8645 40.256 54.8645 38.888V26.792C54.8645 26.624 56.2325 26.036 58.9685 25.028C61.7045 23.996 63.2765 23.48 63.6845 23.48ZM62.4245 29.204C62.4245 28.532 62.2685 27.968 61.9565 27.512C61.6445 27.032 61.2485 26.792 60.7685 26.792C60.2885 26.792 59.7605 26.972 59.1845 27.332V35.648C61.3445 35.048 62.4245 33.752 62.4245 31.76V29.204ZM68.3934 25.64L72.3534 23.48C72.5214 23.528 72.7134 23.6 72.9294 23.696C73.1694 23.768 73.4814 23.996 73.8654 24.38C74.2734 24.764 74.4774 25.196 74.4774 25.676C74.5974 25.628 75.1614 25.256 76.1694 24.56C77.2014 23.84 77.8614 23.48 78.1494 23.48C78.9174 23.48 79.6374 23.984 80.3094 24.992C80.9814 26 81.3174 26.924 81.3174 27.764V29.528L77.6094 31.616L76.9974 31.112C76.9974 29.096 76.8054 27.944 76.4214 27.656C75.9894 27.344 75.3414 27.188 74.4774 27.188V38.672C74.4774 40.136 74.9694 40.964 75.9534 41.156V41.948L72.3174 44C71.7894 43.784 71.2974 43.436 70.8414 42.956C70.3854 42.452 70.1574 41.984 70.1574 41.552V29.6C70.1574 28.544 69.9654 27.752 69.5814 27.224C69.2214 26.696 68.8254 26.432 68.3934 26.432V25.64ZM90.6887 39.896V22.148C90.6887 21.356 90.5207 20.672 90.1847 20.096C89.8487 19.52 89.4287 19.232 88.9247 19.232V18.44C89.0927 18.416 90.4007 17.684 92.8487 16.244C93.0167 16.292 93.2207 16.364 93.4607 16.46C93.7007 16.532 94.0127 16.76 94.3967 17.144C94.8047 17.528 95.0087 17.972 95.0087 18.476C95.1527 18.404 95.5607 18.176 96.2327 17.792C98.0087 16.784 99.0647 16.28 99.4007 16.28C100.169 16.28 100.889 16.784 101.561 17.792C102.233 18.8 102.569 19.724 102.569 20.564V38.672C102.569 39.992 103.157 40.772 104.333 41.012V41.804L100.409 44C99.8807 43.784 99.3887 43.436 98.9327 42.956C98.4767 42.452 98.2487 41.984 98.2487 41.552V23.912C98.2487 22.4 98.0207 21.368 97.5647 20.816C97.1327 20.264 96.2807 19.988 95.0087 19.988V38.456C95.0087 39.416 95.1287 40.076 95.3687 40.436C95.6087 40.772 95.9807 40.94 96.4847 40.94V42.056L89.1047 45.152L88.5287 44C89.0087 44 89.4767 43.712 89.9327 43.136C90.4367 42.464 90.6887 41.384 90.6887 39.896ZM106.157 38.744V26.792C106.157 26.624 107.525 26.036 110.261 25.028C112.997 23.996 114.569 23.48 114.977 23.48C115.385 23.48 115.997 23.972 116.813 24.956C117.653 25.94 118.073 26.828 118.073 27.62V40.652C118.073 40.844 116.753 41.456 114.113 42.488C111.497 43.496 109.889 44 109.289 44C108.713 44 108.041 43.484 107.273 42.452C106.529 41.42 106.157 40.184 106.157 38.744ZM112.313 40.688C112.769 40.688 113.237 40.496 113.717 40.112V29.492C113.717 27.716 113.105 26.828 111.881 26.828C111.401 26.828 110.933 27.008 110.477 27.368V38.024C110.477 39.8 111.089 40.688 112.313 40.688ZM129.221 28.772C129.221 27.452 128.633 26.672 127.457 26.432V25.64C130.049 24.2 131.357 23.48 131.381 23.48C131.597 23.48 131.981 23.72 132.533 24.2C133.085 24.656 133.421 25.148 133.541 25.676C133.589 25.628 134.321 25.256 135.737 24.56C137.153 23.84 137.873 23.48 137.897 23.48C138.377 23.48 138.905 23.768 139.481 24.344C140.585 25.448 141.137 26.924 141.137 28.772V40.652C141.137 40.868 139.853 41.48 137.285 42.488C134.717 43.496 133.121 44 132.497 44C131.369 44 130.433 43.256 129.689 41.768C127.049 43.256 125.381 44 124.685 44C123.989 44 123.305 43.496 122.633 42.488C121.985 41.456 121.661 40.508 121.661 39.644V28.772C121.661 27.452 121.073 26.672 119.897 26.432V25.64L123.821 23.444C124.349 23.66 124.841 24.02 125.297 24.524C125.753 25.004 125.981 25.448 125.981 25.856V36.98C125.981 39.26 126.689 40.4 128.105 40.4C128.465 40.4 128.837 40.328 129.221 40.184V28.772ZM133.577 37.34C133.577 38.108 133.721 38.828 134.009 39.5C134.321 40.148 134.741 40.472 135.269 40.472C135.797 40.472 136.301 40.364 136.781 40.148V30.068C136.781 28.82 136.529 27.992 136.025 27.584C135.521 27.152 134.705 26.924 133.577 26.9V37.34ZM144.724 41.696V39.5C144.724 39.428 145.216 39.212 146.2 38.852C147.208 38.468 147.784 38.276 147.928 38.276C148.096 38.276 148.324 38.48 148.612 38.888C148.924 39.296 149.08 39.716 149.08 40.148V42.776C149.08 42.848 148.6 43.076 147.64 43.46C146.68 43.82 146.092 44 145.876 44C145.66 44 145.408 43.796 145.12 43.388C144.856 42.956 144.724 42.392 144.724 41.696Z" fill="#1C1D21"/>
</g>
<defs>
<filter id="filter0_ddddd_90_3095" x="0.930847" y="0.243896" width="164.149" height="60.9082" filterUnits="userSpaceOnUse" color-interpolation-filters="sRGB">
<feFlood flood-opacity="0" result="BackgroundImageFix"/>
<feColorMatrix in="SourceAlpha" type="matrix" values="0 0 0 0 0 0 0 0 0 0 0 0 0 0 0 0 0 0 127 0" result="hardAlpha"/>
<feOffset/>
<feGaussianBlur stdDeviation="8"/>
<feComposite in2="hardAlpha" operator="out"/>
<feColorMatrix type="matrix" values="0 0 0 0 0.996078 0 0 0 0 0.0431373 0 0 0 0 0.0392157 0 0 0 1 0"/>
<feBlend mode="normal" in2="BackgroundImageFix" result="effect1_dropShadow_90_3095"/>
<feColorMatrix in="SourceAlpha" type="matrix" values="0 0 0 0 0 0 0 0 0 0 0 0 0 0 0 0 0 0 127 0" result="hardAlpha"/>
<feOffset/>
<feGaussianBlur stdDeviation="8"/>
<feComposite in2="hardAlpha" operator="out"/>
<feColorMatrix type="matrix" values="0 0 0 0 0.996078 0 0 0 0 0.0431373 0 0 0 0 0.0392157 0 0 0 1 0"/>
<feBlend mode="normal" in2="effect1_dropShadow_90_3095" result="effect2_dropShadow_90_3095"/>
<feColorMatrix in="SourceAlpha" type="matrix" values="0 0 0 0 0 0 0 0 0 0 0 0 0 0 0 0 0 0 127 0" result="hardAlpha"/>
<feOffset/>
<feGaussianBlur stdDeviation="8"/>
<feComposite in2="hardAlpha" operator="out"/>
<feColorMatrix type="matrix" values="0 0 0 0 0.996078 0 0 0 0 0.0431373 0 0 0 0 0.0392157 0 0 0 1 0"/>
<feBlend mode="normal" in2="effect2_dropShadow_90_3095" result="effect3_dropShadow_90_3095"/>
<feColorMatrix in="SourceAlpha" type="matrix" values="0 0 0 0 0 0 0 0 0 0 0 0 0 0 0 0 0 0 127 0" result="hardAlpha"/>
<feOffset/>
<feGaussianBlur stdDeviation="8"/>
<feComposite in2="hardAlpha" operator="out"/>
<feColorMatrix type="matrix" values="0 0 0 0 0.996078 0 0 0 0 0.0431373 0 0 0 0 0.0392157 0 0 0 1 0"/>
<feBlend mode="normal" in2="effect3_dropShadow_90_3095" result="effect4_dropShadow_90_3095"/>
<feColorMatrix in="SourceAlpha" type="matrix" values="0 0 0 0 0 0 0 0 0 0 0 0 0 0 0 0 0 0 127 0" result="hardAlpha"/>
<feOffset/>
<feGaussianBlur stdDeviation="8"/>
<feComposite in2="hardAlpha" operator="out"/>
<feColorMatrix type="matrix" values="0 0 0 0 0.996078 0 0 0 0 0.0431373 0 0 0 0 0.0392157 0 0 0 1 0"/>
<feBlend mode="normal" in2="effect4_dropShadow_90_3095" result="effect5_dropShadow_90_3095"/>
<feBlend mode="normal" in="SourceGraphic" in2="effect5_dropShadow_90_3095" result="shape"/>
</filter>
</defs>
</svg>
