<svg width="118" height="126" viewBox="0 0 118 126" fill="none" xmlns="http://www.w3.org/2000/svg">
<g filter="url(#filter0_f_90_3089)">
<path d="M59.3507 22.1161C58.8966 26.511 56.8532 31.5028 53.5895 36.142C50.4109 40.6726 47.4309 43.9009 35.7381 55.4038C27.3091 63.7054 23.648 68.5073 21.86 73.6618C19.4477 80.5527 22.2574 89.1256 28.4443 93.7918C31.9351 96.4505 35.9935 97.8069 40.4209 97.8341C43.6847 97.8341 45.9267 97.3186 49.1905 95.7994C52.0285 94.47 55.4058 91.4587 56.8816 88.9628C57.3925 88.0946 57.8465 87.4435 57.9033 87.4978C57.9601 87.5521 57.6763 88.4202 57.3073 89.4782C54.8382 96.0164 50.5811 100.764 44.8483 103.423C42.2656 104.616 38.8316 105.593 37.2423 105.593C36.6747 105.593 36.1354 105.674 36.0787 105.783C35.9935 105.919 46.6362 106 59.7197 106C72.8031 106 83.4742 105.973 83.4174 105.919C83.389 105.864 82.5092 105.729 81.4591 105.566C79.1887 105.268 76.6912 104.481 74.0518 103.233C68.4609 100.574 64.3457 96.0435 61.8482 89.6953C60.8549 87.1994 60.9684 87.0095 62.1888 89.017C65.935 95.0397 73.8532 98.7565 80.8631 97.7527C85.6595 97.0744 89.207 95.311 92.5559 91.947C95.8481 88.6372 97.636 84.6492 97.9482 80.0644C98.4874 71.7899 94.9683 66.2013 80.1536 51.7413C76.0101 47.7262 71.6962 43.4126 70.561 42.1918C63.8348 34.8126 60.4292 28.4372 59.748 21.8991L59.5494 20L59.3507 22.1161Z" stroke="#FE9C42" stroke-opacity="0.2" stroke-width="20" stroke-linejoin="round"/>
</g>
<g filter="url(#filter1_f_90_3089)">
<path d="M59.3507 22.1161C58.8966 26.511 56.8532 31.5028 53.5895 36.142C50.4109 40.6726 47.4309 43.9009 35.7381 55.4038C27.3091 63.7054 23.648 68.5073 21.86 73.6618C19.4477 80.5527 22.2574 89.1256 28.4443 93.7918C31.9351 96.4505 35.9935 97.8069 40.4209 97.8341C43.6847 97.8341 45.9267 97.3186 49.1905 95.7994C52.0285 94.47 55.4058 91.4587 56.8816 88.9628C57.3925 88.0946 57.8465 87.4435 57.9033 87.4978C57.9601 87.552 57.6763 88.4202 57.3073 89.4782C54.8382 96.0164 50.5811 100.764 44.8483 103.423C42.2656 104.616 38.8316 105.593 37.2423 105.593C36.6747 105.593 36.1354 105.674 36.0787 105.783C35.9935 105.919 46.6362 106 59.7197 106C72.8031 106 83.4742 105.973 83.4174 105.919C83.389 105.864 82.5092 105.729 81.4591 105.566C79.1887 105.268 76.6912 104.481 74.0518 103.233C68.4609 100.574 64.3457 96.0435 61.8482 89.6953C60.8549 87.1994 60.9684 87.0095 62.1888 89.017C65.935 95.0397 73.8532 98.7565 80.8631 97.7527C85.6595 97.0744 89.207 95.311 92.5559 91.947C95.8481 88.6372 97.636 84.6492 97.9482 80.0644C98.4874 71.7899 94.9683 66.2013 80.1536 51.7413C76.0101 47.7262 71.6962 43.4126 70.561 42.1918C63.8348 34.8126 60.4292 28.4372 59.748 21.8991L59.5494 20L59.3507 22.1161Z" stroke="#FE9C42" stroke-opacity="0.5" stroke-width="10" stroke-linejoin="round"/>
</g>
<g filter="url(#filter2_f_90_3089)">
<path d="M59.3507 22.1161C58.8966 26.511 56.8532 31.5028 53.5895 36.142C50.4109 40.6726 47.4309 43.9009 35.7381 55.4038C27.3091 63.7054 23.648 68.5073 21.86 73.6618C19.4477 80.5527 22.2574 89.1256 28.4443 93.7918C31.9351 96.4505 35.9935 97.8069 40.4209 97.8341C43.6847 97.8341 45.9267 97.3186 49.1905 95.7994C52.0285 94.47 55.4058 91.4587 56.8816 88.9628C57.3925 88.0946 57.8465 87.4435 57.9033 87.4978C57.9601 87.5521 57.6763 88.4202 57.3073 89.4782C54.8382 96.0164 50.5811 100.764 44.8483 103.423C42.2656 104.616 38.8316 105.593 37.2423 105.593C36.6747 105.593 36.1354 105.674 36.0787 105.783C35.9935 105.919 46.6362 106 59.7197 106C72.8031 106 83.4742 105.973 83.4174 105.919C83.389 105.864 82.5092 105.729 81.4591 105.566C79.1887 105.268 76.6912 104.481 74.0518 103.233C68.4609 100.574 64.3457 96.0435 61.8482 89.6953C60.8549 87.1994 60.9684 87.0095 62.1888 89.017C65.935 95.0397 73.8532 98.7565 80.8631 97.7527C85.6595 97.0744 89.207 95.311 92.5559 91.947C95.8481 88.6372 97.636 84.6492 97.9482 80.0644C98.4874 71.7899 94.9683 66.2013 80.1536 51.7413C76.0101 47.7262 71.6962 43.4126 70.561 42.1918C63.8348 34.8126 60.4292 28.4372 59.748 21.8991L59.5494 20L59.3507 22.1161Z" stroke="#FFC085" stroke-opacity="0.6" stroke-width="4" stroke-linejoin="round"/>
</g>
<g filter="url(#filter3_f_90_3089)">
<path d="M59.3507 22.1161C58.8966 26.511 56.8532 31.5028 53.5895 36.142C50.4109 40.6726 47.4309 43.9009 35.7381 55.4038C27.3091 63.7054 23.648 68.5073 21.86 73.6618C19.4477 80.5527 22.2574 89.1256 28.4443 93.7918C31.9351 96.4505 35.9935 97.8069 40.4209 97.8341C43.6847 97.8341 45.9267 97.3186 49.1905 95.7994C52.0285 94.47 55.4058 91.4587 56.8816 88.9628C57.3925 88.0946 57.8465 87.4435 57.9033 87.4978C57.9601 87.5521 57.6763 88.4202 57.3073 89.4782C54.8382 96.0164 50.5811 100.764 44.8483 103.423C42.2656 104.616 38.8316 105.593 37.2423 105.593C36.6747 105.593 36.1354 105.674 36.0787 105.783C35.9935 105.919 46.6362 106 59.7197 106C72.8031 106 83.4742 105.973 83.4174 105.919C83.389 105.864 82.5092 105.729 81.4591 105.566C79.1887 105.268 76.6912 104.481 74.0518 103.233C68.4609 100.574 64.3457 96.0435 61.8482 89.6953C60.8549 87.1994 60.9684 87.0095 62.1888 89.017C65.935 95.0397 73.8532 98.7565 80.8631 97.7527C85.6595 97.0744 89.207 95.311 92.5559 91.947C95.8481 88.6372 97.636 84.6492 97.9482 80.0644C98.4874 71.7899 94.9683 66.2013 80.1536 51.7413C76.0101 47.7262 71.6962 43.4126 70.561 42.1918C63.8348 34.8126 60.4292 28.4372 59.748 21.8991L59.5494 20L59.3507 22.1161Z" stroke="#FFE8BA" stroke-width="5" stroke-linejoin="round"/>
</g>
<path d="M59.3507 22.1161C58.8966 26.511 56.8532 31.5028 53.5895 36.142C50.4109 40.6726 47.4309 43.9009 35.7381 55.4038C27.3091 63.7054 23.648 68.5073 21.86 73.6618C19.4477 80.5527 22.2574 89.1256 28.4443 93.7918C31.9351 96.4505 35.9935 97.8069 40.4209 97.8341C43.6847 97.8341 45.9267 97.3186 49.1905 95.7994C52.0285 94.47 55.4058 91.4587 56.8816 88.9628C57.3925 88.0946 57.8465 87.4435 57.9033 87.4978C57.9601 87.5521 57.6763 88.4202 57.3073 89.4782C54.8382 96.0164 50.5811 100.764 44.8483 103.423C42.2656 104.616 38.8316 105.593 37.2423 105.593C36.6747 105.593 36.1354 105.674 36.0787 105.783C35.9935 105.919 46.6362 106 59.7197 106C72.8031 106 83.4742 105.973 83.4174 105.919C83.389 105.864 82.5092 105.729 81.4591 105.566C79.1887 105.268 76.6912 104.481 74.0518 103.233C68.4609 100.574 64.3457 96.0435 61.8482 89.6953C60.8549 87.1994 60.9684 87.0095 62.1888 89.017C65.935 95.0397 73.8532 98.7565 80.8631 97.7527C85.6595 97.0744 89.207 95.311 92.5559 91.947C95.8481 88.6372 97.636 84.6492 97.9482 80.0644C98.4874 71.7899 94.9683 66.2013 80.1536 51.7413C76.0101 47.7262 71.6962 43.4126 70.561 42.1918C63.8348 34.8126 60.4292 28.4372 59.748 21.8991L59.5494 20L59.3507 22.1161Z" stroke="#FFF7E8" stroke-width="2"/>
<defs>
<filter id="filter0_f_90_3089" x="0.992722" y="0" width="117.007" height="126" filterUnits="userSpaceOnUse" color-interpolation-filters="sRGB">
<feFlood flood-opacity="0" result="BackgroundImageFix"/>
<feBlend mode="normal" in="SourceGraphic" in2="BackgroundImageFix" result="shape"/>
<feGaussianBlur stdDeviation="5" result="effect1_foregroundBlur_90_3089"/>
</filter>
<filter id="filter1_f_90_3089" x="7.99641" y="7" width="103.003" height="112" filterUnits="userSpaceOnUse" color-interpolation-filters="sRGB">
<feFlood flood-opacity="0" result="BackgroundImageFix"/>
<feBlend mode="normal" in="SourceGraphic" in2="BackgroundImageFix" result="shape"/>
<feGaussianBlur stdDeviation="4" result="effect1_foregroundBlur_90_3089"/>
</filter>
<filter id="filter2_f_90_3089" x="10.9986" y="10" width="97.0012" height="106" filterUnits="userSpaceOnUse" color-interpolation-filters="sRGB">
<feFlood flood-opacity="0" result="BackgroundImageFix"/>
<feBlend mode="normal" in="SourceGraphic" in2="BackgroundImageFix" result="shape"/>
<feGaussianBlur stdDeviation="4" result="effect1_foregroundBlur_90_3089"/>
</filter>
<filter id="filter3_f_90_3089" x="14.4982" y="13.5" width="90.0015" height="99" filterUnits="userSpaceOnUse" color-interpolation-filters="sRGB">
<feFlood flood-opacity="0" result="BackgroundImageFix"/>
<feBlend mode="normal" in="SourceGraphic" in2="BackgroundImageFix" result="shape"/>
<feGaussianBlur stdDeviation="2" result="effect1_foregroundBlur_90_3089"/>
</filter>
</defs>
</svg>
