<svg width="130" height="126" viewBox="0 0 130 126" fill="none" xmlns="http://www.w3.org/2000/svg">
<g filter="url(#filter0_f_90_3083)">
<path d="M59.4352 20.5179C43.7209 23.8776 36.7442 39.6735 45.9801 51.0531C47.7409 53.2477 50.8638 55.6862 53.5548 56.9596C56.1794 58.2059 58.0399 59.9399 60.0332 63.11C61.2625 64.9794 63.0233 68.4746 63.0233 68.9352C63.0233 69.0436 62.2924 68.2037 61.3621 67.0657C54.0864 58.0163 39.6678 55.9029 29.2359 62.3513C25.5482 64.6272 22.2591 68.583 20.7973 72.5387C20.1661 74.1915 20.0332 75.221 20 78.093C20 81.8049 20.3322 83.3493 21.7276 86.1671C23.6877 90.1228 27.9734 94.0244 32.4252 95.9481C41.8605 99.9851 53.3555 97.9801 60 91.1253C60.897 90.2041 61.9269 88.9849 62.2924 88.3888C63.2558 86.8986 63.1894 87.5489 62.1595 89.7706C60.897 92.5342 58.9037 95.4875 57.01 97.3841C52.8239 101.692 45.8472 104.916 39.3355 105.594C38.0731 105.702 37.01 105.865 36.9435 105.919C36.8771 105.973 49.5017 106 65.0166 106C80.4983 106 93.0233 105.919 92.8239 105.81C92.5914 105.702 91.9601 105.594 91.3954 105.594C89.6678 105.594 84.6512 104.293 81.9269 103.128C77.3422 101.177 73.0565 97.7905 70.4983 94.0515C69.3023 92.3716 67.2425 88.4972 67.4419 88.3617C67.5083 88.3075 68.1728 89.0391 68.9369 90.0145C71.4618 93.1303 75.6478 95.7313 80.3655 97.1402C82.5581 97.7905 83.2558 97.8718 87.2757 97.8718C91.2957 97.8718 91.9934 97.7905 94.186 97.1402C101.694 94.9185 107.01 90.2041 109.269 83.7286C109.867 81.9946 110 80.9921 110 78.093C109.967 74.8959 109.867 74.3269 108.904 71.9968C105.88 64.6272 98.8704 59.7503 89.8007 58.6936C81.9934 57.7995 73.588 61.0508 68.804 66.849C68.0066 67.8243 67.3422 68.5559 67.3422 68.4746C67.3422 68.1224 68.804 65.2775 69.8007 63.6518C71.3621 61.105 73.5548 58.7749 75.8472 57.2034C80.2658 54.1689 83.1229 51.5949 84.5515 49.319C86.5781 46.149 87.309 43.548 87.3422 39.7548C87.4086 34.8508 85.7807 30.8679 82.1595 27.1018C79.9668 24.8259 78.1395 23.5796 74.9169 22.1436C70.1329 20.0303 64.4851 19.4613 59.4352 20.5179Z" stroke="#FE9C42" stroke-opacity="0.2" stroke-width="20"/>
</g>
<g filter="url(#filter1_f_90_3083)">
<path d="M59.4352 20.5179C43.7209 23.8776 36.7442 39.6735 45.9801 51.0531C47.7409 53.2477 50.8638 55.6862 53.5548 56.9596C56.1794 58.2059 58.0399 59.9399 60.0332 63.11C61.2625 64.9794 63.0233 68.4746 63.0233 68.9352C63.0233 69.0436 62.2924 68.2037 61.3621 67.0657C54.0864 58.0163 39.6678 55.9029 29.2359 62.3513C25.5482 64.6272 22.2591 68.583 20.7973 72.5387C20.1661 74.1915 20.0332 75.221 20 78.093C20 81.8049 20.3322 83.3493 21.7276 86.1671C23.6877 90.1228 27.9734 94.0244 32.4252 95.9481C41.8605 99.9851 53.3555 97.9801 60 91.1253C60.897 90.2041 61.9269 88.9849 62.2924 88.3888C63.2558 86.8986 63.1894 87.5489 62.1595 89.7706C60.897 92.5342 58.9037 95.4875 57.01 97.3841C52.8239 101.692 45.8472 104.916 39.3355 105.594C38.0731 105.702 37.01 105.865 36.9435 105.919C36.8771 105.973 49.5017 106 65.0166 106C80.4983 106 93.0233 105.919 92.8239 105.81C92.5914 105.702 91.9601 105.594 91.3954 105.594C89.6678 105.594 84.6512 104.293 81.9269 103.128C77.3422 101.177 73.0565 97.7905 70.4983 94.0515C69.3023 92.3716 67.2425 88.4972 67.4419 88.3617C67.5083 88.3075 68.1728 89.0391 68.9369 90.0145C71.4618 93.1303 75.6478 95.7313 80.3655 97.1402C82.5581 97.7905 83.2558 97.8718 87.2757 97.8718C91.2957 97.8718 91.9934 97.7905 94.186 97.1402C101.694 94.9185 107.01 90.2041 109.269 83.7286C109.867 81.9946 110 80.9921 110 78.093C109.967 74.8959 109.867 74.3269 108.904 71.9968C105.88 64.6272 98.8704 59.7503 89.8007 58.6936C81.9934 57.7995 73.588 61.0508 68.804 66.849C68.0066 67.8243 67.3422 68.5559 67.3422 68.4746C67.3422 68.1224 68.804 65.2775 69.8007 63.6518C71.3621 61.105 73.5548 58.7749 75.8472 57.2034C80.2658 54.1689 83.1229 51.5949 84.5515 49.319C86.5781 46.149 87.309 43.548 87.3422 39.7548C87.4086 34.8508 85.7807 30.8679 82.1595 27.1018C79.9668 24.8259 78.1395 23.5796 74.9169 22.1436C70.1329 20.0303 64.4851 19.4613 59.4352 20.5179Z" stroke="#FE9C42" stroke-opacity="0.5" stroke-width="10"/>
</g>
<g filter="url(#filter2_f_90_3083)">
<path d="M59.4352 20.5179C43.7209 23.8776 36.7442 39.6735 45.9801 51.0531C47.7409 53.2477 50.8638 55.6862 53.5548 56.9596C56.1794 58.2059 58.0399 59.9399 60.0332 63.11C61.2625 64.9794 63.0233 68.4746 63.0233 68.9352C63.0233 69.0436 62.2924 68.2037 61.3621 67.0657C54.0864 58.0163 39.6678 55.9029 29.2359 62.3513C25.5482 64.6272 22.2591 68.583 20.7973 72.5387C20.1661 74.1915 20.0332 75.221 20 78.093C20 81.8049 20.3322 83.3493 21.7276 86.1671C23.6877 90.1228 27.9734 94.0244 32.4252 95.9481C41.8605 99.9851 53.3555 97.9801 60 91.1253C60.897 90.2041 61.9269 88.9849 62.2924 88.3888C63.2558 86.8986 63.1894 87.5489 62.1595 89.7706C60.897 92.5342 58.9037 95.4875 57.01 97.3841C52.8239 101.692 45.8472 104.916 39.3355 105.594C38.0731 105.702 37.01 105.865 36.9435 105.919C36.8771 105.973 49.5017 106 65.0166 106C80.4983 106 93.0233 105.919 92.8239 105.81C92.5914 105.702 91.9601 105.594 91.3954 105.594C89.6678 105.594 84.6512 104.293 81.9269 103.128C77.3422 101.177 73.0565 97.7905 70.4983 94.0515C69.3023 92.3716 67.2425 88.4972 67.4419 88.3617C67.5083 88.3075 68.1728 89.0391 68.9369 90.0145C71.4618 93.1303 75.6478 95.7313 80.3655 97.1402C82.5581 97.7905 83.2558 97.8718 87.2757 97.8718C91.2957 97.8718 91.9934 97.7905 94.186 97.1402C101.694 94.9185 107.01 90.2041 109.269 83.7286C109.867 81.9946 110 80.9921 110 78.093C109.967 74.8959 109.867 74.3269 108.904 71.9968C105.88 64.6272 98.8704 59.7503 89.8007 58.6936C81.9934 57.7995 73.588 61.0508 68.804 66.849C68.0066 67.8243 67.3422 68.5559 67.3422 68.4746C67.3422 68.1224 68.804 65.2775 69.8007 63.6518C71.3621 61.105 73.5548 58.7749 75.8472 57.2034C80.2658 54.1689 83.1229 51.5949 84.5515 49.319C86.5781 46.149 87.309 43.548 87.3422 39.7548C87.4086 34.8508 85.7807 30.8679 82.1595 27.1018C79.9668 24.8259 78.1395 23.5796 74.9169 22.1436C70.1329 20.0303 64.4851 19.4613 59.4352 20.5179Z" stroke="#FFC085" stroke-opacity="0.6" stroke-width="5"/>
</g>
<g filter="url(#filter3_f_90_3083)">
<path d="M59.4352 20.5179C43.7209 23.8776 36.7442 39.6735 45.9801 51.0531C47.7409 53.2477 50.8638 55.6862 53.5548 56.9596C56.1794 58.2059 58.0399 59.9399 60.0332 63.11C61.2625 64.9794 63.0233 68.4746 63.0233 68.9352C63.0233 69.0436 62.2924 68.2037 61.3621 67.0657C54.0864 58.0163 39.6678 55.9029 29.2359 62.3513C25.5482 64.6272 22.2591 68.583 20.7973 72.5387C20.1661 74.1915 20.0332 75.221 20 78.093C20 81.8049 20.3322 83.3493 21.7276 86.1671C23.6877 90.1228 27.9734 94.0244 32.4252 95.9481C41.8605 99.9851 53.3555 97.9801 60 91.1253C60.897 90.2041 61.9269 88.9849 62.2924 88.3888C63.2558 86.8986 63.1894 87.5489 62.1595 89.7706C60.897 92.5342 58.9037 95.4875 57.01 97.3841C52.8239 101.692 45.8472 104.916 39.3355 105.594C38.0731 105.702 37.01 105.865 36.9435 105.919C36.8771 105.973 49.5017 106 65.0166 106C80.4983 106 93.0233 105.919 92.8239 105.81C92.5914 105.702 91.9601 105.594 91.3954 105.594C89.6678 105.594 84.6512 104.293 81.9269 103.128C77.3422 101.177 73.0565 97.7905 70.4983 94.0515C69.3023 92.3716 67.2425 88.4972 67.4419 88.3617C67.5083 88.3075 68.1728 89.0391 68.9369 90.0145C71.4618 93.1303 75.6478 95.7313 80.3655 97.1402C82.5581 97.7905 83.2558 97.8718 87.2757 97.8718C91.2957 97.8718 91.9934 97.7905 94.186 97.1402C101.694 94.9185 107.01 90.2041 109.269 83.7286C109.867 81.9946 110 80.9921 110 78.093C109.967 74.8959 109.867 74.3269 108.904 71.9968C105.88 64.6272 98.8704 59.7503 89.8007 58.6936C81.9934 57.7995 73.588 61.0508 68.804 66.849C68.0066 67.8243 67.3422 68.5559 67.3422 68.4746C67.3422 68.1224 68.804 65.2775 69.8007 63.6518C71.3621 61.105 73.5548 58.7749 75.8472 57.2034C80.2658 54.1689 83.1229 51.5949 84.5515 49.319C86.5781 46.149 87.309 43.548 87.3422 39.7548C87.4086 34.8508 85.7807 30.8679 82.1595 27.1018C79.9668 24.8259 78.1395 23.5796 74.9169 22.1436C70.1329 20.0303 64.4851 19.4613 59.4352 20.5179Z" stroke="#FFE8BA" stroke-width="2"/>
</g>
<path d="M59.4352 20.5179C43.7209 23.8776 36.7442 39.6735 45.9801 51.0531C47.7409 53.2477 50.8638 55.6862 53.5548 56.9596C56.1794 58.2059 58.0399 59.9399 60.0332 63.11C61.2625 64.9794 63.0233 68.4746 63.0233 68.9352C63.0233 69.0436 62.2924 68.2037 61.3621 67.0657C54.0864 58.0163 39.6678 55.9029 29.2359 62.3513C25.5482 64.6272 22.2591 68.583 20.7973 72.5387C20.1661 74.1915 20.0332 75.221 20 78.093C20 81.8049 20.3322 83.3493 21.7276 86.1671C23.6877 90.1228 27.9734 94.0244 32.4252 95.9481C41.8605 99.9851 53.3555 97.9801 60 91.1253C60.897 90.2041 61.9269 88.9849 62.2924 88.3888C63.2558 86.8986 63.1894 87.5489 62.1595 89.7706C60.897 92.5342 58.9037 95.4875 57.01 97.3841C52.8239 101.692 45.8472 104.916 39.3355 105.594C38.0731 105.702 37.01 105.865 36.9435 105.919C36.8771 105.973 49.5017 106 65.0166 106C80.4983 106 93.0233 105.919 92.8239 105.81C92.5914 105.702 91.9601 105.594 91.3954 105.594C89.6678 105.594 84.6512 104.293 81.9269 103.128C77.3422 101.177 73.0565 97.7905 70.4983 94.0515C69.3023 92.3716 67.2425 88.4972 67.4419 88.3617C67.5083 88.3075 68.1728 89.0391 68.9369 90.0145C71.4618 93.1303 75.6478 95.7313 80.3655 97.1402C82.5581 97.7905 83.2558 97.8718 87.2757 97.8718C91.2957 97.8718 91.9934 97.7905 94.186 97.1402C101.694 94.9185 107.01 90.2041 109.269 83.7286C109.867 81.9946 110 80.9921 110 78.093C109.967 74.8959 109.867 74.3269 108.904 71.9968C105.88 64.6272 98.8704 59.7503 89.8007 58.6936C81.9934 57.7995 73.588 61.0508 68.804 66.849C68.0066 67.8243 67.3422 68.5559 67.3422 68.4746C67.3422 68.1224 68.804 65.2775 69.8007 63.6518C71.3621 61.105 73.5548 58.7749 75.8472 57.2034C80.2658 54.1689 83.1229 51.5949 84.5515 49.319C86.5781 46.149 87.309 43.548 87.3422 39.7548C87.4086 34.8508 85.7807 30.8679 82.1595 27.1018C79.9668 24.8259 78.1395 23.5796 74.9169 22.1436C70.1329 20.0303 64.4851 19.4613 59.4352 20.5179Z" stroke="#FFF7E8" stroke-width="2"/>
<defs>
<filter id="filter0_f_90_3083" x="0" y="0" width="130" height="126" filterUnits="userSpaceOnUse" color-interpolation-filters="sRGB">
<feFlood flood-opacity="0" result="BackgroundImageFix"/>
<feBlend mode="normal" in="SourceGraphic" in2="BackgroundImageFix" result="shape"/>
<feGaussianBlur stdDeviation="5" result="effect1_foregroundBlur_90_3083"/>
</filter>
<filter id="filter1_f_90_3083" x="5" y="5" width="120" height="116" filterUnits="userSpaceOnUse" color-interpolation-filters="sRGB">
<feFlood flood-opacity="0" result="BackgroundImageFix"/>
<feBlend mode="normal" in="SourceGraphic" in2="BackgroundImageFix" result="shape"/>
<feGaussianBlur stdDeviation="5" result="effect1_foregroundBlur_90_3083"/>
</filter>
<filter id="filter2_f_90_3083" x="9.5" y="9.5" width="111" height="107" filterUnits="userSpaceOnUse" color-interpolation-filters="sRGB">
<feFlood flood-opacity="0" result="BackgroundImageFix"/>
<feBlend mode="normal" in="SourceGraphic" in2="BackgroundImageFix" result="shape"/>
<feGaussianBlur stdDeviation="4" result="effect1_foregroundBlur_90_3083"/>
</filter>
<filter id="filter3_f_90_3083" x="12.9999" y="13" width="104" height="100" filterUnits="userSpaceOnUse" color-interpolation-filters="sRGB">
<feFlood flood-opacity="0" result="BackgroundImageFix"/>
<feBlend mode="normal" in="SourceGraphic" in2="BackgroundImageFix" result="shape"/>
<feGaussianBlur stdDeviation="3" result="effect1_foregroundBlur_90_3083"/>
</filter>
</defs>
</svg>
