<svg width="27" height="28" viewBox="0 0 27 28" fill="none" xmlns="http://www.w3.org/2000/svg">
<path d="M1.50231 12.8657L1.50233 12.8657L1.5079 12.8601L5.24039 9.11582L10.1709 14.0574L5.24039 18.999L1.5079 15.2547L1.50792 15.2546L1.50231 15.2491C0.832564 14.5878 0.832564 13.527 1.50231 12.8657ZM25.4977 15.2491L25.4977 15.2491L25.4921 15.2547L21.7596 18.999L16.8291 14.0574L21.7596 9.11582L25.4921 12.8601L25.4921 12.8601L25.4977 12.8657C26.1674 13.527 26.1674 14.5878 25.4977 15.2491ZM12.3086 26.0568L12.3086 26.0567L12.3031 26.0512L8.55904 22.318L13.5 17.387L18.441 22.318L14.6969 26.0512L14.6969 26.0511L14.6914 26.0568C14.0302 26.7265 12.9698 26.7265 12.3086 26.0568ZM13.5 10.7278L8.55904 5.79675L12.2989 2.06781C12.6659 1.71136 13.0892 1.55908 13.5 1.55908C13.9108 1.55908 14.3341 1.71136 14.7011 2.06778L18.441 5.79675L13.5 10.7278Z" stroke="#666666" stroke-width="2"/>
</svg>
