<svg width="30" height="30" viewBox="0 0 30 30" fill="none" xmlns="http://www.w3.org/2000/svg">
<path d="M19.549 10.8012C19.549 11.9683 19.0854 13.0876 18.2601 13.9129C17.4348 14.7381 16.3155 15.2018 15.1484 15.2018C13.9813 15.2018 12.862 14.7381 12.0368 13.9129C11.2115 13.0876 10.7479 11.9683 10.7479 10.8012C10.7479 9.6341 11.2115 8.5148 12.0368 7.68953C12.862 6.86426 13.9813 6.40063 15.1484 6.40063C16.3155 6.40063 17.4348 6.86426 18.2601 7.68953C19.0854 8.5148 19.549 9.6341 19.549 10.8012ZM17.7649 13.4177C18.4589 12.7238 18.8487 11.7826 18.8487 10.8012C18.8487 9.81982 18.4589 8.87864 17.7649 8.1847C17.071 7.49077 16.1298 7.10092 15.1484 7.10092C14.1671 7.10092 13.2259 7.49077 12.5319 8.1847C11.838 8.87864 11.4481 9.81982 11.4481 10.8012C11.4481 11.7826 11.838 12.7238 12.5319 13.4177C13.2259 14.1116 14.1671 14.5015 15.1484 14.5015C16.1298 14.5015 17.071 14.1116 17.7649 13.4177Z" stroke="#666666" stroke-width="2"/>
<path d="M15.2361 19.2521C13.5548 19.251 11.898 19.6561 10.4068 20.4327C8.91535 21.2095 7.63361 22.3351 6.67063 23.7137L6.1386 24.4753L6.8591 25.0619C9.20079 26.9681 12.1291 28.007 15.1485 28.0028C18.2213 28.0068 21.1978 26.9306 23.5576 24.9625L24.2711 24.3675L23.7301 23.6122C22.7631 22.2622 21.4879 21.1623 20.0105 20.404C18.5333 19.6458 16.8965 19.2509 15.2361 19.2521ZM15.2361 19.2521C15.2359 19.2521 15.2356 19.2521 15.2354 19.2521L15.2362 20.2521L15.2369 19.2521C15.2366 19.2521 15.2364 19.2521 15.2361 19.2521ZM1.99716 14.8514V14.8516C1.99716 17.9047 3.03959 20.7176 4.78551 22.9501L5.58378 23.9708L6.36882 22.9399C7.40851 21.5745 8.74978 20.468 10.2879 19.7068C11.8259 18.9456 13.5192 18.5503 15.2353 18.5518L15.2371 18.5518C16.931 18.5502 18.6029 18.9353 20.1255 19.6777C21.648 20.42 22.981 21.5002 24.0229 22.8357L24.8205 23.858L25.6066 22.8269C26.8727 21.1664 27.7252 19.2282 28.0935 17.1728C28.4618 15.1173 28.3354 13.0037 27.7247 11.0068C27.114 9.00997 26.0365 7.18723 24.5815 5.68943C23.1265 4.19163 21.3357 3.06184 19.3574 2.39353C17.379 1.72523 15.27 1.53762 13.2048 1.84624C11.1395 2.15486 9.17744 2.95083 7.4809 4.16829C5.78435 5.38575 4.4021 6.9897 3.44851 8.84743C2.49493 10.7052 1.99742 12.7632 1.99716 14.8514ZM1.29688 14.8516C1.29688 7.20173 7.4986 1 15.1484 1C22.7982 1 29 7.20173 29 14.8516C29 22.5014 22.7982 28.7031 15.1484 28.7031C7.4986 28.7031 1.29688 22.5014 1.29688 14.8516Z" stroke="#666666" stroke-width="2"/>
</svg>
