<svg width="25" height="29" viewBox="0 0 25 29" fill="none" xmlns="http://www.w3.org/2000/svg">
<path d="M4.87445 0.180005C2.66802 0.74957 0.997046 2.5042 0.212334 5.04887C0.0276957 5.6368 0 5.93996 0 7.0699C0 8.32846 0.00923191 8.44788 0.286189 9.24711C1.04321 11.4243 2.08641 12.9033 5.80687 17.0832C8.15177 19.7198 9.06573 20.8405 10.0258 22.2644C11.503 24.46 12.3892 26.775 12.4169 28.548C12.4261 29.0257 12.4446 29.0992 12.5 28.8879C12.5369 28.7317 12.5739 28.401 12.5831 28.153C12.6108 27.17 13.1739 25.4062 13.9217 24.019C14.928 22.1266 15.9343 20.8405 19.8024 16.5228C22.1473 13.9047 23.2367 12.4808 23.966 11.0569C24.7323 9.56864 25 8.55812 25 7.11583C25 4.90188 24.2061 3.05539 22.6366 1.59473C20.661 -0.242575 17.7253 -0.499798 15.5004 0.96086C15.0018 1.29157 14.1617 2.10918 13.7371 2.66037C13.377 3.14725 12.8231 4.31394 12.6385 5.00293L12.4723 5.61843L12.3061 4.99375C12.2138 4.65384 11.9738 4.03835 11.7707 3.63414C10.4136 0.896554 7.56093 -0.527358 4.87445 0.180005Z" fill="#FE0B0A"/>
</svg>
