<svg width="49" height="27" viewBox="0 0 49 27" fill="none" xmlns="http://www.w3.org/2000/svg">
<path d="M13.285 10.792C13.3277 10.9413 12.1757 11.4853 9.829 12.424C9.829 12.872 9.97833 13.6187 10.277 14.664C10.5757 15.688 10.9597 16.7653 11.429 17.896C11.9197 19.0267 12.5277 20.0187 13.253 20.872C13.9783 21.7253 14.7037 22.152 15.429 22.152V23.112C13.445 24.3707 12.1863 25 11.653 25C10.9063 25 9.893 23.368 8.613 20.104C7.35433 16.84 6.725 14.6427 6.725 13.512L6.565 13.576V20.072C6.565 20.8613 6.65033 21.4267 6.821 21.768C6.99167 22.1093 7.34367 22.28 7.877 22.28V23.272L1.317 26.024L0.805 25C1.27433 25 1.72233 24.7227 2.149 24.168C2.533 23.6347 2.725 22.824 2.725 21.736V5.16C2.725 3.85867 2.28767 3.12267 1.413 2.952V2.248L4.645 0.424C5.11433 0.615999 5.55167 0.935998 5.957 1.384C6.36233 1.81067 6.565 2.20533 6.565 2.568V12.072C7.11967 12.072 7.73833 11.9013 8.421 11.56C9.10367 11.1973 9.445 10.824 9.445 10.44V6.28C9.445 5.49067 9.35967 4.92533 9.189 4.584C9.01833 4.24267 8.66633 4.072 8.133 4.072V3.08L14.693 0.327999L15.205 1.352C14.7357 1.352 14.2877 1.62933 13.861 2.184C13.477 2.71733 13.285 3.528 13.285 4.616V10.792ZM16.35 20.904V6.28C16.35 5.49067 16.2647 4.92533 16.094 4.584C15.9233 4.24267 15.5713 4.072 15.038 4.072V3.08L21.598 0.327999L22.11 1.352C21.6407 1.352 21.1927 1.62933 20.766 2.184C20.382 2.71733 20.19 3.528 20.19 4.616V19.656C20.19 20.232 20.286 20.648 20.478 20.904C20.67 21.1387 21.0007 21.256 21.47 21.256V22.152C17.1393 24.0507 14.9633 25 14.942 25L14.43 23.976C14.6007 23.976 14.8033 23.9013 15.038 23.752C15.294 23.6027 15.5073 23.432 15.678 23.24C16.126 22.728 16.35 21.9493 16.35 20.904ZM23.3813 21.352V5.576C23.3813 4.872 23.2319 4.264 22.9333 3.752C22.6346 3.24 22.2613 2.984 21.8133 2.984V2.28C21.9626 2.25867 23.1253 1.608 25.3013 0.327999C25.4506 0.370665 25.6319 0.434665 25.8453 0.519999C26.0586 0.583999 26.3359 0.786666 26.6773 1.128C27.0399 1.46933 27.2213 1.864 27.2213 2.312C27.3493 2.248 27.7119 2.04533 28.3093 1.704C29.8879 0.807999 30.8266 0.359999 31.1253 0.359999C31.8079 0.359999 32.4479 0.807999 33.0453 1.704C33.6426 2.6 33.9413 3.42133 33.9413 4.168V20.264C33.9413 21.4373 34.4639 22.1307 35.5093 22.344V23.048L32.0213 25C31.5519 24.808 31.1146 24.4987 30.7093 24.072C30.3039 23.624 30.1013 23.208 30.1013 22.824V7.144C30.1013 5.8 29.8986 4.88266 29.4933 4.392C29.1093 3.90133 28.3519 3.656 27.2213 3.656V20.072C27.2213 20.9253 27.3279 21.512 27.5413 21.832C27.7546 22.1307 28.0853 22.28 28.5333 22.28V23.272L21.9733 26.024L21.4612 25C21.8879 25 22.3039 24.744 22.7093 24.232C23.1573 23.6347 23.3813 22.6747 23.3813 21.352ZM42.6033 22.056C43.0086 22.056 43.4246 21.8853 43.8513 21.544V17.416C43.8513 16.1147 43.4139 15.3787 42.5393 15.208V14.504L45.7713 12.68C46.2193 12.872 46.6566 13.192 47.0833 13.64C47.5099 14.0667 47.7233 14.472 47.7233 14.856V22.024C47.7233 22.1947 46.5499 22.7387 44.2033 23.656C41.8779 24.552 40.4486 25 39.9153 25C39.4033 25 38.8059 24.5413 38.1233 23.624C37.4619 22.7067 37.1313 21.608 37.1313 20.328V3.304C37.1313 3.15466 38.3473 2.632 40.7793 1.736C43.2326 0.818665 44.6406 0.359999 45.0033 0.359999C45.1313 0.359999 45.2806 0.669332 45.4513 1.288C45.6219 1.90667 45.8139 2.65333 46.0273 3.528C46.2619 4.40267 46.4966 5.05333 46.7313 5.48C46.9873 5.88533 47.4566 6.088 48.1393 6.088V6.728C47.6699 6.94133 46.8699 7.32533 45.7393 7.88C44.6299 8.41333 44.0326 8.68 43.9473 8.68C43.6273 8.68 43.2219 7.816 42.7313 6.088C42.2406 4.33867 41.8459 3.464 41.5473 3.464C41.3339 3.464 41.1419 3.57067 40.9713 3.784V19.688C40.9713 21.2667 41.5153 22.056 42.6033 22.056Z" fill="white"/>
</svg>
