<svg width="54" height="54" viewBox="0 0 54 54" fill="none" xmlns="http://www.w3.org/2000/svg">
<circle cx="27" cy="27" r="27" fill="#FE0B0A"/>
<path d="M23.0019 26.3578C24.0583 27.4385 25.496 28.05 27 28.05C27.7442 28.05 28.4806 27.9 29.1669 27.6092C29.8532 27.3184 30.4752 26.8927 30.9981 26.3578C31.521 25.8228 31.9346 25.189 32.2164 24.493C32.4981 23.7971 32.6429 23.052 32.6429 22.3C32.6429 20.7823 32.0538 19.3222 30.9981 18.2422C29.9417 17.1615 28.504 16.55 27 16.55C25.496 16.55 24.0583 17.1615 23.0019 18.2422C21.9462 19.3222 21.3571 20.7823 21.3571 22.3C21.3571 23.8177 21.9462 25.2778 23.0019 26.3578ZM27 45.4574C26.67 45.0617 26.2449 44.543 25.7522 43.9219C24.5461 42.4015 22.9395 40.2734 21.3348 37.8401C19.7283 35.404 18.1355 32.68 16.9473 29.9665C15.7535 27.2403 15 24.596 15 22.3C15 19.0306 16.2697 15.8995 18.5227 13.5945C20.775 11.2902 23.8249 10 27 10C30.1751 10 33.225 11.2902 35.4773 13.5945C37.7303 15.8995 39 19.0306 39 22.3C39 24.596 38.2465 27.2403 37.0527 29.9665C35.8645 32.68 34.2717 35.404 32.6652 37.8401C31.0605 40.2734 29.4539 42.4015 28.2478 43.9219C27.7551 44.543 27.33 45.0617 27 45.4574Z" fill="#FE0B0A" stroke="black" stroke-width="2"/>
</svg>
