<svg width="357" height="357" viewBox="0 0 357 357" fill="none" xmlns="http://www.w3.org/2000/svg">
<circle cx="178.023" cy="178.023" r="124.881" transform="rotate(-45 178.023 178.023)" fill="#1A2636" stroke="#FF0000" stroke-width="2"/>
<circle cx="177.742" cy="177.742" r="110.586" transform="rotate(-45 177.742 177.742)" fill="#1A2636" stroke="#FF0000" stroke-width="2"/>
<circle cx="177.742" cy="177.742" r="108.28" transform="rotate(-45 177.742 177.742)" fill="#1A2636" stroke="#FF0000" stroke-width="2"/>
<line x1="101.231" y1="99.8168" x2="255.667" y2="254.253" stroke="#FF0000" stroke-width="2"/>
<line x1="87.4987" y1="116.241" x2="269.096" y2="237.581" stroke="#FF0000" stroke-width="2"/>
<line x1="68.5391" y1="176.742" x2="286.945" y2="176.742" stroke="#FF0000" stroke-width="2"/>
<line x1="70.4424" y1="198.066" x2="284.652" y2="155.457" stroke="#FF0000" stroke-width="2"/>
<line x1="76.4691" y1="218.608" x2="278.25" y2="135.028" stroke="#FF0000" stroke-width="2"/>
<line x1="86.3875" y1="237.58" x2="267.985" y2="116.241" stroke="#FF0000" stroke-width="2"/>
<line x1="135.028" y1="278.25" x2="218.608" y2="76.469" stroke="#FF0000" stroke-width="2"/>
<line x1="116.241" y1="267.985" x2="237.581" y2="86.3876" stroke="#FF0000" stroke-width="2"/>
<line x1="255.667" y1="101.231" x2="101.231" y2="255.667" stroke="#FF0000" stroke-width="2"/>
<line x1="155.457" y1="284.652" x2="198.066" y2="70.4424" stroke="#FF0000" stroke-width="2"/>
<line x1="176.742" y1="286.945" x2="176.742" y2="68.539" stroke="#FF0000" stroke-width="2"/>
<line x1="198.066" y1="285.042" x2="155.457" y2="70.8325" stroke="#FF0000" stroke-width="2"/>
<line x1="218.608" y1="279.015" x2="135.028" y2="77.2343" stroke="#FF0000" stroke-width="2"/>
<line x1="237.58" y1="269.097" x2="116.241" y2="87.4988" stroke="#FF0000" stroke-width="2"/>
<line x1="284.652" y1="200.027" x2="70.4424" y2="157.418" stroke="#FF0000" stroke-width="2"/>
<line x1="278.25" y1="220.456" x2="76.469" y2="136.876" stroke="#FF0000" stroke-width="2"/>
<circle cx="178.258" cy="178.023" r="98.839" transform="rotate(-45 178.258 178.023)" fill="#1A2636" stroke="#FF0000" stroke-width="2"/>
<circle cx="178.023" cy="178.023" r="96.687" transform="rotate(-45 178.023 178.023)" fill="#1A2636" stroke="#FF0000" stroke-width="2"/>
<rect x="110.341" y="246.098" width="135.981" height="135.981" transform="rotate(-90 110.341 246.098)" fill="#1A2636" stroke="#FF0000" stroke-width="2"/>
<rect x="153.445" y="270.985" width="135.981" height="135.981" transform="rotate(-120 153.445 270.985)" fill="#1A2636" stroke="#FF0000" stroke-width="2"/>
<rect x="85.4542" y="202.994" width="135.981" height="135.981" transform="rotate(-60 85.4542 202.994)" fill="#1A2636" stroke="#FF0000" stroke-width="2"/>
<circle cx="177.742" cy="177.461" r="66.7058" transform="rotate(-45 177.742 177.461)" fill="#1A2636" stroke="#FF0000" stroke-width="2"/>
<circle cx="177.742" cy="177.461" r="65.3072" transform="rotate(-45 177.742 177.461)" fill="#1A2636" stroke="#FF0000" stroke-width="2"/>
<line x1="131.596" y1="129.901" x2="225.302" y2="223.607" stroke="#FF0000" stroke-width="2"/>
<line x1="123.204" y1="139.818" x2="233.391" y2="213.442" stroke="#FF0000" stroke-width="2"/>
<line x1="111.482" y1="176.461" x2="244.002" y2="176.461" stroke="#FF0000" stroke-width="2"/>
<line x1="112.56" y1="189.407" x2="242.534" y2="163.554" stroke="#FF0000" stroke-width="2"/>
<line x1="116.143" y1="201.894" x2="238.575" y2="151.181" stroke="#FF0000" stroke-width="2"/>
<line x1="122.093" y1="213.442" x2="232.28" y2="139.818" stroke="#FF0000" stroke-width="2"/>
<line x1="151.461" y1="238.295" x2="202.175" y2="115.862" stroke="#FF0000" stroke-width="2"/>
<line x1="140.098" y1="231.999" x2="213.723" y2="121.812" stroke="#FF0000" stroke-width="2"/>
<line x1="225.302" y1="131.315" x2="131.596" y2="225.021" stroke="#FF0000" stroke-width="2"/>
<line x1="163.834" y1="242.253" x2="189.688" y2="112.279" stroke="#FF0000" stroke-width="2"/>
<line x1="176.742" y1="243.721" x2="176.742" y2="111.201" stroke="#FF0000" stroke-width="2"/>
<line x1="189.688" y1="242.643" x2="163.834" y2="112.669" stroke="#FF0000" stroke-width="2"/>
<line x1="202.175" y1="239.06" x2="151.461" y2="116.628" stroke="#FF0000" stroke-width="2"/>
<line x1="213.722" y1="233.11" x2="140.098" y2="122.923" stroke="#FF0000" stroke-width="2"/>
<line x1="242.534" y1="191.369" x2="112.56" y2="165.515" stroke="#FF0000" stroke-width="2"/>
<line x1="238.576" y1="203.742" x2="116.143" y2="153.028" stroke="#FF0000" stroke-width="2"/>
<circle cx="178.055" cy="177.632" r="59.5785" transform="rotate(-45 178.055 177.632)" fill="#1A2636" stroke="#FF0000" stroke-width="2"/>
<circle cx="177.912" cy="177.632" r="58.2727" transform="rotate(-45 177.912 177.632)" fill="#1A2636" stroke="#FF0000" stroke-width="2"/>
<path d="M138.332 138.052L173.507 155.974L174.155 156.304L174.668 155.791L202.583 127.876L196.408 166.867L196.294 167.585L196.941 167.915L232.116 185.837L193.125 192.013L192.407 192.127L192.293 192.844L186.118 231.836L168.195 196.661L167.865 196.014L167.148 196.127L128.156 202.303L156.071 174.388L156.585 173.874L156.255 173.227L138.332 138.052Z" fill="#1A2636" stroke="#FF0000" stroke-width="2"/>
<line x1="138.576" y1="137.163" x2="178.168" y2="176.754" stroke="#FF0000" stroke-width="2"/>
<line x1="126.75" y1="202.12" x2="177.575" y2="176.57" stroke="#FF0000" stroke-width="2"/>
<line x1="204.184" y1="127.937" x2="178.631" y2="177.638" stroke="#FF0000" stroke-width="2"/>
<line x1="232.34" y1="186.873" x2="177.585" y2="178.168" stroke="#FF0000" stroke-width="2"/>
<line x1="185.739" y1="234.617" x2="176.754" y2="177.336" stroke="#FF0000" stroke-width="2"/>
<path d="M122.806 168.524L161.798 162.348L162.516 162.235L162.629 161.517L168.805 122.525L186.727 157.7L187.057 158.348L187.775 158.234L226.766 152.058L198.851 179.973L198.338 180.487L198.668 181.134L216.59 216.309L181.415 198.387L180.768 198.057L180.254 198.571L152.339 226.486L158.515 187.494L158.628 186.776L157.981 186.447L122.806 168.524Z" fill="#1A2636" stroke="#FF0000" stroke-width="2"/>
<circle cx="178" cy="178" r="128" fill="black" fill-opacity="0.4"/>
</svg>
