<svg width="26" height="38" viewBox="0 0 26 38" fill="none" xmlns="http://www.w3.org/2000/svg">
<path d="M13 18.05C11.7686 18.05 10.5877 17.5496 9.717 16.6588C8.8463 15.768 8.35714 14.5598 8.35714 13.3C8.35714 12.0402 8.8463 10.832 9.717 9.94124C10.5877 9.05044 11.7686 8.55 13 8.55C14.2314 8.55 15.4123 9.05044 16.283 9.94124C17.1537 10.832 17.6429 12.0402 17.6429 13.3C17.6429 13.9238 17.5228 14.5415 17.2894 15.1177C17.0561 15.694 16.7141 16.2177 16.283 16.6588C15.8519 17.0998 15.34 17.4497 14.7767 17.6884C14.2134 17.9271 13.6097 18.05 13 18.05ZM13 0C9.55219 0 6.24558 1.40125 3.80761 3.89548C1.36964 6.38971 0 9.77262 0 13.3C0 23.275 13 38 13 38C13 38 26 23.275 26 13.3C26 9.77262 24.6304 6.38971 22.1924 3.89548C19.7544 1.40125 16.4478 0 13 0Z" fill="#EC1B14"/>
</svg>
