<svg width="133" height="98" viewBox="0 0 133 98" fill="none" xmlns="http://www.w3.org/2000/svg">
<mask id="mask0_90_3221" style="mask-type:alpha" maskUnits="userSpaceOnUse" x="0" y="0" width="133" height="98">
<rect width="133" height="97.9734" fill="#ED190E"/>
</mask>
<g mask="url(#mask0_90_3221)">
<path d="M112.066 84.9928C112.233 86.0723 111.871 87.0936 111.17 88.0572C110.328 89.2161 109.024 90.2448 107.69 91.0847L107.658 91.1052C107.645 91.1113 107.634 91.1169 107.625 91.1214C107.619 91.1246 107.613 91.1273 107.609 91.1294L107.586 91.1407L107.564 91.1544C106.52 91.8041 105.495 92.3184 104.73 92.6705C104.348 92.8463 104.032 92.9811 103.813 93.0716C103.774 93.0874 103.739 93.1018 103.707 93.1149L103.681 93.0982L103.429 93.2168C99.5042 95.0655 95.4908 96.5848 91.7786 97.3855L91.3536 97.4771L91.2585 97.4934L91.2499 97.4949L91.2413 97.4967C90.0951 97.7346 88.9325 97.8904 87.7628 97.9626L87.751 97.9634L87.7393 97.9646C84.956 98.2691 81.1538 98.5133 77.5994 98.1817C74.086 97.854 70.9495 96.9743 69.2141 95.1703L67.9144 84.7143L70.3529 82.4622L77.8534 84.7292L78.2883 84.8607L78.4607 84.4403L84.453 69.8205C84.4513 69.97 84.4508 70.1235 84.4515 70.2808C84.4616 72.4104 84.7098 75.2454 85.6745 78.0262C86.6405 80.8109 88.3326 83.561 91.2394 85.4765C94.1476 87.393 98.2154 88.4368 103.862 87.9126L103.862 87.9126L103.87 87.9118C104.272 87.868 104.67 87.7958 105.062 87.6956C107.576 87.2319 109.921 86.2822 112.066 84.9928Z" fill="#ED190E" stroke="white"/>
<path d="M113.822 24.605C107.622 23.5951 103.106 24.2708 99.8315 25.9285C96.4431 27.6439 94.4468 30.3795 93.2942 33.2371C92.1448 36.0869 91.8286 39.0695 91.7958 41.3262C91.7921 41.5812 91.792 41.8272 91.7947 42.0631L83.864 23.0034C84.4694 19.5689 85.8806 17.3658 87.7993 16.0477C89.7563 14.7032 92.3154 14.2279 95.2706 14.4094C101.064 14.7652 108.165 17.6314 114.599 20.9518C114.446 21.2821 114.313 21.6211 114.2 21.9669L114.2 21.9669L114.198 21.9741C113.935 22.8288 113.809 23.7159 113.822 24.605Z" fill="#ED190E" stroke="white"/>
<path d="M98.4469 14.3149C98.4474 14.315 98.4479 14.3151 98.4484 14.3152L90.7646 25.4321L77.6548 29.3817L75.1979 27.1284L76.5146 16.6742C77.7502 15.3964 79.7023 14.5756 82.0255 14.0908C84.4054 13.5942 87.1058 13.4642 89.6617 13.5159C92.2145 13.5676 94.6049 13.7999 96.3585 14.0196C97.2348 14.1295 97.9508 14.236 98.4469 14.3149ZM48.4644 22.6306L40.473 42.0329C40.4759 41.7867 40.4759 41.5295 40.472 41.2627C40.4385 38.9687 40.1199 35.9372 38.9632 33.041C37.8035 30.1373 35.795 27.3565 32.385 25.6123C29.0895 23.9266 24.5436 23.2393 18.3039 24.2662C18.33 22.9816 18.0602 21.7072 17.5141 20.5366C23.9936 17.1587 31.1439 14.2428 36.977 13.8809C39.9512 13.6963 42.5272 14.1795 44.4978 15.5471C46.4313 16.8889 47.8541 19.1326 48.4644 22.6306Z" fill="#ED190E" stroke="white"/>
<path d="M33.6573 14.3368C33.6627 14.3359 33.6682 14.3351 33.6738 14.3342C34.1739 14.2533 34.8955 14.1443 35.7787 14.0319C37.5462 13.8069 39.9557 13.569 42.5287 13.5162C45.105 13.4633 47.8267 13.5963 50.2255 14.1046C52.5684 14.6011 54.5382 15.4422 55.7852 16.7535L57.1059 27.4717L54.635 29.7831L41.4156 25.7398L33.6573 14.3368Z" fill="#ED190E" stroke="white"/>
<path d="M62.9637 25.3451L62.9637 25.3451C61.5673 26.1404 60.202 27.018 58.829 27.9125C58.6545 28.0262 58.4799 28.1401 58.305 28.2542C57.1075 29.0356 55.9005 29.8233 54.6718 30.5635C51.8539 32.261 48.884 33.7333 45.5252 34.3663L45.515 34.3682L45.515 34.3681C45.1245 34.4333 44.7307 34.4764 44.3356 34.4972C44.0775 36.0342 43.9475 37.59 43.9467 39.1487L62.9637 25.3451ZM62.9637 25.3451C65.2416 24.0472 68.2559 23.4361 71.0072 23.1047M62.9637 25.3451L71.0072 23.1047M71.0072 23.1047C71.0248 25.1666 71.7291 27.29 73.4424 29.1751C75.2803 31.2069 77.0807 33.2718 78.8427 35.3687C81.3332 38.3509 85.0186 38.5534 88.105 37.251C88.1465 37.8781 88.1667 38.5117 88.1667 39.1487C88.1667 46.0496 85.6564 58.091 81.581 68.4117C79.5444 73.5692 77.1298 78.2633 74.4668 81.6586C71.7897 85.0718 68.9449 87.0693 66.0595 87.0693C63.1719 87.0693 60.3256 85.0722 57.6477 81.6601C54.9838 78.2657 52.5688 73.5726 50.5321 68.4158C46.4564 58.0967 43.9468 46.0555 43.9467 39.149L71.0072 23.1047Z" fill="#ED190E" stroke="white"/>
<path d="M63.6515 28.5546L63.6514 28.5552C62.1011 35.2229 61.4738 45.7606 62.0616 56.68C62.6378 67.3846 64.3851 78.5188 67.6138 86.785C66.9978 86.9696 66.3866 87.0691 65.7648 87.0691C62.9194 87.0691 60.1123 85.0934 57.4695 81.7135C54.8408 78.3516 52.4574 73.7032 50.4471 68.5952C46.4242 58.3736 43.9467 46.4462 43.9467 39.6054L43.9467 39.6046C43.9445 38.0621 44.0733 36.5224 44.3314 35.0019C44.7185 34.9812 45.1042 34.9386 45.4867 34.8744L45.4867 34.8746L45.4968 34.8726C48.8161 34.2453 51.7475 32.7864 54.5276 31.1047C55.7385 30.3721 56.9281 29.5927 58.1081 28.8194C58.2818 28.7056 58.4552 28.5919 58.6286 28.4786C59.9812 27.5937 61.3262 26.7257 62.7021 25.9389C63.3341 25.599 63.9899 25.3062 64.6643 25.0628C64.2782 26.193 63.9328 27.3507 63.6515 28.5546Z" fill="#ED190E" stroke="white"/>
<path d="M46.249 63.6753C48.73 68.1097 51.4834 72.0241 54.4463 74.9815C58.0058 78.5344 61.9183 80.7545 66.0608 80.7545C70.2021 80.7545 74.1112 78.5328 77.6682 74.9792C80.6296 72.0207 83.3821 68.1053 85.8646 63.6716C84.1468 73.0052 81.516 83.088 78.2805 91.1047C76.4829 95.5586 74.5093 99.3476 72.4196 102.014C70.3171 104.697 68.178 106.144 66.0608 106.144C63.9428 106.144 61.8027 104.697 59.6991 102.014C57.6082 99.3475 55.6335 95.5585 53.8348 91.1046C50.5979 83.089 47.966 73.0078 46.249 63.6753Z" fill="#ED190E" stroke="white"/>
<path d="M20.9464 88.0572C20.2458 87.0936 19.8821 86.0722 20.046 84.9928C22.1977 86.2818 24.5374 87.2317 27.0491 87.6956C27.4153 87.7897 27.8089 87.8634 28.2459 87.9117L28.2459 87.9118L28.2546 87.9126C33.8994 88.4368 37.966 87.3929 40.8734 85.4764C43.7794 83.5609 45.4711 80.8109 46.437 78.0262C47.4016 75.2454 47.65 72.4105 47.6603 70.2808C47.661 70.1225 47.6605 69.968 47.6588 69.8176L53.6564 84.4404L53.8288 84.8607L54.2637 84.7292L61.7659 82.4622L64.1986 84.7137L62.8882 95.1706C61.1585 96.9742 58.0261 97.854 54.5141 98.1817C50.9615 98.5133 47.1589 98.2691 44.3731 97.9646L44.3615 97.9634L44.3498 97.9626C43.1811 97.89 42.0195 97.7343 40.8742 97.4967L40.8662 97.495L40.8581 97.4936L40.7739 97.479L40.3397 97.3854C36.6251 96.5847 32.6093 95.0655 28.6878 93.2168L28.4359 93.0981L28.4102 93.1147C28.3782 93.1017 28.3431 93.0874 28.3051 93.0717C28.0859 92.9812 27.7702 92.8463 27.3882 92.6705C26.6232 92.3183 25.5969 91.8039 24.5469 91.1537L24.5329 91.1451L24.5184 91.1373C24.4956 91.1252 24.4726 91.1136 24.4493 91.1024L24.4217 91.085C23.0913 90.2451 21.7893 89.2163 20.9464 88.0572Z" fill="#ED190E" stroke="white"/>
<path d="M20.0456 85.4614C22.1832 86.7594 24.5126 87.7157 27.0159 88.1779C27.4056 88.2764 27.8011 88.3507 28.2003 88.4002L28.2078 88.4011L28.2153 88.4019C35.8495 89.1147 40.5722 86.9156 43.4355 83.6007C44.7582 82.0694 45.6681 80.3181 46.2886 78.5439C46.0088 80.51 45.4594 82.6431 44.44 84.6109C43.3075 86.7969 41.5983 88.7726 39.0311 90.0994C36.462 91.4271 32.9945 92.1252 28.313 91.6873C27.9256 91.6437 27.5756 91.5694 27.2389 91.489L27.227 91.4861L27.2151 91.4839C25.3411 91.1321 23.5563 90.4898 21.8841 89.6243C20.6045 88.3565 19.823 86.958 20.0456 85.4614ZM87.6804 84.613C86.6598 82.6424 86.1105 80.5059 85.8313 78.5372C86.4517 80.3137 87.3618 82.0675 88.6858 83.6007C91.5484 86.9156 96.2704 89.1147 103.905 88.4019L103.913 88.4011L103.921 88.4001C104.318 88.3498 104.711 88.2756 105.098 88.1779C107.603 87.716 109.936 86.7604 112.068 85.4629C112.289 86.9596 111.509 88.3581 110.232 89.6252C108.557 90.5011 106.759 91.1276 104.898 91.4842L104.884 91.4869L104.87 91.4902C104.52 91.5779 104.164 91.6438 103.805 91.6875C99.1243 92.1264 95.6575 91.429 93.0889 90.1017C90.5218 88.7752 88.8127 86.7994 87.6804 84.613ZM66.0502 80.7545C70.2057 80.7545 74.1291 78.535 77.6992 74.982C80.6726 72.0228 83.4358 68.1053 85.927 63.6675C84.2023 73.002 81.5615 83.0864 78.3141 91.1041C76.5102 95.5579 74.5298 99.3469 72.4328 102.014C70.3233 104.696 68.1763 106.144 66.0502 106.144C63.9242 106.144 61.777 104.696 59.6673 102.014C57.5702 99.3469 55.5897 95.5579 53.786 91.1041C50.5385 83.0855 47.8987 72.9998 46.1772 63.6643C48.6677 68.1014 51.4307 72.0196 54.404 74.9798C57.9733 78.5334 61.896 80.7545 66.0502 80.7545Z" fill="#ED190E" stroke="white"/>
<path d="M92.9499 51.9101C89.4952 46.3126 85.6376 41.3726 81.477 37.6898C76.7172 33.4766 71.5231 30.877 66.0596 30.877C60.5905 30.877 55.3957 33.4765 50.6361 37.6898C46.4763 41.3722 42.6202 46.3116 39.1652 51.9082C41.4636 40.5827 45.0579 28.2301 49.5063 18.4566C51.9166 13.1608 54.5661 8.6483 57.3776 5.46774C60.1963 2.27898 63.113 0.5 66.0596 0.5C69.004 0.5 71.9199 2.2789 74.7387 5.46774C77.5502 8.64832 80.2003 13.1608 82.6111 18.4566C87.0607 28.2307 90.6558 40.5842 92.9499 51.9101Z" fill="#ED190E" stroke="white"/>
<path d="M39.1646 51.5371C41.4477 40.2938 45.0166 28.0329 49.433 18.3312C51.8271 13.072 54.4587 8.59083 57.251 5.43249C59.7106 2.65046 62.2449 0.949529 64.808 0.577464C61.6786 2.5854 59.4233 6.64808 57.8368 11.8054C55.9312 17.9995 54.9364 25.9449 54.6166 34.3322C48.9188 38.0261 43.6922 44.215 39.1646 51.5371ZM56.247 59.744C59.1462 62.1137 62.3992 63.6669 65.8723 63.6669C69.3444 63.6669 72.593 62.1167 75.4894 59.7509C74.1904 62.179 72.8301 64.2258 71.4267 65.7627C69.579 67.7861 67.7173 68.8617 65.8723 68.8617C64.0184 68.8617 62.1538 67.7868 60.3075 65.7647C58.903 64.2267 57.5438 62.1771 56.247 59.744ZM60.907 47.2442C60.907 48.9349 59.7865 50.1367 58.5761 50.1367C57.3752 50.1367 56.2536 48.9334 56.2536 47.2442C56.2536 45.5579 57.375 44.3544 58.5761 44.3544C59.7842 44.3544 60.907 45.5568 60.907 47.2442ZM75.4938 47.2442C75.4938 48.9359 74.378 50.1367 73.1657 50.1367C71.9525 50.1367 70.832 48.9321 70.832 47.2442C70.832 45.5586 71.9472 44.3544 73.1657 44.3544C74.3657 44.3544 75.4938 45.5572 75.4938 47.2442Z" fill="#ED190E" stroke="white"/>
<path d="M70.4333 -2.59969C70.4333 0.586158 68.3815 2.96813 66.0593 2.96813C63.7317 2.96813 61.68 0.583261 61.68 -2.59969C61.68 -5.78565 63.7293 -8.17017 66.0593 -8.17017C68.3611 -8.17017 70.4333 -5.7843 70.4333 -2.59969Z" fill="#ED190E" stroke="white"/>
<path d="M21.6667 32.9468C21.6667 35.5332 19.5193 37.6489 16.8467 37.6489C14.174 37.6489 12.0267 35.5332 12.0267 32.9468C12.0267 30.3603 14.174 28.2446 16.8467 28.2446C19.5193 28.2446 21.6667 30.3603 21.6667 32.9468Z" fill="#ED190E" stroke="white"/>
<path d="M24.915 21.2784L21.793 24.0012C20.1913 24.1222 19.024 24.5367 18.1863 25.1313C17.3143 25.7502 16.8348 26.5395 16.5884 27.3093C16.3445 28.0716 16.3301 28.8099 16.3728 29.349C16.3943 29.6204 16.4306 29.8462 16.4622 30.0062C16.4742 30.0672 16.4855 30.1188 16.4951 30.16C16.4306 30.5295 16.3116 30.6388 16.2612 30.6712C16.1999 30.7105 16.0863 30.735 15.8825 30.6844C15.6841 30.6352 15.4744 30.5316 15.3026 30.4287C15.2194 30.379 15.1509 30.3328 15.104 30.2997C15.0806 30.2833 15.0628 30.2702 15.0516 30.2618L15.047 30.2583C13.1757 28.6081 12.7382 27.1336 12.9705 25.8703C13.2126 24.5535 14.2063 23.3106 15.5264 22.2137C16.8344 21.1269 18.3922 20.2415 19.6343 19.6248C20.2532 19.3175 20.7889 19.0793 21.169 18.9183C21.307 18.8598 21.4243 18.8116 21.5176 18.7739L24.915 21.2784Z" fill="#ED190E" stroke="white"/>
<path d="M120.087 32.9468C120.087 35.5332 117.939 37.6489 115.267 37.6489C112.594 37.6489 110.447 35.5332 110.447 32.9468C110.447 30.3603 112.594 28.2446 115.267 28.2446C117.939 28.2446 120.087 30.3603 120.087 32.9468Z" fill="#ED190E" stroke="white"/>
<path d="M111.206 18.7833C111.287 18.8185 111.385 18.8619 111.498 18.9132C111.852 19.0739 112.352 19.3117 112.928 19.6184C114.086 20.2341 115.538 21.1179 116.757 22.2027C117.985 23.2956 118.917 24.5391 119.146 25.8648C119.366 27.145 118.949 28.6249 117.21 30.2695L117.207 30.2722C117.197 30.2805 117.181 30.2933 117.159 30.3096C117.116 30.3423 117.053 30.3879 116.976 30.437C116.817 30.5392 116.627 30.6394 116.45 30.6865C116.269 30.7344 116.184 30.7081 116.142 30.6797C116.101 30.6516 115.986 30.5412 115.923 30.158C115.932 30.1162 115.943 30.0629 115.955 29.9994C115.984 29.8403 116.017 29.6157 116.037 29.3458C116.076 28.8097 116.062 28.0759 115.835 27.3183C115.607 26.5546 115.161 25.7642 114.343 25.1412C113.558 24.5437 112.465 24.1269 110.972 24.003L108.053 21.2771L111.206 18.7833Z" fill="#ED190E" stroke="white"/>
</g>
</svg>
