<svg width="397" height="30" viewBox="0 0 397 30" fill="none" xmlns="http://www.w3.org/2000/svg">
<path d="M13.2117 0.725168C13.0553 2.23139 12.3514 3.94217 11.227 5.53208C10.132 7.08479 9.10538 8.19122 5.07725 12.1334C2.17347 14.9785 0.912237 16.6242 0.296284 18.3908C-0.534762 20.7524 0.433163 23.6905 2.56455 25.2897C3.76713 26.2008 5.16524 26.6657 6.69046 26.675C7.81481 26.675 8.5872 26.4984 9.71156 25.9777C10.6893 25.5221 11.8527 24.4901 12.3611 23.6347C12.5371 23.3372 12.6935 23.114 12.7131 23.1326C12.7327 23.1512 12.6349 23.4487 12.5078 23.8113C11.6572 26.0521 10.1906 27.6792 8.21567 28.5904C7.32596 28.9995 6.14294 29.3342 5.59543 29.3342C5.39989 29.3342 5.21413 29.3621 5.19457 29.3993C5.16524 29.4457 8.83162 29.4736 13.3388 29.4736C17.846 29.4736 21.5222 29.4643 21.5026 29.4457C21.4929 29.4271 21.1898 29.3807 20.828 29.3249C20.0459 29.2226 19.1855 28.953 18.2762 28.5253C16.3502 27.6141 14.9325 26.0614 14.0721 23.8857C13.7299 23.0303 13.769 22.9652 14.1894 23.6533C15.48 25.7174 18.2078 26.9911 20.6227 26.6471C22.275 26.4147 23.4972 25.8103 24.6508 24.6574C25.785 23.5231 26.4009 22.1563 26.5085 20.585C26.6942 17.7492 25.4819 15.8339 20.3783 10.8782C18.9508 9.50219 17.4647 8.02386 17.0737 7.60546C14.7565 5.07649 13.5833 2.89153 13.3486 0.650787L13.2802 -5.14984e-05L13.2117 0.725168Z" fill="white"/>
<path d="M172.197 1.20833C171.076 3.00253 168.959 6.12405 168.076 7.26831C167.018 8.65057 164.371 11.3785 161.547 14.0057L161 14.5092L162.606 16.0287C164.741 18.0518 167.053 20.4501 167.9 21.5303C168.756 22.6196 170.503 25.1645 171.888 27.3431C172.471 28.2494 172.965 29 172.991 29C173.018 29 173.556 28.1944 174.2 27.1967C175.506 25.1645 176.997 22.9858 177.844 21.8507C178.585 20.8621 180.747 18.5735 182.697 16.7061C183.544 15.9006 184.409 15.0676 184.621 14.8662L185 14.5L183.482 13.0811C181.1 10.8475 178.691 8.32102 177.756 7.05777C176.759 5.71212 174.985 3.10322 173.856 1.29987C173.406 0.585857 173.018 0 172.991 0C172.965 0 172.612 0.540089 172.197 1.20833Z" fill="#FE0B0A"/>
<path d="M58.8744 0.180004C56.668 0.749569 54.997 2.5042 54.2123 5.04886C54.0277 5.6368 54 5.93996 54 7.0699C54 8.32845 54.0092 8.44788 54.2862 9.24711C55.0432 11.4243 56.0864 12.9033 59.8069 17.0832C62.1518 19.7198 63.0657 20.8405 64.0258 22.2644C65.503 24.46 66.3892 26.775 66.4169 28.548C66.4261 29.0257 66.4446 29.0992 66.5 28.8879C66.5369 28.7317 66.5739 28.401 66.5831 28.153C66.6108 27.17 67.1739 25.4062 67.9217 24.019C68.928 22.1266 69.9343 20.8405 73.8024 16.5228C76.1473 13.9047 77.2367 12.4808 77.966 11.0569C78.7323 9.56864 79 8.55812 79 7.11583C79 4.90188 78.2061 3.05539 76.6366 1.59473C74.661 -0.242575 71.7253 -0.499798 69.5004 0.960859C69.0018 1.29157 68.1617 2.10918 67.7371 2.66037C67.377 3.14725 66.8231 4.31394 66.6385 5.00293L66.4723 5.61843L66.3061 4.99375C66.2138 4.65384 65.9738 4.03835 65.7707 3.63414C64.4136 0.896555 61.5609 -0.527357 58.8744 0.180004Z" fill="#FE0B0A"/>
<path d="M118.269 0.174656C113.38 1.30757 111.209 6.6341 114.083 10.4714C114.63 11.2114 115.602 12.0337 116.439 12.4631C117.256 12.8834 117.835 13.4681 118.455 14.5371C118.837 15.1675 119.385 16.3461 119.385 16.5014C119.385 16.5379 119.158 16.2547 118.868 15.871C116.605 12.8194 112.119 12.1068 108.873 14.2813C107.726 15.0487 106.703 16.3826 106.248 17.7165C106.052 18.2739 106.01 18.6211 106 19.5895C106 20.8412 106.103 21.362 106.537 22.3122C107.147 23.6461 108.481 24.9617 109.866 25.6104C112.801 26.9717 116.377 26.2956 118.444 23.9841C118.724 23.6735 119.044 23.2623 119.158 23.0613C119.457 22.5588 119.437 22.7781 119.116 23.5273C118.724 24.4592 118.103 25.4551 117.514 26.0946C116.212 27.5473 114.041 28.6345 112.016 28.863C111.623 28.8995 111.292 28.9543 111.271 28.9726C111.251 28.9909 115.178 29 120.005 29C124.822 29 128.718 28.9726 128.656 28.936C128.584 28.8995 128.388 28.863 128.212 28.863C127.674 28.863 126.114 28.4244 125.266 28.0315C123.84 27.3737 122.506 26.2317 121.711 24.9708C121.339 24.4044 120.698 23.0979 120.76 23.0522C120.78 23.0339 120.987 23.2806 121.225 23.6095C122.01 24.6602 123.313 25.5373 124.78 26.0124C125.463 26.2317 125.68 26.2591 126.93 26.2591C128.181 26.2591 128.398 26.2317 129.08 26.0124C131.416 25.2632 133.07 23.6735 133.773 21.4899C133.959 20.9051 134 20.5671 134 19.5895C133.99 18.5114 133.959 18.3195 133.659 17.5338C132.718 15.0487 130.537 13.4042 127.716 13.0478C125.287 12.7463 122.672 13.8427 121.183 15.7979C120.935 16.1268 120.729 16.3735 120.729 16.3461C120.729 16.2273 121.183 15.268 121.494 14.7198C121.979 13.861 122.661 13.0753 123.375 12.5453C124.749 11.5221 125.638 10.6541 126.083 9.88665C126.713 8.81769 126.941 7.9406 126.951 6.6615C126.972 5.00781 126.465 3.66476 125.339 2.3948C124.656 1.62734 124.088 1.20707 123.085 0.722839C121.597 0.0102024 119.84 -0.181664 118.269 0.174656Z" fill="white"/>
<path d="M225.212 0.725168C225.055 2.23139 224.351 3.94217 223.227 5.53208C222.132 7.08479 221.105 8.19122 217.077 12.1334C214.173 14.9785 212.912 16.6242 212.296 18.3908C211.465 20.7524 212.433 23.6905 214.565 25.2897C215.767 26.2008 217.165 26.6657 218.69 26.675C219.815 26.675 220.587 26.4984 221.712 25.9777C222.689 25.5221 223.853 24.4901 224.361 23.6347C224.537 23.3372 224.694 23.114 224.713 23.1326C224.733 23.1512 224.635 23.4487 224.508 23.8113C223.657 26.0521 222.191 27.6792 220.216 28.5904C219.326 28.9995 218.143 29.3342 217.595 29.3342C217.4 29.3342 217.214 29.3621 217.195 29.3993C217.165 29.4457 220.832 29.4736 225.339 29.4736C229.846 29.4736 233.522 29.4643 233.503 29.4457C233.493 29.4271 233.19 29.3807 232.828 29.3249C232.046 29.2226 231.185 28.953 230.276 28.5253C228.35 27.6141 226.932 26.0614 226.072 23.8857C225.73 23.0303 225.769 22.9652 226.189 23.6533C227.48 25.7174 230.208 26.9911 232.623 26.6471C234.275 26.4147 235.497 25.8103 236.651 24.6574C237.785 23.5231 238.401 22.1563 238.508 20.585C238.694 17.7492 237.482 15.8339 232.378 10.8782C230.951 9.50219 229.465 8.02386 229.074 7.60546C226.756 5.07649 225.583 2.89153 225.349 0.650787L225.28 -5.14984e-05L225.212 0.725168Z" fill="white"/>
<path d="M384.197 1.20833C383.076 3.00253 380.959 6.12405 380.076 7.26831C379.018 8.65057 376.371 11.3785 373.547 14.0057L373 14.5092L374.606 16.0287C376.741 18.0518 379.053 20.4501 379.9 21.5303C380.756 22.6196 382.503 25.1645 383.888 27.3431C384.471 28.2494 384.965 29 384.991 29C385.018 29 385.556 28.1944 386.2 27.1967C387.506 25.1645 388.997 22.9858 389.844 21.8507C390.585 20.8621 392.747 18.5735 394.697 16.7061C395.544 15.9006 396.409 15.0676 396.621 14.8662L397 14.5L395.482 13.0811C393.1 10.8475 390.691 8.32102 389.756 7.05777C388.759 5.71212 386.985 3.10322 385.856 1.29987C385.406 0.585857 385.018 0 384.991 0C384.965 0 384.612 0.540089 384.197 1.20833Z" fill="#FE0B0A"/>
<path d="M270.874 0.180004C268.668 0.749569 266.997 2.5042 266.212 5.04886C266.028 5.6368 266 5.93996 266 7.0699C266 8.32845 266.009 8.44788 266.286 9.24711C267.043 11.4243 268.086 12.9033 271.807 17.0832C274.152 19.7198 275.066 20.8405 276.026 22.2644C277.503 24.46 278.389 26.775 278.417 28.548C278.426 29.0257 278.445 29.0992 278.5 28.8879C278.537 28.7317 278.574 28.401 278.583 28.153C278.611 27.17 279.174 25.4062 279.922 24.019C280.928 22.1266 281.934 20.8405 285.802 16.5228C288.147 13.9047 289.237 12.4808 289.966 11.0569C290.732 9.56864 291 8.55812 291 7.11583C291 4.90188 290.206 3.05539 288.637 1.59473C286.661 -0.242575 283.725 -0.499798 281.5 0.960859C281.002 1.29157 280.162 2.10918 279.737 2.66037C279.377 3.14725 278.823 4.31394 278.638 5.00293L278.472 5.61843L278.306 4.99375C278.214 4.65384 277.974 4.03835 277.771 3.63414C276.414 0.896555 273.561 -0.527357 270.874 0.180004Z" fill="#FE0B0A"/>
<path d="M330.269 0.174656C325.38 1.30757 323.209 6.6341 326.083 10.4714C326.63 11.2114 327.602 12.0337 328.439 12.4631C329.256 12.8834 329.835 13.4681 330.455 14.5371C330.837 15.1675 331.385 16.3461 331.385 16.5014C331.385 16.5379 331.158 16.2547 330.868 15.871C328.605 12.8194 324.119 12.1068 320.873 14.2813C319.726 15.0487 318.703 16.3826 318.248 17.7165C318.052 18.2739 318.01 18.6211 318 19.5895C318 20.8412 318.103 21.362 318.537 22.3122C319.147 23.6461 320.481 24.9617 321.866 25.6104C324.801 26.9717 328.377 26.2956 330.444 23.9841C330.724 23.6735 331.044 23.2623 331.158 23.0613C331.457 22.5588 331.437 22.7781 331.116 23.5273C330.724 24.4592 330.103 25.4551 329.514 26.0946C328.212 27.5473 326.041 28.6345 324.016 28.863C323.623 28.8995 323.292 28.9543 323.271 28.9726C323.251 28.9909 327.178 29 332.005 29C336.822 29 340.718 28.9726 340.656 28.936C340.584 28.8995 340.388 28.863 340.212 28.863C339.674 28.863 338.114 28.4244 337.266 28.0315C335.84 27.3737 334.506 26.2317 333.711 24.9708C333.339 24.4044 332.698 23.0979 332.76 23.0522C332.78 23.0339 332.987 23.2806 333.225 23.6095C334.01 24.6602 335.313 25.5373 336.78 26.0124C337.463 26.2317 337.68 26.2591 338.93 26.2591C340.181 26.2591 340.398 26.2317 341.08 26.0124C343.416 25.2632 345.07 23.6735 345.773 21.4899C345.959 20.9051 346 20.5671 346 19.5895C345.99 18.5114 345.959 18.3195 345.659 17.5338C344.718 15.0487 342.537 13.4042 339.716 13.0478C337.287 12.7463 334.672 13.8427 333.183 15.7979C332.935 16.1268 332.729 16.3735 332.729 16.3461C332.729 16.2273 333.183 15.268 333.494 14.7198C333.979 13.861 334.661 13.0753 335.375 12.5453C336.749 11.5221 337.638 10.6541 338.083 9.88665C338.713 8.81769 338.941 7.9406 338.951 6.6615C338.972 5.00781 338.465 3.66476 337.339 2.3948C336.656 1.62734 336.088 1.20707 335.085 0.722839C333.597 0.0102024 331.84 -0.181664 330.269 0.174656Z" fill="white"/>
</svg>
