<svg width="390" height="97" viewBox="0 0 390 97" fill="none" xmlns="http://www.w3.org/2000/svg">
<rect width="390" height="97" fill="#5E0E18"/>
<path d="M0 53.9169L13 53.9504C26 53.995 52 54.062 78 54.6983C104 55.3347 130 56.5181 156 56.3394C182 56.1496 208 54.5867 234 52.9679C260 51.3492 286 49.6746 312 48.8373C338 48 364 48 377 48H390V95H377C364 95 338 95 312 95C286 95 260 95 234 95C208 95 182 95 156 95C130 95 104 95 78 95C52 95 26 95 13 95H0V53.9169Z" fill="#4D0E15"/>
<path d="M44.9402 55.6877C47.536 59.333 51.2663 62.4697 55.0043 65.0073H6.63019C7.87993 32.1636 19.0065 18.3876 29.4369 12.6676C34.7896 9.73218 40.095 8.83709 44.075 8.67996C46.0628 8.60148 47.7102 8.70758 48.8527 8.83171C49.4235 8.89373 49.8669 8.96011 50.1623 9.00981C50.256 9.02558 50.3348 9.03965 50.3979 9.05137L53.2391 10.5527L54.3839 11.1577L55.1496 10.1135C58.4413 5.62401 61.4845 4.13874 63.5438 3.6848C64.1712 3.5465 64.7255 3.4997 65.1897 3.5L61.2001 13.2487L60.6862 14.5047L61.8845 15.1415L68.925 18.8828L69.4791 25.2332L69.5089 25.5746L69.6839 25.8692L82.9857 48.2524L75.8567 53.0448C75.8215 52.9991 75.7854 52.9522 75.7485 52.9044C75.1499 52.1296 74.3207 51.0779 73.401 49.9739C72.4837 48.8727 71.4637 47.7042 70.4846 46.7023C69.5367 45.7321 68.521 44.806 67.622 44.2982L67.6183 44.2961C66.8753 43.8793 65.8821 43.5393 64.85 43.2552C63.7939 42.9645 62.5984 42.7064 61.3949 42.4817C59.2516 42.0814 57.0237 41.7758 55.4007 41.5782L41.0736 25.3158L40.0842 24.1928L38.959 25.1798L36.3461 27.4717L35.2161 28.4629L36.2097 29.5908L43.5757 37.9531C41.8465 41.0686 41.2307 44.1176 41.4983 47.0415C41.7878 50.205 43.0999 53.1033 44.9402 55.6877ZM63.821 71.4777V81.5H1.5V71.4777H63.821Z" stroke="white" stroke-width="3"/>
</svg>
