<svg width="390" height="100" viewBox="0 0 390 100" fill="none" xmlns="http://www.w3.org/2000/svg">
<rect width="390" height="100" fill="#810D1C"/>
<path d="M0 57.1686L13 57.2036C26 57.2501 52 57.32 78 57.9834C104 58.6468 130 59.8805 156 59.6943C182 59.4964 208 57.867 234 56.1793C260 54.4917 286 52.7458 312 51.8729C338 51 364 51 377 51H390V100H377C364 100 338 100 312 100C286 100 260 100 234 100C208 100 182 100 156 100C130 100 104 100 78 100C52 100 26 100 13 100H0V57.1686Z" fill="#6F0E1A"/>
<path d="M321.441 13.0002H321.489C324.625 13.0258 327.158 15.5722 327.158 18.7106C327.158 21.1733 325.596 23.2747 323.405 24.0762L322.289 24.4844L322.882 25.5142L330.921 39.4798C328.529 40.8509 326.915 43.4277 326.915 46.3864C326.915 50.7824 330.476 54.3463 334.874 54.3463C339.271 54.3463 342.839 50.7836 342.839 46.3866C342.839 43.247 341.02 40.5407 338.383 39.2459L346.449 25.4972L347.049 24.474L345.939 24.0555C343.775 23.2398 342.238 21.1533 342.238 18.7108C342.238 15.5569 344.796 13.0002 347.955 13.0002C351.112 13.0002 353.671 15.5564 353.671 18.7108C353.671 21.4138 351.79 23.681 349.263 24.2723L348.104 24.5435L348.571 25.6383L354.858 40.3783C351.807 41.3706 349.602 44.2357 349.602 47.6183C349.602 51.8218 353.01 55.2325 357.216 55.2325C361.422 55.2325 364.829 51.8219 364.829 47.6184C364.829 45.0853 363.59 42.8462 361.69 41.4638L370.993 26.8697L371.502 26.0719L370.733 25.52C369.41 24.5696 368.551 23.0278 368.551 21.2839V21.2837C368.551 18.4007 370.891 16.0586 373.776 16.0586C376.66 16.0586 379 18.4002 379 21.2837C379 24.1659 376.661 26.5034 373.776 26.5034C373.646 26.5034 373.527 26.5007 373.417 26.4934L372.529 26.4343L372.367 27.3094L364.369 70.5681H304.625L296.633 27.3095L296.471 26.4343L295.583 26.4934C295.474 26.5007 295.356 26.5032 295.224 26.5032C292.339 26.5032 290 24.1659 290 21.2835C290 18.4006 292.34 16.0584 295.225 16.0584C298.108 16.0584 300.443 18.3988 300.443 21.2835C300.443 23.0195 299.596 24.5537 298.287 25.5044L297.523 26.0592L298.033 26.8538L307.349 41.3657C305.372 42.739 304.075 45.0248 304.075 47.6181C304.075 51.8215 307.482 55.2323 311.688 55.2323C315.894 55.2323 319.301 51.8217 319.301 47.6183C319.301 44.3135 317.197 41.5026 314.254 40.45L320.665 25.6002L321.127 24.5297L319.999 24.2361C317.539 23.5961 315.725 21.3644 315.725 18.7108C315.725 15.5568 318.283 13.0002 321.441 13.0002ZM303.867 76.197H365.339C368.644 76.8232 368.374 81.9332 364.588 81.9332H363.107H362.273L362.261 82H306.739L306.726 81.933H305.895H304.601C303.522 81.933 302.781 81.5797 302.299 81.1102C301.806 80.6305 301.523 79.9707 301.474 79.269C301.377 77.8839 302.178 76.4983 303.867 76.197Z" stroke="white" stroke-width="2"/>
</svg>
