<svg width="390" height="100" viewBox="0 0 390 100" fill="none" xmlns="http://www.w3.org/2000/svg">
<rect width="390" height="100" fill="#3C0D12"/>
<path d="M0 67L13 68.5689C26 70.1377 52 73.2754 78 74.9308C104 76.597 130 76.7702 156 75.3636C182 73.957 208 70.9708 234 70.7111C260 70.4623 286 72.9508 312 72.8751C338 72.8102 364 70.1702 377 68.861L390 67.541V100H377C364 100 338 100 312 100C286 100 260 100 234 100C208 100 182 100 156 100C130 100 104 100 78 100C52 100 26 100 13 100H0V67Z" fill="#2C0B0C"/>
<path d="M309.627 12.9731C309.627 13.6047 309.739 14.2159 309.938 14.7839C308.161 15.1475 306.695 16.39 306 18.0318V14C306 12.2625 306.53 10.7279 307.338 9.65028C308.146 8.57294 309.186 8 310.25 8H312.857C310.96 8.84573 309.627 10.7425 309.627 12.9731ZM311.016 25.6762C311.293 25.6762 311.565 25.655 311.831 25.6142L310.516 28.7979L309.945 30.1796H311.44H318.653H320.148L319.578 28.7979L318.258 25.6029C318.544 25.651 318.837 25.6762 319.136 25.6762C322.159 25.6762 324.534 23.1735 324.534 20.1758C324.534 17.5288 322.682 15.2673 320.167 14.7746C320.364 14.2105 320.472 13.6038 320.472 12.9731C320.472 10.7516 319.173 8.84794 317.287 8H359.75C360.815 8 361.854 8.57292 362.662 9.65024C363.471 10.7279 364 12.2624 364 14V73.1192C363.662 70.4443 361.428 68.3242 358.646 68.3242C358.347 68.3242 358.054 68.3493 357.768 68.3974L359.088 65.2021L359.659 63.8204H358.164H351.62H350.951H350.95V64.8204V64.8204L350.026 65.202L351.341 68.3862C351.075 68.3454 350.804 68.3242 350.527 68.3242C347.52 68.3242 345.076 70.8112 345.076 73.8245C345.076 76.4681 346.956 78.7067 349.448 79.2165C349.249 79.7844 349.138 80.3956 349.138 81.0273C349.138 83.2578 350.47 85.1543 352.367 86H310.25C309.186 86 308.146 85.4271 307.338 84.3497C306.53 83.2721 306 81.7375 306 80V22.3185C306.831 24.2827 308.766 25.6762 311.016 25.6762ZM359.677 79.2254C361.965 78.7773 363.705 76.8651 364 74.5299V80C364 81.7376 363.471 83.2721 362.662 84.3498C361.854 85.4271 360.815 86 359.75 86H356.799C358.684 85.1518 359.982 83.2482 359.982 81.0273C359.982 80.3963 359.874 79.7896 359.677 79.2254ZM328.633 31.1251V32.1251V32.7462V33.7462H329.633H332.433C333.301 33.7462 333.65 33.8954 333.742 33.9674L333.759 33.9806L333.776 33.9929C333.845 34.042 333.933 34.1236 333.933 34.4318V54.8995C333.933 56.9872 333.454 58.4768 332.622 59.4944C331.808 60.4762 330.702 60.9887 329.184 60.9887C327.819 60.9887 326.726 60.6118 325.844 59.8982C324.936 59.1373 324.605 58.4108 324.605 57.7091C324.605 57.6453 324.608 57.5922 324.612 57.5485C324.69 57.5688 324.783 57.5949 324.893 57.6277C325.376 57.7799 325.846 57.8878 326.256 57.8878C327.246 57.8878 328.094 57.4575 328.768 56.7194L328.768 56.7194L328.777 56.7099C329.467 55.9345 329.799 54.9855 329.799 53.9269C329.799 52.7244 329.399 51.668 328.566 50.8422C327.734 50.0037 326.674 49.5984 325.465 49.5984C323.965 49.5984 322.695 50.2287 321.707 51.4025L321.707 51.4026C320.705 52.5937 320.254 54.1332 320.254 55.9155C320.254 58.3722 321.177 60.4784 322.985 62.177L322.988 62.1802C324.812 63.8773 327.142 64.696 329.889 64.696C331.893 64.696 333.725 64.2928 335.363 63.4644L335.363 63.4644L335.37 63.4609C336.998 62.6221 338.271 61.4776 339.147 60.0178L339.149 60.0135C340.016 58.5527 340.443 56.9264 340.443 55.1587V34.4318C340.443 34.1093 340.528 33.9923 340.587 33.9371C340.665 33.8767 340.937 33.7462 341.623 33.7462H343.611H344.611V32.7462V31.1251V30.1251H343.611H329.633V31.1249H328.633V31.1251Z" stroke="white" stroke-width="2"/>
</svg>
