<svg width="390" height="98" viewBox="0 0 390 98" fill="none" xmlns="http://www.w3.org/2000/svg">
<rect width="390" height="98" fill="#ED190E"/>
<path d="M0 49.924L13 49.9632C26 50.0154 52 50.0938 78 50.8385C104 51.5831 130 52.9679 156 52.7589C182 52.5368 208 50.7078 234 48.8135C260 46.9192 286 44.9596 312 43.9798C338 43 364 43 377 43H390V98H377C364 98 338 98 312 98C286 98 260 98 234 98C208 98 182 98 156 98C130 98 104 98 78 98C52 98 26 98 13 98H0V49.924Z" fill="#D91C18"/>
<mask id="mask0_161_5" style="mask-type:alpha" maskUnits="userSpaceOnUse" x="282" y="0" width="108" height="98">
<rect x="282" width="108" height="98" fill="#ED190E"/>
</mask>
<g mask="url(#mask0_161_5)">
<path d="M394.066 84.6629C394.233 85.7423 393.871 86.7636 393.17 87.7272C392.328 88.8861 391.024 89.9149 389.69 90.7548L389.658 90.7753C389.645 90.7814 389.634 90.7869 389.625 90.7915C389.619 90.7946 389.613 90.7973 389.609 90.7994L389.586 90.8107L389.564 90.8244C388.52 91.4742 387.495 91.9884 386.73 92.3405C386.348 92.5163 386.032 92.6511 385.813 92.7416C385.774 92.7574 385.739 92.7719 385.707 92.785L385.681 92.7682L385.429 92.8868C381.504 94.7355 377.491 96.2548 373.779 97.0555L373.354 97.1472L373.258 97.1635L373.25 97.1649L373.241 97.1667C372.095 97.4047 370.932 97.5604 369.763 97.6327L369.751 97.6334L369.739 97.6347C366.956 97.9391 363.154 98.1834 359.599 97.8518C356.086 97.524 352.95 96.6444 351.214 94.8404L349.914 84.3843L352.353 82.1322L359.853 84.3993L360.288 84.5308L360.461 84.1103L366.453 69.4905C366.451 69.64 366.451 69.7936 366.451 69.9508C366.462 72.0805 366.71 74.9154 367.675 77.6963C368.641 80.4809 370.333 83.231 373.239 85.1465C376.148 87.063 380.215 88.1068 385.862 87.5826L385.862 87.5827L385.87 87.5818C386.272 87.5381 386.67 87.4659 387.062 87.3657C389.576 86.902 391.921 85.9523 394.066 84.6629Z" fill="#ED190E" stroke="white"/>
<path d="M395.822 24.2752C389.622 23.2652 385.106 23.941 381.831 25.5987C378.443 27.3141 376.447 30.0497 375.294 32.9072C374.145 35.757 373.829 38.7397 373.796 40.9964C373.792 41.2514 373.792 41.4974 373.795 41.7333L365.864 22.6735C366.469 19.239 367.881 17.036 369.799 15.7178C371.756 14.3734 374.315 13.898 377.271 14.0795C383.064 14.4354 390.165 17.3015 396.599 20.622C396.446 20.9523 396.313 21.2912 396.2 21.6371L396.2 21.637L396.198 21.6443C395.935 22.499 395.809 23.3861 395.822 24.2752Z" fill="#ED190E" stroke="white"/>
<path d="M380.447 13.9851C380.447 13.9852 380.448 13.9853 380.448 13.9853L372.765 25.1023L359.655 29.0519L357.198 26.7985L358.515 16.3443C359.75 15.0666 361.702 14.2457 364.026 13.7609C366.405 13.2643 369.106 13.1344 371.662 13.1861C374.214 13.2377 376.605 13.47 378.359 13.6898C379.235 13.7996 379.951 13.9062 380.447 13.9851ZM330.464 22.3008L322.473 41.7031C322.476 41.4568 322.476 41.1997 322.472 40.9329C322.439 38.6389 322.12 35.6074 320.963 32.7112C319.804 29.8075 317.795 27.0266 314.385 25.2825C311.089 23.5968 306.544 22.9095 300.304 23.9364C300.33 22.6518 300.06 21.3774 299.514 20.2068C305.994 16.8289 313.144 13.913 318.977 13.551C321.951 13.3665 324.527 13.8497 326.498 15.2173C328.431 16.5591 329.854 18.8028 330.464 22.3008Z" fill="#ED190E" stroke="white"/>
<path d="M315.657 14.007C315.663 14.0061 315.668 14.0052 315.674 14.0043C316.174 13.9235 316.896 13.8145 317.779 13.702C319.546 13.477 321.956 13.2392 324.529 13.1863C327.105 13.1334 329.827 13.2664 332.226 13.7748C334.568 14.2713 336.538 15.1124 337.785 16.4236L339.106 27.1419L336.635 29.4532L323.416 25.41L315.657 14.007Z" fill="#ED190E" stroke="white"/>
<path d="M344.964 25.0151L344.964 25.0152C343.567 25.8105 342.202 26.6881 340.829 27.5825C340.655 27.6962 340.48 27.8102 340.305 27.9243C339.108 28.7057 337.9 29.4933 336.672 30.2335C333.854 31.9311 330.884 33.4033 327.525 34.0364L327.515 34.0383L327.515 34.0382C327.124 34.1034 326.731 34.1465 326.336 34.1672C326.078 35.7043 325.947 37.2601 325.947 38.8188L344.964 25.0151ZM344.964 25.0151C347.242 23.7173 350.256 23.1061 353.007 22.7747M344.964 25.0151L353.007 22.7747M353.007 22.7747C353.025 24.8367 353.729 26.96 355.442 28.8452C357.28 30.8769 359.081 32.9418 360.843 35.0388C363.333 38.0209 367.019 38.2235 370.105 36.921C370.146 37.5481 370.167 38.1818 370.167 38.8188C370.167 45.7197 367.656 57.761 363.581 68.0818C361.544 73.2392 359.13 77.9334 356.467 81.3287C353.79 84.7418 350.945 86.7393 348.06 86.7393C345.172 86.7393 342.326 84.7423 339.648 81.3301C336.984 77.9357 334.569 73.2427 332.532 68.0859C328.456 57.7667 325.947 45.7255 325.947 38.819L353.007 22.7747Z" fill="#ED190E" stroke="white"/>
<path d="M345.651 28.2248L345.651 28.2254C344.101 34.8931 343.474 45.4308 344.062 56.3502C344.638 67.0547 346.385 78.189 349.614 86.4551C348.998 86.6398 348.387 86.7393 347.765 86.7393C344.919 86.7393 342.112 84.7636 339.47 81.3836C336.841 78.0217 334.457 73.3734 332.447 68.2654C328.424 58.0437 325.947 46.1164 325.947 39.2755L325.947 39.2748C325.945 37.7323 326.073 36.1926 326.331 34.6721C326.719 34.6513 327.104 34.6088 327.487 34.5446L327.487 34.5447L327.497 34.5428C330.816 33.9155 333.748 32.4566 336.528 30.7748C337.739 30.0423 338.928 29.2628 340.108 28.4896C340.282 28.3758 340.455 28.2621 340.629 28.1487C341.981 27.2639 343.326 26.3959 344.702 25.609C345.334 25.2692 345.99 24.9764 346.664 24.733C346.278 25.8632 345.933 27.0209 345.651 28.2248Z" fill="#ED190E" stroke="white"/>
<path d="M328.249 63.3456C330.73 67.7799 333.483 71.6944 336.446 74.6517C340.006 78.2047 343.918 80.4248 348.061 80.4248C352.202 80.4248 356.111 78.2031 359.668 74.6495C362.63 71.691 365.382 67.7756 367.865 63.3419C366.147 72.6755 363.516 82.7583 360.28 90.775C358.483 95.2289 356.509 99.0179 354.42 101.685C352.317 104.367 350.178 105.814 348.061 105.814C345.943 105.814 343.803 104.367 341.699 101.684C339.608 99.0178 337.633 95.2288 335.835 90.7749C332.598 82.7592 329.966 72.6781 328.249 63.3456Z" fill="#ED190E" stroke="white"/>
<path d="M302.946 87.7272C302.246 86.7637 301.882 85.7422 302.046 84.6629C304.198 85.9519 306.537 86.9018 309.049 87.3656C309.415 87.4597 309.809 87.5335 310.246 87.5817L310.246 87.5818L310.255 87.5826C315.899 88.1068 319.966 87.063 322.873 85.1465C325.779 83.231 327.471 80.4809 328.437 77.6963C329.402 74.9155 329.65 72.0805 329.66 69.9509C329.661 69.7926 329.66 69.6381 329.659 69.4877L335.656 84.1104L335.829 84.5307L336.264 84.3993L343.766 82.1323L346.199 84.3838L344.888 94.8406C343.159 96.6443 340.026 97.524 336.514 97.8518C332.962 98.1834 329.159 97.9391 326.373 97.6347L326.361 97.6334L326.35 97.6327C325.181 97.56 324.019 97.4043 322.874 97.1667L322.866 97.165L322.858 97.1636L322.774 97.1491L322.34 97.0555C318.625 96.2548 314.609 94.7355 310.688 92.8869L310.436 92.7681L310.41 92.7848C310.378 92.7718 310.343 92.7574 310.305 92.7417C310.086 92.6512 309.77 92.5164 309.388 92.3405C308.623 91.9884 307.597 91.4739 306.547 90.8238L306.533 90.8151L306.518 90.8074C306.496 90.7953 306.473 90.7836 306.449 90.7725L306.422 90.755C305.091 89.9152 303.789 88.8864 302.946 87.7272Z" fill="#ED190E" stroke="white"/>
<path d="M302.046 85.1317C304.183 86.4297 306.513 87.386 309.016 87.8482C309.406 87.9467 309.801 88.021 310.2 88.0705L310.208 88.0714L310.215 88.0721C317.85 88.7849 322.572 86.5858 325.435 83.271C326.758 81.7397 327.668 79.9884 328.289 78.2141C328.009 80.1803 327.459 82.3134 326.44 84.2812C325.307 86.4672 323.598 88.4429 321.031 89.7697C318.462 91.0974 314.994 91.7955 310.313 91.3575C309.926 91.314 309.576 91.2396 309.239 91.1593L309.227 91.1564L309.215 91.1542C307.341 90.8024 305.556 90.1601 303.884 89.2946C302.605 88.0268 301.823 86.6283 302.046 85.1317ZM369.68 84.2833C368.66 82.3127 368.111 80.1762 367.831 78.2075C368.452 79.984 369.362 81.7378 370.686 83.271C373.548 86.5858 378.27 88.7849 385.905 88.0721L385.913 88.0714L385.921 88.0703C386.318 88.0201 386.711 87.9459 387.098 87.8482C389.603 87.3863 391.936 86.4307 394.068 85.1332C394.289 86.6299 393.509 88.0283 392.232 89.2955C390.557 90.1714 388.759 90.7979 386.898 91.1545L386.884 91.1571L386.87 91.1605C386.52 91.2482 386.164 91.3141 385.805 91.3578C381.124 91.7967 377.657 91.0993 375.089 89.772C372.522 88.4455 370.813 86.4696 369.68 84.2833ZM348.05 80.4248C352.206 80.4248 356.129 78.2052 359.699 74.6523C362.673 71.6931 365.436 67.7756 367.927 63.3377C366.202 72.6723 363.562 82.7567 360.314 90.7744C358.51 95.2282 356.53 99.0172 354.433 101.684C352.323 104.366 350.176 105.814 348.05 105.814C345.924 105.814 343.777 104.366 341.667 101.684C339.57 99.0172 337.59 95.2282 335.786 90.7744C332.538 82.7558 329.899 72.6701 328.177 63.3346C330.668 67.7717 333.431 71.6899 336.404 74.6501C339.973 78.2037 343.896 80.4248 348.05 80.4248Z" fill="#ED190E" stroke="white"/>
<path d="M374.95 51.5803C371.495 45.9828 367.638 41.0428 363.477 37.36C358.717 33.1468 353.523 30.5472 348.06 30.5472C342.591 30.5472 337.396 33.1467 332.636 37.36C328.476 41.0424 324.62 45.9818 321.165 51.5784C323.464 40.2529 327.058 27.9002 331.506 18.1267C333.917 12.8309 336.566 8.31846 339.378 5.13791C342.196 1.94915 345.113 0.170166 348.06 0.170166C351.004 0.170166 353.92 1.94906 356.739 5.13791C359.55 8.31848 362.2 12.831 364.611 18.1268C369.061 27.9008 372.656 40.2544 374.95 51.5803Z" fill="#ED190E" stroke="white"/>
<path d="M321.165 51.2073C323.448 39.964 327.017 27.7031 331.433 18.0014C333.827 12.7421 336.459 8.261 339.251 5.10265C341.711 2.32062 344.245 0.619695 346.808 0.24763C343.679 2.25557 341.423 6.31824 339.837 11.4755C337.931 17.6696 336.936 25.615 336.617 34.0024C330.919 37.6962 325.692 43.8852 321.165 51.2073ZM338.247 59.4141C341.146 61.7838 344.399 63.3371 347.872 63.3371C351.344 63.3371 354.593 61.7868 357.489 59.421C356.19 61.8491 354.83 63.8959 353.427 65.4328C351.579 67.4563 349.717 68.5318 347.872 68.5318C346.018 68.5318 344.154 67.4569 342.307 65.4349C340.903 63.8968 339.544 61.8472 338.247 59.4141ZM342.907 46.9143C342.907 48.605 341.787 49.8068 340.576 49.8068C339.375 49.8068 338.254 48.6036 338.254 46.9143C338.254 45.2281 339.375 44.0246 340.576 44.0246C341.784 44.0246 342.907 45.227 342.907 46.9143ZM357.494 46.9143C357.494 48.6061 356.378 49.8068 355.166 49.8068C353.952 49.8068 352.832 48.6022 352.832 46.9143C352.832 45.2288 353.947 44.0246 355.166 44.0246C356.366 44.0246 357.494 45.2273 357.494 46.9143Z" fill="#ED190E" stroke="white"/>
<path d="M352.433 -2.92952C352.433 0.256324 350.381 2.63829 348.059 2.63829C345.732 2.63829 343.68 0.253427 343.68 -2.92952C343.68 -6.11548 345.729 -8.5 348.059 -8.5C350.361 -8.5 352.433 -6.11413 352.433 -2.92952Z" fill="#ED190E" stroke="white"/>
<path d="M303.667 32.617C303.667 35.2035 301.519 37.3192 298.847 37.3192C296.174 37.3192 294.027 35.2035 294.027 32.617C294.027 30.0306 296.174 27.9149 298.847 27.9149C301.519 27.9149 303.667 30.0306 303.667 32.617Z" fill="#ED190E" stroke="white"/>
<path d="M306.915 20.9484L303.793 23.6712C302.191 23.7923 301.024 24.2067 300.186 24.8013C299.314 25.4203 298.835 26.2095 298.588 26.9793C298.345 27.7416 298.33 28.4799 298.373 29.0191C298.394 29.2904 298.431 29.5163 298.462 29.6763C298.474 29.7372 298.486 29.7888 298.495 29.83C298.431 30.1995 298.312 30.3089 298.261 30.3412C298.2 30.3805 298.086 30.4051 297.883 30.3545C297.684 30.3052 297.474 30.2017 297.303 30.0988C297.219 30.049 297.151 30.0029 297.104 29.9698C297.081 29.9533 297.063 29.9402 297.052 29.9318L297.047 29.9284C295.176 28.2781 294.738 26.8036 294.971 25.5404C295.213 24.2236 296.206 22.9807 297.526 21.8837C298.834 20.7969 300.392 19.9115 301.634 19.2948C302.253 18.9876 302.789 18.7494 303.169 18.5883C303.307 18.5299 303.424 18.4816 303.518 18.444L306.915 20.9484Z" fill="#ED190E" stroke="white"/>
<path d="M393.206 18.4533C393.287 18.4886 393.385 18.5319 393.498 18.5832C393.852 18.7439 394.352 18.9817 394.928 19.2885C396.086 19.9041 397.538 20.788 398.757 21.8727C399.985 22.9657 400.917 24.2092 401.146 25.5348C401.366 26.8151 400.949 28.295 399.21 29.9395L399.207 29.9423C399.197 29.9505 399.181 29.9634 399.159 29.9796C399.116 30.0123 399.053 30.0579 398.976 30.107C398.817 30.2092 398.627 30.3095 398.45 30.3566C398.269 30.4045 398.184 30.3781 398.142 30.3497C398.101 30.3216 397.986 30.2113 397.923 29.828C397.932 29.7862 397.943 29.7329 397.955 29.6694C397.984 29.5104 398.017 29.2857 398.037 29.0159C398.076 28.4797 398.062 27.746 397.835 26.9884C397.607 26.2246 397.161 25.4343 396.343 24.8112C395.558 24.2138 394.465 23.7969 392.972 23.673L390.053 20.9471L393.206 18.4533Z" fill="#ED190E" stroke="white"/>
</g>
</svg>
