<svg width="390" height="97" viewBox="0 0 390 97" fill="none" xmlns="http://www.w3.org/2000/svg">
<rect width="390" height="97" fill="#B70D1B"/>
<path d="M0 64L13 65.4738C26 66.9475 52 69.8951 78 71.4502C104 73.0154 130 73.178 156 71.8567C182 70.5354 208 67.7302 234 67.4862C260 67.2525 286 69.5902 312 69.519C338 69.458 364 66.978 377 65.7482L390 64.5082V95H377C364 95 338 95 312 95C286 95 260 95 234 95C208 95 182 95 156 95C130 95 104 95 78 95C52 95 26 95 13 95H0V64Z" fill="#A50C1C"/>
<path d="M29.7558 25.3592C27.348 24.5071 24.7768 24.1906 22.2249 24.437C19.3718 24.7124 16.6319 25.683 14.2482 27.2618C11.8645 28.8406 9.91083 30.9785 8.55964 33.4854C7.20858 35.992 6.50133 38.7904 6.5 41.6325L29.7558 25.3592ZM29.7558 25.3592C30.2353 30.1753 31.9713 34.6782 33.6308 38.0476C35.3976 41.6349 37.1263 44.0341 37.3235 44.3007C37.3245 44.3021 37.3255 44.3035 37.3265 44.3048L37.9734 45.1882V57.182H13.5859C12.8544 56.1012 12.1031 55.1342 11.3758 54.1981C8.78578 50.8645 6.50016 47.9226 6.5 41.6331L29.7558 25.3592ZM42.5247 7.96199H41.0247V9.46199V11.512C41.0076 11.512 40.9905 11.512 40.9734 11.5121V9.46199V7.96199H39.4734H37.4721V7.93097H39.4734H40.9734V6.43097V3.5H41.0247V6.43097V7.93097H42.5247H44.526V7.96199H42.5247ZM58.0919 24.3553L58.3755 24.3557C62.8912 24.4277 67.2047 26.2401 70.4016 29.4135C73.6645 32.6526 75.4972 37.0441 75.5 41.622C75.4998 47.9197 73.2119 50.8622 70.6206 54.195C69.8945 55.1288 69.1447 56.0932 68.4146 57.1706H44.0247V45.1891L44.674 44.3047L44.6759 44.3021C44.9618 43.9108 51.2579 35.2388 52.2406 25.3583C54.1161 24.6931 56.0955 24.3529 58.0919 24.3553ZM13.8936 80.5V72.1337H68.1045V80.5H13.8936ZM17.0064 66.1008C16.8899 65.1227 16.7002 64.1549 16.4393 63.2054H65.5588C65.2979 64.1549 65.1082 65.1227 64.9917 66.1008H17.0064ZM40.999 38.8998C40.4106 37.9389 39.6747 36.6496 38.939 35.1321C37.2769 31.7033 35.6795 27.2373 35.6795 22.8136C35.6795 21.418 36.2375 20.0776 37.234 19.0876C38.2309 18.0974 39.585 17.5393 40.999 17.5393C42.4131 17.5393 43.7672 18.0974 44.7641 19.0876C45.7606 20.0776 46.3186 21.418 46.3186 22.8136C46.3186 27.2373 44.7212 31.7033 43.0591 35.1321C42.3234 36.6496 41.5875 37.9389 40.999 38.8998Z" stroke="white" stroke-width="3"/>
</svg>
