<svg width="27" height="28" viewBox="0 0 27 28" fill="none" xmlns="http://www.w3.org/2000/svg">
<path d="M13.221 2.42632L13.2208 2.42662L13.0885 2.66414C13.0885 2.66417 13.0885 2.66419 13.0885 2.66422C13.0792 2.68085 13.0694 2.6988 13.059 2.71788C12.9515 2.91417 12.7788 3.2298 12.4894 3.45053C12.1903 3.67899 11.8298 3.75608 11.6207 3.80082C11.6005 3.80514 11.5816 3.80917 11.5644 3.813L11.3118 3.8715L11.3069 3.87263L11.3069 3.87262C11.0613 3.9282 10.8628 3.97315 10.6937 4.01599C10.8026 4.15061 10.9456 4.31872 11.1333 4.53819L11.1334 4.53826L11.3085 4.74302C11.321 4.75763 11.3346 4.77328 11.3491 4.78996C11.4946 4.95726 11.7294 5.22742 11.8373 5.57464L11.8381 5.57725C11.9428 5.91753 11.9071 6.26807 11.8844 6.49131C11.8821 6.51442 11.8798 6.53616 11.8779 6.55639L11.8775 6.56068L11.8775 6.56068L11.8507 6.83305C11.8507 6.83334 11.8506 6.83364 11.8506 6.83394C11.825 7.09827 11.8053 7.30736 11.7924 7.47621C11.938 7.41236 12.1041 7.33595 12.303 7.24441L12.5429 7.13387L12.5458 7.13255C12.5629 7.12474 12.5819 7.1158 12.6027 7.10605C12.7928 7.01669 13.1292 6.85853 13.5 6.85853C13.8708 6.85853 14.2072 7.01669 14.3973 7.10605C14.4181 7.1158 14.4371 7.12474 14.4542 7.13256L14.4571 7.13387L14.697 7.24441C14.6971 7.24447 14.6972 7.24452 14.6974 7.24457C14.896 7.336 15.0619 7.41234 15.2074 7.47613C15.1947 7.30724 15.175 7.09814 15.1494 6.83394C15.1494 6.83364 15.1493 6.83334 15.1493 6.83305L15.1225 6.56068L15.122 6.55639L15.1221 6.55639C15.1202 6.53616 15.1179 6.51442 15.1156 6.49131C15.0929 6.26807 15.0572 5.91753 15.1619 5.57725C15.2694 5.22778 15.5056 4.95667 15.6497 4.79126C15.6646 4.77419 15.6785 4.75825 15.6911 4.74346L13.221 2.42632ZM13.221 2.42632C13.3283 2.23337 13.4188 2.07092 13.5 1.9307C13.5812 2.07092 13.6717 2.23337 13.779 2.42632L13.7792 2.42662L13.9115 2.66414M13.221 2.42632L13.9115 2.66414M13.9115 2.66414C13.9115 2.66417 13.9115 2.66419 13.9115 2.66422C13.9208 2.68085 13.9306 2.6988 13.941 2.71788C14.0486 2.91433 14.2215 3.23032 14.5113 3.45106L14.5112 3.45108L14.5158 3.4545C14.8134 3.67857 15.1679 3.75511 15.3816 3.80122C15.4007 3.80536 15.4188 3.80925 15.4355 3.81299L15.6882 3.8715L15.6882 3.87151L15.6931 3.87262C15.9387 3.9282 16.1372 3.97315 16.3063 4.01599C16.1974 4.15061 16.0544 4.31872 15.8667 4.53819L15.8666 4.53826L15.6915 4.74302L13.9115 2.66414ZM17.5981 12.6594L17.5997 12.661C17.6794 12.7405 17.7754 12.8808 17.8347 13.321C17.8979 13.79 17.9 14.4263 17.9 15.4091V23.3051C17.9 23.3507 17.9 23.3967 17.9 23.443L17.9 23.5091H18.9H19.9C19.9 22.5263 19.9021 21.89 19.9653 21.421C20.0246 20.9808 20.1206 20.8405 20.2003 20.761L20.2027 20.7586C20.2813 20.6796 20.4207 20.5837 20.8609 20.5244C21.3299 20.4612 21.9665 20.4591 22.95 20.4591C23.9328 20.4591 24.5691 20.4612 25.0381 20.5244C25.4783 20.5837 25.6185 20.6796 25.6981 20.7594L25.6997 20.761C25.7794 20.8405 25.8754 20.9808 25.9347 21.421C25.9979 21.89 26 22.5263 26 23.5091V26.5591H9.1V15.4091C9.1 14.4263 9.10213 13.79 9.1653 13.321C9.22458 12.8808 9.32057 12.7405 9.40031 12.661L9.40272 12.6586C9.48132 12.5796 9.62066 12.4837 10.0609 12.4244C10.5299 12.3612 11.1665 12.3591 12.15 12.3591H14.85C15.8328 12.3591 16.4691 12.3612 16.9381 12.4244C17.3783 12.4837 17.5185 12.5796 17.5981 12.6594ZM7.0347 25.47C7.07332 25.7567 7.08912 26.1061 7.09558 26.5591H1.00443C1.01089 26.1067 1.0267 25.7576 1.0653 25.471C1.12458 25.0308 1.22057 24.8905 1.30031 24.811L1.30272 24.8086C1.38132 24.7296 1.52066 24.6337 1.96087 24.5744C2.42991 24.5112 3.06653 24.5091 4.05 24.5091C5.03277 24.5091 5.66907 24.5112 6.13812 24.5744C6.57825 24.6337 6.71853 24.7297 6.79809 24.8094L6.80051 24.8118C6.87947 24.8904 6.97541 25.0297 7.0347 25.47ZM13.8161 1.45269C13.8161 1.45275 13.8151 1.45376 13.8131 1.45553C13.8151 1.45352 13.8161 1.45263 13.8161 1.45269ZM13.1869 1.45553C13.1849 1.45376 13.1839 1.45275 13.1839 1.45269C13.1839 1.45263 13.1849 1.45352 13.1869 1.45553ZM15.2138 8.00346C15.2138 8.00339 15.2141 8.00183 15.2148 7.99896C15.2142 8.00208 15.2139 8.00352 15.2138 8.00346ZM11.7855 8.0034C11.7855 8.00346 11.7852 8.00207 11.7846 7.99907C11.7853 8.00184 11.7856 8.00334 11.7855 8.0034Z" stroke="#FE0B0A" stroke-width="2"/>
</svg>
