<svg width="19" height="19" viewBox="0 0 19 19" fill="none" xmlns="http://www.w3.org/2000/svg">
<path d="M16.1111 8.55556H2.88889M16.1111 8.55556C16.6121 8.55556 17.0925 8.75456 17.4468 9.1088C17.801 9.46303 18 9.94348 18 10.4444V16.1111C18 16.6121 17.801 17.0925 17.4468 17.4468C17.0925 17.801 16.6121 18 16.1111 18H2.88889C2.38792 18 1.90748 17.801 1.55324 17.4468C1.19901 17.0925 1 16.6121 1 16.1111V10.4444C1 9.94348 1.19901 9.46303 1.55324 9.1088C1.90748 8.75456 2.38792 8.55556 2.88889 8.55556M16.1111 8.55556V6.66667C16.1111 6.1657 15.9121 5.68526 15.5579 5.33102C15.2036 4.97678 14.7232 4.77778 14.2222 4.77778M2.88889 8.55556V6.66667C2.88889 6.1657 3.0879 5.68526 3.44213 5.33102C3.79637 4.97678 4.27681 4.77778 4.77778 4.77778M14.2222 4.77778V2.88889C14.2222 2.38792 14.0232 1.90748 13.669 1.55324C13.3147 1.19901 12.8343 1 12.3333 1H6.66667C6.1657 1 5.68526 1.19901 5.33102 1.55324C4.97678 1.90748 4.77778 2.38792 4.77778 2.88889V4.77778M14.2222 4.77778H4.77778" stroke="#FE0B0A" stroke-linecap="round" stroke-linejoin="round"/>
</svg>
