<svg width="27" height="30" viewBox="0 0 27 30" fill="none" xmlns="http://www.w3.org/2000/svg">
<path d="M13.2117 0.725168C13.0553 2.23139 12.3514 3.94217 11.227 5.53208C10.132 7.08479 9.10538 8.19122 5.07725 12.1334C2.17347 14.9785 0.912237 16.6242 0.296284 18.3908C-0.534762 20.7524 0.433163 23.6905 2.56455 25.2897C3.76713 26.2008 5.16524 26.6657 6.69046 26.675C7.81481 26.675 8.5872 26.4984 9.71156 25.9777C10.6893 25.5221 11.8527 24.4901 12.3611 23.6347C12.5371 23.3372 12.6935 23.114 12.7131 23.1326C12.7327 23.1512 12.6349 23.4487 12.5078 23.8113C11.6572 26.0521 10.1906 27.6792 8.21567 28.5904C7.32596 28.9995 6.14294 29.3342 5.59543 29.3342C5.39989 29.3342 5.21413 29.3621 5.19457 29.3993C5.16524 29.4457 8.83162 29.4736 13.3388 29.4736C17.846 29.4736 21.5222 29.4643 21.5026 29.4457C21.4929 29.4271 21.1898 29.3807 20.828 29.3249C20.0459 29.2226 19.1855 28.953 18.2762 28.5253C16.3502 27.6141 14.9325 26.0614 14.0721 23.8857C13.7299 23.0303 13.769 22.9652 14.1894 23.6533C15.48 25.7174 18.2078 26.9911 20.6227 26.6471C22.275 26.4147 23.4972 25.8103 24.6508 24.6574C25.785 23.5231 26.4009 22.1563 26.5085 20.585C26.6942 17.7492 25.4819 15.8339 20.3783 10.8782C18.9508 9.50219 17.4647 8.02386 17.0737 7.60546C14.7565 5.07649 13.5833 2.89153 13.3486 0.650787L13.2802 -5.15152e-05L13.2117 0.725168Z" fill="white"/>
</svg>
