<svg width="294" height="433" viewBox="0 0 294 433" fill="none" xmlns="http://www.w3.org/2000/svg">
<path d="M102.569 199.496L101.178 198.059L100.569 198.648V199.496H102.569ZM104.801 197.336L106.192 198.773L109.744 195.336H104.801V197.336ZM95.2972 199.712V201.712H96.8702L97.2409 200.183L95.2972 199.712ZM93.7132 199.712L92.0709 200.854L92.6677 201.712H93.7132V199.712ZM89.6092 193.808L87.9182 192.74L87.2102 193.861L87.9669 194.95L89.6092 193.808ZM91.8412 191.36L90.6019 189.79L90.6019 189.79L91.8412 191.36ZM118.481 187.904V185.904H116.908L116.537 187.433L118.481 187.904ZM120.065 187.904L121.707 186.762L121.111 185.904H120.065V187.904ZM124.169 193.808L125.86 194.876L126.568 193.755L125.811 192.666L124.169 193.808ZM121.937 196.256L123.176 197.826V197.826L121.937 196.256ZM111.209 197.336V195.336H109.209V197.336H111.209ZM111.785 237.728L109.996 238.622H109.996L111.785 237.728ZM114.161 238.88H116.161V236.88H114.161V238.88ZM114.161 241.112L114.935 242.956L116.161 242.442V241.112H114.161ZM99.4012 247.304L97.6123 248.198L98.4492 249.872L100.175 249.148L99.4012 247.304ZM98.2492 245V243H95.0131L96.4603 245.894L98.2492 245ZM101.273 243.128L102.858 244.347L102.878 244.322L102.896 244.297L101.273 243.128ZM104.569 237.656V199.496H100.569V237.656H104.569ZM103.96 200.933L106.192 198.773L103.41 195.899L101.178 198.059L103.96 200.933ZM104.801 195.336H100.265V199.336H104.801V195.336ZM100.265 195.336C98.6608 195.336 97.1751 195.547 95.9642 196.126C94.6713 196.744 93.7061 197.786 93.3535 199.241L97.2409 200.183C97.2722 200.054 97.3271 199.908 97.6901 199.734C98.1352 199.521 98.9415 199.336 100.265 199.336V195.336ZM95.2972 197.712H93.7132V201.712H95.2972V197.712ZM95.3554 198.57L91.2514 192.666L87.9669 194.95L92.0709 200.854L95.3554 198.57ZM91.3001 194.876C91.7461 194.17 92.3326 193.52 93.0804 192.93L90.6019 189.79C89.5257 190.64 88.6242 191.622 87.9182 192.74L91.3001 194.876ZM93.0804 192.93C93.7607 192.393 94.2242 192.28 94.5052 192.28V188.28C93.0581 188.28 91.7456 188.887 90.6019 189.79L93.0804 192.93ZM94.5052 192.28H113.513V188.28H94.5052V192.28ZM113.513 192.28C115.117 192.28 116.603 192.069 117.814 191.49C119.107 190.872 120.072 189.83 120.425 188.375L116.537 187.433C116.506 187.562 116.451 187.708 116.088 187.882C115.643 188.095 114.837 188.28 113.513 188.28V192.28ZM118.481 189.904H120.065V185.904H118.481V189.904ZM118.423 189.046L122.527 194.95L125.811 192.666L121.707 186.762L118.423 189.046ZM122.478 192.74C122.032 193.446 121.446 194.096 120.698 194.686L123.176 197.826C124.253 196.976 125.154 195.994 125.86 194.876L122.478 192.74ZM120.698 194.686C120.018 195.223 119.554 195.336 119.273 195.336V199.336C120.72 199.336 122.033 198.729 123.176 197.826L120.698 194.686ZM119.273 195.336H111.209V199.336H119.273V195.336ZM109.209 197.336V233.912H113.209V197.336H109.209ZM109.209 233.912C109.209 235.735 109.391 237.411 109.996 238.622L113.574 236.834C113.412 236.509 113.209 235.641 113.209 233.912H109.209ZM109.996 238.622C110.85 240.33 112.55 240.88 114.161 240.88V236.88C113.759 236.88 113.584 236.814 113.54 236.792C113.523 236.784 113.531 236.786 113.549 236.803C113.567 236.821 113.575 236.836 113.574 236.834L109.996 238.622ZM112.161 238.88V241.112H116.161V238.88H112.161ZM113.387 239.268L98.6275 245.46L100.175 249.148L114.935 242.956L113.387 239.268ZM101.19 246.41L100.038 244.106L96.4603 245.894L97.6123 248.198L101.19 246.41ZM98.2492 247C100.185 247 101.712 245.838 102.858 244.347L99.6879 241.909C98.9142 242.914 98.4253 243 98.2492 243V247ZM102.896 244.297C104.119 242.598 104.569 240.274 104.569 237.656H100.569C100.569 239.934 100.155 241.258 99.6501 241.959L102.896 244.297ZM131.89 192.8L132.581 194.677L132.589 194.674L132.596 194.671L131.89 192.8ZM144.994 192.656L143.455 193.933L143.464 193.944L143.473 193.955L144.994 192.656ZM147.514 216.848H145.514V218.848H147.514V216.848ZM151.042 216.848H153.042V214.848H151.042V216.848ZM151.042 218.576L151.951 220.358L153.042 219.801V218.576H151.042ZM147.514 220.376L146.605 218.594L145.514 219.151V220.376H147.514ZM150.97 239.024H152.97V237.398L151.378 237.066L150.97 239.024ZM150.97 240.608L151.947 242.353L152.97 241.781V240.608H150.97ZM143.122 245L142.365 246.851L143.257 247.216L144.099 246.745L143.122 245ZM140.17 242.912L138.687 244.254L138.703 244.272L138.72 244.289L140.17 242.912ZM138.802 220.376H140.802V218.376H138.802V220.376ZM132.322 220.376V218.376H130.322V220.376H132.322ZM135.274 238.88H137.274V236.88H135.274V238.88ZM135.274 241.112L136.048 242.956L137.274 242.442V241.112H135.274ZM120.514 247.304L118.725 248.198L119.562 249.872L121.288 249.148L120.514 247.304ZM119.362 245V243H116.126L117.573 245.894L119.362 245ZM122.386 243.128L123.971 244.347L123.991 244.322L124.009 244.297L122.386 243.128ZM132.322 197.48L131.083 195.91L130.322 196.511V197.48H132.322ZM132.322 218.72H130.322V221.787L133.129 220.55L132.322 218.72ZM136.57 216.848V214.848H136.149L135.764 215.018L136.57 216.848ZM138.802 216.848V218.848H140.802V216.848H138.802ZM125.682 237.656V196.328H121.682V237.656H125.682ZM125.682 196.328C125.682 196.96 125.381 197.37 125.295 197.481C125.18 197.628 125.078 197.71 125.058 197.726C125.013 197.762 125.026 197.744 125.162 197.669C125.416 197.529 125.857 197.318 126.524 197.031C127.842 196.465 129.854 195.682 132.581 194.677L131.199 190.923C128.454 191.934 126.362 192.747 124.944 193.357C124.243 193.658 123.658 193.93 123.228 194.168C123.022 194.282 122.779 194.427 122.563 194.6C122.457 194.683 122.291 194.827 122.134 195.03C122.005 195.196 121.682 195.654 121.682 196.328H125.682ZM132.596 194.671C135.322 193.643 137.445 192.881 138.976 192.378C139.743 192.126 140.34 191.947 140.778 191.833C141.282 191.701 141.404 191.704 141.322 191.704V187.704C140.832 187.704 140.255 187.836 139.769 187.962C139.217 188.106 138.533 188.314 137.728 188.578C136.116 189.107 133.93 189.893 131.184 190.929L132.596 194.671ZM141.322 191.704C141.011 191.704 141.06 191.567 141.599 192.001C142.062 192.373 142.678 192.996 143.455 193.933L146.534 191.379C145.678 190.348 144.866 189.495 144.105 188.883C143.42 188.333 142.449 187.704 141.322 187.704V191.704ZM143.473 193.955C145.026 195.774 145.514 197.097 145.514 197.984H149.514C149.514 195.703 148.322 193.474 146.515 191.357L143.473 193.955ZM145.514 197.984V216.848H149.514V197.984H145.514ZM147.514 218.848H151.042V214.848H147.514V218.848ZM149.042 216.848V218.576H153.042V216.848H149.042ZM150.133 216.794L146.605 218.594L148.423 222.158L151.951 220.358L150.133 216.794ZM145.514 220.376V234.344H149.514V220.376H145.514ZM145.514 234.344C145.514 235.94 145.862 237.453 146.769 238.682C147.697 239.938 149.037 240.664 150.562 240.982L151.378 237.066C150.599 236.904 150.211 236.61 149.987 236.306C149.742 235.975 149.514 235.388 149.514 234.344H145.514ZM148.97 239.024V240.608H152.97V239.024H148.97ZM149.993 238.863L142.145 243.255L144.099 246.745L151.947 242.353L149.993 238.863ZM143.879 243.149C143.124 242.84 142.368 242.322 141.62 241.535L138.72 244.289C139.796 245.422 141.008 246.296 142.365 246.851L143.879 243.149ZM141.653 241.57C140.892 240.729 140.802 240.255 140.802 240.104H136.802C136.802 241.681 137.624 243.079 138.687 244.254L141.653 241.57ZM140.802 240.104V220.376H136.802V240.104H140.802ZM138.802 218.376H132.322V222.376H138.802V218.376ZM130.322 220.376V233.912H134.322V220.376H130.322ZM130.322 233.912C130.322 235.735 130.503 237.411 131.109 238.622L134.687 236.834C134.525 236.509 134.322 235.641 134.322 233.912H130.322ZM131.109 238.622C131.963 240.33 133.662 240.88 135.274 240.88V236.88C134.872 236.88 134.696 236.814 134.653 236.792C134.636 236.784 134.644 236.786 134.662 236.803C134.68 236.821 134.688 236.836 134.687 236.834L131.109 238.622ZM133.274 238.88V241.112H137.274V238.88H133.274ZM134.5 239.268L119.74 245.46L121.288 249.148L136.048 242.956L134.5 239.268ZM122.303 246.41L121.151 244.106L117.573 245.894L118.725 248.198L122.303 246.41ZM119.362 247C121.298 247 122.825 245.838 123.971 244.347L120.801 241.909C120.027 242.914 119.538 243 119.362 243V247ZM124.009 244.297C125.232 242.598 125.682 240.274 125.682 237.656H121.682C121.682 239.934 121.268 241.258 120.763 241.959L124.009 244.297ZM135.13 194.4C133.632 194.4 132.271 194.972 131.083 195.91L133.561 199.05C134.197 198.548 134.709 198.4 135.13 198.4V194.4ZM130.322 197.48V218.72H134.322V197.48H130.322ZM133.129 220.55L137.377 218.678L135.764 215.018L131.516 216.89L133.129 220.55ZM136.57 218.848H138.802V214.848H136.57V218.848ZM140.802 216.848V201.728H136.802V216.848H140.802ZM140.802 201.728C140.802 199.784 140.478 197.972 139.531 196.597C138.491 195.088 136.909 194.4 135.13 194.4V198.4C135.799 198.4 136.053 198.6 136.237 198.867C136.514 199.268 136.802 200.12 136.802 201.728H140.802ZM163.33 194.528H161.33V198.088L164.37 196.236L163.33 194.528ZM176.002 192.656L174.462 193.933L174.471 193.944L174.481 193.955L176.002 192.656ZM172.762 223.184L172.019 221.327L172.011 221.33L172.762 223.184ZM163.33 226.64L162.742 224.728L161.33 225.163V226.64H163.33ZM166.282 238.88H168.282V236.88H166.282V238.88ZM166.282 241.112L167.056 242.956L168.282 242.442V241.112H166.282ZM151.522 247.304L149.733 248.198L150.57 249.872L152.296 249.148L151.522 247.304ZM150.37 245V243H147.134L148.581 245.894L150.37 245ZM153.394 243.128L154.979 244.347L154.998 244.322L155.017 244.297L153.394 243.128ZM151.738 195.392H149.738V197.039L151.355 197.355L151.738 195.392ZM151.738 193.808L150.755 192.066L149.738 192.64V193.808H151.738ZM159.01 189.704L159.753 187.847L158.862 187.491L158.027 187.962L159.01 189.704ZM161.89 191.792L160.442 193.171V193.171L161.89 191.792ZM163.33 197.696L162.167 196.069L161.33 196.667V197.696H163.33ZM163.33 223.256H161.33V225.256H163.33V223.256ZM167.506 222.104L168.4 223.893L168.422 223.882L168.444 223.87L167.506 222.104ZM164.37 196.236C166.999 194.635 169.036 193.453 170.497 192.676C171.23 192.286 171.787 192.015 172.184 191.847C172.383 191.762 172.513 191.716 172.586 191.694C172.691 191.662 172.6 191.704 172.402 191.704V187.704C172.012 187.704 171.658 187.796 171.43 187.865C171.171 187.943 170.897 188.048 170.622 188.164C170.071 188.398 169.398 188.73 168.619 189.144C167.056 189.975 164.941 191.205 162.289 192.82L164.37 196.236ZM172.402 191.704C172.179 191.704 172.084 191.637 172.164 191.677C172.235 191.713 172.382 191.802 172.61 191.989C173.068 192.364 173.683 192.993 174.462 193.933L177.541 191.379C176.689 190.351 175.888 189.504 175.146 188.895C174.495 188.362 173.531 187.704 172.402 187.704V191.704ZM174.481 193.955C176.034 195.774 176.522 197.097 176.522 197.984H180.522C180.522 195.703 179.329 193.474 177.523 191.357L174.481 193.955ZM176.522 197.984V220.376H180.522V197.984H176.522ZM176.522 220.376C176.522 219.925 176.679 219.597 176.772 219.438C176.869 219.271 176.968 219.167 177.009 219.125C177.089 219.043 177.129 219.026 177.057 219.073C176.928 219.159 176.661 219.31 176.205 219.532C175.313 219.967 173.927 220.564 172.019 221.327L173.505 225.041C175.436 224.268 176.931 223.629 177.958 223.128C178.463 222.882 178.916 222.64 179.266 222.408C179.435 222.296 179.655 222.138 179.855 221.936C179.956 221.833 180.522 221.276 180.522 220.376H176.522ZM172.011 221.33C168.246 222.855 165.161 223.984 162.742 224.728L163.918 228.552C166.491 227.76 169.694 226.585 173.513 225.038L172.011 221.33ZM161.33 226.64V233.912H165.33V226.64H161.33ZM161.33 233.912C161.33 235.735 161.511 237.411 162.117 238.622L165.695 236.834C165.532 236.509 165.33 235.641 165.33 233.912H161.33ZM162.117 238.622C162.971 240.33 164.67 240.88 166.282 240.88V236.88C165.88 236.88 165.704 236.814 165.66 236.792C165.643 236.784 165.652 236.786 165.67 236.803C165.688 236.821 165.696 236.836 165.695 236.834L162.117 238.622ZM164.282 238.88V241.112H168.282V238.88H164.282ZM165.508 239.268L150.748 245.46L152.296 249.148L167.056 242.956L165.508 239.268ZM153.311 246.41L152.159 244.106L148.581 245.894L149.733 248.198L153.311 246.41ZM150.37 247C152.306 247 153.833 245.838 154.979 244.347L151.809 241.909C151.035 242.914 150.546 243 150.37 243V247ZM155.017 244.297C156.24 242.598 156.69 240.274 156.69 237.656H152.69C152.69 239.934 152.276 241.258 151.771 241.959L155.017 244.297ZM156.69 237.656V200.36H152.69V237.656H156.69ZM156.69 200.36C156.69 198.709 156.419 197.158 155.671 195.9C154.875 194.56 153.638 193.725 152.121 193.429L151.355 197.355C151.806 197.443 152.045 197.628 152.232 197.944C152.469 198.342 152.69 199.083 152.69 200.36H156.69ZM153.738 195.392V193.808H149.738V195.392H153.738ZM152.721 195.55L159.993 191.446L158.027 187.962L150.755 192.066L152.721 195.55ZM158.267 191.561C158.885 191.808 159.615 192.303 160.442 193.171L163.338 190.413C162.245 189.265 161.055 188.368 159.753 187.847L158.267 191.561ZM160.442 193.171C161.28 194.051 161.33 194.485 161.33 194.528H165.33C165.33 192.939 164.42 191.549 163.338 190.413L160.442 193.171ZM166.138 194.616C164.712 194.616 163.373 195.207 162.167 196.069L164.492 199.323C165.303 198.745 165.836 198.616 166.138 198.616V194.616ZM161.33 197.696V223.256H165.33V197.696H161.33ZM163.33 225.256C164.983 225.256 166.685 224.75 168.4 223.893L166.611 220.315C165.254 220.994 164.173 221.256 163.33 221.256V225.256ZM168.444 223.87C169.319 223.406 170.113 222.865 170.71 222.212C171.321 221.543 171.81 220.657 171.81 219.584H167.81C167.81 219.375 167.914 219.341 167.758 219.512C167.587 219.699 167.229 219.986 166.568 220.338L168.444 223.87ZM171.81 219.584V201.944H167.81V219.584H171.81ZM171.81 201.944C171.81 200 171.486 198.188 170.539 196.813C169.498 195.304 167.917 194.616 166.138 194.616V198.616C166.807 198.616 167.061 198.816 167.245 199.083C167.522 199.484 167.81 200.336 167.81 201.944H171.81ZM182.043 195.392H180.043V197.039L181.66 197.355L182.043 195.392ZM182.043 193.808L181.06 192.066L180.043 192.64V193.808H182.043ZM189.315 189.704L190.072 187.853L189.175 187.486L188.332 187.962L189.315 189.704ZM192.267 191.864L190.783 193.206L190.8 193.224L190.817 193.241L192.267 191.864ZM196.587 229.952H198.587V228.305L196.97 227.989L196.587 229.952ZM196.587 231.536L197.57 233.278L198.587 232.704V231.536H196.587ZM189.315 235.64L188.557 237.491L189.454 237.858L190.298 237.382L189.315 235.64ZM186.363 233.552L184.879 234.894L184.896 234.912L184.913 234.929L186.363 233.552ZM191.691 249.608L191.018 247.725L190.991 247.734L190.963 247.745L191.691 249.608ZM186.867 249.536L185.233 250.689L185.255 250.721L185.278 250.751L186.867 249.536ZM188.883 240.464L189.585 242.337L189.605 242.329L189.625 242.321L188.883 240.464ZM193.851 240.608L192.144 241.651L192.178 241.707L192.217 241.761L193.851 240.608ZM186.995 230.744V200.36H182.995V230.744H186.995ZM186.995 200.36C186.995 198.709 186.723 197.158 185.976 195.9C185.18 194.56 183.943 193.725 182.426 193.429L181.66 197.355C182.11 197.443 182.349 197.628 182.537 197.944C182.774 198.342 182.995 199.083 182.995 200.36H186.995ZM184.043 195.392V193.808H180.043V195.392H184.043ZM183.026 195.55L190.298 191.446L188.332 187.962L181.06 192.066L183.026 195.55ZM188.557 191.555C189.288 191.854 190.034 192.378 190.783 193.206L193.75 190.522C192.675 189.334 191.453 188.418 190.072 187.853L188.557 191.555ZM190.817 193.241C191.558 194.022 191.635 194.464 191.635 194.6H195.635C195.635 193.008 194.799 191.626 193.717 190.486L190.817 193.241ZM191.635 194.6V224.984H195.635V194.6H191.635ZM191.635 224.984C191.635 226.635 191.906 228.186 192.653 229.444C193.449 230.784 194.686 231.619 196.204 231.915L196.97 227.989C196.519 227.901 196.28 227.716 196.092 227.4C195.855 227.002 195.635 226.261 195.635 224.984H191.635ZM194.587 229.952V231.536H198.587V229.952H194.587ZM195.604 229.794L188.332 233.898L190.298 237.382L197.57 233.278L195.604 229.794ZM190.072 233.789C189.316 233.48 188.561 232.962 187.813 232.174L184.913 234.929C185.988 236.062 187.201 236.936 188.557 237.491L190.072 233.789ZM187.846 232.21C187.084 231.369 186.995 230.895 186.995 230.744H182.995C182.995 232.321 183.817 233.719 184.879 234.894L187.846 232.21ZM192.715 243.92V248.312H196.715V243.92H192.715ZM192.715 248.312C192.715 247.747 192.953 247.355 193.064 247.195C193.188 247.018 193.312 246.907 193.366 246.861C193.476 246.767 193.555 246.725 193.533 246.738C193.508 246.752 193.403 246.806 193.171 246.906C192.725 247.097 192.016 247.368 191.018 247.725L192.363 251.491C193.381 251.128 194.184 250.823 194.746 250.582C195.019 250.466 195.291 250.34 195.518 250.21C195.622 250.151 195.796 250.046 195.969 249.898C196.054 249.825 196.201 249.689 196.341 249.489C196.468 249.307 196.715 248.895 196.715 248.312H192.715ZM190.963 247.745C189.992 248.124 189.247 248.398 188.718 248.575C188.452 248.663 188.263 248.72 188.14 248.751C187.963 248.797 188.043 248.76 188.235 248.76V252.76C188.594 252.76 188.945 252.675 189.139 252.625C189.388 252.56 189.673 252.473 189.983 252.369C190.606 252.162 191.422 251.86 192.418 251.471L190.963 247.745ZM188.235 248.76C188.434 248.76 188.596 248.795 188.709 248.83C188.822 248.865 188.903 248.905 188.949 248.93C189.034 248.977 189.056 249.004 189.01 248.964C188.97 248.928 188.902 248.86 188.803 248.748C188.705 248.638 188.59 248.497 188.455 248.321L185.278 250.751C185.622 251.201 185.98 251.62 186.343 251.944C186.525 252.108 186.754 252.289 187.025 252.437C187.284 252.579 187.704 252.76 188.235 252.76V248.76ZM188.5 248.383C188.124 247.85 188.003 247.405 188.003 247.016H184.003C184.003 248.355 184.457 249.59 185.233 250.689L188.5 248.383ZM188.003 247.016V241.76H184.003V247.016H188.003ZM188.003 241.76C188.003 242.298 187.786 242.676 187.678 242.839C187.559 243.017 187.44 243.13 187.385 243.179C187.323 243.235 187.273 243.272 187.251 243.287C187.238 243.296 187.228 243.303 187.222 243.307C187.216 243.31 187.212 243.313 187.212 243.313C187.211 243.313 187.218 243.309 187.234 243.3C187.25 243.292 187.272 243.28 187.302 243.265C187.362 243.236 187.441 243.198 187.543 243.152C187.963 242.963 188.635 242.693 189.585 242.337L188.18 238.591C187.21 238.955 186.442 239.261 185.902 239.504C185.641 239.622 185.376 239.75 185.154 239.883C185.051 239.945 184.88 240.053 184.71 240.206C184.625 240.282 184.483 240.42 184.35 240.62C184.226 240.805 184.003 241.204 184.003 241.76H188.003ZM189.625 242.321C190.568 241.944 191.297 241.674 191.825 241.501C192.09 241.415 192.282 241.36 192.412 241.329C192.572 241.291 192.543 241.312 192.411 241.312V237.312C191.827 237.312 191.128 237.521 190.584 237.699C189.937 237.91 189.117 238.216 188.14 238.607L189.625 242.321ZM192.411 241.312C192.177 241.312 191.996 241.252 191.887 241.2C191.785 241.152 191.743 241.11 191.757 241.123C191.769 241.134 191.813 241.176 191.885 241.269C191.956 241.36 192.042 241.485 192.144 241.651L195.557 239.565C195.243 239.05 194.874 238.546 194.432 238.149C194.002 237.762 193.316 237.312 192.411 237.312V241.312ZM192.217 241.761C192.477 242.131 192.715 242.783 192.715 243.92H196.715C196.715 242.273 196.376 240.717 195.484 239.455L192.217 241.761Z" fill="black"/>
<g filter="url(#filter0_d_90_3383)">
<rect x="15" y="15" width="264" height="403" rx="18" fill="black" fill-opacity="0.8" shape-rendering="crispEdges"/>
<rect x="17" y="17" width="260" height="399" rx="16" stroke="#FFD28D" stroke-width="4" shape-rendering="crispEdges"/>
</g>
<g filter="url(#filter1_d_90_3383)">
<path d="M42.2529 89.0813C41.2905 89.5268 40.7189 89.651 39.8146 89.6514C38.5793 89.643 37.4742 89.2716 36.5162 88.5458L36.5106 88.5415L36.5106 88.5415C34.8175 87.2712 34.107 84.9493 34.7165 83.2172L34.718 83.2131C35.2209 81.7706 36.2755 80.3043 39.2177 77.4216C43.3016 73.4248 44.4467 72.2061 45.6522 70.497L42.2529 89.0813ZM42.2529 89.0813C42.5854 88.9261 43.0099 88.6402 43.4184 88.2786C43.8308 87.9136 44.1375 87.5506 44.2918 87.2915M42.2529 89.0813L44.2918 87.2915M44.2918 87.2915C44.3936 87.1194 44.4991 86.9527 44.5925 86.8196C44.6343 86.7598 44.6989 86.6706 44.774 86.585C44.8012 86.5541 44.8907 86.4523 45.0224 86.3528C45.0768 86.3117 45.2465 86.1862 45.4999 86.1095C45.7083 86.0463 46.1454 85.9771 46.587 86.1894C46.9435 86.0601 47.266 86.0937 47.4717 86.1456C47.8317 86.2366 48.0608 86.4385 48.1111 86.4828C48.1123 86.4839 48.1135 86.4849 48.1145 86.4858C48.2594 86.6129 48.3618 86.7506 48.3986 86.8C48.4989 86.935 48.6096 87.1086 48.7184 87.2864C49.72 88.8823 51.9127 89.9039 53.7794 89.638L53.782 89.6377C55.1487 89.4454 56.0916 88.9751 57.0303 88.0372C57.0304 88.0371 57.0305 88.037 57.0306 88.0369L44.2918 87.2915ZM52.699 76.1504C51.2489 74.7525 49.7108 73.2236 49.2827 72.7656L49.2776 72.7602L49.2726 72.7547C48.1329 71.5108 47.2158 70.3053 46.5306 69.099C46.2675 69.5749 45.9734 70.0428 45.6523 70.4968L52.699 76.1504ZM48.2649 92.4995C47.5818 91.8164 46.998 91.0246 46.5166 90.1317C46.0433 91.0196 45.4662 91.8126 44.791 92.4985C45.3662 92.4995 45.9639 92.5 46.577 92.5C47.1551 92.5 47.7197 92.4998 48.2649 92.4995Z" stroke="#FFD28D" stroke-width="3" shape-rendering="crispEdges"/>
</g>
<g filter="url(#filter2_d_90_3383)">
<path d="M247.747 339.919C248.71 339.473 249.281 339.349 250.185 339.349C251.421 339.357 252.526 339.728 253.484 340.454L253.489 340.459L253.489 340.458C255.182 341.729 255.893 344.051 255.283 345.783L255.282 345.787C254.779 347.229 253.725 348.696 250.783 351.578C246.698 355.576 245.553 356.794 244.347 358.504C244.026 358.958 243.732 359.425 243.469 359.901C242.784 358.695 241.867 357.489 240.727 356.245L240.722 356.24L240.717 356.234C240.289 355.776 238.751 354.248 237.301 352.85M247.747 339.919L242.667 361.629C242.046 360.24 241.046 358.813 239.621 357.259C239.223 356.833 237.711 355.328 236.258 353.927C231.063 348.883 229.829 346.934 230.018 344.047M247.747 339.919C247.415 340.074 246.99 340.36 246.582 340.721C246.169 341.086 245.863 341.449 245.708 341.708C245.606 341.881 245.501 342.047 245.408 342.18C245.366 342.24 245.301 342.329 245.226 342.415C245.199 342.446 245.109 342.548 244.978 342.647C244.923 342.688 244.754 342.814 244.5 342.891C244.292 342.954 243.855 343.023 243.413 342.811C243.057 342.94 242.734 342.906 242.528 342.854C242.168 342.763 241.939 342.562 241.889 342.517L241.886 342.514C241.741 342.387 241.638 342.249 241.601 342.2C241.501 342.065 241.39 341.891 241.282 341.714C240.28 340.118 238.087 339.096 236.221 339.362L236.218 339.362C234.851 339.555 233.908 340.025 232.97 340.963M247.747 339.919L232.969 340.963M237.301 352.85C237.3 352.849 237.3 352.848 237.299 352.848L236.258 353.927L237.303 352.851C237.302 352.851 237.302 352.85 237.301 352.85ZM237.301 352.85C234.701 350.324 233.215 348.687 232.387 347.377C231.622 346.166 231.441 345.272 231.515 344.147M231.515 344.147C231.515 344.148 231.515 344.149 231.515 344.15L230.018 344.047M231.515 344.147C231.6 342.911 232.072 341.861 232.969 340.963M231.515 344.147C231.515 344.147 231.515 344.146 231.515 344.145L230.018 344.047M230.018 344.047L232.969 340.963M232.969 340.963L231.909 339.902L232.97 340.963M232.969 340.963C232.969 340.963 232.969 340.963 232.969 340.963M232.969 340.963C232.969 340.963 232.969 340.963 232.969 340.963M232.97 340.963C232.97 340.963 232.969 340.963 232.969 340.963M232.97 340.963L232.969 340.963M235.113 335.028C235.113 335.028 235.113 335.028 235.114 335.028C235.114 335.028 235.115 335.028 235.115 335.028C235.137 335.023 235.386 335.019 235.818 335.015L235.8 335.151M235.113 335.028L236.574 335.011C236.283 335.012 236.031 335.014 235.821 335.015L235.8 335.151M235.113 335.028C235.123 335.047 235.423 335.093 235.784 335.149L235.8 335.151M235.113 335.028L235.8 335.151M241.735 336.5C242.418 337.184 243.002 337.975 243.483 338.868C243.957 337.98 244.534 337.187 245.209 336.501C244.634 336.501 244.036 336.5 243.423 336.5C242.845 336.5 242.28 336.5 241.735 336.5Z" stroke="#FFD28D" stroke-width="3" shape-rendering="crispEdges"/>
</g>
<path d="M96.8683 185.328L95.4774 183.891L94.8683 184.48V185.328H96.8683ZM99.8442 182.448L101.235 183.885L104.787 180.448H99.8442V182.448ZM87.1723 185.616V187.616H88.7453L89.1159 186.087L87.1723 185.616ZM85.0602 185.616L83.418 186.758L84.0148 187.616H85.0602V185.616ZM79.5882 177.744L77.8973 176.676L77.1893 177.797L77.946 178.886L79.5882 177.744ZM82.5642 174.48L81.325 172.91L81.325 172.91L82.5642 174.48ZM118.084 169.872V167.872H116.511L116.141 169.401L118.084 169.872ZM120.196 169.872L121.838 168.73L121.242 167.872H120.196V169.872ZM125.668 177.744L127.359 178.812L128.067 177.691L127.31 176.602L125.668 177.744ZM122.692 181.008L123.932 182.578L122.692 181.008ZM108.388 182.448V180.448H106.388V182.448H108.388ZM109.156 236.304L107.367 237.198H107.367L109.156 236.304ZM112.324 237.84H114.324V235.84H112.324V237.84ZM112.324 240.816L113.098 242.66L114.324 242.146V240.816H112.324ZM92.6443 249.072L90.8554 249.966L91.6923 251.64L93.4179 250.916L92.6443 249.072ZM91.1082 246V244H87.8722L89.3194 246.894L91.1082 246ZM95.1403 243.504L96.7255 244.723L96.7448 244.698L96.7633 244.673L95.1403 243.504ZM98.8683 236.208V185.328H94.8683V236.208H98.8683ZM98.2591 186.765L101.235 183.885L98.4534 181.011L95.4774 183.891L98.2591 186.765ZM99.8442 180.448H93.7962V184.448H99.8442V180.448ZM93.7962 180.448C91.7039 180.448 89.8362 180.725 88.3493 181.436C86.7804 182.186 85.6452 183.426 85.2285 185.145L89.1159 186.087C89.2113 185.694 89.4361 185.35 90.0752 185.044C90.7963 184.699 91.9846 184.448 93.7962 184.448V180.448ZM87.1723 183.616H85.0602V187.616H87.1723V183.616ZM86.7025 184.474L81.2305 176.602L77.946 178.886L83.418 186.758L86.7025 184.474ZM81.2792 178.812C81.9172 177.802 82.7517 176.88 83.8035 176.05L81.325 172.91C79.9448 174 78.7953 175.254 77.8973 176.676L81.2792 178.812ZM83.8035 176.05C84.7878 175.273 85.5473 175.04 86.1163 175.04V171.04C84.3812 171.04 82.7727 171.767 81.325 172.91L83.8035 176.05ZM86.1163 175.04H111.46V171.04H86.1163V175.04ZM111.46 175.04C113.553 175.04 115.42 174.763 116.907 174.052C118.476 173.302 119.611 172.062 120.028 170.343L116.141 169.401C116.045 169.794 115.82 170.138 115.181 170.444C114.46 170.789 113.272 171.04 111.46 171.04V175.04ZM118.084 171.872H120.196V167.872H118.084V171.872ZM118.554 171.014L124.026 178.886L127.31 176.602L121.838 168.73L118.554 171.014ZM123.977 176.676C123.339 177.686 122.505 178.608 121.453 179.438L123.932 182.578C125.312 181.488 126.461 180.234 127.359 178.812L123.977 176.676ZM121.453 179.438C120.469 180.215 119.709 180.448 119.14 180.448V184.448C120.875 184.448 122.484 183.721 123.932 182.578L121.453 179.438ZM119.14 180.448H108.388V184.448H119.14V180.448ZM106.388 182.448V231.216H110.388V182.448H106.388ZM106.388 231.216C106.388 233.631 106.634 235.731 107.367 237.198L110.945 235.41C110.655 234.829 110.388 233.537 110.388 231.216H106.388ZM107.367 237.198C108.349 239.162 110.313 239.84 112.324 239.84V235.84C111.136 235.84 110.987 235.494 110.945 235.41L107.367 237.198ZM110.324 237.84V240.816H114.324V237.84H110.324ZM111.551 238.972L91.8706 247.228L93.4179 250.916L113.098 242.66L111.551 238.972ZM94.4331 248.178L92.8971 245.106L89.3194 246.894L90.8554 249.966L94.4331 248.178ZM91.1082 248C93.3961 248 95.2592 246.63 96.7255 244.723L93.555 242.285C92.4613 243.706 91.6364 244 91.1082 244V248ZM96.7633 244.673C98.2743 242.574 98.8683 239.642 98.8683 236.208H94.8683C94.8683 239.302 94.3102 241.234 93.5172 242.335L96.7633 244.673ZM155.931 236.112L154.369 237.361L154.39 237.388L154.412 237.414L155.931 236.112ZM159.483 238.032H161.483V236.455L159.949 236.087L159.483 238.032ZM159.483 240.144L160.459 241.889L161.483 241.317V240.144H159.483ZM149.019 246L148.261 247.851L149.154 248.216L149.995 247.745L149.019 246ZM145.083 243.216L143.6 244.558L143.616 244.576L143.633 244.593L145.083 243.216ZM143.259 239.568H145.259V236.227L142.314 237.805L143.259 239.568ZM131.259 246L130.149 247.664L131.147 248.329L132.204 247.763L131.259 246ZM130.395 245.52L129.285 247.184L129.389 247.253L129.5 247.309L130.395 245.52ZM128.379 244.08L127.077 245.599L127.135 245.648L127.196 245.693L128.379 244.08ZM125.979 241.68L127.506 240.388L127.483 240.361L127.459 240.335L125.979 241.68ZM138.075 210.864L138.663 212.776L138.674 212.772L138.686 212.768L138.075 210.864ZM143.163 209.232L143.774 211.136L145.163 210.691V209.232H143.163ZM140.283 201.648L139.066 203.235L139.083 203.248L139.1 203.261L140.283 201.648ZM129.147 199.44H127.147V201.44H129.147V199.44ZM129.147 196.56L128.478 194.675L127.147 195.147V196.56H129.147ZM151.899 195.408L150.258 196.552V196.552L151.899 195.408ZM136.059 235.152L134.559 236.475L134.6 236.522L134.645 236.566L136.059 235.152ZM143.259 235.248L144.421 236.875L145.259 236.277V235.248H143.259ZM143.259 213.552H145.259V210.706L142.581 211.67L143.259 213.552ZM139.611 214.992L138.773 213.176L138.744 213.189L138.716 213.203L139.611 214.992ZM137.115 216.816L138.471 218.286L138.476 218.282L137.115 216.816ZM152.779 203.952V231.12H156.779V203.952H152.779ZM152.779 231.12C152.779 233.581 153.153 235.842 154.369 237.361L157.492 234.863C157.172 234.462 156.779 233.395 156.779 231.12H152.779ZM154.412 237.414C155.544 238.733 157.164 239.532 159.016 239.977L159.949 236.087C158.602 235.764 157.854 235.283 157.449 234.81L154.412 237.414ZM157.483 238.032V240.144H161.483V238.032H157.483ZM158.506 238.399L148.042 244.255L149.995 247.745L160.459 241.889L158.506 238.399ZM149.776 244.149C148.669 243.696 147.585 242.946 146.533 241.839L143.633 244.593C145.013 246.046 146.553 247.152 148.261 247.851L149.776 244.149ZM146.566 241.874C145.476 240.67 145.259 239.92 145.259 239.568H141.259C141.259 241.392 142.257 243.074 143.6 244.558L146.566 241.874ZM142.314 237.805L130.314 244.237L132.204 247.763L144.204 241.331L142.314 237.805ZM132.368 244.336C132.072 244.138 131.696 243.934 131.289 243.731L129.5 247.309C129.862 247.49 130.062 247.606 130.149 247.664L132.368 244.336ZM131.504 243.856C131.162 243.628 130.523 243.173 129.561 242.467L127.196 245.693C128.154 246.395 128.859 246.9 129.285 247.184L131.504 243.856ZM129.68 242.561C128.859 241.857 128.135 241.132 127.506 240.388L124.452 242.972C125.23 243.892 126.107 244.767 127.077 245.599L129.68 242.561ZM127.459 240.335C125.851 238.566 125.099 236.638 125.099 234.48H121.099C121.099 237.698 122.267 240.57 124.499 243.025L127.459 240.335ZM125.099 234.48V218.736H121.099V234.48H125.099ZM125.099 218.736C125.099 219.033 124.979 219.159 125.04 219.074C125.099 218.992 125.254 218.815 125.585 218.555C126.248 218.032 127.343 217.378 128.957 216.603L127.224 212.997C125.51 213.822 124.11 214.624 123.108 215.413C122.607 215.809 122.139 216.252 121.782 216.754C121.426 217.253 121.099 217.927 121.099 218.736H125.099ZM128.957 216.603C132.201 215.043 135.436 213.768 138.663 212.776L137.487 208.952C134.058 210.007 130.637 211.357 127.224 212.997L128.957 216.603ZM138.686 212.768L143.774 211.136L142.552 207.328L137.464 208.96L138.686 212.768ZM145.163 209.232C145.163 205.297 144.128 201.988 141.465 200.035L139.1 203.261C140.278 204.124 141.163 205.871 141.163 209.232H145.163ZM141.5 200.061C140.197 199.062 138.452 198.428 136.448 198.03C134.42 197.628 131.976 197.44 129.147 197.44V201.44C131.821 201.44 133.985 201.62 135.67 201.954C137.378 202.292 138.449 202.762 139.066 203.235L141.5 200.061ZM131.147 199.44V196.56H127.147V199.44H131.147ZM129.816 198.445C134.768 196.688 138.615 195.377 141.366 194.507C142.743 194.072 143.826 193.753 144.625 193.546C145.025 193.442 145.336 193.371 145.566 193.327C145.822 193.278 145.892 193.28 145.851 193.28V189.28C145.252 189.28 144.433 189.463 143.621 189.674C142.724 189.907 141.567 190.248 140.16 190.693C137.343 191.583 133.445 192.912 128.478 194.675L129.816 198.445ZM145.851 193.28C146.995 193.28 148.487 194.013 150.258 196.552L153.539 194.264C151.471 191.299 148.931 189.28 145.851 189.28V193.28ZM150.258 196.552C151.978 199.017 152.779 201.473 152.779 203.952H156.779C156.779 200.543 155.659 197.303 153.539 194.264L150.258 196.552ZM132.619 231.024C132.619 233.099 133.23 234.968 134.559 236.475L137.558 233.829C136.968 233.16 136.619 232.277 136.619 231.024H132.619ZM134.645 236.566C135.967 237.888 137.573 238.688 139.419 238.688V234.688C138.833 234.688 138.199 234.464 137.473 233.738L134.645 236.566ZM139.419 238.688C141.177 238.688 142.857 237.993 144.421 236.875L142.096 233.621C140.972 234.423 140.092 234.688 139.419 234.688V238.688ZM145.259 235.248V213.552H141.259V235.248H145.259ZM142.581 211.67C140.964 212.252 139.684 212.755 138.773 213.176L140.449 216.808C141.201 216.461 142.353 216.004 143.936 215.434L142.581 211.67ZM138.716 213.203C137.723 213.7 136.735 214.439 135.754 215.35L138.476 218.282C139.286 217.529 139.962 217.052 140.505 216.781L138.716 213.203ZM135.758 215.346C133.48 217.449 132.619 220.806 132.619 224.784H136.619C136.619 221.21 137.421 219.255 138.471 218.286L135.758 215.346ZM132.619 224.784V231.024H136.619V224.784H132.619ZM176.01 201.744L174.76 200.182L174.01 200.783V201.744H176.01ZM176.01 239.856H174.01V241.856H176.01V239.856ZM181.578 238.224L182.516 239.99L181.578 238.224ZM163.146 201.744L161.39 202.702L161.406 202.732L161.424 202.761L163.146 201.744ZM159.786 199.344H157.786V201.1L159.527 201.327L159.786 199.344ZM159.786 197.232L159.503 195.252L157.786 195.497V197.232H159.786ZM170.25 191.376L171.047 189.542L170.113 189.136L169.236 189.652L170.25 191.376ZM174.186 194.256L172.699 195.594L172.734 195.633L172.772 195.67L174.186 194.256ZM176.01 197.712H174.01V201.296L177.06 199.414L176.01 197.712ZM190.506 192.912L189.217 194.442L189.261 194.478L189.306 194.512L190.506 192.912ZM194.25 197.232L192.56 198.302L192.581 198.335L192.603 198.367L194.25 197.232ZM187.626 241.2L188.347 243.066L188.358 243.061L187.626 241.2ZM175.914 245.328L175.402 243.395L173.914 243.789V245.328H175.914ZM179.85 255.504H181.85V253.857L180.233 253.541L179.85 255.504ZM179.85 257.616L180.833 259.358L181.85 258.784V257.616H179.85ZM170.154 263.088L169.396 264.939L170.293 265.306L171.137 264.83L170.154 263.088ZM166.218 260.208L167.701 258.866L167.685 258.848L167.668 258.83L166.218 260.208ZM179.754 198.208C177.948 198.208 176.272 198.973 174.76 200.182L177.259 203.306C178.308 202.467 179.128 202.208 179.754 202.208V198.208ZM174.01 201.744V239.856H178.01V201.744H174.01ZM176.01 241.856C178.104 241.856 180.287 241.175 182.516 239.99L180.639 236.458C178.773 237.449 177.243 237.856 176.01 237.856V241.856ZM182.516 239.99C184.632 238.866 186.65 237.209 186.65 234.768H182.65C182.65 234.783 182.648 234.813 182.622 234.874C182.593 234.941 182.528 235.056 182.387 235.215C182.092 235.548 181.549 235.975 180.639 236.458L182.516 239.99ZM186.65 234.768V207.312H182.65V234.768H186.65ZM186.65 207.312C186.65 204.776 186.224 202.52 185.073 200.849C183.828 199.044 181.94 198.208 179.754 198.208V202.208C180.831 202.208 181.391 202.556 181.779 203.119C182.259 203.816 182.65 205.112 182.65 207.312H186.65ZM166.394 256.56V206.064H162.394V256.56H166.394ZM166.394 206.064C166.394 204.195 165.861 202.408 164.868 200.727L161.424 202.761C162.095 203.896 162.394 204.989 162.394 206.064H166.394ZM164.902 200.786C163.856 198.869 162.208 197.643 160.044 197.361L159.527 201.327C160.308 201.429 160.9 201.803 161.39 202.702L164.902 200.786ZM161.786 199.344V197.232H157.786V199.344H161.786ZM160.069 199.212C160.443 199.158 160.796 198.997 160.907 198.948C161.107 198.859 161.343 198.743 161.604 198.61C162.128 198.341 162.835 197.957 163.714 197.465C165.478 196.479 167.996 195.022 171.264 193.1L169.236 189.652C165.975 191.57 163.486 193.009 161.761 193.975C160.896 194.459 160.239 194.815 159.78 195.05C159.548 195.169 159.387 195.246 159.285 195.291C159.095 195.376 159.24 195.29 159.503 195.252L160.069 199.212ZM169.452 193.21C170.643 193.728 171.725 194.511 172.699 195.594L175.672 192.918C174.343 191.441 172.801 190.304 171.047 189.542L169.452 193.21ZM172.772 195.67C173.823 196.722 174.01 197.392 174.01 197.712H178.01C178.01 195.856 176.98 194.222 175.6 192.842L172.772 195.67ZM177.06 199.414C180.47 197.311 183.138 195.754 185.08 194.729C186.053 194.215 186.811 193.852 187.37 193.623C188.021 193.356 188.157 193.376 188.01 193.376V189.376C187.286 189.376 186.491 189.66 185.853 189.921C185.124 190.22 184.239 190.649 183.212 191.191C181.153 192.278 178.397 193.889 174.96 196.01L177.06 199.414ZM188.01 193.376C187.768 193.376 187.637 193.314 187.675 193.329C187.695 193.337 187.774 193.373 187.922 193.463C188.218 193.646 188.645 193.959 189.217 194.442L191.794 191.382C191.151 190.841 190.554 190.386 190.018 190.057C189.579 189.787 188.84 189.376 188.01 189.376V193.376ZM189.306 194.512C190.329 195.279 191.424 196.508 192.56 198.302L195.939 196.162C194.644 194.116 193.243 192.465 191.706 191.312L189.306 194.512ZM192.603 198.367C193.686 199.937 194.17 201.467 194.17 202.992H198.17C198.17 200.549 197.374 198.239 195.896 196.097L192.603 198.367ZM194.17 202.992V237.168H198.17V202.992H194.17ZM194.17 237.168C194.17 236.675 194.359 236.33 194.449 236.19C194.546 236.036 194.639 235.947 194.663 235.924C194.713 235.877 194.705 235.895 194.571 235.979C194.318 236.138 193.87 236.378 193.18 236.703C191.818 237.346 189.731 238.223 186.894 239.339L188.358 243.061C191.216 241.937 193.402 241.022 194.887 240.321C195.621 239.974 196.242 239.654 196.701 239.365C196.923 239.225 197.182 239.047 197.409 238.832C197.523 238.725 197.682 238.559 197.824 238.335C197.958 238.125 198.17 237.717 198.17 237.168H194.17ZM186.905 239.334C181.264 241.514 177.457 242.851 175.402 243.395L176.426 247.261C178.722 246.653 182.723 245.238 188.347 243.066L186.905 239.334ZM173.914 245.328V248.88H177.914V245.328H173.914ZM173.914 248.88C173.914 251.019 174.267 252.952 175.178 254.486C176.139 256.102 177.622 257.107 179.467 257.467L180.233 253.541C179.454 253.389 178.969 253.034 178.617 252.442C178.217 251.768 177.914 250.645 177.914 248.88H173.914ZM177.85 255.504V257.616H181.85V255.504H177.85ZM178.867 255.874L169.171 261.346L171.137 264.83L180.833 259.358L178.867 255.874ZM170.911 261.237C169.828 260.794 168.754 260.03 167.701 258.866L164.735 261.55C166.113 263.074 167.663 264.23 169.396 264.939L170.911 261.237ZM167.668 258.83C166.622 257.73 166.394 256.984 166.394 256.56H162.394C162.394 258.44 163.381 260.126 164.768 261.586L167.668 258.83Z" fill="#FFD28D"/>
<defs>
<filter id="filter0_d_90_3383" x="0" y="0" width="294" height="433" filterUnits="userSpaceOnUse" color-interpolation-filters="sRGB">
<feFlood flood-opacity="0" result="BackgroundImageFix"/>
<feColorMatrix in="SourceAlpha" type="matrix" values="0 0 0 0 0 0 0 0 0 0 0 0 0 0 0 0 0 0 127 0" result="hardAlpha"/>
<feOffset/>
<feGaussianBlur stdDeviation="7.5"/>
<feComposite in2="hardAlpha" operator="out"/>
<feColorMatrix type="matrix" values="0 0 0 0 0.995833 0 0 0 0 0.434515 0 0 0 0 0.257257 0 0 0 1 0"/>
<feBlend mode="normal" in2="BackgroundImageFix" result="effect1_dropShadow_90_3383"/>
<feBlend mode="normal" in="SourceGraphic" in2="effect1_dropShadow_90_3383" result="shape"/>
</filter>
<filter id="filter1_d_90_3383" x="18" y="49" width="57" height="60" filterUnits="userSpaceOnUse" color-interpolation-filters="sRGB">
<feFlood flood-opacity="0" result="BackgroundImageFix"/>
<feColorMatrix in="SourceAlpha" type="matrix" values="0 0 0 0 0 0 0 0 0 0 0 0 0 0 0 0 0 0 127 0" result="hardAlpha"/>
<feOffset/>
<feGaussianBlur stdDeviation="7.5"/>
<feComposite in2="hardAlpha" operator="out"/>
<feColorMatrix type="matrix" values="0 0 0 0 0.995833 0 0 0 0 0.434515 0 0 0 0 0.257257 0 0 0 1 0"/>
<feBlend mode="normal" in2="BackgroundImageFix" result="effect1_dropShadow_90_3383"/>
<feBlend mode="normal" in="SourceGraphic" in2="effect1_dropShadow_90_3383" result="shape"/>
</filter>
<filter id="filter2_d_90_3383" x="215" y="320" width="57" height="60" filterUnits="userSpaceOnUse" color-interpolation-filters="sRGB">
<feFlood flood-opacity="0" result="BackgroundImageFix"/>
<feColorMatrix in="SourceAlpha" type="matrix" values="0 0 0 0 0 0 0 0 0 0 0 0 0 0 0 0 0 0 127 0" result="hardAlpha"/>
<feOffset/>
<feGaussianBlur stdDeviation="7.5"/>
<feComposite in2="hardAlpha" operator="out"/>
<feColorMatrix type="matrix" values="0 0 0 0 0.995833 0 0 0 0 0.434515 0 0 0 0 0.257257 0 0 0 1 0"/>
<feBlend mode="normal" in2="BackgroundImageFix" result="effect1_dropShadow_90_3383"/>
<feBlend mode="normal" in="SourceGraphic" in2="effect1_dropShadow_90_3383" result="shape"/>
</filter>
</defs>
</svg>
