<svg width="183" height="146" viewBox="0 0 183 146" fill="none" xmlns="http://www.w3.org/2000/svg">
<g filter="url(#filter0_d_169_2)">
<path d="M62.7847 48.008V51.008H65.7847V48.008H62.7847ZM62.4007 22.376L59.7174 23.7176L59.7174 23.7176L62.4007 22.376ZM60.8167 21.608H57.8167V24.608H60.8167V21.608ZM60.8167 20.12L59.6561 17.3536L57.8167 18.1252V20.12H60.8167ZM70.6567 15.992L73.34 14.6504L72.0846 12.1397L69.4961 13.2256L70.6567 15.992ZM71.4247 17.528V20.528H76.2788L74.108 16.1864L71.4247 17.528ZM69.4087 18.776L67.0308 16.9469L67.0018 16.9845L66.9741 17.0231L69.4087 18.776ZM70.8967 49.016H73.8967V46.016H70.8967V49.016ZM70.8967 50.072L71.321 53.0418L73.8967 52.6739V50.072H70.8967ZM65.6647 53L64.8405 55.8846L66.0772 56.2379L67.1857 55.5858L65.6647 53ZM64.8487 52.76L63.7345 55.5454L63.8586 55.5951L63.9866 55.6335L64.8487 52.76ZM63.5527 51.8L61.4314 53.9213L61.4635 53.9535L61.4966 53.9846L63.5527 51.8ZM62.7847 50.024H65.7847V45.1699L61.4431 47.3407L62.7847 50.024ZM61.1527 50.936L62.6335 53.5451L62.6411 53.5407L61.1527 50.936ZM54.0487 50.984L51.5525 52.6481L51.5618 52.662L51.5713 52.6759L54.0487 50.984ZM50.3527 19.976H47.3527V22.4256L49.7528 22.9154L50.3527 19.976ZM50.3527 18.92L48.8876 16.3021L47.3527 17.1611V18.92H50.3527ZM55.5847 15.992L56.7206 13.2154L55.3818 12.6677L54.1196 13.3741L55.5847 15.992ZM57.5527 17.432L55.3281 19.4447L55.3526 19.4718L55.3777 19.4982L57.5527 17.432ZM59.3287 46.904L56.9662 48.7529L56.9906 48.7841L57.0158 48.8146L59.3287 46.904ZM65.7847 48.008V24.92H59.7847V48.008H65.7847ZM65.7847 24.92C65.7847 23.6655 65.6727 22.2117 65.084 21.0344L59.7174 23.7176C59.6533 23.5895 59.6843 23.5918 59.7223 23.8438C59.7573 24.0758 59.7847 24.4259 59.7847 24.92H65.7847ZM65.084 21.0344C64.1231 19.1127 62.234 18.608 60.8167 18.608V24.608C60.9192 24.608 60.7681 24.6276 60.5039 24.4994C60.1886 24.3466 59.8932 24.0692 59.7174 23.7176L65.084 21.0344ZM63.8167 21.608V20.12H57.8167V21.608H63.8167ZM61.9772 22.8864L71.8172 18.7584L69.4961 13.2256L59.6561 17.3536L61.9772 22.8864ZM67.9734 17.3336L68.7414 18.8696L74.108 16.1864L73.34 14.6504L67.9734 17.3336ZM71.4247 14.528C69.4009 14.528 67.9503 15.7516 67.0308 16.9469L71.7866 20.6051C71.9542 20.3872 72.0259 20.3573 71.9718 20.3908C71.9396 20.4107 71.8722 20.447 71.7709 20.4776C71.6673 20.5089 71.549 20.528 71.4247 20.528V14.528ZM66.9741 17.0231C65.8596 18.571 65.5447 20.5376 65.5447 22.424H71.5447C71.5447 21.0464 71.8058 20.581 71.8433 20.5289L66.9741 17.0231ZM65.5447 22.424V45.128H71.5447V22.424H65.5447ZM65.5447 45.128C65.5447 46.615 65.8634 48.0694 66.6254 49.3756L71.808 46.3524C71.674 46.1226 71.5447 45.753 71.5447 45.128H65.5447ZM66.6254 49.3756C67.4131 50.726 68.8159 52.016 70.8967 52.016V46.016C71.0188 46.016 71.1596 46.0341 71.3064 46.0799C71.453 46.1256 71.5753 46.1893 71.6693 46.2538C71.8498 46.3776 71.8748 46.4669 71.808 46.3524L66.6254 49.3756ZM67.8967 49.016V50.072H73.8967V49.016H67.8967ZM70.4724 47.1021C69.9663 47.1745 69.5411 47.3788 69.5247 47.3861C69.3758 47.4521 69.2205 47.5289 69.0761 47.6029C68.7811 47.7539 68.4026 47.9599 67.9556 48.2101C67.055 48.7141 65.7809 49.4511 64.1436 50.4142L67.1857 55.5858C68.8124 54.6289 70.0424 53.9179 70.8858 53.4459C71.3108 53.2081 71.6143 53.0441 71.8113 52.9431C71.8586 52.9189 71.8951 52.9007 71.922 52.8876C71.95 52.8741 71.9608 52.8693 71.9582 52.8704C71.9563 52.8712 71.9476 52.8751 71.9331 52.8811C71.9193 52.8867 71.8937 52.897 71.8588 52.9096C71.8365 52.9177 71.6215 52.9989 71.321 53.0418L70.4724 47.1021ZM66.4889 50.1154C66.2816 50.0562 66.023 49.9802 65.7107 49.8865L63.9866 55.6335C64.3144 55.7318 64.5998 55.8158 64.8405 55.8846L66.4889 50.1154ZM65.9629 49.9746C66.0612 50.0139 66.1165 50.0467 66.1231 50.0507C66.132 50.056 66.1152 50.0465 66.0704 50.0133C65.9772 49.9443 65.8254 49.8193 65.6088 49.6154L61.4966 53.9846C62.0695 54.5239 62.8508 55.1919 63.7345 55.5454L65.9629 49.9746ZM65.674 49.6787C65.6529 49.6576 65.6908 49.6899 65.7303 49.7813C65.7716 49.8769 65.7847 49.9679 65.7847 50.024H59.7847C59.7847 51.5573 60.4049 52.8949 61.4314 53.9213L65.674 49.6787ZM61.4431 47.3407C61.1576 47.4834 60.5245 47.8397 59.6643 48.3313L62.6411 53.5407C63.0854 53.2868 63.4361 53.0882 63.6962 52.9428C63.8263 52.8701 63.9292 52.8133 64.0072 52.7709C64.0461 52.7498 64.076 52.7337 64.0981 52.722C64.1215 52.7096 64.1296 52.7057 64.1263 52.7073L61.4431 47.3407ZM59.6719 48.3269C58.5115 48.9855 57.6384 49.4495 57.0285 49.7406C56.7206 49.8875 56.5264 49.9679 56.4234 50.0052C56.3726 50.0236 56.3795 50.0185 56.43 50.0061C56.4591 49.999 56.6481 49.952 56.9287 49.952V55.952C57.6059 55.952 58.2048 55.7414 58.466 55.6468C58.8269 55.5161 59.2168 55.3445 59.6129 55.1554C60.411 54.7745 61.4259 54.2305 62.6335 53.5451L59.6719 48.3269ZM56.9287 49.952C56.9992 49.952 57.0649 49.9643 57.1145 49.9807C57.161 49.996 57.1674 50.0064 57.1333 49.9831C57.0518 49.9274 56.8357 49.7454 56.5261 49.2921L51.5713 52.6759C52.7058 54.3372 54.4558 55.952 56.9287 55.952V49.952ZM56.5448 49.3199C55.8502 48.2779 55.7047 47.6058 55.7047 47.24H49.7047C49.7047 49.1782 50.4552 51.0021 51.5525 52.6481L56.5448 49.3199ZM55.7047 47.24V23.096H49.7047V47.24H55.7047ZM55.7047 23.096C55.7047 21.7908 55.4139 20.3861 54.5123 19.1901C53.5851 17.9602 52.2823 17.308 50.9526 17.0366L49.7528 22.9154C49.8827 22.9419 49.911 22.966 49.88 22.9481C49.8642 22.939 49.8381 22.9218 49.8072 22.8946C49.7759 22.8672 49.7465 22.8356 49.7211 22.8019C49.6673 22.7304 49.66 22.6883 49.6688 22.7199C49.6795 22.7581 49.7047 22.8741 49.7047 23.096H55.7047ZM53.3527 19.976V18.92H47.3527V19.976H53.3527ZM51.8178 21.5379L57.0498 18.6099L54.1196 13.3741L48.8876 16.3021L51.8178 21.5379ZM54.4488 18.7686C54.6652 18.8572 54.9642 19.0426 55.3281 19.4447L59.7773 15.4193C58.9251 14.4774 57.9121 13.7028 56.7206 13.2154L54.4488 18.7686ZM55.3777 19.4982C55.4532 19.5778 55.5012 19.6374 55.5295 19.676C55.5578 19.7148 55.5617 19.7262 55.5534 19.7096C55.5345 19.6717 55.4647 19.5106 55.4647 19.256H61.4647C61.4647 17.5884 60.5911 16.2746 59.7277 15.3658L55.3777 19.4982ZM55.4647 19.256V42.776H61.4647V19.256H55.4647ZM55.4647 42.776C55.4647 43.9097 55.5442 44.9783 55.7443 45.9346C55.9391 46.8653 56.2882 47.8866 56.9662 48.7529L61.6912 45.0551C61.7932 45.1854 61.7103 45.1507 61.6171 44.7054C61.5292 44.2857 61.4647 43.6583 61.4647 42.776H55.4647ZM57.0158 48.8146C58.5103 50.6237 60.8517 51.008 62.7847 51.008V45.008C62.132 45.008 61.7502 44.9345 61.5616 44.8743C61.3882 44.8189 61.493 44.8135 61.6416 44.9934L57.0158 48.8146ZM73.4737 40.664L70.7625 41.9483V41.9483L73.4737 40.664ZM77.6497 27.896L78.8535 30.6439L78.8645 30.6391L78.8754 30.6342L77.6497 27.896ZM84.2257 26.168L81.6947 27.7786L81.7301 27.8343L81.768 27.8884L84.2257 26.168ZM84.7537 26.984L82.149 28.4724L82.2002 28.5621L82.2575 28.6481L84.7537 26.984ZM85.3297 28.04L82.6464 29.3816L82.6979 29.4847L82.7572 29.5835L85.3297 28.04ZM86.0497 29.24L88.6876 27.8112L88.6561 27.7531L88.6222 27.6965L86.0497 29.24ZM87.6337 30.392H90.6337V27.392H87.6337V30.392ZM87.6337 31.352L88.8361 34.1005L90.6337 33.314V31.352H87.6337ZM85.6177 32.36L84.1954 29.7186L84.1868 29.7232L84.1783 29.7279L85.6177 32.36ZM80.7217 31.688L77.8874 32.6713L77.8963 32.697L77.9057 32.7225L80.7217 31.688ZM82.2097 37.352L83.4369 40.0895L82.2097 37.352ZM87.5857 37.976L84.8618 39.2332L84.8814 39.2757L84.9024 39.3176L87.5857 37.976ZM82.9777 51.272L84.1003 54.0541L84.1126 54.049L82.9777 51.272ZM76.0177 52.904L73.2938 54.1612L73.354 54.2916L73.4264 54.4156L76.0177 52.904ZM75.1537 51.032L72.3908 52.2009L72.4096 52.2454L72.4298 52.2892L75.1537 51.032ZM74.0977 48.92L71.4598 50.3489L71.4971 50.4176L71.5378 50.4844L74.0977 48.92ZM72.5137 47.768H69.5137V50.768H72.5137V47.768ZM72.5137 46.808L71.3112 44.0595L69.5137 44.846V46.808H72.5137ZM74.5777 45.8L75.9586 48.4633L75.9969 48.4434L76.0346 48.4225L74.5777 45.8ZM79.6177 46.952L76.8067 48.0001L76.8145 48.0209L76.8226 48.0416L79.6177 46.952ZM82.3057 49.4L84.2988 51.6422H84.2988L82.3057 49.4ZM78.5137 41.336L77.3139 38.5864L78.5137 41.336ZM75.5377 39.488C75.7287 39.488 75.9209 39.5264 76.0934 39.5969C76.26 39.6649 76.3634 39.7444 76.4083 39.784C76.45 39.8209 76.4405 39.8225 76.3925 39.7532C76.3449 39.6846 76.273 39.5657 76.1849 39.3797L70.7625 41.9483C71.4722 43.4465 72.9213 45.488 75.5377 45.488V39.488ZM76.1849 39.3797C75.8482 38.6689 75.6097 37.647 75.6097 36.2H69.6097C69.6097 38.273 69.9472 40.2271 70.7625 41.9483L76.1849 39.3797ZM75.6097 36.2V31.016H69.6097V36.2H75.6097ZM75.6097 31.016C75.6097 31.634 75.3989 32.0763 75.2761 32.2857C75.1517 32.4977 75.0377 32.6086 75.0255 32.6206C75.0066 32.6392 75.1086 32.5414 75.4488 32.3308C76.1069 31.9233 77.2134 31.3624 78.8535 30.6439L76.4459 25.1481C74.726 25.9016 73.3124 26.5967 72.2906 27.2292C71.7908 27.5386 71.2628 27.9068 70.8239 28.3374C70.5145 28.6408 69.6097 29.5743 69.6097 31.016H75.6097ZM78.8754 30.6342C80.5386 29.8897 81.8094 29.3495 82.7079 29.0004C83.1603 28.8247 83.4799 28.7126 83.6876 28.6487C84.0097 28.5498 83.8325 28.64 83.4577 28.64V22.64C82.8269 22.64 82.2156 22.8242 81.9257 22.9133C81.5215 23.0374 81.0511 23.2073 80.5355 23.4076C79.498 23.8105 78.1208 24.3983 76.424 25.1578L78.8754 30.6342ZM83.4577 28.64C82.9465 28.64 82.4968 28.4715 82.1661 28.2441C81.869 28.0399 81.729 27.8326 81.6947 27.7786L86.7567 24.5574C86.2496 23.7605 85.1864 22.64 83.4577 22.64V28.64ZM81.768 27.8884C81.9632 28.1672 82.0831 28.3572 82.149 28.4724L87.3584 25.4956C87.1683 25.1628 86.9362 24.8088 86.6834 24.4476L81.768 27.8884ZM82.2575 28.6481C82.2494 28.6359 82.2805 28.6827 82.36 28.8286C82.4334 28.9631 82.5283 29.1453 82.6464 29.3816L88.013 26.6984C87.7589 26.1902 87.4932 25.6849 87.2498 25.3199L82.2575 28.6481ZM82.7572 29.5835C83.0452 30.0635 83.2852 30.4635 83.4772 30.7835L88.6222 27.6965C88.4302 27.3765 88.1902 26.9765 87.9022 26.4965L82.7572 29.5835ZM83.4118 30.6688C84.1337 32.0016 85.4996 33.392 87.6337 33.392V27.392C87.7788 27.392 87.943 27.4146 88.1117 27.4701C88.2797 27.5253 88.4177 27.6018 88.5222 27.6778C88.7207 27.8222 88.751 27.9283 88.6876 27.8112L83.4118 30.6688ZM84.6337 30.392V31.352H90.6337V30.392H84.6337ZM86.4312 28.6035C85.8111 28.8749 85.0575 29.2544 84.1954 29.7186L87.04 35.0014C87.8418 34.5696 88.4323 34.2771 88.8361 34.1005L86.4312 28.6035ZM84.1783 29.7279C83.1622 30.2835 82.4065 30.6858 81.8966 30.9445C81.637 31.0762 81.4743 31.1537 81.3875 31.1921C81.3404 31.213 81.3554 31.2046 81.41 31.1853C81.4367 31.1758 81.5103 31.1504 81.6142 31.1242C81.6796 31.1078 81.9472 31.04 82.3057 31.04V37.04C82.9079 37.04 83.3983 36.8463 83.4099 36.8422C83.5635 36.7879 83.707 36.727 83.8179 36.6779C84.0471 36.5763 84.3183 36.4438 84.6108 36.2955C85.2048 35.9942 86.0252 35.5565 87.0571 34.9921L84.1783 29.7279ZM82.3057 31.04C83.0436 31.04 83.5515 31.3484 83.7785 31.5249C83.9927 31.6915 84.0693 31.8227 84.038 31.7762C84.0171 31.7451 83.9553 31.6446 83.8604 31.4423C83.768 31.2453 83.6597 30.9857 83.5377 30.6535L77.9057 32.7225C78.2238 33.5883 78.5978 34.4395 79.0614 35.1278C79.3795 35.6002 80.4178 37.04 82.3057 37.04V31.04ZM83.556 30.7047C83.2577 29.8449 82.9085 29.0023 82.4769 28.3201C82.2617 27.98 81.9453 27.5488 81.4954 27.1751C81.0371 26.7945 80.2663 26.336 79.2337 26.336V32.336C78.4251 32.336 77.8843 31.9755 77.662 31.7909C77.4481 31.6132 77.3736 31.476 77.4065 31.5279C77.4278 31.5617 77.4877 31.6659 77.5789 31.8722C77.6677 32.0729 77.7711 32.3361 77.8874 32.6713L83.556 30.7047ZM79.2337 26.336C77.9294 26.336 76.7184 26.9772 76.0132 28.1525C75.4545 29.0836 75.3697 30.0939 75.3697 30.776H81.3697C81.3697 30.4981 81.4288 30.7884 81.1582 31.2395C80.996 31.5098 80.7231 31.8204 80.3126 32.0485C79.9061 32.2743 79.5146 32.336 79.2337 32.336V26.336ZM75.3697 30.776V36.68H81.3697V30.776H75.3697ZM75.3697 36.68C75.3697 37.4515 75.4421 38.4449 75.8499 39.3511C76.07 39.8402 76.4425 40.4258 77.07 40.8907C77.7325 41.3814 78.4954 41.6 79.2337 41.6V35.6C79.6839 35.6 80.1948 35.7386 80.6414 36.0693C81.0529 36.3742 81.2453 36.7198 81.3215 36.8889C81.3958 37.0542 81.4001 37.1392 81.3905 37.075C81.3823 37.0201 81.3697 36.895 81.3697 36.68H75.3697ZM79.2337 41.6C79.5727 41.6 79.8383 41.5414 79.9133 41.5248C80.0295 41.4992 80.127 41.4713 80.1904 41.4521C80.3186 41.4133 80.4406 41.3698 80.5362 41.3343C80.7341 41.2608 80.9726 41.1641 81.2339 41.0546C81.764 40.8323 82.5024 40.5084 83.4369 40.0895L80.9825 34.6145C80.0609 35.0276 79.3754 35.3277 78.9135 35.5214C78.6787 35.6199 78.5292 35.6792 78.4471 35.7097C78.4027 35.7262 78.4117 35.7217 78.454 35.7089C78.4743 35.7027 78.5356 35.6845 78.6223 35.6654C78.6679 35.6554 78.9107 35.6 79.2337 35.6V41.6ZM83.4369 40.0895C84.3401 39.6846 85.0158 39.403 85.4862 39.2283C85.7232 39.1403 85.8693 39.094 85.9434 39.0734C85.9794 39.0635 85.972 39.067 85.9315 39.0744C85.9037 39.0795 85.7689 39.104 85.5697 39.104V33.104C85.0488 33.104 84.5823 33.2246 84.3439 33.2906C84.0421 33.374 83.7202 33.4837 83.3971 33.6037C82.7475 33.845 81.9353 34.1874 80.9825 34.6145L83.4369 40.0895ZM85.5697 39.104C85.3423 39.104 85.123 39.0552 84.9349 38.9737C84.7549 38.8957 84.6485 38.8077 84.6083 38.7704C84.5708 38.7355 84.5856 38.7402 84.6395 38.8211C84.6927 38.9009 84.7693 39.0327 84.8618 39.2332L90.3096 36.7188C89.6477 35.2847 88.2354 33.104 85.5697 33.104V39.104ZM84.9024 39.3176C85.2344 39.9815 85.4977 41.0459 85.4977 42.68H91.4977C91.4977 40.4741 91.153 38.4025 90.269 36.6344L84.9024 39.3176ZM85.4977 42.68V48.104H91.4977V42.68H85.4977ZM85.4977 48.104C85.4977 47.42 85.7523 46.943 85.8834 46.7378C86.0187 46.526 86.138 46.4212 86.1405 46.4189C86.1425 46.4171 86.0096 46.529 85.6244 46.7501C84.8795 47.1775 83.6461 47.7579 81.8427 48.495L84.1126 54.049C85.9893 53.2821 87.5158 52.5825 88.611 51.9539C89.1458 51.647 89.7029 51.2869 90.1649 50.8691C90.3974 50.6588 90.6892 50.36 90.9395 49.9682C91.1856 49.583 91.4977 48.94 91.4977 48.104H85.4977ZM81.8551 48.4899C80.0467 49.2197 78.6598 49.7519 77.6758 50.0974C77.1809 50.2712 76.8231 50.3853 76.583 50.4522C76.2367 50.5488 76.3667 50.48 76.6897 50.48V56.48C77.2846 56.48 77.8807 56.3192 78.1943 56.2318C78.6142 56.1147 79.1105 55.9528 79.6636 55.7586C80.7756 55.3681 82.2607 54.7963 84.1003 54.0541L81.8551 48.4899ZM76.6897 50.48C77.4947 50.48 78.0492 50.8381 78.3061 51.0582C78.5427 51.261 78.629 51.4266 78.609 51.3924L73.4264 54.4156C73.6304 54.7654 73.9407 55.219 74.4013 55.6138C74.8821 56.0259 75.6607 56.48 76.6897 56.48V50.48ZM78.7416 51.6468C78.5496 51.2308 78.2616 50.6068 77.8776 49.7748L72.4298 52.2892C72.8138 53.1212 73.1018 53.7452 73.2938 54.1612L78.7416 51.6468ZM77.9166 49.8631C77.5248 48.937 77.1078 48.0924 76.6575 47.3556L71.5378 50.4844C71.7916 50.8996 72.0786 51.463 72.3908 52.2009L77.9166 49.8631ZM76.7356 47.4911C76.0137 46.1584 74.6478 44.768 72.5137 44.768V50.768C72.3686 50.768 72.2044 50.7454 72.0357 50.6899C71.8677 50.6347 71.7297 50.5582 71.6252 50.4822C71.4266 50.3378 71.3964 50.2317 71.4598 50.3489L76.7356 47.4911ZM75.5137 47.768V46.808H69.5137V47.768H75.5137ZM73.7161 49.5565C74.3168 49.2937 75.0721 48.923 75.9586 48.4633L73.1967 43.1367C72.3553 43.573 71.7345 43.8743 71.3112 44.0595L73.7161 49.5565ZM76.0346 48.4225C77.0345 47.867 77.7775 47.4653 78.2786 47.2074C78.5338 47.0761 78.6925 46.9995 78.7759 46.9621C78.8213 46.9417 78.8041 46.9511 78.7472 46.9715C78.7192 46.9815 78.6441 47.0077 78.5383 47.0345C78.4704 47.0517 78.2017 47.12 77.8417 47.12V41.12C77.2353 41.12 76.7432 41.316 76.7292 41.321C76.5743 41.3764 76.4301 41.4383 76.3195 41.4879C76.0909 41.5905 75.8216 41.7239 75.5328 41.8726C74.9459 42.1747 74.1369 42.613 73.1208 43.1775L76.0346 48.4225ZM77.8417 47.12C76.947 47.12 76.3937 46.6838 76.24 46.5485C76.0711 46.3997 76.034 46.3101 76.1041 46.4219C76.2384 46.636 76.4787 47.1203 76.8067 48.0001L82.4286 45.9039C82.0527 44.8957 81.645 43.964 81.1873 43.2341C80.9613 42.8739 80.6422 42.4303 80.2053 42.0455C79.7837 41.6742 78.9764 41.12 77.8417 41.12V47.12ZM76.8226 48.0416C77.2132 49.0437 77.6259 49.9583 78.0721 50.6699C78.2912 51.0192 78.5987 51.4511 79.0144 51.8284C79.3965 52.1753 80.2117 52.784 81.3937 52.784V46.784C82.3517 46.784 82.9248 47.2747 83.047 47.3856C83.2027 47.5269 83.2322 47.6048 83.1553 47.4821C83.0095 47.2497 82.7582 46.7483 82.4128 45.8624L76.8226 48.0416ZM81.3937 52.784C82.5921 52.784 83.5794 52.2817 84.2988 51.6422L80.3126 47.1578C80.374 47.1032 80.5003 47.0061 80.6975 46.9231C80.9024 46.8368 81.1414 46.784 81.3937 46.784V52.784ZM84.2988 51.6422C85.3337 50.7223 85.7377 49.4954 85.7377 48.344H79.7377C79.7377 48.2466 79.7538 48.0508 79.853 47.8081C79.9567 47.5546 80.1191 47.3298 80.3126 47.1578L84.2988 51.6422ZM85.7377 48.344V42.344H79.7377V48.344H85.7377ZM85.7377 42.344C85.7377 41.4445 85.6298 40.2924 85.0602 39.2671C84.7502 38.7091 84.2817 38.1518 83.6062 37.7465C82.9262 37.3385 82.202 37.184 81.5377 37.184V43.184C81.2734 43.184 80.8992 43.1194 80.5192 42.8915C80.1437 42.6662 79.9252 42.3789 79.8152 42.1809C79.7148 42.0003 79.7035 41.8948 79.7128 41.9453C79.721 41.9896 79.7377 42.1143 79.7377 42.344H85.7377ZM81.5377 37.184C80.972 37.184 80.4644 37.3455 80.3326 37.3855C80.0806 37.4621 79.8034 37.5612 79.5217 37.6685C78.9519 37.8856 78.2095 38.1955 77.3139 38.5864L79.7135 44.0856C80.5779 43.7084 81.2195 43.4424 81.6577 43.2755C81.8799 43.1908 82.0128 43.1459 82.0767 43.1265C82.109 43.1166 82.092 43.1231 82.0404 43.1342C82.0212 43.1384 81.822 43.184 81.5377 43.184V37.184ZM77.3139 38.5864C76.4471 38.9646 75.8041 39.233 75.3667 39.4023C75.1445 39.4883 75.0112 39.5347 74.9463 39.5553C74.9129 39.5658 74.9305 39.559 74.9831 39.5468C74.9915 39.5449 75.2181 39.488 75.5377 39.488V45.488C76.1272 45.488 76.6619 45.3055 76.7531 45.2767C76.9921 45.2013 77.2589 45.1037 77.5327 44.9977C78.0873 44.783 78.8203 44.4754 79.7135 44.0856L77.3139 38.5864ZM101.539 22.376L98.8562 23.7176V23.7176L101.539 22.376ZM99.9554 21.608H96.9554V24.608H99.9554V21.608ZM99.9554 20.12L98.7949 17.3536L96.9554 18.1252V20.12H99.9554ZM109.795 15.992L112.479 14.6504L111.223 12.1397L108.635 13.2256L109.795 15.992ZM110.563 17.528V20.528H115.418L113.247 16.1864L110.563 17.528ZM108.547 18.776L106.17 16.9469L106.141 16.9845L106.113 17.0231L108.547 18.776ZM108.115 46.856L105.715 48.656L105.753 48.7067L105.794 48.7557L108.115 46.856ZM109.603 47.384H112.603V44.384H109.603V47.384ZM109.603 48.728L110.808 51.4755L112.603 50.6884V48.728H109.603ZM99.8114 53L97.1282 54.3416L97.9573 56H99.8114V53ZM99.0434 51.464V48.464H94.1893L96.3602 52.8056L99.0434 51.464ZM99.9554 51.128L98.4438 48.5367L98.3937 48.5659L98.3448 48.597L99.9554 51.128ZM100.915 50.36L103.158 52.3531L103.165 52.3443L103.173 52.3355L100.915 50.36ZM104.923 46.856V24.92H98.9234V46.856H104.923ZM104.923 24.92C104.923 23.6655 104.811 22.2117 104.223 21.0344L98.8562 23.7176C98.7921 23.5895 98.823 23.5918 98.861 23.8438C98.8961 24.0758 98.9234 24.4259 98.9234 24.92H104.923ZM104.223 21.0344C103.262 19.1127 101.373 18.608 99.9554 18.608V24.608C100.058 24.608 99.9069 24.6276 99.6426 24.4994C99.3274 24.3466 99.032 24.0692 98.8562 23.7176L104.223 21.0344ZM102.955 21.608V20.12H96.9554V21.608H102.955ZM101.116 22.8864L110.956 18.7584L108.635 13.2256L98.7949 17.3536L101.116 22.8864ZM107.112 17.3336L107.88 18.8696L113.247 16.1864L112.479 14.6504L107.112 17.3336ZM110.563 14.528C108.54 14.528 107.089 15.7516 106.17 16.9469L110.925 20.6051C111.093 20.3872 111.165 20.3573 111.111 20.3908C111.078 20.4107 111.011 20.447 110.91 20.4776C110.806 20.5089 110.688 20.528 110.563 20.528V14.528ZM106.113 17.0231C104.998 18.571 104.683 20.5376 104.683 22.424H110.683C110.683 21.0464 110.945 20.581 110.982 20.5289L106.113 17.0231ZM104.683 22.424V44.984H110.683V22.424H104.683ZM104.683 44.984C104.683 46.0404 104.832 47.4785 105.715 48.656L110.515 45.056C110.605 45.1759 110.657 45.2781 110.684 45.3412C110.711 45.4036 110.717 45.4359 110.715 45.4254C110.712 45.4154 110.704 45.3751 110.696 45.298C110.689 45.2215 110.683 45.118 110.683 44.984H104.683ZM105.794 48.7557C106.905 50.1142 108.497 50.384 109.603 50.384V44.384C109.485 44.384 109.544 44.3671 109.707 44.4247C109.892 44.4905 110.183 44.6456 110.437 44.9563L105.794 48.7557ZM106.603 47.384V48.728H112.603V47.384H106.603ZM108.399 45.9805C105.151 47.4043 102.713 48.4714 101.084 49.1823C100.269 49.538 99.6585 49.8032 99.2516 49.979C99.0472 50.0674 98.8994 50.1308 98.8043 50.1711C98.755 50.192 98.7298 50.2024 98.7214 50.2059C98.7144 50.2087 98.7304 50.2021 98.7574 50.1918C98.7673 50.188 98.8084 50.1724 98.8634 50.154C98.888 50.1457 98.9503 50.1251 99.0316 50.1032C99.0718 50.0924 99.1457 50.0733 99.2397 50.055C99.3013 50.0431 99.5232 50 99.8114 50V56C100.1 56 100.322 55.9569 100.384 55.9448C100.479 55.9265 100.553 55.9073 100.594 55.8962C100.677 55.874 100.74 55.8529 100.767 55.8439C100.826 55.8241 100.873 55.8064 100.89 55.7999C100.932 55.784 100.969 55.769 100.989 55.7608C101.035 55.7419 101.09 55.719 101.146 55.6954C101.26 55.6467 101.424 55.5766 101.631 55.487C102.048 55.3068 102.666 55.038 103.483 54.6817C105.118 53.9686 107.56 52.8997 110.808 51.4755L108.399 45.9805ZM102.495 51.6584L101.727 50.1224L96.3602 52.8056L97.1282 54.3416L102.495 51.6584ZM99.0434 54.464C100.125 54.464 101.006 54.0151 101.566 53.659L98.3448 48.597C98.3006 48.6251 98.3298 48.6005 98.4263 48.565C98.5221 48.5297 98.7376 48.464 99.0434 48.464V54.464ZM101.467 53.7193C102.083 53.3598 102.662 52.911 103.158 52.3531L98.6732 48.3669C98.6572 48.385 98.5954 48.4482 98.4438 48.5367L101.467 53.7193ZM103.173 52.3355C104.523 50.7928 104.923 48.7764 104.923 46.856H98.9234C98.9234 47.4361 98.8601 47.8292 98.7884 48.0786C98.7535 48.1997 98.7194 48.2778 98.6955 48.3236C98.6723 48.3681 98.6578 48.3844 98.6577 48.3845L103.173 52.3355ZM111.798 30.728L109.207 32.2396L109.207 32.2396L111.798 30.728ZM110.118 29.576H107.118V32.576H110.118V29.576ZM110.118 28.52L109.694 25.5501L107.118 25.9181V28.52H110.118ZM115.35 25.592L116.174 22.7074L114.938 22.3541L113.829 23.0062L115.35 25.592ZM116.166 25.88L115.052 28.6654L115.176 28.7151L115.304 28.7535L116.166 25.88ZM117.414 26.792L115.293 28.9133L115.325 28.9455L115.358 28.9766L117.414 26.792ZM118.23 28.568H115.23V33.4221L119.572 31.2513L118.23 28.568ZM119.862 27.656L118.381 25.0469L118.374 25.0513L119.862 27.656ZM126.966 27.656L124.47 29.3201L126.966 27.656ZM130.662 49.016H133.662V46.5664L131.262 46.0766L130.662 49.016ZM130.662 50.072L132.127 52.6899L133.662 51.8309V50.072H130.662ZM125.43 53L124.294 55.7766L125.633 56.3243L126.895 55.6179L125.43 53ZM123.462 51.608L121.238 53.6207L121.262 53.6478L121.287 53.6742L123.462 51.608ZM121.926 31.736L119.141 32.8502L119.164 32.9072L119.189 32.9632L121.926 31.736ZM119.814 30.296V27.296H119.544L119.278 27.3444L119.814 30.296ZM118.23 30.584L117.694 27.6324L115.23 28.0803V30.584H118.23ZM120.198 49.208H123.198V46.7368L120.773 46.2635L120.198 49.208ZM120.198 50.264L121.673 52.8767L123.198 52.0157V50.264H120.198ZM115.35 53L114.214 55.7766L115.559 56.3268L116.825 55.6127L115.35 53ZM113.382 51.608L111.158 53.6207L111.182 53.6478L111.207 53.6742L113.382 51.608ZM115.47 49.736V33.464H109.47V49.736H115.47ZM115.47 33.464C115.47 31.977 115.152 30.5226 114.39 29.2164L109.207 32.2396C109.341 32.4694 109.47 32.839 109.47 33.464H115.47ZM114.39 29.2164C113.602 27.866 112.199 26.576 110.118 26.576V32.576C109.996 32.576 109.855 32.5579 109.709 32.5121C109.562 32.4664 109.44 32.4027 109.346 32.3382C109.165 32.2144 109.14 32.1251 109.207 32.2396L114.39 29.2164ZM113.118 29.576V28.52H107.118V29.576H113.118ZM110.543 31.4898C111.049 31.4175 111.474 31.2132 111.49 31.2059C111.639 31.1399 111.794 31.0631 111.939 30.9891C112.234 30.838 112.612 30.6321 113.059 30.3819C113.96 29.8779 115.234 29.1409 116.871 28.1778L113.829 23.0062C112.203 23.9631 110.973 24.6741 110.129 25.1461C109.704 25.3839 109.401 25.5479 109.204 25.6489C109.156 25.6731 109.12 25.6913 109.093 25.7044C109.065 25.7179 109.054 25.7227 109.057 25.7216C109.059 25.7208 109.067 25.7169 109.082 25.7109C109.096 25.7053 109.121 25.695 109.156 25.6824C109.179 25.6743 109.394 25.5931 109.694 25.5501L110.543 31.4898ZM114.526 28.4766C114.617 28.5027 114.787 28.5593 115.052 28.6654L117.28 23.0946C116.906 22.9447 116.531 22.8093 116.174 22.7074L114.526 28.4766ZM115.304 28.7535C115.144 28.7054 115.038 28.6519 114.992 28.6269C114.944 28.6007 114.928 28.5877 114.948 28.6022C114.967 28.6157 115.006 28.6462 115.067 28.6999C115.128 28.7531 115.203 28.8232 115.293 28.9133L119.536 24.6707C118.992 24.1271 118.122 23.3347 117.028 23.0065L115.304 28.7535ZM115.358 28.9766C115.39 29.0064 115.347 28.975 115.3 28.8725C115.25 28.7631 115.23 28.6504 115.23 28.568H121.23C121.23 26.9719 120.542 25.6163 119.47 24.6074L115.358 28.9766ZM119.572 31.2513C119.857 31.1086 120.49 30.7523 121.351 30.2607L118.374 25.0513C117.93 25.3052 117.579 25.5038 117.319 25.6492C117.189 25.7219 117.086 25.7787 117.008 25.8211C116.969 25.8422 116.939 25.8583 116.917 25.87C116.893 25.8824 116.885 25.8863 116.889 25.8847L119.572 31.2513ZM121.343 30.2651C122.504 29.6065 123.377 29.1425 123.987 28.8514C124.294 28.7045 124.489 28.6241 124.592 28.5868C124.642 28.5684 124.636 28.5735 124.585 28.5859C124.556 28.593 124.367 28.64 124.086 28.64V22.64C123.409 22.64 122.81 22.8506 122.549 22.9452C122.188 23.0759 121.798 23.2475 121.402 23.4366C120.604 23.8175 119.589 24.3615 118.381 25.0469L121.343 30.2651ZM124.086 28.64C124.008 28.64 123.935 28.626 123.88 28.6074C123.828 28.59 123.82 28.5778 123.854 28.6017C123.936 28.6594 124.156 28.8491 124.47 29.3201L129.462 25.9919C128.343 24.3128 126.593 22.64 124.086 22.64V28.64ZM124.47 29.3201C125.176 30.3789 125.31 31.0324 125.31 31.352H131.31C131.31 29.4316 130.549 27.6211 129.462 25.9919L124.47 29.3201ZM125.31 31.352V45.896H131.31V31.352H125.31ZM125.31 45.896C125.31 47.2012 125.601 48.6059 126.503 49.8019C127.43 51.0318 128.733 51.684 130.062 51.9554L131.262 46.0766C131.132 46.0501 131.104 46.026 131.135 46.0439C131.151 46.053 131.177 46.0702 131.208 46.0974C131.239 46.1248 131.269 46.1564 131.294 46.1901C131.348 46.2616 131.355 46.3037 131.346 46.2721C131.335 46.2339 131.31 46.1179 131.31 45.896H125.31ZM127.662 49.016V50.072H133.662V49.016H127.662ZM129.197 47.4541L123.965 50.3821L126.895 55.6179L132.127 52.6899L129.197 47.4541ZM126.566 50.2234C126.313 50.1198 126 49.9232 125.637 49.5418L121.287 53.6742C122.141 54.5728 123.14 55.3042 124.294 55.7766L126.566 50.2234ZM125.687 49.5953C125.606 49.5053 125.551 49.4355 125.517 49.3865C125.482 49.3374 125.472 49.3158 125.475 49.3221C125.482 49.3366 125.55 49.4848 125.55 49.736H119.55C119.55 51.3816 120.404 52.6992 121.238 53.6207L125.687 49.5953ZM125.55 49.736V35.816H119.55V49.736H125.55ZM125.55 35.816C125.55 33.8752 125.338 32.0124 124.664 30.5088L119.189 32.9632C119.347 33.3156 119.55 34.1728 119.55 35.816H125.55ZM124.712 30.6218C124.346 29.7079 123.742 28.8191 122.8 28.1773C121.857 27.5341 120.806 27.296 119.814 27.296V33.296C119.847 33.296 119.66 33.2979 119.42 33.1347C119.183 32.9729 119.122 32.8041 119.141 32.8502L124.712 30.6218ZM119.278 27.3444L117.694 27.6324L118.767 33.5356L120.351 33.2476L119.278 27.3444ZM115.23 30.584V45.896H121.23V30.584H115.23ZM115.23 45.896C115.23 47.1524 115.432 48.5238 116.143 49.7205C116.928 51.0407 118.168 51.8684 119.624 52.1525L120.773 46.2635C120.803 46.2694 120.911 46.2977 121.043 46.389C121.178 46.4821 121.261 46.5882 121.301 46.6555C121.335 46.7124 121.314 46.7018 121.286 46.5714C121.258 46.4399 121.23 46.2222 121.23 45.896H115.23ZM117.198 49.208V50.264H123.198V49.208H117.198ZM118.724 47.6513L113.876 50.3873L116.825 55.6127L121.673 52.8767L118.724 47.6513ZM116.486 50.2234C116.233 50.1198 115.92 49.9232 115.557 49.5418L111.207 53.6742C112.061 54.5728 113.06 55.3042 114.214 55.7766L116.486 50.2234ZM115.607 49.5953C115.526 49.5053 115.471 49.4355 115.437 49.3865C115.402 49.3374 115.392 49.3158 115.395 49.3221C115.402 49.3366 115.47 49.4848 115.47 49.736H109.47C109.47 51.3816 110.324 52.6992 111.158 53.6207L115.607 49.5953Z" fill="#FFD28D"/>
</g>
<g filter="url(#filter1_d_169_2)">
<path d="M23.4158 78.696L21.6721 76.2548L20.4158 77.1521V78.696H23.4158ZM23.4158 102.096H20.4158V105.096H23.4158V102.096ZM27.5918 100.944L28.9334 103.627L28.9665 103.611L28.9992 103.593L27.5918 100.944ZM11.8238 76.392H8.82378V78.8632L11.2493 79.3365L11.8238 76.392ZM11.8238 74.808L10.3493 72.1953L8.82378 73.0563V74.808H11.8238ZM19.0958 70.704L20.2099 67.9186L18.8742 67.3843L17.6213 68.0913L19.0958 70.704ZM21.9758 72.792L19.8034 74.861L19.8034 74.861L21.9758 72.792ZM23.4158 75.528H20.4158V80.868L24.9764 78.0901L23.4158 75.528ZM36.0878 73.656L33.7785 75.571L33.7922 75.5875L33.8061 75.6038L36.0878 73.656ZM30.7598 102.888L29.6589 100.097L27.1016 101.106L27.8838 103.742L30.7598 102.888ZM38.5358 117.936L36.5654 120.198L36.5981 120.227L36.6316 120.254L38.5358 117.936ZM42.6398 119.592H45.6398V116.592H42.6398V119.592ZM42.6398 121.752L44.2469 124.285L45.6398 123.402V121.752H42.6398ZM28.0958 117.072L25.3135 118.194L25.3173 118.204L25.3213 118.213L28.0958 117.072ZM24.2078 105.264L27.1929 104.965L26.84 101.437L23.4184 102.37L24.2078 105.264ZM23.4158 105.48L22.6264 102.586L20.4158 103.189V105.48H23.4158ZM26.3678 119.88H29.3678V116.88H26.3678V119.88ZM26.3678 122.112L27.5283 124.878L29.3678 124.107V122.112H26.3678ZM11.6078 128.304L8.9245 129.646L10.1798 132.156L12.7683 131.07L11.6078 128.304ZM10.4558 126V123H5.60168L7.7725 127.342L10.4558 126ZM13.4798 124.128L15.8577 125.957L15.8866 125.919L15.9144 125.881L13.4798 124.128ZM26.2238 74.616C24.5163 74.616 22.9766 75.323 21.6721 76.2548L25.1595 81.1372C25.8709 80.629 26.2032 80.616 26.2238 80.616V74.616ZM20.4158 78.696V102.096H26.4158V78.696H20.4158ZM23.4158 105.096C25.2708 105.096 27.129 104.53 28.9334 103.627L26.2501 98.2607C24.9826 98.8945 24.0567 99.096 23.4158 99.096V105.096ZM28.9992 103.593C29.9272 103.1 30.8303 102.496 31.5339 101.726C32.2592 100.933 32.8958 99.8174 32.8958 98.424H26.8958C26.8958 98.1812 26.9525 97.9772 27.0167 97.8348C27.0762 97.7028 27.1283 97.653 27.1057 97.6777C27.0827 97.7029 27.0079 97.7771 26.8489 97.8915C26.6916 98.0045 26.4747 98.1404 26.1843 98.2947L28.9992 103.593ZM32.8958 98.424V82.944H26.8958V98.424H32.8958ZM32.8958 82.944C32.8958 80.9164 32.5633 78.8639 31.448 77.2456C30.1936 75.4256 28.2798 74.616 26.2238 74.616V80.616C26.4729 80.616 26.5459 80.6602 26.5241 80.6497C26.488 80.6322 26.4789 80.6088 26.5076 80.6504C26.6163 80.8081 26.8958 81.4196 26.8958 82.944H32.8958ZM17.7758 118.656V81.36H11.7758V118.656H17.7758ZM17.7758 81.36C17.7758 79.6156 17.4919 77.8622 16.6168 76.3895C15.6684 74.7933 14.1821 73.7956 12.3983 73.4475L11.2493 79.3365C11.3191 79.3501 11.3615 79.3648 11.3832 79.3737C11.3942 79.3781 11.4011 79.3816 11.4047 79.3836C11.4083 79.3855 11.4097 79.3865 11.4097 79.3865C11.4098 79.3866 11.4098 79.3865 11.4096 79.3864C11.4095 79.3864 11.4095 79.3863 11.4096 79.3864C11.4097 79.3865 11.4111 79.3877 11.4141 79.3909C11.4193 79.3967 11.4354 79.4152 11.4587 79.4545C11.5676 79.6378 11.7758 80.1764 11.7758 81.36H17.7758ZM14.8238 76.392V74.808H8.82378V76.392H14.8238ZM13.2982 77.4207L20.5702 73.3167L17.6213 68.0913L10.3493 72.1953L13.2982 77.4207ZM17.9816 73.4894C18.4283 73.6681 19.0431 74.0626 19.8034 74.861L24.1482 70.723C22.9885 69.5053 21.6833 68.5079 20.2099 67.9186L17.9816 73.4894ZM19.8034 74.861C20.1545 75.2296 20.3262 75.487 20.401 75.6292C20.4726 75.7651 20.4158 75.7183 20.4158 75.528H26.4158C26.4158 73.5527 25.291 71.923 24.1482 70.723L19.8034 74.861ZM24.9764 78.0901C27.5993 76.4926 29.6171 75.3219 31.0523 74.5588C31.7743 74.1749 32.3019 73.9193 32.66 73.7674C32.8399 73.6912 32.9339 73.6595 32.9608 73.6514C33.0348 73.6291 32.8327 73.704 32.4878 73.704V67.704C31.9508 67.704 31.4863 67.8291 31.2272 67.9073C30.9211 67.9997 30.6117 68.1188 30.3176 68.2436C29.7276 68.4937 29.0253 68.8411 28.2353 69.2612C26.6464 70.1061 24.5123 71.3474 21.8552 72.9659L24.9764 78.0901ZM32.4878 73.704C32.057 73.704 31.8059 73.5731 31.8031 73.5718C31.7865 73.5634 31.8698 73.6046 32.0615 73.7618C32.4491 74.0796 33.0173 74.6531 33.7785 75.571L38.3971 71.741C37.5263 70.6909 36.6784 69.7884 35.866 69.1222C35.19 68.5678 33.9892 67.704 32.4878 67.704V73.704ZM33.8061 75.6038C35.2965 77.3496 35.6078 78.4456 35.6078 78.984H41.6078C41.6078 76.3544 40.2391 73.8984 38.3695 71.7082L33.8061 75.6038ZM35.6078 78.984V99.216H41.6078V78.984H35.6078ZM35.6078 99.216C35.6078 98.4082 35.9371 97.8488 36.0833 97.6302C36.2483 97.3836 36.4089 97.2325 36.4682 97.1786C36.5891 97.0688 36.6487 97.0428 36.5463 97.1057C36.3663 97.2164 35.9982 97.4128 35.3744 97.7047C34.1527 98.2763 32.2603 99.0711 29.6589 100.097L31.8607 105.679C34.4913 104.641 36.5229 103.792 37.9172 103.139C38.6013 102.819 39.2143 102.509 39.6883 102.217C39.9128 102.079 40.2177 101.878 40.5022 101.62C40.6432 101.492 40.8651 101.273 41.0709 100.965C41.258 100.686 41.6078 100.072 41.6078 99.216H35.6078ZM27.8838 103.742C30.1239 111.29 32.9119 117.016 36.5654 120.198L40.5061 115.674C38.2076 113.672 35.8117 109.366 33.6358 102.034L27.8838 103.742ZM36.6316 120.254C38.3747 121.686 40.394 122.592 42.6398 122.592V116.592C42.1016 116.592 41.3848 116.394 40.44 115.618L36.6316 120.254ZM39.6398 119.592V121.752H45.6398V119.592H39.6398ZM41.0327 119.219C38.838 120.611 37.1112 121.612 35.8261 122.255C35.1827 122.576 34.6991 122.783 34.3557 122.904C33.9624 123.042 33.9385 123 34.1438 123V129C34.9491 129 35.7291 128.781 36.3438 128.565C37.0085 128.332 37.7369 128.008 38.5094 127.621C40.0564 126.848 41.9776 125.725 44.2469 124.285L41.0327 119.219ZM34.1438 123C34.7101 123 34.9455 123.261 34.7862 123.13C34.6406 123.009 34.3479 122.706 33.9275 122.085C33.0912 120.851 32.0671 118.841 30.8703 115.931L25.3213 118.213C26.5725 121.255 27.7804 123.709 28.96 125.451C29.5477 126.318 30.209 127.131 30.9633 127.754C31.704 128.367 32.7855 129 34.1438 129V123ZM30.8781 115.95C29.6909 113.006 28.7931 110.6 28.1733 108.718C27.5342 106.777 27.2541 105.577 27.1929 104.965L21.2227 105.563C21.3535 106.871 21.8173 108.599 22.4743 110.594C23.1505 112.648 24.1007 115.186 25.3135 118.194L30.8781 115.95ZM23.4184 102.37L22.6264 102.586L24.2051 108.374L24.9971 108.158L23.4184 102.37ZM20.4158 105.48V114.912H26.4158V105.48H20.4158ZM20.4158 114.912C20.4158 116.759 20.5918 118.636 21.3085 120.07L26.6751 117.386C26.6751 117.386 26.5962 117.214 26.5262 116.75C26.4592 116.306 26.4158 115.702 26.4158 114.912H20.4158ZM21.3085 120.07C22.3973 122.247 24.5505 122.88 26.3678 122.88V116.88C26.0652 116.88 26.0504 116.828 26.1826 116.893C26.2562 116.928 26.3554 116.991 26.4556 117.089C26.5565 117.188 26.6287 117.294 26.6751 117.386L21.3085 120.07ZM23.3678 119.88V122.112H29.3678V119.88H23.3678ZM25.2072 119.346L10.4472 125.538L12.7683 131.07L27.5283 124.878L25.2072 119.346ZM14.2911 126.962L13.1391 124.658L7.7725 127.342L8.9245 129.646L14.2911 126.962ZM10.4558 129C12.8316 129 14.6182 127.568 15.8577 125.957L11.1019 122.299C10.7743 122.725 10.5385 122.911 10.4247 122.981C10.3353 123.037 10.3595 123 10.4558 123V129ZM15.9144 125.881C17.3169 123.933 17.7758 121.358 17.7758 118.656H11.7758C11.7758 120.85 11.3707 121.923 11.0452 122.375L15.9144 125.881ZM48.3739 71.424L47.3205 68.615L47.3057 68.6206L47.2909 68.6263L48.3739 71.424ZM51.3979 81.288L48.6166 80.1636L48.6103 80.1792L48.6042 80.1948L51.3979 81.288ZM47.9419 85.824L45.8858 88.0086L47.4965 89.5246L49.4209 88.4341L47.9419 85.824ZM45.4939 83.52L44.417 80.72L39.9621 82.4334L43.4378 85.7046L45.4939 83.52ZM46.8619 81.504L43.9819 80.664L43.9699 80.7052L43.9591 80.7467L46.8619 81.504ZM46.7179 77.184L44.0708 78.5958L44.1283 78.7035L44.1944 78.8063L46.7179 77.184ZM49.1419 74.664V72.432H43.1419V74.664H49.1419ZM49.1419 72.432C49.1419 72.9141 49.0258 73.3077 48.9111 73.5814C48.7972 73.8534 48.6635 74.0584 48.5644 74.1927C48.3744 74.4501 48.187 74.6142 48.1046 74.6833C47.9326 74.8276 47.7952 74.9051 47.7878 74.9094C47.7465 74.9334 47.775 74.9142 47.9347 74.8421C48.2296 74.7089 48.7256 74.5048 49.4569 74.2217L47.2909 68.6263C46.5342 68.9192 45.9143 69.1711 45.4651 69.3739C45.2529 69.4698 45.0023 69.5886 44.775 69.7206C44.6746 69.7789 44.4674 69.9029 44.2489 70.0862C44.1433 70.1748 43.9385 70.3566 43.7369 70.6296C43.5707 70.8548 43.1419 71.493 43.1419 72.432H49.1419ZM49.4273 74.233C50.1794 73.9509 50.7367 73.7531 51.1174 73.6297C51.3102 73.5671 51.4245 73.5345 51.4786 73.5208C51.5055 73.5139 51.4907 73.5186 51.4464 73.5265C51.4251 73.5303 51.2659 73.56 51.0379 73.56V67.56C50.5609 67.56 50.1314 67.6722 49.9943 67.7072C49.7663 67.7654 49.5176 67.8409 49.2664 67.9223C48.7591 68.0869 48.1044 68.3211 47.3205 68.615L49.4273 74.233ZM51.0379 73.56C50.5615 73.56 50.1926 73.4306 49.966 73.3215C49.7445 73.2149 49.6091 73.1044 49.5591 73.0611C49.4712 72.9849 49.5047 72.9918 49.6513 73.2036L54.5845 69.7884C54.2991 69.3762 53.9366 68.9151 53.4887 68.5269C53.0949 68.1857 52.2465 67.56 51.0379 67.56V73.56ZM49.6513 73.2036C49.7233 73.3075 49.7491 73.3724 49.7579 73.3987C49.7656 73.4219 49.7659 73.4318 49.7659 73.44H55.7659C55.7659 72.0807 55.3172 70.8467 54.5845 69.7884L49.6513 73.2036ZM49.7659 73.44V76.32H55.7659V73.44H49.7659ZM49.7659 76.32C49.7659 76.7402 49.5241 77.9187 48.6166 80.1636L54.1792 82.4124C55.0957 80.1453 55.7659 78.0118 55.7659 76.32H49.7659ZM48.6042 80.1948C47.8851 82.0324 47.0915 82.8577 46.4629 83.2139L49.4209 88.4341C51.6723 87.1583 53.1827 84.9596 54.1916 82.3812L48.6042 80.1948ZM49.998 83.6394L47.55 81.3354L43.4378 85.7046L45.8858 88.0086L49.998 83.6394ZM46.5708 86.32C48.5819 85.5465 49.4031 83.6477 49.7648 82.2613L43.9591 80.7467C43.9165 80.91 43.8768 81.0217 43.8474 81.0918C43.8178 81.1625 43.805 81.1758 43.8215 81.1515C43.8388 81.1259 43.8923 81.0535 43.9949 80.9669C44.101 80.8773 44.2429 80.7869 44.417 80.72L46.5708 86.32ZM49.7419 82.344C50.134 80.9998 50.3659 79.6776 50.3659 78.408H44.3659C44.3659 78.9624 44.2618 79.7042 43.9819 80.664L49.7419 82.344ZM50.3659 78.408C50.3659 77.7786 50.1691 77.285 50.1191 77.1573C50.0344 76.9409 49.9367 76.7442 49.8553 76.5903C49.6894 76.2771 49.4754 75.9256 49.2414 75.5617L44.1944 78.8063C44.2898 78.9548 44.3674 79.0794 44.4289 79.182C44.4915 79.2863 44.5307 79.3564 44.5525 79.3977C44.5791 79.4478 44.5624 79.4221 44.5317 79.3437C44.5158 79.303 44.4824 79.2137 44.4503 79.0887C44.4337 79.0242 44.4139 78.9365 44.3977 78.8303C44.3818 78.726 44.3659 78.5817 44.3659 78.408H50.3659ZM49.365 75.7722C49.2504 75.5575 49.1419 75.2185 49.1419 74.664H43.1419C43.1419 76.0295 43.4174 77.3705 44.0708 78.5958L49.365 75.7722ZM57.9342 80.064L55.2509 81.4056L55.2509 81.4056L57.9342 80.064ZM55.5582 78.912H52.5582V81.912H55.5582V78.912ZM55.5582 76.68L54.3976 73.9136L52.5582 74.6852V76.68H55.5582ZM70.3182 70.488L73.0014 69.1464L71.7461 66.6357L69.1576 67.7216L70.3182 70.488ZM71.4702 72.792V75.792H76.3243L74.1534 71.4504L71.4702 72.792ZM68.4462 74.664L66.0683 72.8349L66.0393 72.8725L66.0116 72.9111L68.4462 74.664ZM68.1582 116.496L70.5008 114.622L70.4594 114.57L70.4159 114.52L68.1582 116.496ZM71.5422 119.088L70.7849 121.991L70.8321 122.003L70.8797 122.014L71.5422 119.088ZM79.9662 119.952H82.9662V116.952H79.9662V119.952ZM79.9662 121.968L81.1303 124.733L82.9662 123.96V121.968H79.9662ZM65.4222 124.848L64.0147 127.497L64.0474 127.515L64.0805 127.531L65.4222 124.848ZM60.8142 120.96L58.5451 122.922L60.8142 120.96ZM61.5102 115.128V83.88H55.5102V115.128H61.5102ZM61.5102 83.88C61.5102 82.0335 61.3341 80.1557 60.6174 78.7224L55.2509 81.4056C55.2508 81.4055 55.3297 81.5778 55.3998 82.0418C55.4668 82.4858 55.5102 83.0899 55.5102 83.88H61.5102ZM60.6174 78.7224C59.5286 76.5447 57.3755 75.912 55.5582 75.912V81.912C55.8607 81.912 55.8756 81.9636 55.7433 81.8994C55.6698 81.8638 55.5706 81.8013 55.4703 81.7031C55.3694 81.6042 55.2972 81.4983 55.2509 81.4056L60.6174 78.7224ZM58.5582 78.912V76.68H52.5582V78.912H58.5582ZM56.7187 79.4464L71.4787 73.2544L69.1576 67.7216L54.3976 73.9136L56.7187 79.4464ZM67.6349 71.8296L68.7869 74.1336L74.1534 71.4504L73.0014 69.1464L67.6349 71.8296ZM71.4702 69.792C69.0944 69.792 67.3077 71.2236 66.0683 72.8349L70.824 76.4931C71.1516 76.0672 71.3874 75.8813 71.5012 75.8108C71.5907 75.7554 71.5664 75.792 71.4702 75.792V69.792ZM66.0116 72.9111C64.609 74.859 64.1502 77.4336 64.1502 80.136H70.1502C70.1502 77.9424 70.5553 76.869 70.8808 76.4169L66.0116 72.9111ZM64.1502 80.136V109.584H70.1502V80.136H64.1502ZM64.1502 109.584C64.1502 111.569 64.2356 113.268 64.4336 114.625C64.5326 115.304 64.6692 115.965 64.8667 116.567C65.0532 117.136 65.3573 117.851 65.9004 118.472L70.4159 114.52C70.623 114.757 70.6331 114.896 70.5676 114.697C70.5131 114.531 70.4397 114.232 70.3708 113.759C70.2327 112.812 70.1502 111.439 70.1502 109.584H64.1502ZM65.8156 118.37C67.142 120.028 68.775 121.467 70.7849 121.991L72.2994 116.185C72.1014 116.133 71.4783 115.844 70.5008 114.622L65.8156 118.37ZM70.8797 122.014C73.6754 122.647 76.7095 122.952 79.9662 122.952V116.952C77.0788 116.952 74.4969 116.681 72.2046 116.162L70.8797 122.014ZM76.9662 119.952V121.968H82.9662V119.952H76.9662ZM78.802 119.203C75.625 120.541 73.1657 121.528 71.405 122.177C70.5216 122.502 69.8503 122.729 69.371 122.87C68.7724 123.047 68.7615 123 69.0222 123V129C69.7388 129 70.5259 128.785 71.0673 128.626C71.728 128.431 72.5387 128.154 73.4793 127.807C75.3666 127.112 77.9233 126.083 81.1303 124.733L78.802 119.203ZM69.0222 123C69.0244 123 68.974 123 68.8599 122.979C68.7471 122.958 68.5915 122.92 68.3885 122.855C67.977 122.723 67.4398 122.503 66.7638 122.165L64.0805 127.531C65.6999 128.341 67.4254 129 69.0222 129V123ZM66.8296 122.199C65.7133 121.606 64.4565 120.585 63.0832 118.998L58.5451 122.922C60.2438 124.887 62.059 126.458 64.0147 127.497L66.8296 122.199ZM63.0832 118.998C61.9622 117.701 61.5102 116.437 61.5102 115.128H55.5102C55.5102 118.043 56.5941 120.667 58.5451 122.922L63.0832 118.998ZM108.202 118.584L105.859 120.458L105.891 120.498L105.924 120.536L108.202 118.584ZM110.866 120.024H113.866V117.659L111.566 117.107L110.866 120.024ZM110.866 121.608L112.331 124.226L113.866 123.367V121.608H110.866ZM103.018 126L101.882 128.777L103.221 129.324L104.483 128.618L103.018 126ZM100.066 123.912L97.8414 125.925L97.8658 125.952L97.891 125.978L100.066 123.912ZM98.698 121.176H101.698V116.164L97.2807 118.532L98.698 121.176ZM89.698 126L88.0339 128.496L89.5302 129.494L91.1152 128.644L89.698 126ZM89.05 125.64L87.3859 128.136L87.5413 128.24L87.7083 128.323L89.05 125.64ZM87.538 124.56L85.5856 126.838L85.6721 126.912L85.7639 126.979L87.538 124.56ZM85.738 122.76L88.0281 120.822L87.9937 120.781L87.9578 120.742L85.738 122.76ZM94.81 99.648L95.6922 102.515L95.7093 102.51L95.7262 102.505L94.81 99.648ZM98.626 98.424L99.5423 101.281L101.626 100.612V98.424H98.626ZM96.466 92.736L94.6407 95.1168L94.6661 95.1363L94.6919 95.1552L96.466 92.736ZM88.114 91.08H85.114V94.08H88.114V91.08ZM88.114 88.92L87.1107 86.0927L85.114 86.8012V88.92H88.114ZM105.178 88.056L102.718 89.7725L105.178 88.056ZM93.298 117.864L91.0485 119.849L91.1104 119.919L91.1767 119.985L93.298 117.864ZM98.698 117.936L100.442 120.377L101.698 119.48V117.936H98.698ZM98.698 101.664H101.698V97.3955L97.6818 98.8413L98.698 101.664ZM95.962 102.744L94.7048 100.02L94.6622 100.04L94.6203 100.061L95.962 102.744ZM94.09 104.112L96.1248 106.316L96.1313 106.31L94.09 104.112ZM104.338 94.464V114.84H110.338V94.464H104.338ZM104.338 114.84C104.338 116.756 104.612 118.899 105.859 120.458L110.545 116.71C110.625 116.81 110.557 116.779 110.477 116.433C110.4 116.097 110.338 115.581 110.338 114.84H104.338ZM105.924 120.536C107.045 121.844 108.587 122.562 110.166 122.941L111.566 117.107C110.745 116.91 110.511 116.668 110.48 116.632L105.924 120.536ZM107.866 120.024V121.608H113.866V120.024H107.866ZM109.401 118.99L101.553 123.382L104.483 128.618L112.331 124.226L109.401 118.99ZM104.154 123.223C103.549 122.976 102.907 122.547 102.241 121.846L97.891 125.978C99.0486 127.197 100.375 128.16 101.882 128.777L104.154 123.223ZM102.291 121.899C101.961 121.535 101.797 121.277 101.723 121.13C101.653 120.989 101.698 121.017 101.698 121.176H95.698C95.698 123.095 96.7401 124.708 97.8414 125.925L102.291 121.899ZM97.2807 118.532L88.2807 123.356L91.1152 128.644L100.115 123.82L97.2807 118.532ZM91.3621 123.504C91.0615 123.303 90.7137 123.118 90.3916 122.957L87.7083 128.323C87.8244 128.381 87.9104 128.427 87.971 128.46C88.0355 128.496 88.0508 128.507 88.0339 128.496L91.3621 123.504ZM90.7141 123.144C90.4889 122.994 90.0349 122.671 89.3121 122.141L85.7639 126.979C86.4811 127.505 87.035 127.902 87.3859 128.136L90.7141 123.144ZM89.4903 122.282C88.9299 121.802 88.4447 121.314 88.0281 120.822L83.4478 124.698C84.0872 125.454 84.802 126.166 85.5856 126.838L89.4903 122.282ZM87.9578 120.742C86.9858 119.673 86.578 118.581 86.578 117.36H80.578C80.578 120.171 81.6101 122.679 83.5182 124.778L87.9578 120.742ZM86.578 117.36V105.552H80.578V117.36H86.578ZM86.578 105.552C86.578 106.189 86.3208 106.584 86.2554 106.676C86.1879 106.771 86.1871 106.739 86.3714 106.594C86.7414 106.302 87.4491 105.868 88.6218 105.304L86.0221 99.8962C84.6989 100.532 83.5346 101.19 82.6565 101.882C82.2169 102.229 81.7481 102.662 81.3685 103.195C80.9911 103.725 80.578 104.531 80.578 105.552H86.578ZM88.6218 105.304C90.991 104.165 93.3476 103.237 95.6922 102.515L93.9277 96.7807C91.2803 97.5952 88.6449 98.6353 86.0221 99.8962L88.6218 105.304ZM95.7262 102.505L99.5423 101.281L97.7097 95.5674L93.8937 96.7914L95.7262 102.505ZM101.626 98.424C101.626 95.257 100.794 92.1893 98.2401 90.3168L94.6919 95.1552C95.0184 95.3947 95.626 96.119 95.626 98.424H101.626ZM98.2913 90.3552C97.0572 89.4091 95.4958 88.8714 93.8814 88.5513C92.2323 88.2243 90.294 88.08 88.114 88.08V94.08C90.0619 94.08 91.5797 94.2117 92.7145 94.4367C93.8841 94.6686 94.4347 94.9589 94.6407 95.1168L98.2913 90.3552ZM91.114 91.08V88.92H85.114V91.08H91.114ZM89.1172 91.7473C92.8259 90.4313 95.6917 89.4548 97.7301 88.8105C98.7523 88.4874 99.5361 88.2575 100.099 88.1114C100.789 87.9325 100.857 87.96 100.642 87.96V81.96C99.9711 81.96 99.1753 82.1525 98.5926 82.3036C97.8838 82.4875 96.9876 82.7526 95.9218 83.0895C93.7843 83.7651 90.8421 84.7687 87.1107 86.0927L89.1172 91.7473ZM100.642 87.96C100.774 87.96 101.5 88.0274 102.718 89.7725L107.638 86.3395C105.976 83.9566 103.678 81.96 100.642 81.96V87.96ZM102.718 89.7725C103.857 91.406 104.338 92.9532 104.338 94.464H110.338C110.338 91.5588 109.379 88.834 107.638 86.3395L102.718 89.7725ZM89.218 114.768C89.218 116.633 89.7742 118.405 91.0485 119.849L95.5475 115.879C95.3817 115.691 95.218 115.399 95.218 114.768H89.218ZM91.1767 119.985C92.392 121.201 93.961 122.016 95.818 122.016V116.016C95.798 116.016 95.7849 116.015 95.7513 116C95.7081 115.98 95.594 115.917 95.4193 115.743L91.1767 119.985ZM95.818 122.016C97.544 122.016 99.1037 121.333 100.442 120.377L96.9543 115.495C96.2762 115.979 95.916 116.016 95.818 116.016V122.016ZM101.698 117.936V101.664H95.698V117.936H101.698ZM97.6818 98.8413C96.4565 99.2825 95.4479 99.6771 94.7048 100.02L97.2191 105.468C97.724 105.235 98.5395 104.91 99.7141 104.487L97.6818 98.8413ZM94.6203 100.061C93.7066 100.518 92.8489 101.17 92.0486 101.914L96.1313 106.31C96.675 105.806 97.0654 105.546 97.3036 105.427L94.6203 100.061ZM92.0551 101.908C89.886 103.91 89.218 106.954 89.218 110.088H95.218C95.218 107.558 95.7979 106.618 96.1248 106.316L92.0551 101.908ZM89.218 110.088V114.768H95.218V110.088H89.218ZM113.541 92.592L110.95 94.1036L113.541 92.592ZM111.021 90.864H108.021V93.864H111.021V90.864ZM111.021 89.28L110.597 86.3101L108.021 86.6781V89.28H111.021ZM118.869 84.888L119.693 82.0034L118.457 81.6501L117.348 82.3022L118.869 84.888ZM120.093 85.32L118.979 88.1054L119.103 88.1551L119.231 88.1935L120.093 85.32ZM121.965 86.688L119.844 88.8093L119.876 88.8415L119.909 88.8726L121.965 86.688ZM123.189 89.352H120.189V94.2061L124.531 92.0353L123.189 89.352ZM125.637 87.984L124.156 85.3749L124.149 85.3793L125.637 87.984ZM136.293 87.984L133.797 89.6481L136.293 87.984ZM141.837 120.024H144.837V117.574L142.437 117.085L141.837 120.024ZM141.837 121.608L143.302 124.226L144.837 123.367V121.608H141.837ZM133.989 126L132.853 128.777L134.192 129.324L135.454 128.618L133.989 126ZM131.037 123.912L128.813 125.925L128.837 125.952L128.862 125.978L131.037 123.912ZM128.733 94.104L125.948 95.2182L125.971 95.2752L125.996 95.3312L128.733 94.104ZM125.565 91.944V88.944H125.295L125.029 88.9924L125.565 91.944ZM123.189 92.376L122.653 89.4244L120.189 89.8723V92.376H123.189ZM126.141 120.312H129.141V117.841L126.716 117.368L126.141 120.312ZM126.141 121.896L127.616 124.509L129.141 123.648V121.896H126.141ZM118.869 126L117.733 128.777L119.078 129.327L120.344 128.613L118.869 126ZM115.917 123.912L113.693 125.925L113.717 125.952L113.742 125.978L115.917 123.912ZM117.549 121.104V96.696H111.549V121.104H117.549ZM117.549 96.696C117.549 94.681 117.119 92.7706 116.133 91.0804L110.95 94.1036C111.308 94.7174 111.549 95.543 111.549 96.696H117.549ZM116.133 91.0804C115.121 89.346 113.438 87.864 111.021 87.864V93.864C110.983 93.864 110.923 93.8579 110.853 93.8361C110.783 93.8144 110.735 93.7867 110.711 93.7702C110.67 93.7424 110.771 93.7971 110.95 94.1036L116.133 91.0804ZM114.021 90.864V89.28H108.021V90.864H114.021ZM111.445 92.2498C111.966 92.1755 112.417 91.9618 112.471 91.9378C112.657 91.855 112.862 91.7541 113.068 91.6486C113.486 91.4345 114.035 91.1361 114.7 90.7639C116.037 90.0159 117.937 88.9169 120.39 87.4738L117.348 82.3022C114.905 83.7391 113.05 84.8121 111.77 85.5281C111.127 85.8879 110.653 86.1444 110.333 86.3084C110.17 86.3919 110.077 86.4358 110.037 86.4534C109.865 86.5299 110.161 86.3724 110.597 86.3101L111.445 92.2498ZM118.045 87.7726C118.248 87.8307 118.554 87.9353 118.979 88.1054L121.207 82.5346C120.673 82.3207 120.162 82.1373 119.693 82.0034L118.045 87.7726ZM119.231 88.1935C119.169 88.1748 119.123 88.1567 119.094 88.1444C119.066 88.132 119.05 88.1236 119.048 88.1224C119.046 88.1212 119.079 88.1397 119.151 88.1922C119.3 88.3008 119.529 88.4944 119.844 88.8093L124.087 84.5667C123.287 83.7671 122.209 82.8227 120.955 82.4465L119.231 88.1935ZM119.909 88.8726C120.197 89.1437 120.189 89.2681 120.189 89.352H126.189C126.189 87.4199 125.365 85.7683 124.021 84.5034L119.909 88.8726ZM124.531 92.0353C124.912 91.8446 125.817 91.3363 127.126 90.5887L124.149 85.3793C122.769 86.1677 122.042 86.5714 121.848 86.6687L124.531 92.0353ZM127.118 90.5931C128.87 89.5985 130.215 88.8825 131.177 88.4234C131.661 88.1925 132.001 88.0491 132.221 87.9698C132.539 87.8544 132.37 87.96 131.973 87.96V81.96C131.24 81.96 130.555 82.1916 130.178 82.3282C129.701 82.5009 129.165 82.7355 128.593 83.0086C127.443 83.5575 125.956 84.3535 124.156 85.3749L127.118 90.5931ZM131.973 87.96C132.026 87.96 132.676 87.9672 133.797 89.6481L138.789 86.3199C137.222 83.9688 134.992 81.96 131.973 81.96V87.96ZM133.797 89.6481C134.951 91.3789 135.309 92.6484 135.309 93.528H141.309C141.309 91.0476 140.324 88.6211 138.789 86.3199L133.797 89.6481ZM135.309 93.528V115.344H141.309V93.528H135.309ZM135.309 115.344C135.309 117.089 135.698 118.844 136.796 120.3C137.919 121.79 139.516 122.612 141.237 122.963L142.437 117.085C141.807 116.956 141.64 116.758 141.587 116.688C141.508 116.584 141.309 116.239 141.309 115.344H135.309ZM138.837 120.024V121.608H144.837V120.024H138.837ZM140.372 118.99L132.524 123.382L135.454 128.618L143.302 124.226L140.372 118.99ZM135.125 123.223C134.52 122.976 133.879 122.547 133.212 121.846L128.862 125.978C130.02 127.197 131.346 128.16 132.853 128.777L135.125 123.223ZM133.262 121.899C132.941 121.545 132.781 121.29 132.708 121.14C132.639 120.999 132.669 120.997 132.669 121.104H126.669C126.669 123.038 127.675 124.667 128.813 125.925L133.262 121.899ZM132.669 121.104V100.224H126.669V121.104H132.669ZM132.669 100.224C132.669 97.3872 132.353 94.8444 131.471 92.8768L125.996 95.3312C126.362 96.1476 126.669 97.6848 126.669 100.224H132.669ZM131.519 92.9898C131.057 91.8359 130.317 90.7671 129.199 90.0053C128.08 89.2421 126.812 88.944 125.565 88.944V94.944C125.716 94.944 125.796 94.9616 125.824 94.9696C125.849 94.9763 125.84 94.9771 125.819 94.9627C125.798 94.9484 125.799 94.9422 125.818 94.9675C125.839 94.9962 125.889 95.0707 125.948 95.2182L131.519 92.9898ZM125.029 88.9924L122.653 89.4244L123.726 95.3276L126.102 94.8956L125.029 88.9924ZM120.189 92.376V115.344H126.189V92.376H120.189ZM120.189 115.344C120.189 117.088 120.473 118.842 121.348 120.314C122.297 121.911 123.783 122.908 125.567 123.256L126.716 117.368C126.646 117.354 126.604 117.339 126.582 117.33C126.571 117.326 126.564 117.322 126.56 117.32C126.557 117.318 126.555 117.317 126.555 117.317C126.555 117.317 126.555 117.317 126.555 117.318C126.555 117.318 126.555 117.318 126.555 117.318C126.555 117.318 126.554 117.316 126.551 117.313C126.546 117.307 126.53 117.289 126.506 117.25C126.397 117.066 126.189 116.528 126.189 115.344H120.189ZM123.141 120.312V121.896H129.141V120.312H123.141ZM124.667 119.283L117.395 123.387L120.344 128.613L127.616 124.509L124.667 119.283ZM120.005 123.223C119.4 122.976 118.759 122.547 118.092 121.846L113.742 125.978C114.9 127.197 116.226 128.16 117.733 128.777L120.005 123.223ZM118.142 121.899C117.821 121.545 117.661 121.29 117.588 121.14C117.519 120.999 117.549 120.997 117.549 121.104H111.549C111.549 123.038 112.555 124.667 113.693 125.925L118.142 121.899ZM165.143 79.992L167.886 78.7775L165.143 79.992ZM170.183 118.224L167.549 119.661L167.574 119.706L167.6 119.75L170.183 118.224ZM172.775 120.024H175.775V117.39L173.163 117.049L172.775 120.024ZM172.775 121.608L173.199 124.578L175.775 124.21V121.608H172.775ZM164.927 126L163.731 128.751L165.131 129.36L166.448 128.586L164.927 126ZM161.903 123.912L159.673 125.919L159.726 125.978L159.781 126.033L161.903 123.912ZM160.607 121.248H163.607V115.873L159.032 118.695L160.607 121.248ZM149.663 124.92L147.73 127.215L147.795 127.269L147.863 127.32L149.663 124.92ZM146.855 121.68L144.32 123.285L144.352 123.335L144.385 123.383L146.855 121.68ZM157.655 86.616L158.644 89.4484L161.748 88.3644L160.385 85.372L157.655 86.616ZM148.007 76.32H145.007V79.32H148.007V76.32ZM148.007 74.16L146.775 71.4247L145.007 72.221V74.16H148.007ZM160.607 118.224L162.481 120.567L163.607 119.666V118.224H160.607ZM159.959 91.368L157.173 92.4822L157.208 92.5684L157.248 92.6523L159.959 91.368ZM154.847 91.224L156.39 93.7965L156.39 93.7965L154.847 91.224ZM154.127 91.656L152.583 89.0835L151.127 89.9574V91.656H154.127ZM159.023 73.56C158.176 73.56 157.826 73.0963 158.077 73.3327C158.244 73.4909 158.557 73.8563 159.008 74.5509C159.898 75.9225 161.028 78.1092 162.4 81.2065L167.886 78.7775C166.473 75.5868 165.191 73.0575 164.041 71.2851C163.472 70.4077 162.858 69.5941 162.192 68.9663C161.609 68.4167 160.518 67.56 159.023 67.56V73.56ZM162.4 81.2065C163.768 84.2965 164.766 86.8482 165.418 88.8815C166.088 90.9735 166.319 92.3005 166.319 93.024H172.319C172.319 91.3475 171.853 89.3025 171.132 87.0505C170.391 84.7398 169.302 81.9755 167.886 78.7775L162.4 81.2065ZM166.319 93.024V114.984H172.319V93.024H166.319ZM166.319 114.984C166.319 116.634 166.755 118.204 167.549 119.661L172.816 116.787C172.459 116.132 172.319 115.542 172.319 114.984H166.319ZM167.6 119.75C168.639 121.508 170.266 122.722 172.387 122.999L173.163 117.049C173.058 117.035 173.025 117.012 173.01 117.002C172.987 116.986 172.894 116.915 172.766 116.698L167.6 119.75ZM169.775 120.024V121.608H175.775V120.024H169.775ZM172.35 118.638C171.83 118.712 171.379 118.926 171.325 118.95C171.138 119.033 170.934 119.134 170.728 119.239C170.31 119.453 169.761 119.752 169.096 120.124C167.759 120.872 165.859 121.971 163.406 123.414L166.448 128.586C168.89 127.149 170.746 126.076 172.026 125.36C172.669 125 173.143 124.744 173.463 124.58C173.626 124.496 173.719 124.452 173.759 124.435C173.931 124.358 173.635 124.516 173.199 124.578L172.35 118.638ZM166.123 123.249C165.388 122.929 164.689 122.456 164.024 121.791L159.781 126.033C160.94 127.192 162.257 128.111 163.731 128.751L166.123 123.249ZM164.133 121.905C163.834 121.573 163.691 121.342 163.628 121.214C163.57 121.094 163.607 121.116 163.607 121.248H157.607C157.607 123.133 158.588 124.714 159.673 125.919L164.133 121.905ZM159.032 118.695C156.484 120.266 154.516 121.413 153.104 122.159C152.394 122.534 151.873 122.781 151.517 122.927C151.025 123.129 151.169 123 151.607 123V129C152.476 129 153.32 128.673 153.793 128.479C154.403 128.229 155.116 127.882 155.905 127.465C157.493 126.627 159.593 125.398 162.182 123.801L159.032 118.695ZM151.607 123C151.826 123 151.997 123.029 152.103 123.052C152.212 123.075 152.289 123.101 152.327 123.115C152.397 123.141 152.402 123.15 152.326 123.108C152.256 123.069 152.148 123.003 151.997 122.902C151.848 122.802 151.67 122.676 151.463 122.52L147.863 127.32C148.394 127.718 148.919 128.078 149.412 128.352C149.765 128.549 150.603 129 151.607 129V123ZM151.595 122.625C150.953 122.085 150.19 121.232 149.324 119.977L144.385 123.383C145.439 124.912 146.548 126.219 147.73 127.215L151.595 122.625ZM149.389 120.075C148.736 119.043 148.487 118.129 148.487 117.288H142.487C142.487 119.423 143.149 121.437 144.32 123.285L149.389 120.075ZM148.487 117.288V91.584H142.487V117.288H148.487ZM148.487 91.584C148.487 92.5718 147.998 93.204 147.867 93.3665C147.688 93.5885 147.527 93.7104 147.497 93.7335C147.426 93.7882 147.443 93.7644 147.645 93.6579C148.021 93.4601 148.673 93.1633 149.663 92.7594C151.617 91.9616 154.6 90.8602 158.644 89.4484L156.666 83.7836C152.598 85.2038 149.497 86.3464 147.395 87.2046C146.356 87.6287 145.488 88.0129 144.849 88.3491C144.545 88.5096 144.182 88.7161 143.857 88.9642C143.699 89.0841 143.444 89.2936 143.201 89.5939C143.007 89.8348 142.487 90.5362 142.487 91.584H148.487ZM160.385 85.372C158.65 81.5663 157.167 78.694 155.951 76.9244L151.007 80.3236C151.902 81.626 153.203 84.0816 154.925 87.86L160.385 85.372ZM155.951 76.9244C154.791 75.2367 152.975 73.32 150.383 73.32V79.32C150.082 79.32 149.979 79.1968 150.122 79.3027C150.284 79.4232 150.589 79.7162 151.007 80.3236L155.951 76.9244ZM150.383 73.32H148.007V79.32H150.383V73.32ZM151.007 76.32V74.16H145.007V76.32H151.007ZM149.239 76.8953C151.849 75.7195 153.992 74.866 155.689 74.3116C157.446 73.7372 158.502 73.56 159.023 73.56V67.56C157.528 67.56 155.739 67.9828 153.825 68.6084C151.849 69.254 149.492 70.2005 146.775 71.4247L149.239 76.8953ZM157.799 122.376C159.596 122.376 161.173 121.612 162.481 120.567L158.733 115.881C158.12 116.372 157.826 116.376 157.799 116.376V122.376ZM163.607 118.224V93.168H157.607V118.224H163.607ZM163.607 93.168C163.607 92.4609 163.385 91.813 163.267 91.4858C163.113 91.0582 162.907 90.5832 162.67 90.0837L157.248 92.6523C157.443 93.0647 157.56 93.3458 157.622 93.5182C157.653 93.6036 157.657 93.6271 157.651 93.6026C157.648 93.5884 157.638 93.5469 157.629 93.4833C157.62 93.4226 157.607 93.3129 157.607 93.168H163.607ZM162.744 90.2538C162.534 89.7273 162.295 89.1915 162.027 88.7445C161.899 88.5312 161.687 88.2055 161.378 87.8967C161.153 87.6718 160.364 86.928 159.095 86.928V92.928C158.483 92.928 158.008 92.7363 157.714 92.573C157.426 92.4128 157.235 92.2385 157.135 92.1393C157.03 92.0338 156.963 91.9468 156.932 91.9046C156.899 91.8593 156.882 91.8318 156.882 91.8315C156.881 91.8299 156.889 91.8429 156.906 91.8746C156.922 91.9056 156.943 91.949 156.97 92.0067C157.025 92.1233 157.092 92.2797 157.173 92.4822L162.744 90.2538ZM159.095 86.928C157.057 86.928 155.113 87.5657 153.303 88.6515L156.39 93.7965C157.46 93.1543 158.349 92.928 159.095 92.928V86.928ZM153.303 88.6515L152.583 89.0835L155.67 94.2285L156.39 93.7965L153.303 88.6515ZM151.127 91.656V114.048H157.127V91.656H151.127ZM151.127 114.048C151.127 116.076 151.459 118.128 152.575 119.746C153.829 121.566 155.743 122.376 157.799 122.376V116.376C157.55 116.376 157.477 116.332 157.498 116.342C157.535 116.36 157.544 116.383 157.515 116.342C157.406 116.184 157.127 115.572 157.127 114.048H151.127Z" fill="#FFD28D"/>
</g>
<defs>
<filter id="filter0_d_169_2" x="35.3527" y="0.991943" width="110.31" height="67.488" filterUnits="userSpaceOnUse" color-interpolation-filters="sRGB">
<feFlood flood-opacity="0" result="BackgroundImageFix"/>
<feColorMatrix in="SourceAlpha" type="matrix" values="0 0 0 0 0 0 0 0 0 0 0 0 0 0 0 0 0 0 127 0" result="hardAlpha"/>
<feOffset/>
<feGaussianBlur stdDeviation="7.5"/>
<feComposite in2="hardAlpha" operator="out"/>
<feColorMatrix type="matrix" values="0 0 0 0 0.995833 0 0 0 0 0.434515 0 0 0 0 0.257257 0 0 0 1 0"/>
<feBlend mode="normal" in2="BackgroundImageFix" result="effect1_dropShadow_169_2"/>
<feBlend mode="normal" in="SourceGraphic" in2="effect1_dropShadow_169_2" result="shape"/>
</filter>
<filter id="filter1_d_169_2" x="0.455811" y="60.488" width="182.319" height="77.8159" filterUnits="userSpaceOnUse" color-interpolation-filters="sRGB">
<feFlood flood-opacity="0" result="BackgroundImageFix"/>
<feColorMatrix in="SourceAlpha" type="matrix" values="0 0 0 0 0 0 0 0 0 0 0 0 0 0 0 0 0 0 127 0" result="hardAlpha"/>
<feOffset/>
<feGaussianBlur stdDeviation="5"/>
<feComposite in2="hardAlpha" operator="out"/>
<feColorMatrix type="matrix" values="0 0 0 0 0.996078 0 0 0 0 0.0431373 0 0 0 0 0.0392157 0 0 0 1 0"/>
<feBlend mode="normal" in2="BackgroundImageFix" result="effect1_dropShadow_169_2"/>
<feBlend mode="normal" in="SourceGraphic" in2="effect1_dropShadow_169_2" result="shape"/>
</filter>
</defs>
</svg>
