<svg width="183" height="146" viewBox="0 0 183 146" fill="none" xmlns="http://www.w3.org/2000/svg">
<g filter="url(#filter0_d_90_3098)">
<path d="M62.7847 48.008V24.92C62.7847 23.736 62.6567 22.888 62.4007 22.376C62.1447 21.864 61.6167 21.608 60.8167 21.608V20.12L70.6567 15.992L71.4247 17.528C70.7207 17.528 70.0487 17.944 69.4087 18.776C68.8327 19.576 68.5447 20.792 68.5447 22.424V45.128C68.5447 46.184 68.7687 47.096 69.2167 47.864C69.6647 48.632 70.2247 49.016 70.8967 49.016V50.072C70.6727 50.104 68.9287 51.08 65.6647 53C65.4407 52.936 65.1687 52.856 64.8487 52.76C64.5287 52.632 64.0967 52.312 63.5527 51.8C63.0407 51.288 62.7847 50.696 62.7847 50.024C62.5927 50.12 62.0487 50.424 61.1527 50.936C58.7847 52.28 57.3767 52.952 56.9287 52.952C55.9047 52.952 54.9447 52.296 54.0487 50.984C53.1527 49.64 52.7047 48.392 52.7047 47.24V23.096C52.7047 21.336 51.9207 20.296 50.3527 19.976V18.92L55.5847 15.992C56.2887 16.28 56.9447 16.76 57.5527 17.432C58.1607 18.072 58.4647 18.68 58.4647 19.256V42.776C58.4647 44.792 58.7527 46.168 59.3287 46.904C59.9367 47.64 61.0887 48.008 62.7847 48.008ZM75.5377 42.488C74.7377 42.488 74.0497 41.88 73.4737 40.664C72.8977 39.448 72.6097 37.96 72.6097 36.2V31.016C72.6097 30.408 74.2897 29.368 77.6497 27.896C81.0097 26.392 82.9457 25.64 83.4577 25.64C83.7457 25.64 84.0017 25.816 84.2257 26.168C84.4497 26.488 84.6257 26.76 84.7537 26.984C84.8817 27.176 85.0737 27.528 85.3297 28.04C85.6177 28.52 85.8577 28.92 86.0497 29.24C86.4657 30.008 86.9937 30.392 87.6337 30.392V31.352C87.1217 31.576 86.4497 31.912 85.6177 32.36C83.5697 33.48 82.4657 34.04 82.3057 34.04C81.8257 34.04 81.2977 33.256 80.7217 31.688C80.1777 30.12 79.6817 29.336 79.2337 29.336C78.6577 29.336 78.3697 29.816 78.3697 30.776V36.68C78.3697 37.96 78.6577 38.6 79.2337 38.6C79.3617 38.6 80.3537 38.184 82.2097 37.352C84.0657 36.52 85.1857 36.104 85.5697 36.104C86.3377 36.104 87.0097 36.728 87.5857 37.976C88.1937 39.192 88.4977 40.76 88.4977 42.68V48.104C88.4977 48.712 86.6577 49.768 82.9777 51.272C79.3297 52.744 77.2337 53.48 76.6897 53.48C76.4657 53.48 76.2417 53.288 76.0177 52.904C75.8257 52.488 75.5377 51.864 75.1537 51.032C74.8017 50.2 74.4497 49.496 74.0977 48.92C73.6817 48.152 73.1537 47.768 72.5137 47.768V46.808C73.0257 46.584 73.7137 46.248 74.5777 45.8C76.5937 44.68 77.6817 44.12 77.8417 44.12C78.3217 44.12 78.9137 45.064 79.6177 46.952C80.3537 48.84 80.9457 49.784 81.3937 49.784C81.7137 49.784 82.0177 49.656 82.3057 49.4C82.5937 49.144 82.7377 48.792 82.7377 48.344V42.344C82.7377 40.904 82.3377 40.184 81.5377 40.184C81.2817 40.184 80.2737 40.568 78.5137 41.336C76.7537 42.104 75.7617 42.488 75.5377 42.488ZM101.923 46.856V24.92C101.923 23.736 101.795 22.888 101.539 22.376C101.283 21.864 100.755 21.608 99.9554 21.608V20.12L109.795 15.992L110.563 17.528C109.859 17.528 109.187 17.944 108.547 18.776C107.971 19.576 107.683 20.792 107.683 22.424V44.984C107.683 45.848 107.827 46.472 108.115 46.856C108.403 47.208 108.899 47.384 109.603 47.384V48.728C103.107 51.576 99.8434 53 99.8114 53L99.0434 51.464C99.2994 51.464 99.6034 51.352 99.9554 51.128C100.339 50.904 100.659 50.648 100.915 50.36C101.587 49.592 101.923 48.424 101.923 46.856ZM112.47 49.736V33.464C112.47 32.408 112.246 31.496 111.798 30.728C111.35 29.96 110.79 29.576 110.118 29.576V28.52C110.342 28.488 112.086 27.512 115.35 25.592C115.574 25.656 115.846 25.752 116.166 25.88C116.486 25.976 116.902 26.28 117.414 26.792C117.958 27.304 118.23 27.896 118.23 28.568C118.422 28.472 118.966 28.168 119.862 27.656C122.23 26.312 123.638 25.64 124.086 25.64C125.11 25.64 126.07 26.312 126.966 27.656C127.862 29 128.31 30.232 128.31 31.352V45.896C128.31 47.656 129.094 48.696 130.662 49.016V50.072L125.43 53C124.726 52.712 124.07 52.248 123.462 51.608C122.854 50.936 122.55 50.312 122.55 49.736V35.816C122.55 34.024 122.342 32.664 121.926 31.736C121.542 30.776 120.838 30.296 119.814 30.296L118.23 30.584V45.896C118.23 47.848 118.886 48.952 120.198 49.208V50.264L115.35 53C114.646 52.712 113.99 52.248 113.382 51.608C112.774 50.936 112.47 50.312 112.47 49.736Z" fill="black"/>
<path d="M62.7847 48.008V49.008H63.7847V48.008H62.7847ZM62.4007 22.376L61.5063 22.8232L61.5063 22.8232L62.4007 22.376ZM60.8167 21.608H59.8167V22.608H60.8167V21.608ZM60.8167 20.12L60.4298 19.1979L59.8167 19.4551V20.12H60.8167ZM70.6567 15.992L71.5511 15.5448L71.1327 14.7079L70.2698 15.0699L70.6567 15.992ZM71.4247 17.528V18.528H73.0427L72.3191 17.0808L71.4247 17.528ZM69.4087 18.776L68.6161 18.1663L68.6064 18.1788L68.5972 18.1917L69.4087 18.776ZM70.8967 49.016H71.8967V48.016H70.8967V49.016ZM70.8967 50.072L71.0381 51.0619L71.8967 50.9393V50.072H70.8967ZM65.6647 53L65.39 53.9615L65.8022 54.0793L66.1717 53.8619L65.6647 53ZM64.8487 52.76L64.4773 53.6885L64.5187 53.705L64.5613 53.7178L64.8487 52.76ZM63.5527 51.8L62.8456 52.5071L62.8563 52.5178L62.8673 52.5282L63.5527 51.8ZM62.7847 50.024H63.7847V48.406L62.3375 49.1296L62.7847 50.024ZM61.1527 50.936L61.6463 51.8057L61.6488 51.8042L61.1527 50.936ZM54.0487 50.984L53.2166 51.5387L53.2229 51.548L54.0487 50.984ZM50.3527 19.976H49.3527V20.7925L50.1527 20.9558L50.3527 19.976ZM50.3527 18.92L49.8643 18.0474L49.3527 18.3337V18.92H50.3527ZM55.5847 15.992L55.9633 15.0665L55.5171 14.8839L55.0963 15.1194L55.5847 15.992ZM57.5527 17.432L56.8112 18.1029L56.8193 18.1119L56.8277 18.1207L57.5527 17.432ZM59.3287 46.904L58.5412 47.5203L58.5493 47.5307L58.5577 47.5409L59.3287 46.904ZM63.7847 48.008V24.92H61.7847V48.008H63.7847ZM63.7847 24.92C63.7847 23.7125 63.662 22.6626 63.2951 21.9288L61.5063 22.8232C61.6514 23.1134 61.7847 23.7595 61.7847 24.92H63.7847ZM63.2951 21.9288C62.8042 20.9469 61.8225 20.608 60.8167 20.608V22.608C61.4109 22.608 61.4852 22.7811 61.5063 22.8232L63.2951 21.9288ZM61.8167 21.608V20.12H59.8167V21.608H61.8167ZM61.2035 21.0421L71.0435 16.9141L70.2698 15.0699L60.4298 19.1979L61.2035 21.0421ZM69.7623 16.4392L70.5303 17.9752L72.3191 17.0808L71.5511 15.5448L69.7623 16.4392ZM71.4247 16.528C70.2808 16.528 69.3492 17.2132 68.6161 18.1663L70.2013 19.3857C70.7482 18.6748 71.1606 18.528 71.4247 18.528V16.528ZM68.5972 18.1917C67.8417 19.241 67.5447 20.7072 67.5447 22.424H69.5447C69.5447 20.8768 69.8237 19.911 70.2202 19.3603L68.5972 18.1917ZM67.5447 22.424V45.128H69.5447V22.424H67.5447ZM67.5447 45.128C67.5447 46.3277 67.8003 47.4205 68.3529 48.3679L70.0805 47.3601C69.7371 46.7715 69.5447 46.0403 69.5447 45.128H67.5447ZM68.3529 48.3679C68.9141 49.33 69.7551 50.016 70.8967 50.016V48.016C70.6943 48.016 70.4152 47.934 70.0805 47.3601L68.3529 48.3679ZM69.8967 49.016V50.072H71.8967V49.016H69.8967ZM70.7553 49.0821C70.5679 49.1088 70.3917 49.1894 70.3359 49.2142C70.2359 49.2585 70.118 49.3163 69.9878 49.383C69.7255 49.5173 69.372 49.7093 68.9323 49.9554C68.0508 50.4487 66.7914 51.177 65.1577 52.1381L66.1717 53.8619C67.8019 52.903 69.0466 52.1833 69.909 51.7006C70.3414 51.4587 70.6699 51.2807 70.8996 51.163C71.0154 51.1037 71.096 51.065 71.147 51.0423C71.2422 51.0001 71.1695 51.0432 71.0381 51.0619L70.7553 49.0821ZM65.9394 52.0385C65.721 51.9761 65.4535 51.8974 65.136 51.8022L64.5613 53.7178C64.8839 53.8146 65.1604 53.8959 65.39 53.9615L65.9394 52.0385ZM65.2201 51.8315C65.088 51.7787 64.7724 51.5747 64.2381 51.0718L62.8673 52.5282C63.421 53.0493 63.9694 53.4853 64.4773 53.6885L65.2201 51.8315ZM64.2598 51.0929C63.9193 50.7524 63.7847 50.4089 63.7847 50.024H61.7847C61.7847 50.9831 62.1621 51.8236 62.8456 52.5071L64.2598 51.0929ZM62.3375 49.1296C62.1143 49.2411 61.5406 49.5626 60.6565 50.0678L61.6488 51.8042C62.5567 51.2854 63.071 50.9989 63.2319 50.9184L62.3375 49.1296ZM60.6591 50.0663C59.483 50.7338 58.5626 51.2245 57.89 51.5455C57.5526 51.7065 57.2933 51.8173 57.1042 51.8857C56.882 51.9662 56.8523 51.952 56.9287 51.952V53.952C57.2291 53.952 57.5434 53.8538 57.7851 53.7663C58.0601 53.6667 58.3847 53.5255 58.7514 53.3505C59.4868 52.9995 60.4544 52.4822 61.6463 51.8057L60.6591 50.0663ZM56.9287 51.952C56.3876 51.952 55.691 51.6156 54.8745 50.42L53.2229 51.548C54.1984 52.9764 55.4217 53.952 56.9287 53.952V51.952ZM54.8807 50.4293C54.0519 49.186 53.7047 48.1299 53.7047 47.24H51.7047C51.7047 48.6541 52.2535 50.094 53.2166 51.5387L54.8807 50.4293ZM53.7047 47.24V23.096H51.7047V47.24H53.7047ZM53.7047 23.096C53.7047 22.0743 53.4771 21.1394 52.9152 20.394C52.3448 19.6374 51.5186 19.1933 50.5526 18.9962L50.1527 20.9558C50.7548 21.0787 51.1045 21.3146 51.3182 21.598C51.5403 21.8926 51.7047 22.3577 51.7047 23.096H53.7047ZM51.3527 19.976V18.92H49.3527V19.976H51.3527ZM50.841 19.7926L56.073 16.8646L55.0963 15.1194L49.8643 18.0474L50.841 19.7926ZM55.2061 16.9175C55.7475 17.1391 56.2845 17.5209 56.8112 18.1029L58.2942 16.7611C57.6048 15.9991 56.8298 15.4209 55.9633 15.0665L55.2061 16.9175ZM56.8277 18.1207C57.3505 18.6711 57.4647 19.0439 57.4647 19.256H59.4647C59.4647 18.3161 58.9708 17.4729 58.2777 16.7432L56.8277 18.1207ZM57.4647 19.256V42.776H59.4647V19.256H57.4647ZM57.4647 42.776C57.4647 43.8259 57.5392 44.7474 57.7019 45.5249C57.8628 46.2938 58.1232 46.9862 58.5412 47.5203L60.1162 46.2877C59.9582 46.0858 59.7865 45.7222 59.6595 45.1151C59.5342 44.5166 59.4647 43.7421 59.4647 42.776H57.4647ZM58.5577 47.5409C59.4612 48.6346 61.0097 49.008 62.7847 49.008V47.008C61.1677 47.008 60.4122 46.6454 60.0996 46.2671L58.5577 47.5409ZM73.4737 40.664L72.5699 41.0921L72.5699 41.0921L73.4737 40.664ZM77.6497 27.896L78.051 28.812L78.0582 28.8087L77.6497 27.896ZM84.2257 26.168L83.382 26.7049L83.3938 26.7234L83.4065 26.7415L84.2257 26.168ZM84.7537 26.984L83.8854 27.4801L83.9025 27.51L83.9216 27.5387L84.7537 26.984ZM85.3297 28.04L84.4353 28.4872L84.4524 28.5216L84.4722 28.5545L85.3297 28.04ZM86.0497 29.24L86.929 28.7637L86.9185 28.7444L86.9072 28.7255L86.0497 29.24ZM87.6337 30.392H88.6337V29.392H87.6337V30.392ZM87.6337 31.352L88.0345 32.2682L88.6337 32.006V31.352H87.6337ZM85.6177 32.36L85.1436 31.4795L85.1379 31.4826L85.6177 32.36ZM80.7217 31.688L79.7769 32.0158L79.7799 32.0243L79.783 32.0328L80.7217 31.688ZM82.2097 37.352L82.6187 38.2645L82.6187 38.2645L82.2097 37.352ZM87.5857 37.976L86.6777 38.3951L86.6843 38.4092L86.6913 38.4232L87.5857 37.976ZM82.9777 51.272L83.3519 52.1994L83.356 52.1977L82.9777 51.272ZM76.0177 52.904L75.1097 53.3231L75.1298 53.3665L75.1539 53.4079L76.0177 52.904ZM75.1537 51.032L74.2327 51.4216L74.239 51.4365L74.2457 51.4511L75.1537 51.032ZM74.0977 48.92L73.2184 49.3963L73.2308 49.4192L73.2444 49.4415L74.0977 48.92ZM72.5137 47.768H71.5137V48.768H72.5137V47.768ZM72.5137 46.808L72.1129 45.8918L71.5137 46.154V46.808H72.5137ZM74.5777 45.8L75.038 46.6878L75.0508 46.6811L75.0633 46.6742L74.5777 45.8ZM79.6177 46.952L78.6807 47.3014L78.6833 47.3083L78.686 47.3152L79.6177 46.952ZM82.3057 49.4L82.9701 50.1474L82.9701 50.1474L82.3057 49.4ZM78.5137 41.336L78.1137 40.4195L78.1137 40.4195L78.5137 41.336ZM75.5377 41.488C75.3431 41.488 74.9089 41.3578 74.3774 40.2359L72.5699 41.0921C73.1905 42.4022 74.1322 43.488 75.5377 43.488V41.488ZM74.3774 40.2359C73.8812 39.1883 73.6097 37.8557 73.6097 36.2H71.6097C71.6097 38.0643 71.9142 39.7077 72.5699 41.0921L74.3774 40.2359ZM73.6097 36.2V31.016H71.6097V36.2H73.6097ZM73.6097 31.016C73.6097 31.2939 73.4481 31.3664 73.625 31.1929C73.7586 31.0617 74.0027 30.8738 74.396 30.6303C75.1754 30.1478 76.3843 29.5421 78.051 28.812L77.2484 26.98C75.5551 27.7219 74.2439 28.3722 73.3433 28.9297C72.8967 29.2062 72.5107 29.4843 72.2244 29.7651C71.9813 30.0036 71.6097 30.4341 71.6097 31.016H73.6097ZM78.0582 28.8087C79.7327 28.0592 81.0389 27.5031 81.9838 27.1361C82.4572 26.9522 82.8271 26.8209 83.1003 26.7369C83.4117 26.6413 83.4973 26.64 83.4577 26.64V24.64C83.1621 24.64 82.8137 24.7327 82.513 24.8251C82.1743 24.9291 81.7542 25.0797 81.2596 25.2718C80.2684 25.6568 78.9267 26.2288 77.2411 26.9833L78.0582 28.8087ZM83.4577 26.64C83.426 26.64 83.3921 26.6349 83.3599 26.6244C83.3283 26.6142 83.3079 26.6021 83.2992 26.596C83.2912 26.5905 83.2961 26.5924 83.3117 26.6097C83.3276 26.6271 83.3517 26.6572 83.382 26.7049L85.0694 25.6311C84.751 25.1308 84.2259 24.64 83.4577 24.64V26.64ZM83.4065 26.7415C83.6209 27.0477 83.7782 27.2924 83.8854 27.4801L85.6219 26.4879C85.4732 26.2276 85.2785 25.9283 85.0449 25.5945L83.4065 26.7415ZM83.9216 27.5387C84.0112 27.673 84.1786 27.9739 84.4353 28.4872L86.2241 27.5928C85.9688 27.0821 85.7522 26.679 85.5857 26.4293L83.9216 27.5387ZM84.4722 28.5545C84.7602 29.0345 85.0002 29.4345 85.1922 29.7545L86.9072 28.7255C86.7152 28.4055 86.4752 28.0055 86.1872 27.5255L84.4722 28.5545ZM85.1704 29.7163C85.6884 30.6725 86.4956 31.392 87.6337 31.392V29.392C87.4917 29.392 87.243 29.3435 86.929 28.7637L85.1704 29.7163ZM86.6337 30.392V31.352H88.6337V30.392H86.6337ZM87.2329 30.4358C86.6848 30.6756 85.9856 31.0261 85.1436 31.4795L86.0918 33.2405C86.9137 32.7979 87.5586 32.4764 88.0345 32.2682L87.2329 30.4358ZM85.1379 31.4826C84.1165 32.0412 83.3393 32.4553 82.8013 32.7282C82.5308 32.8654 82.3319 32.9612 82.1976 33.0207C82.1293 33.051 82.0914 33.0657 82.0766 33.0709C82.0145 33.0929 82.1316 33.04 82.3057 33.04V35.04C82.5198 35.04 82.7064 34.9696 82.7433 34.9566C82.8274 34.9268 82.9181 34.889 83.0078 34.8493C83.1895 34.7688 83.4246 34.6546 83.7061 34.5118C84.2721 34.2247 85.0709 33.7988 86.0975 33.2374L85.1379 31.4826ZM82.3057 33.04C82.4717 33.04 82.559 33.1101 82.5506 33.1036C82.538 33.0938 82.4776 33.0396 82.3791 32.8934C82.1816 32.6002 81.9383 32.0999 81.6604 31.3432L79.783 32.0328C80.081 32.8441 80.3897 33.5198 80.7203 34.0106C81.0023 34.4294 81.5164 35.04 82.3057 35.04V33.04ZM81.6664 31.3602C81.3857 30.551 81.096 29.8781 80.7868 29.3894C80.6324 29.1453 80.4462 28.9036 80.2176 28.7137C79.9862 28.5215 79.6525 28.336 79.2337 28.336V30.336C79.1401 30.336 79.064 30.3149 79.012 30.2927C78.9869 30.2821 78.9687 30.2717 78.9572 30.2644C78.9457 30.2572 78.94 30.2525 78.9398 30.2523C78.9396 30.2521 78.9437 30.2555 78.9519 30.264C78.9601 30.2724 78.9715 30.2848 78.9859 30.3023C79.015 30.3377 79.0522 30.3885 79.0966 30.4586C79.2834 30.7539 79.5137 31.257 79.7769 32.0158L81.6664 31.3602ZM79.2337 28.336C78.6069 28.336 78.0592 28.6297 77.7282 29.1815C77.446 29.6519 77.3697 30.2286 77.3697 30.776H79.3697C79.3697 30.583 79.3844 30.4414 79.4043 30.3421C79.4244 30.2414 79.4453 30.2069 79.4432 30.2105C79.4371 30.2206 79.4062 30.2641 79.3413 30.3002C79.2778 30.3354 79.2313 30.336 79.2337 30.336V28.336ZM77.3697 30.776V36.68H79.3697V30.776H77.3697ZM77.3697 36.68C77.3697 37.3638 77.4418 38.015 77.6738 38.5304C77.7951 38.8001 77.9793 39.0753 78.2605 39.2836C78.5533 39.5005 78.8916 39.6 79.2337 39.6V37.6C79.2878 37.6 79.3741 37.6195 79.4509 37.6764C79.5161 37.7247 79.5202 37.7599 79.4976 37.7096C79.4415 37.585 79.3697 37.2762 79.3697 36.68H77.3697ZM79.2337 39.6C79.4197 39.6 79.5865 39.5453 79.6116 39.5377C79.683 39.5161 79.7613 39.4886 79.8399 39.4594C79.9992 39.4003 80.208 39.316 80.4604 39.2102C80.9678 38.9974 81.6886 38.6815 82.6187 38.2645L81.8006 36.4395C80.8748 36.8545 80.1716 37.1626 79.687 37.3658C79.4434 37.468 79.2642 37.5397 79.1435 37.5846C79.082 37.6074 79.0474 37.6189 79.0328 37.6233C78.9719 37.6417 79.0796 37.6 79.2337 37.6V39.6ZM82.6187 38.2645C83.5385 37.8522 84.2597 37.5503 84.7899 37.3534C85.0555 37.2548 85.2602 37.1873 85.4103 37.1458C85.5815 37.0985 85.6153 37.104 85.5697 37.104V35.104C85.3321 35.104 85.0819 35.1615 84.8771 35.2182C84.6512 35.2807 84.3879 35.3692 84.0935 35.4786C83.5036 35.6977 82.7369 36.0198 81.8006 36.4395L82.6187 38.2645ZM85.5697 37.104C85.7051 37.104 86.1304 37.2091 86.6777 38.3951L88.4936 37.5569C87.889 36.2469 86.9702 35.104 85.5697 35.104V37.104ZM86.6913 38.4232C87.2072 39.4552 87.4977 40.8553 87.4977 42.68H89.4977C89.4977 40.6647 89.1801 38.9288 88.4801 37.5288L86.6913 38.4232ZM87.4977 42.68V48.104H89.4977V42.68H87.4977ZM87.4977 48.104C87.4977 47.9267 87.5634 47.823 87.5687 47.8146C87.5755 47.804 87.5578 47.8337 87.4819 47.9023C87.3293 48.0404 87.055 48.235 86.6199 48.4847C85.7583 48.9792 84.4272 49.5993 82.5994 50.3463L83.356 52.1977C85.2082 51.4407 86.6371 50.7808 87.6155 50.2193C88.1004 49.941 88.5161 49.6636 88.8234 49.3857C88.9776 49.2463 89.1324 49.082 89.2541 48.8914C89.3745 48.703 89.4977 48.4333 89.4977 48.104H87.4977ZM82.6035 50.3446C80.7847 51.0786 79.3651 51.624 78.3384 51.9845C77.8241 52.1651 77.4202 52.2951 77.1201 52.3787C76.7847 52.4723 76.6727 52.48 76.6897 52.48V54.48C76.9787 54.48 77.3327 54.3957 77.6572 54.3053C78.0172 54.2049 78.4673 54.0589 79.001 53.8715C80.0703 53.496 81.5227 52.9374 83.3519 52.1994L82.6035 50.3446ZM76.6897 52.48C76.7806 52.48 76.8582 52.5002 76.9156 52.5249C76.9701 52.5482 76.9991 52.5721 77.0045 52.5767C77.0097 52.5812 76.9991 52.573 76.975 52.5421C76.9514 52.5116 76.9198 52.4658 76.8815 52.4001L75.1539 53.4079C75.2966 53.6525 75.4747 53.8997 75.7029 54.0953C75.9378 54.2966 76.272 54.48 76.6897 54.48V52.48ZM76.9256 52.4849C76.7336 52.0689 76.4456 51.4449 76.0616 50.6129L74.2457 51.4511C74.6297 52.2831 74.9177 52.9071 75.1097 53.3231L76.9256 52.4849ZM76.0747 50.6424C75.7094 49.779 75.3357 49.0281 74.951 48.3985L73.2444 49.4415C73.5637 49.9639 73.894 50.621 74.2327 51.4216L76.0747 50.6424ZM74.977 48.4437C74.459 47.4875 73.6517 46.768 72.5137 46.768V48.768C72.6556 48.768 72.9044 48.8165 73.2184 49.3963L74.977 48.4437ZM73.5137 47.768V46.808H71.5137V47.768H73.5137ZM72.9145 47.7242C73.4561 47.4872 74.1665 47.1397 75.038 46.6878L74.1174 44.9122C73.2609 45.3563 72.5953 45.6808 72.1129 45.8918L72.9145 47.7242ZM75.0633 46.6742C76.0686 46.1157 76.8336 45.7018 77.3633 45.4291C77.6297 45.292 77.8253 45.1965 77.9571 45.1374C78.0242 45.1072 78.0608 45.0929 78.0745 45.088C78.1352 45.0663 78.0172 45.12 77.8417 45.12V43.12C77.6262 43.12 77.4392 43.1912 77.4019 43.2045C77.3175 43.2346 77.2272 43.2728 77.1383 43.3126C76.9581 43.3935 76.7257 43.508 76.448 43.6509C75.8897 43.9382 75.1028 44.3643 74.092 44.9258L75.0633 46.6742ZM77.8417 45.12C77.6234 45.12 77.5237 45.0139 77.5618 45.0475C77.5948 45.0766 77.6765 45.1647 77.7985 45.3593C78.0406 45.7453 78.3367 46.3788 78.6807 47.3014L80.5547 46.6026C80.1947 45.6372 79.8428 44.8547 79.4929 44.2967C79.3189 44.0193 79.1185 43.7534 78.8836 43.5465C78.6537 43.3441 78.2999 43.12 77.8417 43.12V45.12ZM78.686 47.3152C79.0615 48.2786 79.4204 49.0554 79.7665 49.6073C79.9382 49.8811 80.1334 50.143 80.3586 50.3475C80.5726 50.5418 80.925 50.784 81.3937 50.784V48.784C81.6383 48.784 81.7487 48.9082 81.7028 48.8665C81.668 48.835 81.5852 48.7429 81.4609 48.5447C81.215 48.1526 80.9098 47.5134 80.5494 46.5888L78.686 47.3152ZM81.3937 50.784C82.0065 50.784 82.5383 50.5312 82.9701 50.1474L81.6413 48.6526C81.4971 48.7808 81.4209 48.784 81.3937 48.784V50.784ZM82.9701 50.1474C83.507 49.6701 83.7377 49.0265 83.7377 48.344H81.7377C81.7377 48.5575 81.6804 48.6179 81.6413 48.6526L82.9701 50.1474ZM83.7377 48.344V42.344H81.7377V48.344H83.7377ZM83.7377 42.344C83.7377 41.5642 83.6351 40.8201 83.3118 40.2384C83.1418 39.9324 82.9023 39.6566 82.5772 39.4615C82.2505 39.2655 81.8925 39.184 81.5377 39.184V41.184C81.5829 41.184 81.5748 41.1925 81.5482 41.1765C81.523 41.1614 81.5335 41.1556 81.5635 41.2096C81.6403 41.3479 81.7377 41.6838 81.7377 42.344H83.7377ZM81.5377 39.184C81.3065 39.184 81.0633 39.2538 80.914 39.2992C80.7247 39.3567 80.4956 39.4377 80.2337 39.5375C79.7078 39.7379 78.999 40.0332 78.1137 40.4195L78.9136 42.2525C79.7884 41.8708 80.4636 41.5901 80.9457 41.4065C81.1878 41.3143 81.3687 41.2513 81.4954 41.2128C81.6621 41.1622 81.6409 41.184 81.5377 41.184V39.184ZM78.1137 40.4195C77.2382 40.8015 76.5652 41.083 76.0887 41.2674C75.8493 41.3601 75.6715 41.4236 75.5486 41.4624C75.3763 41.5168 75.4158 41.488 75.5377 41.488V43.488C75.7715 43.488 76.0191 43.4112 76.1508 43.3696C76.3318 43.3124 76.5541 43.2319 76.8107 43.1326C77.3262 42.933 78.0292 42.6385 78.9136 42.2525L78.1137 40.4195ZM101.539 22.376L100.645 22.8232L100.645 22.8232L101.539 22.376ZM99.9554 21.608H98.9554V22.608H99.9554V21.608ZM99.9554 20.12L99.5686 19.1979L98.9554 19.4551V20.12H99.9554ZM109.795 15.992L110.69 15.5448L110.271 14.7079L109.409 15.0699L109.795 15.992ZM110.563 17.528V18.528H112.181L111.458 17.0808L110.563 17.528ZM108.547 18.776L107.755 18.1663L107.745 18.1788L107.736 18.1917L108.547 18.776ZM108.115 46.856L107.315 47.456L107.328 47.4729L107.341 47.4892L108.115 46.856ZM109.603 47.384H110.603V46.384H109.603V47.384ZM109.603 48.728L110.005 49.6438L110.603 49.3815V48.728H109.603ZM99.8114 53L98.917 53.4472L99.1934 54H99.8114V53ZM99.0434 51.464V50.464H97.4254L98.149 51.9112L99.0434 51.464ZM99.9554 51.128L99.4516 50.2642L99.4349 50.274L99.4186 50.2843L99.9554 51.128ZM100.915 50.36L101.663 51.0244L101.668 51.0185L100.915 50.36ZM102.923 46.856V24.92H100.923V46.856H102.923ZM102.923 24.92C102.923 23.7125 102.801 22.6626 102.434 21.9288L100.645 22.8232C100.79 23.1134 100.923 23.7595 100.923 24.92H102.923ZM102.434 21.9288C101.943 20.9469 100.961 20.608 99.9554 20.608V22.608C100.55 22.608 100.624 22.7811 100.645 22.8232L102.434 21.9288ZM100.955 21.608V20.12H98.9554V21.608H100.955ZM100.342 21.0421L110.182 16.9141L109.409 15.0699L99.5686 19.1979L100.342 21.0421ZM108.901 16.4392L109.669 17.9752L111.458 17.0808L110.69 15.5448L108.901 16.4392ZM110.563 16.528C109.42 16.528 108.488 17.2132 107.755 18.1663L109.34 19.3857C109.887 18.6748 110.299 18.528 110.563 18.528V16.528ZM107.736 18.1917C106.98 19.241 106.683 20.7072 106.683 22.424H108.683C108.683 20.8768 108.962 19.911 109.359 19.3603L107.736 18.1917ZM106.683 22.424V44.984H108.683V22.424H106.683ZM106.683 44.984C106.683 45.9121 106.829 46.8075 107.315 47.456L108.915 46.256C108.826 46.1365 108.683 45.7839 108.683 44.984H106.683ZM107.341 47.4892C107.904 48.1767 108.765 48.384 109.603 48.384V46.384C109.034 46.384 108.903 46.2393 108.889 46.2228L107.341 47.4892ZM108.603 47.384V48.728H110.603V47.384H108.603ZM109.202 47.8122C105.954 49.2361 103.515 50.3038 101.884 51.0154C101.068 51.3713 100.455 51.6377 100.045 51.815C99.8393 51.9038 99.6864 51.9694 99.5847 52.0125C99.5333 52.0343 99.4983 52.0489 99.4773 52.0575C99.4659 52.0622 99.4643 52.0627 99.4684 52.0612C99.4693 52.0608 99.481 52.0563 99.498 52.0506C99.5055 52.0481 99.5257 52.0414 99.5524 52.0342C99.5656 52.0307 99.59 52.0244 99.6212 52.0183C99.6416 52.0143 99.7154 52 99.8114 52V54C99.9077 54 99.9819 53.9856 100.003 53.9816C100.034 53.9754 100.059 53.969 100.073 53.9652C100.101 53.9577 100.123 53.9505 100.133 53.9473C100.154 53.9402 100.171 53.9336 100.179 53.9305C100.198 53.9234 100.217 53.9156 100.233 53.9091C100.267 53.8954 100.312 53.8767 100.365 53.854C100.473 53.8081 100.632 53.7402 100.838 53.651C101.252 53.4723 101.867 53.2047 102.683 52.8486C104.316 52.1362 106.757 51.0679 110.005 49.6438L109.202 47.8122ZM100.706 52.5528L99.9379 51.0168L98.149 51.9112L98.917 53.4472L100.706 52.5528ZM99.0434 52.464C99.5747 52.464 100.071 52.2397 100.492 51.9717L99.4186 50.2843C99.2865 50.3684 99.1869 50.4162 99.1177 50.4417C99.0483 50.4672 99.0268 50.464 99.0434 50.464V52.464ZM100.459 51.9918C100.921 51.7226 101.327 51.4023 101.663 51.0244L100.168 49.6956C99.992 49.8937 99.7581 50.0854 99.4516 50.2642L100.459 51.9918ZM101.668 51.0185C102.566 49.9923 102.923 48.5415 102.923 46.856H100.923C100.923 48.3065 100.609 49.1917 100.163 49.7015L101.668 51.0185ZM111.798 30.728L110.935 31.2319L110.935 31.2319L111.798 30.728ZM110.118 29.576H109.118V30.576H110.118V29.576ZM110.118 28.52L109.977 27.53L109.118 27.6527V28.52H110.118ZM115.35 25.592L115.625 24.6305L115.213 24.5127L114.843 24.7301L115.35 25.592ZM116.166 25.88L115.795 26.8085L115.836 26.825L115.879 26.8378L116.166 25.88ZM117.414 26.792L116.707 27.4991L116.718 27.5098L116.729 27.5202L117.414 26.792ZM118.23 28.568H117.23V30.186L118.678 29.4624L118.23 28.568ZM119.862 27.656L119.369 26.7863L119.366 26.7878L119.862 27.656ZM126.966 27.656L126.134 28.2107L126.134 28.2107L126.966 27.656ZM130.662 49.016H131.662V48.1995L130.862 48.0362L130.662 49.016ZM130.662 50.072L131.151 50.9446L131.662 50.6583V50.072H130.662ZM125.43 53L125.052 53.9255L125.498 54.1081L125.919 53.8726L125.43 53ZM123.462 51.608L122.721 52.2789L122.729 52.2879L122.737 52.2967L123.462 51.608ZM121.926 31.736L120.998 32.1074L121.005 32.1264L121.014 32.1451L121.926 31.736ZM119.814 30.296V29.296H119.724L119.635 29.3121L119.814 30.296ZM118.23 30.584L118.051 29.6001L117.23 29.7494V30.584H118.23ZM120.198 49.208H121.198V48.3843L120.39 48.2265L120.198 49.208ZM120.198 50.264L120.69 51.1349L121.198 50.8479V50.264H120.198ZM115.35 53L114.972 53.9255L115.42 54.1089L115.842 53.8709L115.35 53ZM113.382 51.608L112.641 52.2789L112.649 52.2879L112.657 52.2967L113.382 51.608ZM113.47 49.736V33.464H111.47V49.736H113.47ZM113.47 33.464C113.47 32.2643 113.215 31.1715 112.662 30.2241L110.935 31.2319C111.278 31.8205 111.47 32.5517 111.47 33.464H113.47ZM112.662 30.2241C112.101 29.262 111.26 28.576 110.118 28.576V30.576C110.321 30.576 110.6 30.658 110.935 31.2319L112.662 30.2241ZM111.118 29.576V28.52H109.118V29.576H111.118ZM110.26 29.5099C110.447 29.4832 110.623 29.4026 110.679 29.3778C110.779 29.3335 110.897 29.2757 111.027 29.209C111.29 29.0747 111.643 28.8827 112.083 28.6366C112.964 28.1433 114.224 27.415 115.857 26.4539L114.843 24.7301C113.213 25.689 111.968 26.4087 111.106 26.8914C110.674 27.1333 110.345 27.3113 110.115 27.429C110 27.4883 109.919 27.527 109.868 27.5497C109.773 27.5919 109.846 27.5488 109.977 27.53L110.26 29.5099ZM115.076 26.5535C115.255 26.6049 115.493 26.6878 115.795 26.8085L116.538 24.9515C116.2 24.8162 115.893 24.7071 115.625 24.6305L115.076 26.5535ZM115.879 26.8378C115.879 26.8378 115.901 26.8446 115.947 26.8696C115.992 26.8942 116.052 26.9319 116.128 26.9874C116.282 27.0996 116.474 27.2661 116.707 27.4991L118.121 26.0849C117.599 25.5624 117.032 25.0956 116.454 24.9222L115.879 26.8378ZM116.729 27.5202C117.097 27.8666 117.23 28.204 117.23 28.568H119.23C119.23 27.588 118.82 26.7414 118.1 26.0638L116.729 27.5202ZM118.678 29.4624C118.901 29.3509 119.474 29.0294 120.358 28.5242L119.366 26.7878C118.458 27.3066 117.944 27.5931 117.783 27.6736L118.678 29.4624ZM120.356 28.5257C121.532 27.8582 122.452 27.3675 123.125 27.0465C123.462 26.8855 123.722 26.7747 123.911 26.7063C124.133 26.6258 124.163 26.64 124.086 26.64V24.64C123.786 24.64 123.472 24.7382 123.23 24.8257C122.955 24.9253 122.63 25.0665 122.264 25.2415C121.528 25.5925 120.561 26.1098 119.369 26.7863L120.356 28.5257ZM124.086 26.64C124.616 26.64 125.313 26.9784 126.134 28.2107L127.798 27.1013C126.828 25.6456 125.605 24.64 124.086 24.64V26.64ZM126.134 28.2107C126.967 29.4596 127.31 30.4988 127.31 31.352H129.31C129.31 29.9652 128.758 28.5404 127.798 27.1013L126.134 28.2107ZM127.31 31.352V45.896H129.31V31.352H127.31ZM127.31 45.896C127.31 46.9177 127.538 47.8526 128.1 48.598C128.67 49.3546 129.496 49.7987 130.462 49.9958L130.862 48.0362C130.26 47.9133 129.91 47.6774 129.697 47.394C129.475 47.0994 129.31 46.6343 129.31 45.896H127.31ZM129.662 49.016V50.072H131.662V49.016H129.662ZM130.174 49.1994L124.942 52.1274L125.919 53.8726L131.151 50.9446L130.174 49.1994ZM125.809 52.0745C125.255 51.8479 124.713 51.4731 124.187 50.9193L122.737 52.2967C123.427 53.0229 124.197 53.5761 125.052 53.9255L125.809 52.0745ZM124.204 50.9371C123.671 50.3483 123.55 49.9555 123.55 49.736H121.55C121.55 50.6685 122.038 51.5237 122.721 52.2789L124.204 50.9371ZM123.55 49.736V35.816H121.55V49.736H123.55ZM123.55 35.816C123.55 33.9744 123.341 32.4468 122.839 31.3269L121.014 32.1451C121.344 32.8812 121.55 34.0736 121.55 35.816H123.55ZM122.855 31.3646C122.605 30.74 122.222 30.2037 121.674 29.8298C121.125 29.4554 120.486 29.296 119.814 29.296V31.296C120.167 31.296 120.392 31.3766 120.547 31.4822C120.703 31.5883 120.864 31.772 120.998 32.1074L122.855 31.3646ZM119.635 29.3121L118.051 29.6001L118.409 31.5679L119.993 31.2799L119.635 29.3121ZM117.23 30.584V45.896H119.23V30.584H117.23ZM117.23 45.896C117.23 46.9655 117.407 47.9319 117.863 48.6988C118.343 49.5069 119.084 50.0095 120.007 50.1895L120.39 48.2265C120 48.1505 119.758 47.9731 119.582 47.6772C119.382 47.3401 119.23 46.7785 119.23 45.896H117.23ZM119.198 49.208V50.264H121.198V49.208H119.198ZM119.707 49.3931L114.859 52.1291L115.842 53.8709L120.69 51.1349L119.707 49.3931ZM115.729 52.0745C115.175 51.8479 114.633 51.4731 114.107 50.9193L112.657 52.2967C113.347 53.0229 114.117 53.5761 114.972 53.9255L115.729 52.0745ZM114.124 50.9371C113.591 50.3483 113.47 49.9555 113.47 49.736H111.47C111.47 50.6685 111.958 51.5237 112.641 52.2789L114.124 50.9371Z" fill="#FFD28D"/>
</g>
<g filter="url(#filter1_d_90_3098)">
<path d="M26.2238 77.616C25.3598 77.616 24.4238 77.976 23.4158 78.696V102.096C24.6638 102.096 26.0558 101.712 27.5918 100.944C29.1278 100.128 29.8958 99.288 29.8958 98.424V82.944C29.8958 79.392 28.6718 77.616 26.2238 77.616ZM14.7758 118.656V81.36C14.7758 78.432 13.7918 76.776 11.8238 76.392V74.808L19.0958 70.704C20.0558 71.088 21.0158 71.784 21.9758 72.792C22.9358 73.8 23.4158 74.712 23.4158 75.528C28.6958 72.312 31.7198 70.704 32.4878 70.704C33.2558 70.704 34.4558 71.688 36.0878 73.656C37.7678 75.624 38.6078 77.4 38.6078 78.984V99.216C38.6078 99.6 35.9918 100.824 30.7598 102.888C32.9678 110.328 35.5598 115.344 38.5358 117.936C39.8798 119.04 41.2478 119.592 42.6398 119.592V121.752C38.1758 124.584 35.3438 126 34.1438 126C32.5598 126 30.5438 123.024 28.0958 117.072C25.6958 111.12 24.3998 107.184 24.2078 105.264L23.4158 105.48V114.912C23.4158 116.688 23.6078 117.96 23.9918 118.728C24.3758 119.496 25.1678 119.88 26.3678 119.88V122.112L11.6078 128.304L10.4558 126C11.5118 126 12.5198 125.376 13.4798 124.128C14.3438 122.928 14.7758 121.104 14.7758 118.656ZM46.1419 74.664V72.432C46.1419 72.336 46.8859 72 48.3739 71.424C49.9099 70.848 50.7979 70.56 51.0379 70.56C51.3259 70.56 51.6859 70.872 52.1179 71.496C52.5499 72.12 52.7659 72.768 52.7659 73.44V76.32C52.7659 77.376 52.3099 79.032 51.3979 81.288C50.5339 83.496 49.3819 85.008 47.9419 85.824L45.4939 83.52C46.1179 83.28 46.5739 82.608 46.8619 81.504C47.1979 80.352 47.3659 79.32 47.3659 78.408C47.3659 78.264 47.1499 77.856 46.7179 77.184C46.3339 76.464 46.1419 75.624 46.1419 74.664ZM58.5102 115.128V83.88C58.5102 82.104 58.3182 80.832 57.9342 80.064C57.5502 79.296 56.7582 78.912 55.5582 78.912V76.68L70.3182 70.488L71.4702 72.792C70.4142 72.792 69.4062 73.416 68.4462 74.664C67.5822 75.864 67.1502 77.688 67.1502 80.136V109.584C67.1502 113.424 67.4862 115.728 68.1582 116.496C69.3102 117.936 70.4382 118.8 71.5422 119.088C74.0862 119.664 76.8942 119.952 79.9662 119.952V121.968C73.5822 124.656 69.9342 126 69.0222 126C68.1582 126 66.9582 125.616 65.4222 124.848C63.8862 124.032 62.3502 122.736 60.8142 120.96C59.2782 119.184 58.5102 117.24 58.5102 115.128ZM107.338 94.464V114.84C107.338 116.616 107.626 117.864 108.202 118.584C108.778 119.256 109.666 119.736 110.866 120.024V121.608L103.018 126C101.962 125.568 100.978 124.872 100.066 123.912C99.154 122.904 98.698 121.992 98.698 121.176L89.698 126C89.554 125.904 89.338 125.784 89.05 125.64C88.762 125.448 88.258 125.088 87.538 124.56C86.866 123.984 86.266 123.384 85.738 122.76C84.298 121.176 83.578 119.376 83.578 117.36V105.552C83.578 104.784 84.826 103.8 87.322 102.6C89.818 101.4 92.314 100.416 94.81 99.648L98.626 98.424C98.626 95.688 97.906 93.792 96.466 92.736C95.026 91.632 92.242 91.08 88.114 91.08V88.92C95.554 86.28 99.73 84.96 100.642 84.96C102.226 84.96 103.738 85.992 105.178 88.056C106.618 90.12 107.338 92.256 107.338 94.464ZM92.218 114.768C92.218 116.016 92.578 117.048 93.298 117.864C94.066 118.632 94.906 119.016 95.818 119.016C96.73 119.016 97.69 118.656 98.698 117.936V101.664C97.498 102.096 96.586 102.456 95.962 102.744C95.386 103.032 94.762 103.488 94.09 104.112C92.842 105.264 92.218 107.256 92.218 110.088V114.768ZM114.549 121.104V96.696C114.549 95.112 114.213 93.744 113.541 92.592C112.869 91.44 112.029 90.864 111.021 90.864V89.28C111.357 89.232 113.973 87.768 118.869 84.888C119.205 84.984 119.613 85.128 120.093 85.32C120.573 85.464 121.197 85.92 121.965 86.688C122.781 87.456 123.189 88.344 123.189 89.352C123.477 89.208 124.293 88.752 125.637 87.984C129.189 85.968 131.301 84.96 131.973 84.96C133.509 84.96 134.949 85.968 136.293 87.984C137.637 90 138.309 91.848 138.309 93.528V115.344C138.309 117.984 139.485 119.544 141.837 120.024V121.608L133.989 126C132.933 125.568 131.949 124.872 131.037 123.912C130.125 122.904 129.669 121.968 129.669 121.104V100.224C129.669 97.536 129.357 95.496 128.733 94.104C128.157 92.664 127.101 91.944 125.565 91.944L123.189 92.376V115.344C123.189 118.272 124.173 119.928 126.141 120.312V121.896L118.869 126C117.813 125.568 116.829 124.872 115.917 123.912C115.005 122.904 114.549 121.968 114.549 121.104ZM159.023 70.56C160.319 70.56 162.359 73.704 165.143 79.992C167.927 86.28 169.319 90.624 169.319 93.024V114.984C169.319 116.088 169.607 117.168 170.183 118.224C170.807 119.28 171.671 119.88 172.775 120.024V121.608C172.439 121.656 169.823 123.12 164.927 126C163.823 125.52 162.815 124.824 161.903 123.912C161.039 122.952 160.607 122.064 160.607 121.248C155.471 124.416 152.471 126 151.607 126C151.271 126 150.623 125.64 149.663 124.92C148.751 124.152 147.815 123.072 146.855 121.68C145.943 120.24 145.487 118.776 145.487 117.288V91.584C145.487 91.104 149.543 89.448 157.655 86.616C155.927 82.824 154.535 80.16 153.479 78.624C152.423 77.088 151.391 76.32 150.383 76.32H148.007V74.16C153.335 71.76 157.007 70.56 159.023 70.56ZM157.799 119.376C158.711 119.376 159.647 118.992 160.607 118.224V93.168C160.607 92.88 160.391 92.28 159.959 91.368C159.575 90.408 159.287 89.928 159.095 89.928C157.703 89.928 156.287 90.36 154.847 91.224L154.127 91.656V114.048C154.127 117.6 155.351 119.376 157.799 119.376Z" fill="black"/>
<path d="M23.4158 78.696L22.8345 77.8823L22.4158 78.1814V78.696H23.4158ZM23.4158 102.096H22.4158V103.096H23.4158V102.096ZM27.5918 100.944L28.039 101.838L28.05 101.833L28.0609 101.827L27.5918 100.944ZM11.8238 76.392H10.8238V77.2157L11.6323 77.3735L11.8238 76.392ZM11.8238 74.808L11.3323 73.9371L10.8238 74.2241V74.808H11.8238ZM19.0958 70.704L19.4672 69.7755L19.0219 69.5974L18.6043 69.8331L19.0958 70.704ZM21.9758 72.792L21.2516 73.4817L21.2516 73.4817L21.9758 72.792ZM23.4158 75.528H22.4158V77.308L23.936 76.382L23.4158 75.528ZM36.0878 73.656L35.318 74.2943L35.3226 74.2998L35.3272 74.3053L36.0878 73.656ZM30.7598 102.888L30.3928 101.958L29.5404 102.294L29.8011 103.173L30.7598 102.888ZM38.5358 117.936L37.879 118.69L37.8899 118.7L37.901 118.709L38.5358 117.936ZM42.6398 119.592H43.6398V118.592H42.6398V119.592ZM42.6398 121.752L43.1755 122.596L43.6398 122.302V121.752H42.6398ZM28.0958 117.072L27.1683 117.446L27.1709 117.452L28.0958 117.072ZM24.2078 105.264L25.2028 105.164L25.0852 103.988L23.9447 104.299L24.2078 105.264ZM23.4158 105.48L23.1527 104.515L22.4158 104.716V105.48H23.4158ZM26.3678 119.88H27.3678V118.88H26.3678V119.88ZM26.3678 122.112L26.7546 123.034L27.3678 122.777V122.112H26.3678ZM11.6078 128.304L10.7134 128.751L11.1318 129.588L11.9946 129.226L11.6078 128.304ZM10.4558 126V125H8.83775L9.56135 126.447L10.4558 126ZM13.4798 124.128L14.2724 124.738L14.2821 124.725L14.2913 124.712L13.4798 124.128ZM26.2238 76.616C25.0786 76.616 23.9414 77.0917 22.8345 77.8823L23.997 79.5097C24.9062 78.8603 25.6409 78.616 26.2238 78.616V76.616ZM22.4158 78.696V102.096H24.4158V78.696H22.4158ZM23.4158 103.096C24.8661 103.096 26.4135 102.651 28.039 101.838L27.1446 100.05C25.6981 100.773 24.4614 101.096 23.4158 101.096V103.096ZM28.0609 101.827C28.8823 101.391 29.5673 100.913 30.0578 100.377C30.5556 99.8323 30.8958 99.1765 30.8958 98.424H28.8958C28.8958 98.5355 28.852 98.7317 28.5818 99.0272C28.3043 99.3307 27.8373 99.6812 27.1226 100.061L28.0609 101.827ZM30.8958 98.424V82.944H28.8958V98.424H30.8958ZM30.8958 82.944C30.8958 81.0841 30.581 79.512 29.8012 78.3805C28.9751 77.1819 27.7251 76.616 26.2238 76.616V78.616C27.1704 78.616 27.7565 78.9381 28.1544 79.5155C28.5986 80.16 28.8958 81.2519 28.8958 82.944H30.8958ZM15.7758 118.656V81.36H13.7758V118.656H15.7758ZM15.7758 81.36C15.7758 79.8025 15.5172 78.4541 14.8975 77.4112C14.2533 76.3271 13.2659 75.6545 12.0153 75.4105L11.6323 77.3735C12.3497 77.5135 12.8382 77.8609 13.1781 78.4328C13.5424 79.0459 13.7758 79.9895 13.7758 81.36H15.7758ZM12.8238 76.392V74.808H10.8238V76.392H12.8238ZM12.3153 75.6789L19.5873 71.5749L18.6043 69.8331L11.3323 73.9371L12.3153 75.6789ZM18.7244 71.6325C19.5133 71.948 20.3582 72.5435 21.2516 73.4817L22.6999 72.1023C21.6734 71.0244 20.5983 70.228 19.4672 69.7755L18.7244 71.6325ZM21.2516 73.4817C22.1507 74.4257 22.4158 75.0984 22.4158 75.528H24.4158C24.4158 74.3256 23.7209 73.1743 22.6999 72.1023L21.2516 73.4817ZM23.936 76.382C26.5703 74.7775 28.6269 73.5833 30.1133 72.7929C30.8579 72.397 31.4438 72.1108 31.8792 71.9261C32.0971 71.8337 32.263 71.7729 32.383 71.7367C32.5186 71.6958 32.5388 71.704 32.4878 71.704V69.704C32.2448 69.704 32.0024 69.7625 31.8051 69.822C31.5921 69.8863 31.3544 69.9763 31.0984 70.0849C30.5857 70.3022 29.9416 70.619 29.1743 71.0271C27.6367 71.8447 25.5413 73.0625 22.8956 74.6739L23.936 76.382ZM32.4878 71.704C32.4722 71.704 32.5345 71.7014 32.6976 71.7829C32.856 71.8621 33.0658 71.9989 33.3297 72.2153C33.8589 72.6492 34.5203 73.3324 35.318 74.2943L36.8575 73.0177C36.0233 72.0116 35.2687 71.2188 34.5979 70.6687C33.9725 70.1559 33.2443 69.704 32.4878 69.704V71.704ZM35.3272 74.3053C36.944 76.1992 37.6078 77.7485 37.6078 78.984H39.6078C39.6078 77.0515 38.5916 75.0488 36.8483 73.0067L35.3272 74.3053ZM37.6078 78.984V99.216H39.6078V78.984H37.6078ZM37.6078 99.216C37.6078 98.9627 37.7108 98.7945 37.7459 98.742C37.7872 98.6801 37.8203 98.6523 37.8128 98.6591C37.7986 98.672 37.7368 98.7216 37.5936 98.8096C37.3156 98.9805 36.8659 99.2149 36.222 99.5162C34.9428 100.115 33.0039 100.928 30.3928 101.958L31.1268 103.818C33.7476 102.784 35.7328 101.953 37.0696 101.328C37.7336 101.017 38.265 100.745 38.6409 100.513C38.8248 100.4 39.0082 100.275 39.1575 100.14C39.2317 100.072 39.3262 99.9767 39.4084 99.8537C39.4844 99.7401 39.6078 99.5173 39.6078 99.216H37.6078ZM29.8011 103.173C32.0198 110.649 34.6772 115.901 37.879 118.69L39.1926 117.182C36.4424 114.787 33.9157 110.007 31.7185 102.603L29.8011 103.173ZM37.901 118.709C39.3781 119.922 40.9632 120.592 42.6398 120.592V118.592C41.5324 118.592 40.3815 118.158 39.1705 117.163L37.901 118.709ZM41.6398 119.592V121.752H43.6398V119.592H41.6398ZM42.1041 120.908C39.8845 122.316 38.0929 123.357 36.7206 124.044C36.0341 124.387 35.4689 124.633 35.0184 124.791C34.5513 124.955 34.2753 125 34.1438 125V127C34.6122 127 35.1402 126.868 35.6811 126.678C36.2387 126.482 36.8855 126.197 37.615 125.832C39.0746 125.103 40.931 124.02 43.1755 122.596L42.1041 120.908ZM34.1438 125C34.0685 125 33.865 124.963 33.5119 124.671C33.1634 124.383 32.7478 123.91 32.2717 123.207C31.3209 121.804 30.2355 119.646 29.0206 116.692L27.1709 117.452C28.404 120.45 29.5507 122.756 30.6159 124.329C31.1478 125.114 31.6862 125.757 32.2376 126.213C32.7845 126.665 33.427 127 34.1438 127V125ZM29.0232 116.698C27.8275 113.733 26.9122 111.283 26.2736 109.343C25.6286 107.384 25.2872 106.008 25.2028 105.164L23.2127 105.364C23.3204 106.44 23.723 107.992 24.3739 109.969C25.0314 111.965 25.9641 114.459 27.1683 117.446L29.0232 116.698ZM23.9447 104.299L23.1527 104.515L23.6789 106.445L24.4709 106.229L23.9447 104.299ZM22.4158 105.48V114.912H24.4158V105.48H22.4158ZM22.4158 114.912C22.4158 116.712 22.6025 118.185 23.0974 119.175L24.8862 118.281C24.6131 117.735 24.4158 116.664 24.4158 114.912H22.4158ZM23.0974 119.175C23.7163 120.413 24.962 120.88 26.3678 120.88V118.88C25.3736 118.88 25.0353 118.579 24.8862 118.281L23.0974 119.175ZM25.3678 119.88V122.112H27.3678V119.88H25.3678ZM25.9809 121.19L11.2209 127.382L11.9946 129.226L26.7546 123.034L25.9809 121.19ZM12.5022 127.857L11.3502 125.553L9.56135 126.447L10.7134 128.751L12.5022 127.857ZM10.4558 127C11.9517 127 13.2193 126.107 14.2724 124.738L12.6872 123.518C11.8203 124.645 11.0719 125 10.4558 125V127ZM14.2913 124.712C15.3348 123.263 15.7758 121.189 15.7758 118.656H13.7758C13.7758 121.019 13.3527 122.593 12.6682 123.544L14.2913 124.712ZM48.3739 71.424L48.0228 70.4876L48.0129 70.4914L48.3739 71.424ZM51.3979 81.288L50.4707 80.9132L50.4667 80.9236L51.3979 81.288ZM47.9419 85.824L47.2565 86.5522L47.7934 87.0575L48.4349 86.694L47.9419 85.824ZM45.4939 83.52L45.1349 82.5867L43.65 83.1578L44.8085 84.2482L45.4939 83.52ZM46.8619 81.504L45.9019 81.224L45.8979 81.2377L45.8943 81.2516L46.8619 81.504ZM46.7179 77.184L45.8356 77.6546L45.8547 77.6905L45.8767 77.7248L46.7179 77.184ZM47.1419 74.664V72.432H45.1419V74.664H47.1419ZM47.1419 72.432C47.1419 72.737 47.0029 72.9405 46.9552 73.005C46.8958 73.0856 46.8391 73.1344 46.8194 73.1509C46.7776 73.186 46.755 73.1964 46.7835 73.1798C46.8318 73.1518 46.9343 73.0994 47.1115 73.0194C47.4578 72.863 47.9951 72.6429 48.7349 72.3566L48.0129 70.4914C47.2647 70.7811 46.686 71.017 46.2883 71.1966C46.0936 71.2846 45.9171 71.3702 45.7793 71.4502C45.7148 71.4876 45.6225 71.5445 45.5342 71.6186C45.4912 71.6546 45.4171 71.7211 45.346 71.8173C45.2868 71.8977 45.1419 72.115 45.1419 72.432H47.1419ZM48.725 72.3603C49.4877 72.0743 50.0775 71.8644 50.5004 71.7272C50.7127 71.6584 50.8718 71.6115 50.9838 71.5829C51.1261 71.5466 51.1169 71.56 51.0379 71.56V69.56C50.8389 69.56 50.6287 69.6094 50.489 69.6451C50.319 69.6885 50.1151 69.7496 49.8834 69.8248C49.4183 69.9756 48.7961 70.1977 48.0228 70.4877L48.725 72.3603ZM51.0379 71.56C50.9271 71.56 50.8551 71.5299 50.8336 71.5195C50.8138 71.5099 50.8256 71.5121 50.869 71.5497C50.9597 71.6283 51.1028 71.7866 51.2957 72.0652L52.9401 70.9268C52.701 70.5814 52.4481 70.2717 52.1788 70.0383C51.9276 69.8206 51.5368 69.56 51.0379 69.56V71.56ZM51.2957 72.0652C51.6275 72.5444 51.7659 72.9971 51.7659 73.44H53.7659C53.7659 72.5389 53.4723 71.6956 52.9401 70.9268L51.2957 72.0652ZM51.7659 73.44V76.32H53.7659V73.44H51.7659ZM51.7659 76.32C51.7659 77.1641 51.3813 78.6609 50.4708 80.9132L52.325 81.6628C53.2385 79.4031 53.7659 77.5879 53.7659 76.32H51.7659ZM50.4667 80.9236C49.651 83.0081 48.6184 84.2912 47.4489 84.954L48.4349 86.694C50.1454 85.7248 51.4168 83.9839 52.3291 81.6524L50.4667 80.9236ZM48.6273 85.0958L46.1793 82.7918L44.8085 84.2482L47.2565 86.5522L48.6273 85.0958ZM45.8529 84.4533C46.9393 84.0355 47.517 82.9546 47.8295 81.7564L45.8943 81.2516C45.6308 82.2614 45.2966 82.5245 45.1349 82.5867L45.8529 84.4533ZM47.8219 81.784C48.1766 80.5679 48.3659 79.4392 48.3659 78.408H46.3659C46.3659 79.2008 46.2192 80.1361 45.9019 81.224L47.8219 81.784ZM48.3659 78.408C48.3659 78.1742 48.2913 77.9747 48.2566 77.8861C48.2104 77.768 48.1509 77.6454 48.0877 77.5261C47.9604 77.2857 47.7811 76.9885 47.5591 76.6432L45.8767 77.7248C46.0868 78.0515 46.2314 78.2943 46.3201 78.4619C46.365 78.5466 46.3864 78.595 46.3942 78.6149C46.3979 78.6243 46.3935 78.6148 46.3873 78.5907C46.3825 78.5721 46.3659 78.5049 46.3659 78.408H48.3659ZM47.6003 76.7134C47.3061 76.1618 47.1419 75.4888 47.1419 74.664H45.1419C45.1419 75.7592 45.3617 76.7662 45.8356 77.6546L47.6003 76.7134ZM57.9342 80.064L57.0397 80.5112L57.0397 80.5112L57.9342 80.064ZM55.5582 78.912H54.5582V79.912H55.5582V78.912ZM55.5582 76.68L55.1713 75.7579L54.5582 76.0151V76.68H55.5582ZM70.3182 70.488L71.2126 70.0408L70.7941 69.2039L69.9313 69.5659L70.3182 70.488ZM71.4702 72.792V73.792H73.0882L72.3646 72.3448L71.4702 72.792ZM68.4462 74.664L67.6535 74.0543L67.6439 74.0668L67.6346 74.0797L68.4462 74.664ZM68.1582 116.496L68.939 115.871L68.9253 115.854L68.9107 115.837L68.1582 116.496ZM71.5422 119.088L71.2897 120.056L71.3055 120.06L71.3213 120.063L71.5422 119.088ZM79.9662 119.952H80.9662V118.952H79.9662V119.952ZM79.9662 121.968L80.3542 122.89L80.9662 122.632V121.968H79.9662ZM65.4222 124.848L64.953 125.731L64.9639 125.737L64.9749 125.742L65.4222 124.848ZM60.8142 120.96L60.0578 121.614L60.0578 121.614L60.8142 120.96ZM59.5102 115.128V83.88H57.5102V115.128H59.5102ZM59.5102 83.88C59.5102 82.0805 59.3235 80.6066 58.8286 79.6168L57.0397 80.5112C57.3128 81.0574 57.5102 82.1275 57.5102 83.88H59.5102ZM58.8286 79.6168C58.2096 78.3789 56.9639 77.912 55.5582 77.912V79.912C56.5524 79.912 56.8907 80.2131 57.0397 80.5112L58.8286 79.6168ZM56.5582 78.912V76.68H54.5582V78.912H56.5582ZM55.945 77.6021L70.705 71.4101L69.9313 69.5659L55.1713 75.7579L55.945 77.6021ZM69.4237 70.9352L70.5757 73.2392L72.3646 72.3448L71.2126 70.0408L69.4237 70.9352ZM71.4702 71.792C69.9742 71.792 68.7067 72.6852 67.6535 74.0543L69.2388 75.2737C70.1056 74.1468 70.8541 73.792 71.4702 73.792V71.792ZM67.6346 74.0797C66.5911 75.529 66.1502 77.6032 66.1502 80.136H68.1502C68.1502 77.7728 68.5732 76.199 69.2577 75.2483L67.6346 74.0797ZM66.1502 80.136V109.584H68.1502V80.136H66.1502ZM66.1502 109.584C66.1502 111.526 66.2346 113.116 66.4126 114.336C66.5016 114.947 66.6172 115.487 66.767 115.944C66.9132 116.389 67.1125 116.82 67.4056 117.155L68.9107 115.837C68.8678 115.788 68.7731 115.643 68.6673 115.32C68.5651 115.009 68.4707 114.589 68.3917 114.048C68.2337 112.964 68.1502 111.482 68.1502 109.584H66.1502ZM67.3773 117.121C68.5875 118.633 69.8838 119.689 71.2897 120.056L71.7946 118.12C70.9926 117.911 70.0329 117.239 68.939 115.871L67.3773 117.121ZM71.3213 120.063C73.9492 120.658 76.8326 120.952 79.9662 120.952V118.952C76.9557 118.952 74.2231 118.67 71.763 118.113L71.3213 120.063ZM78.9662 119.952V121.968H80.9662V119.952H78.9662ZM79.5781 121.046C76.3911 122.388 73.8993 123.389 72.0965 124.054C71.194 124.386 70.4762 124.63 69.9364 124.789C69.6664 124.868 69.4514 124.924 69.2864 124.958C69.2044 124.976 69.1404 124.987 69.0924 124.993C69.0426 125 69.0215 125 69.0222 125V127C69.413 127 69.9414 126.872 70.5019 126.707C71.1021 126.53 71.8663 126.27 72.7879 125.93C74.633 125.251 77.1572 124.236 80.3542 122.89L79.5781 121.046ZM69.0222 125C68.4024 125 67.3776 124.708 65.8694 123.954L64.9749 125.742C66.5387 126.524 67.9139 127 69.0222 127V125ZM65.8913 123.965C64.4952 123.223 63.0523 122.019 61.5705 120.306L60.0578 121.614C61.6481 123.453 63.2771 124.841 64.953 125.731L65.8913 123.965ZM61.5705 120.306C60.1728 118.69 59.5102 116.972 59.5102 115.128H57.5102C57.5102 117.508 58.3835 119.678 60.0578 121.614L61.5705 120.306ZM108.202 118.584L107.421 119.209L107.432 119.222L107.443 119.235L108.202 118.584ZM110.866 120.024H111.866V119.236L111.099 119.052L110.866 120.024ZM110.866 121.608L111.354 122.481L111.866 122.194V121.608H110.866ZM103.018 126L102.639 126.926L103.086 127.108L103.506 126.873L103.018 126ZM100.066 123.912L99.3244 124.583L99.3326 124.592L99.341 124.601L100.066 123.912ZM98.698 121.176H99.698V119.505L98.2256 120.295L98.698 121.176ZM89.698 126L89.1433 126.832L89.642 127.165L90.1704 126.881L89.698 126ZM89.05 125.64L88.4953 126.472L88.5471 126.507L88.6028 126.534L89.05 125.64ZM87.538 124.56L86.8872 125.319L86.916 125.344L86.9466 125.366L87.538 124.56ZM85.738 122.76L86.5014 122.114L86.4899 122.1L86.4779 122.087L85.738 122.76ZM94.81 99.648L95.1041 100.604L95.1154 100.6L94.81 99.648ZM98.626 98.424L98.9314 99.3762L99.626 99.1534V98.424H98.626ZM96.466 92.736L95.8575 93.5296L95.866 93.5361L95.8746 93.5424L96.466 92.736ZM88.114 91.08H87.114V92.08H88.114V91.08ZM88.114 88.92L87.7796 87.9776L87.114 88.2137V88.92H88.114ZM105.178 88.056L104.358 88.6282L104.358 88.6282L105.178 88.056ZM93.298 117.864L92.5481 118.526L92.5688 118.549L92.5909 118.571L93.298 117.864ZM98.698 117.936L99.2792 118.75L99.698 118.451V117.936H98.698ZM98.698 101.664H99.698V100.241L98.3592 100.723L98.698 101.664ZM95.962 102.744L95.5429 101.836L95.5287 101.843L95.5148 101.85L95.962 102.744ZM94.09 104.112L94.7683 104.847L94.7704 104.845L94.09 104.112ZM106.338 94.464V114.84H108.338V94.464H106.338ZM106.338 114.84C106.338 116.663 106.621 118.209 107.421 119.209L108.983 117.959C108.631 117.519 108.338 116.569 108.338 114.84H106.338ZM107.443 119.235C108.2 120.119 109.306 120.678 110.633 120.996L111.099 119.052C110.026 118.794 109.356 118.393 108.961 117.933L107.443 119.235ZM109.866 120.024V121.608H111.866V120.024H109.866ZM110.378 120.735L102.53 125.127L103.506 126.873L111.354 122.481L110.378 120.735ZM103.397 125.074C102.491 124.704 101.621 124.097 100.791 123.223L99.341 124.601C100.335 125.647 101.433 126.432 102.639 126.926L103.397 125.074ZM100.808 123.241C99.9586 122.303 99.698 121.624 99.698 121.176H97.698C97.698 122.36 98.3493 123.505 99.3244 124.583L100.808 123.241ZM98.2256 120.295L89.2256 125.119L90.1704 126.881L99.1704 122.057L98.2256 120.295ZM90.2527 125.168C90.0565 125.037 89.7965 124.895 89.4972 124.746L88.6028 126.534C88.8794 126.673 89.0515 126.771 89.1433 126.832L90.2527 125.168ZM89.6047 124.808C89.3376 124.63 88.8503 124.282 88.1293 123.754L86.9466 125.366C87.6657 125.894 88.1863 126.266 88.4953 126.472L89.6047 124.808ZM88.1888 123.801C87.554 123.257 86.9922 122.694 86.5014 122.114L84.9746 123.406C85.5397 124.074 86.178 124.711 86.8872 125.319L88.1888 123.801ZM86.4779 122.087C85.1939 120.675 84.578 119.111 84.578 117.36H82.578C82.578 119.641 83.402 121.677 84.998 123.433L86.4779 122.087ZM84.578 117.36V105.552H82.578V117.36H84.578ZM84.578 105.552C84.578 105.636 84.5443 105.631 84.6265 105.516C84.7079 105.401 84.8637 105.236 85.1331 105.023C85.6724 104.598 86.5323 104.089 87.7553 103.501L86.8887 101.699C85.6156 102.311 84.6035 102.894 83.8948 103.453C83.5403 103.732 83.228 104.032 82.9975 104.355C82.7677 104.678 82.578 105.084 82.578 105.552H84.578ZM87.7553 103.501C90.209 102.322 92.6585 101.356 95.1041 100.604L94.5159 98.6922C91.9694 99.4757 89.427 100.478 86.8887 101.699L87.7553 103.501ZM95.1154 100.6L98.9314 99.3762L98.3205 97.4718L94.5045 98.6958L95.1154 100.6ZM99.626 98.424C99.626 95.5443 98.8685 93.2578 97.0573 91.9296L95.8746 93.5424C96.9435 94.3262 97.626 95.8317 97.626 98.424H99.626ZM97.0744 91.9424C96.183 91.259 94.9586 90.8038 93.4925 90.5131C92.0147 90.2201 90.2167 90.08 88.114 90.08V92.08C90.1393 92.08 91.7972 92.2159 93.1035 92.4749C94.4214 92.7362 95.3089 93.109 95.8575 93.5296L97.0744 91.9424ZM89.114 91.08V88.92H87.114V91.08H89.114ZM88.4484 89.8624C92.1646 88.5438 95.0559 87.5583 97.1274 86.9035C98.1641 86.5758 98.9854 86.3342 99.5971 86.1755C99.9032 86.096 100.147 86.0398 100.335 86.0041C100.428 85.9863 100.501 85.9747 100.557 85.9677C100.584 85.9643 100.605 85.9623 100.621 85.9611C100.636 85.96 100.643 85.96 100.642 85.96V83.96C100.266 83.96 99.7131 84.0792 99.0948 84.2395C98.4346 84.4108 97.5758 84.6642 96.5246 84.9965C94.4201 85.6617 91.5033 86.6562 87.7796 87.9776L88.4484 89.8624ZM100.642 85.96C101.742 85.96 102.992 86.6705 104.358 88.6282L105.998 87.4838C104.484 85.3135 102.71 83.96 100.642 83.96V85.96ZM104.358 88.6282C105.698 90.5487 106.338 92.4884 106.338 94.464H108.338C108.338 92.0236 107.538 89.6913 105.998 87.4838L104.358 88.6282ZM91.218 114.768C91.218 116.222 91.6434 117.5 92.5481 118.526L94.0478 117.202C93.5126 116.596 93.218 115.81 93.218 114.768H91.218ZM92.5909 118.571C93.508 119.488 94.591 120.016 95.818 120.016V118.016C95.221 118.016 94.624 117.776 94.0051 117.157L92.5909 118.571ZM95.818 120.016C97.0013 120.016 98.1612 119.548 99.2792 118.75L98.1167 117.122C97.2187 117.764 96.4586 118.016 95.818 118.016V120.016ZM99.698 117.936V101.664H97.698V117.936H99.698ZM98.3592 100.723C97.1508 101.158 96.2066 101.53 95.5429 101.836L96.381 103.652C96.9653 103.382 97.8451 103.034 99.0367 102.605L98.3592 100.723ZM95.5148 101.85C94.8262 102.194 94.1243 102.715 93.4095 103.379L94.7704 104.845C95.3997 104.261 95.9458 103.87 96.4092 103.638L95.5148 101.85ZM93.4117 103.377C91.8567 104.813 91.218 107.155 91.218 110.088H93.218C93.218 107.357 93.8273 105.715 94.7683 104.847L93.4117 103.377ZM91.218 110.088V114.768H93.218V110.088H91.218ZM113.541 92.592L112.677 93.0959L112.677 93.0959L113.541 92.592ZM111.021 90.864H110.021V91.864H111.021V90.864ZM111.021 89.28L110.88 88.29L110.021 88.4127V89.28H111.021ZM118.869 84.888L119.144 83.9265L118.732 83.8087L118.362 84.0261L118.869 84.888ZM120.093 85.32L119.722 86.2485L119.763 86.265L119.806 86.2778L120.093 85.32ZM121.965 86.688L121.258 87.3951L121.269 87.4058L121.28 87.4162L121.965 86.688ZM123.189 89.352H122.189V90.97L123.636 90.2464L123.189 89.352ZM125.637 87.984L125.144 87.1143L125.141 87.1158L125.637 87.984ZM136.293 87.984L135.461 88.5387L135.461 88.5387L136.293 87.984ZM141.837 120.024H142.837V119.207L142.037 119.044L141.837 120.024ZM141.837 121.608L142.326 122.481L142.837 122.194V121.608H141.837ZM133.989 126L133.611 126.926L134.057 127.108L134.478 126.873L133.989 126ZM131.037 123.912L130.296 124.583L130.304 124.592L130.312 124.601L131.037 123.912ZM128.733 94.104L127.805 94.4754L127.812 94.4944L127.821 94.5131L128.733 94.104ZM125.565 91.944V90.944H125.475L125.386 90.9601L125.565 91.944ZM123.189 92.376L123.01 91.3921L122.189 91.5414V92.376H123.189ZM126.141 120.312H127.141V119.488L126.333 119.331L126.141 120.312ZM126.141 121.896L126.633 122.767L127.141 122.48V121.896H126.141ZM118.869 126L118.491 126.926L118.939 127.109L119.361 126.871L118.869 126ZM115.917 123.912L115.176 124.583L115.184 124.592L115.192 124.601L115.917 123.912ZM115.549 121.104V96.696H113.549V121.104H115.549ZM115.549 96.696C115.549 94.9683 115.182 93.4195 114.405 92.0881L112.677 93.0959C113.245 94.0685 113.549 95.2557 113.549 96.696H115.549ZM114.405 92.0881C113.62 90.742 112.499 89.864 111.021 89.864V91.864C111.56 91.864 112.119 92.138 112.677 93.0959L114.405 92.0881ZM112.021 90.864V89.28H110.021V90.864H112.021ZM111.163 90.2699C111.364 90.2412 111.566 90.1512 111.66 90.1097C111.797 90.0486 111.965 89.9667 112.157 89.8685C112.542 89.6712 113.066 89.3867 113.724 89.0186C115.041 88.2813 116.926 87.191 119.376 85.7499L118.362 84.0261C115.916 85.465 114.045 86.5467 112.747 87.2734C112.097 87.6373 111.598 87.9078 111.245 88.0885C111.067 88.1793 110.937 88.2422 110.849 88.2816C110.716 88.3405 110.762 88.3068 110.88 88.29L111.163 90.2699ZM118.594 85.8495C118.886 85.9329 119.26 86.0638 119.722 86.2485L120.465 84.3915C119.966 84.1922 119.524 84.0351 119.144 83.9265L118.594 85.8495ZM119.806 86.2778C120.028 86.3444 120.501 86.6376 121.258 87.3951L122.672 85.9809C121.894 85.2024 121.119 84.5836 120.381 84.3622L119.806 86.2778ZM121.28 87.4162C121.92 88.0186 122.189 88.652 122.189 89.352H124.189C124.189 88.036 123.643 86.8934 122.651 85.9598L121.28 87.4162ZM123.636 90.2464C123.956 90.0869 124.801 89.6134 126.133 88.8522L125.141 87.1158C123.785 87.8906 122.999 88.3291 122.742 88.4576L123.636 90.2464ZM126.131 88.8537C127.899 87.8502 129.291 87.1075 130.316 86.6185C130.829 86.3735 131.235 86.1997 131.54 86.0893C131.878 85.9668 131.994 85.96 131.973 85.96V83.96C131.617 83.96 131.217 84.0792 130.859 84.2087C130.468 84.3503 129.997 84.5545 129.454 84.8135C128.367 85.3325 126.927 86.1018 125.144 87.1143L126.131 88.8537ZM131.973 85.96C133.015 85.96 134.192 86.6344 135.461 88.5387L137.125 87.4293C135.707 85.3016 134.004 83.96 131.973 83.96V85.96ZM135.461 88.5387C136.742 90.4596 137.309 92.1148 137.309 93.528H139.309C139.309 91.5812 138.533 89.5404 137.125 87.4293L135.461 88.5387ZM137.309 93.528V115.344H139.309V93.528H137.309ZM137.309 115.344C137.309 116.806 137.635 118.091 138.393 119.096C139.159 120.113 140.279 120.727 141.637 121.004L142.037 119.044C141.043 118.841 140.399 118.435 139.99 117.892C139.572 117.337 139.309 116.522 139.309 115.344H137.309ZM140.837 120.024V121.608H142.837V120.024H140.837ZM141.349 120.735L133.501 125.127L134.478 126.873L142.326 122.481L141.349 120.735ZM134.368 125.074C133.462 124.704 132.592 124.097 131.762 123.223L130.312 124.601C131.306 125.647 132.404 126.432 133.611 126.926L134.368 125.074ZM131.779 123.241C130.942 122.316 130.669 121.611 130.669 121.104H128.669C128.669 122.325 129.308 123.492 130.296 124.583L131.779 123.241ZM130.669 121.104V100.224H128.669V121.104H130.669ZM130.669 100.224C130.669 97.4864 130.356 95.2788 129.646 93.6949L127.821 94.5131C128.359 95.7132 128.669 97.5856 128.669 100.224H130.669ZM129.662 93.7326C129.316 92.868 128.797 92.1517 128.073 91.6578C127.347 91.1634 126.493 90.944 125.565 90.944V92.944C126.173 92.944 126.615 93.0846 126.946 93.3102C127.277 93.5363 127.575 93.9 127.805 94.4754L129.662 93.7326ZM125.386 90.9601L123.01 91.3921L123.368 93.3599L125.744 92.9279L125.386 90.9601ZM122.189 92.376V115.344H124.189V92.376H122.189ZM122.189 115.344C122.189 116.901 122.448 118.25 123.068 119.293C123.712 120.377 124.699 121.049 125.95 121.293L126.333 119.331C125.615 119.191 125.127 118.843 124.787 118.271C124.423 117.658 124.189 116.715 124.189 115.344H122.189ZM125.141 120.312V121.896H127.141V120.312H125.141ZM125.65 121.025L118.378 125.129L119.361 126.871L126.633 122.767L125.65 121.025ZM119.248 125.074C118.342 124.704 117.472 124.097 116.642 123.223L115.192 124.601C116.186 125.647 117.284 126.432 118.491 126.926L119.248 125.074ZM116.659 123.241C115.822 122.316 115.549 121.611 115.549 121.104H113.549C113.549 122.325 114.188 123.492 115.176 124.583L116.659 123.241ZM165.143 79.992L166.057 79.5872L166.057 79.5872L165.143 79.992ZM170.183 118.224L169.305 118.703L169.313 118.718L169.322 118.733L170.183 118.224ZM172.775 120.024H173.775V119.146L172.904 119.032L172.775 120.024ZM172.775 121.608L172.916 122.598L173.775 122.475V121.608H172.775ZM164.927 126L164.528 126.917L164.995 127.12L165.434 126.862L164.927 126ZM161.903 123.912L161.159 124.581L161.177 124.601L161.196 124.619L161.903 123.912ZM160.607 121.248H161.607V119.456L160.082 120.397L160.607 121.248ZM149.663 124.92L149.019 125.685L149.04 125.703L149.063 125.72L149.663 124.92ZM146.855 121.68L146.01 122.215L146.02 122.232L146.032 122.248L146.855 121.68ZM157.655 86.616L157.984 87.5601L159.019 87.1988L158.565 86.2013L157.655 86.616ZM148.007 76.32H147.007V77.32H148.007V76.32ZM148.007 74.16L147.596 73.2482L147.007 73.5137V74.16H148.007ZM160.607 118.224L161.231 119.005L161.607 118.705V118.224H160.607ZM159.959 91.368L159.03 91.7394L159.042 91.7681L159.055 91.7961L159.959 91.368ZM154.847 91.224L155.361 92.0815L155.361 92.0815L154.847 91.224ZM154.127 91.656L153.612 90.7985L153.127 91.0898V91.656H154.127ZM159.023 71.56C158.956 71.56 159.087 71.5364 159.448 71.8772C159.782 72.1919 160.196 72.7068 160.686 73.4623C161.662 74.9675 162.843 77.2684 164.228 80.3968L166.057 79.5872C164.658 76.4276 163.427 74.0125 162.364 72.3737C161.834 71.5572 161.32 70.893 160.82 70.4218C160.348 69.9766 159.737 69.56 159.023 69.56V71.56ZM164.228 80.3968C165.612 83.5228 166.641 86.1454 167.322 88.2712C168.01 90.4165 168.319 91.9828 168.319 93.024H170.319C170.319 91.6652 169.932 89.8595 169.227 87.6608C168.516 85.4426 167.457 82.7492 166.057 79.5872L164.228 80.3968ZM168.319 93.024V114.984H170.319V93.024H168.319ZM168.319 114.984C168.319 116.27 168.656 117.513 169.305 118.703L171.061 117.745C170.557 116.823 170.319 115.906 170.319 114.984H168.319ZM169.322 118.733C170.084 120.023 171.202 120.827 172.645 121.016L172.904 119.032C172.139 118.933 171.529 118.537 171.044 117.715L169.322 118.733ZM171.775 120.024V121.608H173.775V120.024H171.775ZM172.633 120.618C172.432 120.647 172.23 120.737 172.136 120.778C171.999 120.839 171.831 120.921 171.639 121.019C171.254 121.217 170.73 121.501 170.072 121.869C168.755 122.607 166.869 123.697 164.42 125.138L165.434 126.862C167.88 125.423 169.751 124.341 171.049 123.615C171.699 123.251 172.198 122.98 172.551 122.8C172.728 122.709 172.859 122.646 172.947 122.606C173.08 122.547 173.034 122.581 172.916 122.598L172.633 120.618ZM165.325 125.083C164.345 124.656 163.44 124.035 162.61 123.205L161.196 124.619C162.19 125.613 163.301 126.384 164.528 126.917L165.325 125.083ZM162.646 123.243C161.856 122.365 161.607 121.708 161.607 121.248H159.607C159.607 122.42 160.222 123.539 161.159 124.581L162.646 123.243ZM160.082 120.397C157.521 121.977 155.509 123.151 154.038 123.928C153.301 124.317 152.717 124.597 152.276 124.778C151.79 124.977 151.605 125 151.607 125V127C152.041 127 152.555 126.825 153.035 126.628C153.56 126.413 154.208 126.099 154.972 125.696C156.501 124.889 158.557 123.687 161.132 122.099L160.082 120.397ZM151.607 125C151.687 125 151.707 125.018 151.64 124.993C151.581 124.972 151.488 124.93 151.354 124.856C151.087 124.707 150.726 124.467 150.263 124.12L149.063 125.72C149.56 126.093 150.003 126.393 150.383 126.604C150.717 126.79 151.16 127 151.607 127V125ZM150.307 124.155C149.485 123.463 148.607 122.459 147.678 121.112L146.032 122.248C147.023 123.685 148.017 124.841 149.019 125.685L150.307 124.155ZM147.7 121.145C146.874 119.841 146.487 118.56 146.487 117.288H144.487C144.487 118.992 145.012 120.639 146.01 122.215L147.7 121.145ZM146.487 117.288V91.584H144.487V117.288H146.487ZM146.487 91.584C146.487 91.8933 146.335 92.0809 146.312 92.109C146.273 92.1568 146.251 92.1683 146.284 92.1438C146.344 92.0975 146.477 92.0128 146.713 91.8883C147.176 91.6444 147.901 91.3184 148.907 90.9078C150.91 90.0899 153.932 88.9747 157.984 87.5601L157.325 85.6719C153.265 87.0893 150.203 88.2181 148.151 89.0562C147.128 89.4736 146.332 89.8286 145.781 90.1187C145.511 90.2612 145.263 90.4068 145.07 90.554C144.975 90.6262 144.859 90.7252 144.757 90.8514C144.671 90.9579 144.487 91.2147 144.487 91.584H146.487ZM158.565 86.2013C156.835 82.4048 155.412 79.6713 154.303 78.0575L152.655 79.1905C153.657 80.6487 155.019 83.2432 156.745 87.0307L158.565 86.2013ZM154.303 78.0575C153.212 76.4709 151.919 75.32 150.383 75.32V77.32C150.863 77.32 151.633 77.7051 152.655 79.1905L154.303 78.0575ZM150.383 75.32H148.007V77.32H150.383V75.32ZM149.007 76.32V74.16H147.007V76.32H149.007ZM148.417 75.0718C151.063 73.8798 153.278 72.9953 155.067 72.4105C156.877 71.8191 158.177 71.56 159.023 71.56V69.56C157.852 69.56 156.308 69.9009 154.446 70.5095C152.564 71.1247 150.278 72.0402 147.596 73.2482L148.417 75.0718ZM157.799 120.376C159.006 120.376 160.156 119.865 161.231 119.005L159.982 117.443C159.138 118.119 158.416 118.376 157.799 118.376V120.376ZM161.607 118.224V93.168H159.607V118.224H161.607ZM161.607 93.168C161.607 92.8363 161.497 92.4723 161.386 92.1633C161.262 91.8207 161.085 91.4104 160.862 90.9399L159.055 91.7961C159.264 92.2376 159.411 92.5833 159.504 92.8407C159.609 93.1317 159.607 93.2117 159.607 93.168H161.607ZM160.887 90.9966C160.689 90.5011 160.498 90.0825 160.312 89.7735C160.222 89.6224 160.107 89.4538 159.964 89.3109C159.849 89.1959 159.55 88.928 159.095 88.928V90.928C158.907 90.928 158.766 90.8691 158.686 90.8247C158.607 90.7813 158.563 90.7382 158.55 90.7251C158.527 90.7022 158.544 90.7136 158.597 90.8025C158.7 90.9735 158.844 91.2749 159.03 91.7394L160.887 90.9966ZM159.095 88.928C157.487 88.928 155.895 89.4286 154.332 90.3665L155.361 92.0815C156.678 91.2914 157.918 90.928 159.095 90.928V88.928ZM154.332 90.3665L153.612 90.7985L154.641 92.5135L155.361 92.0815L154.332 90.3665ZM153.127 91.656V114.048H155.127V91.656H153.127ZM153.127 114.048C153.127 115.908 153.442 117.48 154.221 118.611C155.047 119.81 156.297 120.376 157.799 120.376V118.376C156.852 118.376 156.266 118.054 155.868 117.477C155.424 116.832 155.127 115.74 155.127 114.048H153.127Z" fill="#FFD28D"/>
</g>
<defs>
<filter id="filter0_d_90_3098" x="35.3527" y="0.991943" width="110.31" height="67.488" filterUnits="userSpaceOnUse" color-interpolation-filters="sRGB">
<feFlood flood-opacity="0" result="BackgroundImageFix"/>
<feColorMatrix in="SourceAlpha" type="matrix" values="0 0 0 0 0 0 0 0 0 0 0 0 0 0 0 0 0 0 127 0" result="hardAlpha"/>
<feOffset/>
<feGaussianBlur stdDeviation="7.5"/>
<feComposite in2="hardAlpha" operator="out"/>
<feColorMatrix type="matrix" values="0 0 0 0 0.995833 0 0 0 0 0.434515 0 0 0 0 0.257257 0 0 0 1 0"/>
<feBlend mode="normal" in2="BackgroundImageFix" result="effect1_dropShadow_90_3098"/>
<feBlend mode="normal" in="SourceGraphic" in2="effect1_dropShadow_90_3098" result="shape"/>
</filter>
<filter id="filter1_d_90_3098" x="0.455811" y="60.488" width="182.319" height="77.8159" filterUnits="userSpaceOnUse" color-interpolation-filters="sRGB">
<feFlood flood-opacity="0" result="BackgroundImageFix"/>
<feColorMatrix in="SourceAlpha" type="matrix" values="0 0 0 0 0 0 0 0 0 0 0 0 0 0 0 0 0 0 127 0" result="hardAlpha"/>
<feOffset/>
<feGaussianBlur stdDeviation="5"/>
<feComposite in2="hardAlpha" operator="out"/>
<feColorMatrix type="matrix" values="0 0 0 0 0.996078 0 0 0 0 0.0431373 0 0 0 0 0.0392157 0 0 0 1 0"/>
<feBlend mode="normal" in2="BackgroundImageFix" result="effect1_dropShadow_90_3098"/>
<feBlend mode="normal" in="SourceGraphic" in2="effect1_dropShadow_90_3098" result="shape"/>
</filter>
</defs>
</svg>
