<svg width="179" height="141" viewBox="0 0 179 141" fill="none" xmlns="http://www.w3.org/2000/svg">
<g filter="url(#filter0_f_90_3098)">
<path d="M60.7847 43.008V19.92C60.7847 18.736 60.6567 17.888 60.4007 17.376C60.1447 16.864 59.6167 16.608 58.8167 16.608V15.12L68.6567 10.992L69.4247 12.528C68.7207 12.528 68.0487 12.944 67.4087 13.776C66.8327 14.576 66.5447 15.792 66.5447 17.424V40.128C66.5447 41.184 66.7687 42.096 67.2167 42.864C67.6647 43.632 68.2247 44.016 68.8967 44.016V45.072C68.6727 45.104 66.9287 46.08 63.6647 48C63.4407 47.936 63.1687 47.856 62.8487 47.76C62.5287 47.632 62.0967 47.312 61.5527 46.8C61.0407 46.288 60.7847 45.696 60.7847 45.024C60.5927 45.12 60.0487 45.424 59.1527 45.936C56.7847 47.28 55.3767 47.952 54.9287 47.952C53.9047 47.952 52.9447 47.296 52.0487 45.984C51.1527 44.64 50.7047 43.392 50.7047 42.24V18.096C50.7047 16.336 49.9207 15.296 48.3527 14.976V13.92L53.5847 10.992C54.2887 11.28 54.9447 11.76 55.5527 12.432C56.1607 13.072 56.4647 13.68 56.4647 14.256V37.776C56.4647 39.792 56.7527 41.168 57.3287 41.904C57.9367 42.64 59.0887 43.008 60.7847 43.008ZM73.5377 37.488C72.7377 37.488 72.0497 36.88 71.4737 35.664C70.8977 34.448 70.6097 32.96 70.6097 31.2V26.016C70.6097 25.408 72.2897 24.368 75.6497 22.896C79.0097 21.392 80.9457 20.64 81.4577 20.64C81.7457 20.64 82.0017 20.816 82.2257 21.168C82.4497 21.488 82.6257 21.76 82.7537 21.984C82.8817 22.176 83.0737 22.528 83.3297 23.04C83.6177 23.52 83.8577 23.92 84.0497 24.24C84.4657 25.008 84.9937 25.392 85.6337 25.392V26.352C85.1217 26.576 84.4497 26.912 83.6177 27.36C81.5697 28.48 80.4657 29.04 80.3057 29.04C79.8257 29.04 79.2977 28.256 78.7217 26.688C78.1777 25.12 77.6817 24.336 77.2337 24.336C76.6577 24.336 76.3697 24.816 76.3697 25.776V31.68C76.3697 32.96 76.6577 33.6 77.2337 33.6C77.3617 33.6 78.3537 33.184 80.2097 32.352C82.0657 31.52 83.1857 31.104 83.5697 31.104C84.3377 31.104 85.0097 31.728 85.5857 32.976C86.1937 34.192 86.4977 35.76 86.4977 37.68V43.104C86.4977 43.712 84.6577 44.768 80.9777 46.272C77.3297 47.744 75.2337 48.48 74.6897 48.48C74.4657 48.48 74.2417 48.288 74.0177 47.904C73.8257 47.488 73.5377 46.864 73.1537 46.032C72.8017 45.2 72.4497 44.496 72.0977 43.92C71.6817 43.152 71.1537 42.768 70.5137 42.768V41.808C71.0257 41.584 71.7137 41.248 72.5777 40.8C74.5937 39.68 75.6817 39.12 75.8417 39.12C76.3217 39.12 76.9137 40.064 77.6177 41.952C78.3537 43.84 78.9457 44.784 79.3937 44.784C79.7137 44.784 80.0177 44.656 80.3057 44.4C80.5937 44.144 80.7377 43.792 80.7377 43.344V37.344C80.7377 35.904 80.3377 35.184 79.5377 35.184C79.2817 35.184 78.2737 35.568 76.5137 36.336C74.7537 37.104 73.7617 37.488 73.5377 37.488ZM99.9234 41.856V19.92C99.9234 18.736 99.7954 17.888 99.5394 17.376C99.2834 16.864 98.7554 16.608 97.9554 16.608V15.12L107.795 10.992L108.563 12.528C107.859 12.528 107.187 12.944 106.547 13.776C105.971 14.576 105.683 15.792 105.683 17.424V39.984C105.683 40.848 105.827 41.472 106.115 41.856C106.403 42.208 106.899 42.384 107.603 42.384V43.728C101.107 46.576 97.8434 48 97.8114 48L97.0434 46.464C97.2994 46.464 97.6034 46.352 97.9554 46.128C98.3394 45.904 98.6594 45.648 98.9154 45.36C99.5874 44.592 99.9234 43.424 99.9234 41.856ZM110.47 44.736V28.464C110.47 27.408 110.246 26.496 109.798 25.728C109.35 24.96 108.79 24.576 108.118 24.576V23.52C108.342 23.488 110.086 22.512 113.35 20.592C113.574 20.656 113.846 20.752 114.166 20.88C114.486 20.976 114.902 21.28 115.414 21.792C115.958 22.304 116.23 22.896 116.23 23.568C116.422 23.472 116.966 23.168 117.862 22.656C120.23 21.312 121.638 20.64 122.086 20.64C123.11 20.64 124.07 21.312 124.966 22.656C125.862 24 126.31 25.232 126.31 26.352V40.896C126.31 42.656 127.094 43.696 128.662 44.016V45.072L123.43 48C122.726 47.712 122.07 47.248 121.462 46.608C120.854 45.936 120.55 45.312 120.55 44.736V30.816C120.55 29.024 120.342 27.664 119.926 26.736C119.542 25.776 118.838 25.296 117.814 25.296L116.23 25.584V40.896C116.23 42.848 116.886 43.952 118.198 44.208V45.264L113.35 48C112.646 47.712 111.99 47.248 111.382 46.608C110.774 45.936 110.47 45.312 110.47 44.736Z" fill="#FFAF8D"/>
</g>
<g filter="url(#filter1_f_90_3098)">
<path d="M24.2238 72.616C23.3598 72.616 22.4238 72.976 21.4158 73.696V97.096C22.6638 97.096 24.0558 96.712 25.5918 95.944C27.1278 95.128 27.8958 94.288 27.8958 93.424V77.944C27.8958 74.392 26.6718 72.616 24.2238 72.616ZM12.7758 113.656V76.36C12.7758 73.432 11.7918 71.776 9.82378 71.392V69.808L17.0958 65.704C18.0558 66.088 19.0158 66.784 19.9758 67.792C20.9358 68.8 21.4158 69.712 21.4158 70.528C26.6958 67.312 29.7198 65.704 30.4878 65.704C31.2558 65.704 32.4558 66.688 34.0878 68.656C35.7678 70.624 36.6078 72.4 36.6078 73.984V94.216C36.6078 94.6 33.9918 95.824 28.7598 97.888C30.9678 105.328 33.5598 110.344 36.5358 112.936C37.8798 114.04 39.2478 114.592 40.6398 114.592V116.752C36.1758 119.584 33.3438 121 32.1438 121C30.5598 121 28.5438 118.024 26.0958 112.072C23.6958 106.12 22.3998 102.184 22.2078 100.264L21.4158 100.48V109.912C21.4158 111.688 21.6078 112.96 21.9918 113.728C22.3758 114.496 23.1678 114.88 24.3678 114.88V117.112L9.60778 123.304L8.45578 121C9.51178 121 10.5198 120.376 11.4798 119.128C12.3438 117.928 12.7758 116.104 12.7758 113.656ZM44.1419 69.664V67.432C44.1419 67.336 44.8859 67 46.3739 66.424C47.9099 65.848 48.7979 65.56 49.0379 65.56C49.3259 65.56 49.6859 65.872 50.1179 66.496C50.5499 67.12 50.7659 67.768 50.7659 68.44V71.32C50.7659 72.376 50.3099 74.032 49.3979 76.288C48.5339 78.496 47.3819 80.008 45.9419 80.824L43.4939 78.52C44.1179 78.28 44.5739 77.608 44.8619 76.504C45.1979 75.352 45.3659 74.32 45.3659 73.408C45.3659 73.264 45.1499 72.856 44.7179 72.184C44.3339 71.464 44.1419 70.624 44.1419 69.664ZM56.5102 110.128V78.88C56.5102 77.104 56.3182 75.832 55.9342 75.064C55.5502 74.296 54.7582 73.912 53.5582 73.912V71.68L68.3182 65.488L69.4702 67.792C68.4142 67.792 67.4062 68.416 66.4462 69.664C65.5822 70.864 65.1502 72.688 65.1502 75.136V104.584C65.1502 108.424 65.4862 110.728 66.1582 111.496C67.3102 112.936 68.4382 113.8 69.5422 114.088C72.0862 114.664 74.8942 114.952 77.9662 114.952V116.968C71.5822 119.656 67.9342 121 67.0222 121C66.1582 121 64.9582 120.616 63.4222 119.848C61.8862 119.032 60.3502 117.736 58.8142 115.96C57.2782 114.184 56.5102 112.24 56.5102 110.128ZM105.338 89.464V109.84C105.338 111.616 105.626 112.864 106.202 113.584C106.778 114.256 107.666 114.736 108.866 115.024V116.608L101.018 121C99.962 120.568 98.978 119.872 98.066 118.912C97.154 117.904 96.698 116.992 96.698 116.176L87.698 121C87.554 120.904 87.338 120.784 87.05 120.64C86.762 120.448 86.258 120.088 85.538 119.56C84.866 118.984 84.266 118.384 83.738 117.76C82.298 116.176 81.578 114.376 81.578 112.36V100.552C81.578 99.784 82.826 98.8 85.322 97.6C87.818 96.4 90.314 95.416 92.81 94.648L96.626 93.424C96.626 90.688 95.906 88.792 94.466 87.736C93.026 86.632 90.242 86.08 86.114 86.08V83.92C93.554 81.28 97.73 79.96 98.642 79.96C100.226 79.96 101.738 80.992 103.178 83.056C104.618 85.12 105.338 87.256 105.338 89.464ZM90.218 109.768C90.218 111.016 90.578 112.048 91.298 112.864C92.066 113.632 92.906 114.016 93.818 114.016C94.73 114.016 95.69 113.656 96.698 112.936V96.664C95.498 97.096 94.586 97.456 93.962 97.744C93.386 98.032 92.762 98.488 92.09 99.112C90.842 100.264 90.218 102.256 90.218 105.088V109.768ZM112.549 116.104V91.696C112.549 90.112 112.213 88.744 111.541 87.592C110.869 86.44 110.029 85.864 109.021 85.864V84.28C109.357 84.232 111.973 82.768 116.869 79.888C117.205 79.984 117.613 80.128 118.093 80.32C118.573 80.464 119.197 80.92 119.965 81.688C120.781 82.456 121.189 83.344 121.189 84.352C121.477 84.208 122.293 83.752 123.637 82.984C127.189 80.968 129.301 79.96 129.973 79.96C131.509 79.96 132.949 80.968 134.293 82.984C135.637 85 136.309 86.848 136.309 88.528V110.344C136.309 112.984 137.485 114.544 139.837 115.024V116.608L131.989 121C130.933 120.568 129.949 119.872 129.037 118.912C128.125 117.904 127.669 116.968 127.669 116.104V95.224C127.669 92.536 127.357 90.496 126.733 89.104C126.157 87.664 125.101 86.944 123.565 86.944L121.189 87.376V110.344C121.189 113.272 122.173 114.928 124.141 115.312V116.896L116.869 121C115.813 120.568 114.829 119.872 113.917 118.912C113.005 117.904 112.549 116.968 112.549 116.104ZM157.023 65.56C158.319 65.56 160.359 68.704 163.143 74.992C165.927 81.28 167.319 85.624 167.319 88.024V109.984C167.319 111.088 167.607 112.168 168.183 113.224C168.807 114.28 169.671 114.88 170.775 115.024V116.608C170.439 116.656 167.823 118.12 162.927 121C161.823 120.52 160.815 119.824 159.903 118.912C159.039 117.952 158.607 117.064 158.607 116.248C153.471 119.416 150.471 121 149.607 121C149.271 121 148.623 120.64 147.663 119.92C146.751 119.152 145.815 118.072 144.855 116.68C143.943 115.24 143.487 113.776 143.487 112.288V86.584C143.487 86.104 147.543 84.448 155.655 81.616C153.927 77.824 152.535 75.16 151.479 73.624C150.423 72.088 149.391 71.32 148.383 71.32H146.007V69.16C151.335 66.76 155.007 65.56 157.023 65.56ZM155.799 114.376C156.711 114.376 157.647 113.992 158.607 113.224V88.168C158.607 87.88 158.391 87.28 157.959 86.368C157.575 85.408 157.287 84.928 157.095 84.928C155.703 84.928 154.287 85.36 152.847 86.224L152.127 86.656V109.048C152.127 112.6 153.351 114.376 155.799 114.376Z" fill="#FFAF8D"/>
</g>
<path d="M60.7847 43.008V19.92C60.7847 18.736 60.6567 17.888 60.4007 17.376C60.1447 16.864 59.6167 16.608 58.8167 16.608V15.12L68.6567 10.992L69.4247 12.528C68.7207 12.528 68.0487 12.944 67.4087 13.776C66.8327 14.576 66.5447 15.792 66.5447 17.424V40.128C66.5447 41.184 66.7687 42.096 67.2167 42.864C67.6647 43.632 68.2247 44.016 68.8967 44.016V45.072C68.6727 45.104 66.9287 46.08 63.6647 48C63.4407 47.936 63.1687 47.856 62.8487 47.76C62.5287 47.632 62.0967 47.312 61.5527 46.8C61.0407 46.288 60.7847 45.696 60.7847 45.024C60.5927 45.12 60.0487 45.424 59.1527 45.936C56.7847 47.28 55.3767 47.952 54.9287 47.952C53.9047 47.952 52.9447 47.296 52.0487 45.984C51.1527 44.64 50.7047 43.392 50.7047 42.24V18.096C50.7047 16.336 49.9207 15.296 48.3527 14.976V13.92L53.5847 10.992C54.2887 11.28 54.9447 11.76 55.5527 12.432C56.1607 13.072 56.4647 13.68 56.4647 14.256V37.776C56.4647 39.792 56.7527 41.168 57.3287 41.904C57.9367 42.64 59.0887 43.008 60.7847 43.008ZM73.5377 37.488C72.7377 37.488 72.0497 36.88 71.4737 35.664C70.8977 34.448 70.6097 32.96 70.6097 31.2V26.016C70.6097 25.408 72.2897 24.368 75.6497 22.896C79.0097 21.392 80.9457 20.64 81.4577 20.64C81.7457 20.64 82.0017 20.816 82.2257 21.168C82.4497 21.488 82.6257 21.76 82.7537 21.984C82.8817 22.176 83.0737 22.528 83.3297 23.04C83.6177 23.52 83.8577 23.92 84.0497 24.24C84.4657 25.008 84.9937 25.392 85.6337 25.392V26.352C85.1217 26.576 84.4497 26.912 83.6177 27.36C81.5697 28.48 80.4657 29.04 80.3057 29.04C79.8257 29.04 79.2977 28.256 78.7217 26.688C78.1777 25.12 77.6817 24.336 77.2337 24.336C76.6577 24.336 76.3697 24.816 76.3697 25.776V31.68C76.3697 32.96 76.6577 33.6 77.2337 33.6C77.3617 33.6 78.3537 33.184 80.2097 32.352C82.0657 31.52 83.1857 31.104 83.5697 31.104C84.3377 31.104 85.0097 31.728 85.5857 32.976C86.1937 34.192 86.4977 35.76 86.4977 37.68V43.104C86.4977 43.712 84.6577 44.768 80.9777 46.272C77.3297 47.744 75.2337 48.48 74.6897 48.48C74.4657 48.48 74.2417 48.288 74.0177 47.904C73.8257 47.488 73.5377 46.864 73.1537 46.032C72.8017 45.2 72.4497 44.496 72.0977 43.92C71.6817 43.152 71.1537 42.768 70.5137 42.768V41.808C71.0257 41.584 71.7137 41.248 72.5777 40.8C74.5937 39.68 75.6817 39.12 75.8417 39.12C76.3217 39.12 76.9137 40.064 77.6177 41.952C78.3537 43.84 78.9457 44.784 79.3937 44.784C79.7137 44.784 80.0177 44.656 80.3057 44.4C80.5937 44.144 80.7377 43.792 80.7377 43.344V37.344C80.7377 35.904 80.3377 35.184 79.5377 35.184C79.2817 35.184 78.2737 35.568 76.5137 36.336C74.7537 37.104 73.7617 37.488 73.5377 37.488ZM99.9234 41.856V19.92C99.9234 18.736 99.7954 17.888 99.5394 17.376C99.2834 16.864 98.7554 16.608 97.9554 16.608V15.12L107.795 10.992L108.563 12.528C107.859 12.528 107.187 12.944 106.547 13.776C105.971 14.576 105.683 15.792 105.683 17.424V39.984C105.683 40.848 105.827 41.472 106.115 41.856C106.403 42.208 106.899 42.384 107.603 42.384V43.728C101.107 46.576 97.8434 48 97.8114 48L97.0434 46.464C97.2994 46.464 97.6034 46.352 97.9554 46.128C98.3394 45.904 98.6594 45.648 98.9154 45.36C99.5874 44.592 99.9234 43.424 99.9234 41.856ZM110.47 44.736V28.464C110.47 27.408 110.246 26.496 109.798 25.728C109.35 24.96 108.79 24.576 108.118 24.576V23.52C108.342 23.488 110.086 22.512 113.35 20.592C113.574 20.656 113.846 20.752 114.166 20.88C114.486 20.976 114.902 21.28 115.414 21.792C115.958 22.304 116.23 22.896 116.23 23.568C116.422 23.472 116.966 23.168 117.862 22.656C120.23 21.312 121.638 20.64 122.086 20.64C123.11 20.64 124.07 21.312 124.966 22.656C125.862 24 126.31 25.232 126.31 26.352V40.896C126.31 42.656 127.094 43.696 128.662 44.016V45.072L123.43 48C122.726 47.712 122.07 47.248 121.462 46.608C120.854 45.936 120.55 45.312 120.55 44.736V30.816C120.55 29.024 120.342 27.664 119.926 26.736C119.542 25.776 118.838 25.296 117.814 25.296L116.23 25.584V40.896C116.23 42.848 116.886 43.952 118.198 44.208V45.264L113.35 48C112.646 47.712 111.99 47.248 111.382 46.608C110.774 45.936 110.47 45.312 110.47 44.736Z" fill="white"/>
<path d="M24.2238 72.616C23.3598 72.616 22.4238 72.976 21.4158 73.696V97.096C22.6638 97.096 24.0558 96.712 25.5918 95.944C27.1278 95.128 27.8958 94.288 27.8958 93.424V77.944C27.8958 74.392 26.6718 72.616 24.2238 72.616ZM12.7758 113.656V76.36C12.7758 73.432 11.7918 71.776 9.82378 71.392V69.808L17.0958 65.704C18.0558 66.088 19.0158 66.784 19.9758 67.792C20.9358 68.8 21.4158 69.712 21.4158 70.528C26.6958 67.312 29.7198 65.704 30.4878 65.704C31.2558 65.704 32.4558 66.688 34.0878 68.656C35.7678 70.624 36.6078 72.4 36.6078 73.984V94.216C36.6078 94.6 33.9918 95.824 28.7598 97.888C30.9678 105.328 33.5598 110.344 36.5358 112.936C37.8798 114.04 39.2478 114.592 40.6398 114.592V116.752C36.1758 119.584 33.3438 121 32.1438 121C30.5598 121 28.5438 118.024 26.0958 112.072C23.6958 106.12 22.3998 102.184 22.2078 100.264L21.4158 100.48V109.912C21.4158 111.688 21.6078 112.96 21.9918 113.728C22.3758 114.496 23.1678 114.88 24.3678 114.88V117.112L9.60778 123.304L8.45578 121C9.51178 121 10.5198 120.376 11.4798 119.128C12.3438 117.928 12.7758 116.104 12.7758 113.656ZM44.1419 69.664V67.432C44.1419 67.336 44.8859 67 46.3739 66.424C47.9099 65.848 48.7979 65.56 49.0379 65.56C49.3259 65.56 49.6859 65.872 50.1179 66.496C50.5499 67.12 50.7659 67.768 50.7659 68.44V71.32C50.7659 72.376 50.3099 74.032 49.3979 76.288C48.5339 78.496 47.3819 80.008 45.9419 80.824L43.4939 78.52C44.1179 78.28 44.5739 77.608 44.8619 76.504C45.1979 75.352 45.3659 74.32 45.3659 73.408C45.3659 73.264 45.1499 72.856 44.7179 72.184C44.3339 71.464 44.1419 70.624 44.1419 69.664ZM56.5102 110.128V78.88C56.5102 77.104 56.3182 75.832 55.9342 75.064C55.5502 74.296 54.7582 73.912 53.5582 73.912V71.68L68.3182 65.488L69.4702 67.792C68.4142 67.792 67.4062 68.416 66.4462 69.664C65.5822 70.864 65.1502 72.688 65.1502 75.136V104.584C65.1502 108.424 65.4862 110.728 66.1582 111.496C67.3102 112.936 68.4382 113.8 69.5422 114.088C72.0862 114.664 74.8942 114.952 77.9662 114.952V116.968C71.5822 119.656 67.9342 121 67.0222 121C66.1582 121 64.9582 120.616 63.4222 119.848C61.8862 119.032 60.3502 117.736 58.8142 115.96C57.2782 114.184 56.5102 112.24 56.5102 110.128ZM105.338 89.464V109.84C105.338 111.616 105.626 112.864 106.202 113.584C106.778 114.256 107.666 114.736 108.866 115.024V116.608L101.018 121C99.962 120.568 98.978 119.872 98.066 118.912C97.154 117.904 96.698 116.992 96.698 116.176L87.698 121C87.554 120.904 87.338 120.784 87.05 120.64C86.762 120.448 86.258 120.088 85.538 119.56C84.866 118.984 84.266 118.384 83.738 117.76C82.298 116.176 81.578 114.376 81.578 112.36V100.552C81.578 99.784 82.826 98.8 85.322 97.6C87.818 96.4 90.314 95.416 92.81 94.648L96.626 93.424C96.626 90.688 95.906 88.792 94.466 87.736C93.026 86.632 90.242 86.08 86.114 86.08V83.92C93.554 81.28 97.73 79.96 98.642 79.96C100.226 79.96 101.738 80.992 103.178 83.056C104.618 85.12 105.338 87.256 105.338 89.464ZM90.218 109.768C90.218 111.016 90.578 112.048 91.298 112.864C92.066 113.632 92.906 114.016 93.818 114.016C94.73 114.016 95.69 113.656 96.698 112.936V96.664C95.498 97.096 94.586 97.456 93.962 97.744C93.386 98.032 92.762 98.488 92.09 99.112C90.842 100.264 90.218 102.256 90.218 105.088V109.768ZM112.549 116.104V91.696C112.549 90.112 112.213 88.744 111.541 87.592C110.869 86.44 110.029 85.864 109.021 85.864V84.28C109.357 84.232 111.973 82.768 116.869 79.888C117.205 79.984 117.613 80.128 118.093 80.32C118.573 80.464 119.197 80.92 119.965 81.688C120.781 82.456 121.189 83.344 121.189 84.352C121.477 84.208 122.293 83.752 123.637 82.984C127.189 80.968 129.301 79.96 129.973 79.96C131.509 79.96 132.949 80.968 134.293 82.984C135.637 85 136.309 86.848 136.309 88.528V110.344C136.309 112.984 137.485 114.544 139.837 115.024V116.608L131.989 121C130.933 120.568 129.949 119.872 129.037 118.912C128.125 117.904 127.669 116.968 127.669 116.104V95.224C127.669 92.536 127.357 90.496 126.733 89.104C126.157 87.664 125.101 86.944 123.565 86.944L121.189 87.376V110.344C121.189 113.272 122.173 114.928 124.141 115.312V116.896L116.869 121C115.813 120.568 114.829 119.872 113.917 118.912C113.005 117.904 112.549 116.968 112.549 116.104ZM157.023 65.56C158.319 65.56 160.359 68.704 163.143 74.992C165.927 81.28 167.319 85.624 167.319 88.024V109.984C167.319 111.088 167.607 112.168 168.183 113.224C168.807 114.28 169.671 114.88 170.775 115.024V116.608C170.439 116.656 167.823 118.12 162.927 121C161.823 120.52 160.815 119.824 159.903 118.912C159.039 117.952 158.607 117.064 158.607 116.248C153.471 119.416 150.471 121 149.607 121C149.271 121 148.623 120.64 147.663 119.92C146.751 119.152 145.815 118.072 144.855 116.68C143.943 115.24 143.487 113.776 143.487 112.288V86.584C143.487 86.104 147.543 84.448 155.655 81.616C153.927 77.824 152.535 75.16 151.479 73.624C150.423 72.088 149.391 71.32 148.383 71.32H146.007V69.16C151.335 66.76 155.007 65.56 157.023 65.56ZM155.799 114.376C156.711 114.376 157.647 113.992 158.607 113.224V88.168C158.607 87.88 158.391 87.28 157.959 86.368C157.575 85.408 157.287 84.928 157.095 84.928C155.703 84.928 154.287 85.36 152.847 86.224L152.127 86.656V109.048C152.127 112.6 153.351 114.376 155.799 114.376Z" fill="white"/>
<defs>
<filter id="filter0_f_90_3098" x="40.3527" y="2.99194" width="96.3096" height="53.488" filterUnits="userSpaceOnUse" color-interpolation-filters="sRGB">
<feFlood flood-opacity="0" result="BackgroundImageFix"/>
<feBlend mode="normal" in="SourceGraphic" in2="BackgroundImageFix" result="shape"/>
<feGaussianBlur stdDeviation="4" result="effect1_foregroundBlur_90_3098"/>
</filter>
<filter id="filter1_f_90_3098" x="0.455811" y="57.488" width="178.319" height="73.8159" filterUnits="userSpaceOnUse" color-interpolation-filters="sRGB">
<feFlood flood-opacity="0" result="BackgroundImageFix"/>
<feBlend mode="normal" in="SourceGraphic" in2="BackgroundImageFix" result="shape"/>
<feGaussianBlur stdDeviation="4" result="effect1_foregroundBlur_90_3098"/>
</filter>
</defs>
</svg>
